%TF.GenerationSoftware,KiCad,Pcbnew,(5.1.8)-1*%
%TF.CreationDate,2021-01-23T22:08:16+01:00*%
%TF.ProjectId,ISA_INTERCONNECT,4953415f-494e-4544-9552-434f4e4e4543,rev?*%
%TF.SameCoordinates,Original*%
%TF.FileFunction,Copper,L1,Top*%
%TF.FilePolarity,Positive*%
%FSLAX46Y46*%
G04 Gerber Fmt 4.6, Leading zero omitted, Abs format (unit mm)*
G04 Created by KiCad (PCBNEW (5.1.8)-1) date 2021-01-23 22:08:16*
%MOMM*%
%LPD*%
G01*
G04 APERTURE LIST*
%TA.AperFunction,ConnectorPad*%
%ADD10R,1.780000X7.620000*%
%TD*%
%TA.AperFunction,ViaPad*%
%ADD11C,0.800000*%
%TD*%
%TA.AperFunction,Conductor*%
%ADD12C,0.500000*%
%TD*%
G04 APERTURE END LIST*
D10*
%TO.P,J2,32*%
%TO.N,32*%
X193740000Y-91520000D03*
%TO.P,J2,33*%
%TO.N,33*%
X191200000Y-91520000D03*
%TO.P,J2,34*%
%TO.N,34*%
X188660000Y-91520000D03*
%TO.P,J2,35*%
%TO.N,35*%
X186120000Y-91520000D03*
%TO.P,J2,36*%
%TO.N,36*%
X183580000Y-91520000D03*
%TO.P,J2,37*%
%TO.N,37*%
X181040000Y-91520000D03*
%TO.P,J2,38*%
%TO.N,38*%
X178500000Y-91520000D03*
%TO.P,J2,39*%
%TO.N,39*%
X175960000Y-91520000D03*
%TO.P,J2,40*%
%TO.N,40*%
X173420000Y-91520000D03*
%TO.P,J2,41*%
%TO.N,41*%
X170880000Y-91520000D03*
%TO.P,J2,42*%
%TO.N,42*%
X168340000Y-91520000D03*
%TO.P,J2,43*%
%TO.N,43*%
X165800000Y-91520000D03*
%TO.P,J2,44*%
%TO.N,44*%
X163260000Y-91520000D03*
%TO.P,J2,45*%
%TO.N,45*%
X160720000Y-91520000D03*
%TO.P,J2,46*%
%TO.N,46*%
X158180000Y-91520000D03*
%TO.P,J2,47*%
%TO.N,47*%
X155640000Y-91520000D03*
%TO.P,J2,48*%
%TO.N,48*%
X153100000Y-91520000D03*
%TO.P,J2,49*%
%TO.N,49*%
X150560000Y-91520000D03*
%TO.P,J2,50*%
%TO.N,50*%
X148020000Y-91520000D03*
%TO.P,J2,51*%
%TO.N,51*%
X145480000Y-91520000D03*
%TO.P,J2,52*%
%TO.N,52*%
X142940000Y-91520000D03*
%TO.P,J2,53*%
%TO.N,53*%
X140400000Y-91520000D03*
%TO.P,J2,54*%
%TO.N,54*%
X137860000Y-91520000D03*
%TO.P,J2,55*%
%TO.N,55*%
X135320000Y-91520000D03*
%TO.P,J2,56*%
%TO.N,56*%
X132780000Y-91520000D03*
%TO.P,J2,57*%
%TO.N,57*%
X130240000Y-91520000D03*
%TO.P,J2,58*%
%TO.N,58*%
X127700000Y-91520000D03*
%TO.P,J2,59*%
%TO.N,59*%
X125160000Y-91520000D03*
%TO.P,J2,60*%
%TO.N,60*%
X122620000Y-91520000D03*
%TO.P,J2,61*%
%TO.N,61*%
X120080000Y-91520000D03*
%TO.P,J2,62*%
%TO.N,62*%
X117540000Y-91520000D03*
%TO.P,J2,81*%
%TO.N,81*%
X107380000Y-91520000D03*
%TO.P,J2,82*%
%TO.N,82*%
X104840000Y-91520000D03*
%TO.P,J2,83*%
%TO.N,83*%
X102300000Y-91520000D03*
%TO.P,J2,84*%
%TO.N,84*%
X99760000Y-91520000D03*
%TO.P,J2,85*%
%TO.N,85*%
X97220000Y-91520000D03*
%TO.P,J2,86*%
%TO.N,86*%
X94680000Y-91520000D03*
%TO.P,J2,87*%
%TO.N,87*%
X92140000Y-91520000D03*
%TO.P,J2,88*%
%TO.N,88*%
X89600000Y-91520000D03*
%TO.P,J2,89*%
%TO.N,89*%
X87060000Y-91520000D03*
%TO.P,J2,90*%
%TO.N,90*%
X84520000Y-91520000D03*
%TO.P,J2,91*%
%TO.N,91*%
X81980000Y-91520000D03*
%TO.P,J2,92*%
%TO.N,92*%
X79440000Y-91520000D03*
%TO.P,J2,93*%
%TO.N,93*%
X76900000Y-91520000D03*
%TO.P,J2,94*%
%TO.N,94*%
X74360000Y-91520000D03*
%TO.P,J2,95*%
%TO.N,95*%
X71820000Y-91520000D03*
%TO.P,J2,96*%
%TO.N,96*%
X69280000Y-91520000D03*
%TO.P,J2,97*%
%TO.N,97*%
X66740000Y-91520000D03*
%TO.P,J2,98*%
%TO.N,98*%
X64200000Y-91520000D03*
%TD*%
%TO.P,J1,1*%
%TO.N,1*%
X193740000Y-76830000D03*
%TO.P,J1,2*%
%TO.N,2*%
X191200000Y-76830000D03*
%TO.P,J1,3*%
%TO.N,3*%
X188660000Y-76830000D03*
%TO.P,J1,4*%
%TO.N,4*%
X186120000Y-76830000D03*
%TO.P,J1,5*%
%TO.N,5*%
X183580000Y-76830000D03*
%TO.P,J1,6*%
%TO.N,6*%
X181040000Y-76830000D03*
%TO.P,J1,7*%
%TO.N,7*%
X178500000Y-76830000D03*
%TO.P,J1,8*%
%TO.N,8*%
X175960000Y-76830000D03*
%TO.P,J1,9*%
%TO.N,9*%
X173420000Y-76830000D03*
%TO.P,J1,10*%
%TO.N,10*%
X170880000Y-76830000D03*
%TO.P,J1,11*%
%TO.N,11*%
X168340000Y-76830000D03*
%TO.P,J1,12*%
%TO.N,12*%
X165800000Y-76830000D03*
%TO.P,J1,13*%
%TO.N,13*%
X163260000Y-76830000D03*
%TO.P,J1,14*%
%TO.N,14*%
X160720000Y-76830000D03*
%TO.P,J1,15*%
%TO.N,15*%
X158180000Y-76830000D03*
%TO.P,J1,16*%
%TO.N,16*%
X155640000Y-76830000D03*
%TO.P,J1,17*%
%TO.N,17*%
X153100000Y-76830000D03*
%TO.P,J1,18*%
%TO.N,18*%
X150560000Y-76830000D03*
%TO.P,J1,19*%
%TO.N,19*%
X148020000Y-76830000D03*
%TO.P,J1,20*%
%TO.N,20*%
X145480000Y-76830000D03*
%TO.P,J1,21*%
%TO.N,21*%
X142940000Y-76830000D03*
%TO.P,J1,22*%
%TO.N,22*%
X140400000Y-76830000D03*
%TO.P,J1,23*%
%TO.N,23*%
X137860000Y-76830000D03*
%TO.P,J1,24*%
%TO.N,24*%
X135320000Y-76830000D03*
%TO.P,J1,25*%
%TO.N,25*%
X132780000Y-76830000D03*
%TO.P,J1,26*%
%TO.N,26*%
X130240000Y-76830000D03*
%TO.P,J1,27*%
%TO.N,27*%
X127700000Y-76830000D03*
%TO.P,J1,28*%
%TO.N,28*%
X125160000Y-76830000D03*
%TO.P,J1,29*%
%TO.N,29*%
X122620000Y-76830000D03*
%TO.P,J1,30*%
%TO.N,30*%
X120080000Y-76830000D03*
%TO.P,J1,31*%
%TO.N,31*%
X117540000Y-76830000D03*
%TO.P,J1,63*%
%TO.N,63*%
X107380000Y-76830000D03*
%TO.P,J1,64*%
%TO.N,64*%
X104840000Y-76830000D03*
%TO.P,J1,65*%
%TO.N,65*%
X102300000Y-76830000D03*
%TO.P,J1,66*%
%TO.N,66*%
X99760000Y-76830000D03*
%TO.P,J1,67*%
%TO.N,67*%
X97220000Y-76830000D03*
%TO.P,J1,68*%
%TO.N,68*%
X94680000Y-76830000D03*
%TO.P,J1,69*%
%TO.N,69*%
X92140000Y-76830000D03*
%TO.P,J1,70*%
%TO.N,70*%
X89600000Y-76830000D03*
%TO.P,J1,71*%
%TO.N,71*%
X87060000Y-76830000D03*
%TO.P,J1,72*%
%TO.N,72*%
X84520000Y-76830000D03*
%TO.P,J1,73*%
%TO.N,73*%
X81980000Y-76830000D03*
%TO.P,J1,74*%
%TO.N,74*%
X79440000Y-76830000D03*
%TO.P,J1,75*%
%TO.N,75*%
X76900000Y-76830000D03*
%TO.P,J1,76*%
%TO.N,76*%
X74360000Y-76830000D03*
%TO.P,J1,77*%
%TO.N,77*%
X71820000Y-76830000D03*
%TO.P,J1,78*%
%TO.N,78*%
X69280000Y-76830000D03*
%TO.P,J1,79*%
%TO.N,79*%
X66740000Y-76830000D03*
%TO.P,J1,80*%
%TO.N,80*%
X64200000Y-76830000D03*
%TD*%
D11*
%TO.N,98*%
X63420000Y-83010000D03*
%TO.N,90*%
X83700000Y-83120000D03*
%TO.N,54*%
X137060000Y-83110000D03*
%TO.N,62*%
X116780000Y-83000000D03*
%TO.N,44*%
X162480000Y-83030000D03*
%TO.N,36*%
X182760000Y-83140000D03*
%TO.N,94*%
X73560000Y-82990000D03*
%TO.N,96*%
X68550000Y-83000000D03*
%TO.N,97*%
X65960000Y-83020000D03*
%TO.N,95*%
X71090000Y-83010000D03*
%TO.N,93*%
X76100000Y-83000000D03*
%TO.N,91*%
X81230000Y-82990000D03*
%TO.N,83*%
X101510000Y-83100000D03*
%TO.N,85*%
X96380000Y-83110000D03*
%TO.N,89*%
X86240000Y-83130000D03*
%TO.N,87*%
X91370000Y-83120000D03*
%TO.N,81*%
X106590000Y-83060000D03*
%TO.N,51*%
X144730000Y-83110000D03*
%TO.N,53*%
X139600000Y-83120000D03*
%TO.N,47*%
X154870000Y-83090000D03*
%TO.N,55*%
X134590000Y-82980000D03*
%TO.N,57*%
X129460000Y-82990000D03*
%TO.N,49*%
X149740000Y-83100000D03*
%TO.N,61*%
X119320000Y-83010000D03*
%TO.N,59*%
X124450000Y-83000000D03*
%TO.N,45*%
X159950000Y-83050000D03*
%TO.N,35*%
X185300000Y-83150000D03*
%TO.N,43*%
X165020000Y-83040000D03*
%TO.N,41*%
X170150000Y-83030000D03*
%TO.N,37*%
X180290000Y-83010000D03*
%TO.N,33*%
X190430000Y-83140000D03*
%TO.N,39*%
X175160000Y-83020000D03*
%TO.N,92*%
X78690000Y-82980000D03*
%TO.N,84*%
X98970000Y-83090000D03*
%TO.N,88*%
X88830000Y-83110000D03*
%TO.N,82*%
X104050000Y-83050000D03*
%TO.N,56*%
X132050000Y-82970000D03*
%TO.N,52*%
X142190000Y-83100000D03*
%TO.N,48*%
X152330000Y-83080000D03*
%TO.N,60*%
X121910000Y-82990000D03*
%TO.N,46*%
X157410000Y-83040000D03*
%TO.N,34*%
X187890000Y-83130000D03*
%TO.N,42*%
X167610000Y-83020000D03*
%TO.N,38*%
X177750000Y-83000000D03*
%TO.N,86*%
X93840000Y-83100000D03*
%TO.N,50*%
X147200000Y-83090000D03*
%TO.N,58*%
X126920000Y-82980000D03*
%TO.N,32*%
X192900000Y-83120000D03*
%TO.N,40*%
X172620000Y-83010000D03*
%TO.N,80*%
X64810000Y-85150000D03*
%TO.N,78*%
X69940000Y-85140000D03*
%TO.N,76*%
X74950000Y-85130000D03*
%TO.N,74*%
X80080000Y-85120000D03*
%TO.N,66*%
X100360000Y-85230000D03*
%TO.N,68*%
X95230000Y-85240000D03*
%TO.N,72*%
X85090000Y-85260000D03*
%TO.N,70*%
X90220000Y-85250000D03*
%TO.N,64*%
X105440000Y-85190000D03*
%TO.N,19*%
X148590000Y-85230000D03*
%TO.N,21*%
X143580000Y-85240000D03*
%TO.N,17*%
X153720000Y-85220000D03*
%TO.N,25*%
X133440000Y-85110000D03*
%TO.N,27*%
X128310000Y-85120000D03*
%TO.N,23*%
X138450000Y-85250000D03*
%TO.N,31*%
X118170000Y-85140000D03*
%TO.N,29*%
X123300000Y-85130000D03*
%TO.N,15*%
X158800000Y-85180000D03*
%TO.N,7*%
X179140000Y-85140000D03*
%TO.N,5*%
X184150000Y-85280000D03*
%TO.N,11*%
X169000000Y-85160000D03*
%TO.N,1*%
X194290000Y-85260000D03*
%TO.N,3*%
X189280000Y-85270000D03*
%TO.N,13*%
X163870000Y-85170000D03*
%TO.N,9*%
X174010000Y-85150000D03*
%TO.N,79*%
X67350000Y-85160000D03*
%TO.N,77*%
X72480000Y-85150000D03*
%TO.N,75*%
X77490000Y-85140000D03*
%TO.N,73*%
X82620000Y-85130000D03*
%TO.N,65*%
X102900000Y-85240000D03*
%TO.N,67*%
X97770000Y-85250000D03*
%TO.N,71*%
X87630000Y-85270000D03*
%TO.N,69*%
X92760000Y-85260000D03*
%TO.N,63*%
X107980000Y-85200000D03*
%TO.N,20*%
X146120000Y-85250000D03*
%TO.N,16*%
X156260000Y-85230000D03*
%TO.N,24*%
X135980000Y-85120000D03*
%TO.N,22*%
X140990000Y-85260000D03*
%TO.N,26*%
X130850000Y-85130000D03*
%TO.N,18*%
X151130000Y-85240000D03*
%TO.N,30*%
X120710000Y-85150000D03*
%TO.N,28*%
X125840000Y-85140000D03*
%TO.N,14*%
X161340000Y-85190000D03*
%TO.N,8*%
X176550000Y-85160000D03*
%TO.N,2*%
X191820000Y-85280000D03*
%TO.N,10*%
X171540000Y-85170000D03*
%TO.N,4*%
X186690000Y-85290000D03*
%TO.N,12*%
X166410000Y-85180000D03*
%TO.N,6*%
X181680000Y-85150000D03*
%TD*%
D12*
%TO.N,98*%
X63420000Y-83010000D02*
X63420000Y-85560000D01*
X64200000Y-86340000D02*
X64200000Y-91520000D01*
X63420000Y-85560000D02*
X64200000Y-86340000D01*
%TO.N,97*%
X65960000Y-83020000D02*
X65960000Y-85570000D01*
X65960000Y-85570000D02*
X66740000Y-86350000D01*
%TO.N,95*%
X71090000Y-85560000D02*
X71870000Y-86340000D01*
X71090000Y-83010000D02*
X71090000Y-85560000D01*
%TO.N,91*%
X81230000Y-85540000D02*
X82010000Y-86320000D01*
X81230000Y-82990000D02*
X81230000Y-85540000D01*
%TO.N,93*%
X76100000Y-85550000D02*
X76880000Y-86330000D01*
X76100000Y-83000000D02*
X76100000Y-85550000D01*
%TO.N,87*%
X91370000Y-85670000D02*
X92150000Y-86450000D01*
X91370000Y-83120000D02*
X91370000Y-85670000D01*
%TO.N,89*%
X86240000Y-85680000D02*
X87020000Y-86460000D01*
X86240000Y-83130000D02*
X86240000Y-85680000D01*
%TO.N,90*%
X83700000Y-83120000D02*
X83700000Y-85670000D01*
X83700000Y-85670000D02*
X84480000Y-86450000D01*
%TO.N,83*%
X101510000Y-85650000D02*
X102290000Y-86430000D01*
X101510000Y-83100000D02*
X101510000Y-85650000D01*
%TO.N,85*%
X96380000Y-85660000D02*
X97160000Y-86440000D01*
X96380000Y-83110000D02*
X96380000Y-85660000D01*
%TO.N,81*%
X106590000Y-85610000D02*
X107370000Y-86390000D01*
X106590000Y-83060000D02*
X106590000Y-85610000D01*
%TO.N,59*%
X124450000Y-85550000D02*
X125230000Y-86330000D01*
X124450000Y-83000000D02*
X124450000Y-85550000D01*
%TO.N,61*%
X119320000Y-85560000D02*
X120100000Y-86340000D01*
X119320000Y-83010000D02*
X119320000Y-85560000D01*
%TO.N,62*%
X116780000Y-83000000D02*
X116780000Y-85550000D01*
X116780000Y-85550000D02*
X117560000Y-86330000D01*
%TO.N,55*%
X134590000Y-85530000D02*
X135370000Y-86310000D01*
X134590000Y-82980000D02*
X134590000Y-85530000D01*
%TO.N,57*%
X129460000Y-85540000D02*
X130240000Y-86320000D01*
X129460000Y-82990000D02*
X129460000Y-85540000D01*
%TO.N,51*%
X144730000Y-85660000D02*
X145510000Y-86440000D01*
%TO.N,53*%
X139600000Y-85670000D02*
X140380000Y-86450000D01*
X139600000Y-83120000D02*
X139600000Y-85670000D01*
%TO.N,54*%
X137060000Y-83110000D02*
X137060000Y-85660000D01*
X137060000Y-85660000D02*
X137840000Y-86440000D01*
%TO.N,47*%
X154870000Y-85640000D02*
X155650000Y-86420000D01*
%TO.N,51*%
X144730000Y-83110000D02*
X144730000Y-85660000D01*
%TO.N,49*%
X149740000Y-83100000D02*
X149740000Y-85650000D01*
%TO.N,47*%
X154870000Y-83090000D02*
X154870000Y-85640000D01*
%TO.N,49*%
X149740000Y-85650000D02*
X150520000Y-86430000D01*
%TO.N,45*%
X159950000Y-85600000D02*
X160730000Y-86380000D01*
X159950000Y-83050000D02*
X159950000Y-85600000D01*
%TO.N,41*%
X170150000Y-85580000D02*
X170930000Y-86360000D01*
X170150000Y-83030000D02*
X170150000Y-85580000D01*
%TO.N,43*%
X165020000Y-85590000D02*
X165800000Y-86370000D01*
%TO.N,44*%
X162480000Y-83030000D02*
X162480000Y-85580000D01*
%TO.N,37*%
X180290000Y-83010000D02*
X180290000Y-85560000D01*
%TO.N,44*%
X162480000Y-85580000D02*
X163260000Y-86360000D01*
%TO.N,37*%
X180290000Y-85560000D02*
X181070000Y-86340000D01*
%TO.N,43*%
X165020000Y-83040000D02*
X165020000Y-85590000D01*
%TO.N,39*%
X175160000Y-85570000D02*
X175940000Y-86350000D01*
%TO.N,33*%
X190430000Y-83140000D02*
X190430000Y-85690000D01*
%TO.N,35*%
X185300000Y-83150000D02*
X185300000Y-85700000D01*
%TO.N,36*%
X182760000Y-85690000D02*
X183540000Y-86470000D01*
X182760000Y-83140000D02*
X182760000Y-85690000D01*
%TO.N,33*%
X190430000Y-85690000D02*
X191210000Y-86470000D01*
%TO.N,35*%
X185300000Y-85700000D02*
X186080000Y-86480000D01*
%TO.N,39*%
X175160000Y-83020000D02*
X175160000Y-85570000D01*
%TO.N,94*%
X73560000Y-82990000D02*
X73560000Y-85540000D01*
X73560000Y-85540000D02*
X74340000Y-86320000D01*
%TO.N,96*%
X68550000Y-83000000D02*
X68550000Y-85550000D01*
X68550000Y-85550000D02*
X69330000Y-86330000D01*
%TO.N,97*%
X66740000Y-86350000D02*
X66740000Y-91520000D01*
%TO.N,92*%
X78690000Y-82980000D02*
X78690000Y-85530000D01*
X78690000Y-85530000D02*
X79470000Y-86310000D01*
%TO.N,88*%
X88830000Y-83110000D02*
X88830000Y-85660000D01*
X88830000Y-85660000D02*
X89610000Y-86440000D01*
%TO.N,84*%
X98970000Y-85640000D02*
X99750000Y-86420000D01*
X98970000Y-83090000D02*
X98970000Y-85640000D01*
%TO.N,82*%
X104050000Y-85600000D02*
X104830000Y-86380000D01*
X104050000Y-83050000D02*
X104050000Y-85600000D01*
%TO.N,60*%
X121910000Y-82990000D02*
X121910000Y-85540000D01*
X121910000Y-85540000D02*
X122690000Y-86320000D01*
%TO.N,56*%
X132050000Y-85520000D02*
X132830000Y-86300000D01*
X132050000Y-82970000D02*
X132050000Y-85520000D01*
%TO.N,52*%
X142190000Y-85650000D02*
X142970000Y-86430000D01*
X142190000Y-83100000D02*
X142190000Y-85650000D01*
%TO.N,48*%
X152330000Y-85630000D02*
X153110000Y-86410000D01*
X152330000Y-83080000D02*
X152330000Y-85630000D01*
%TO.N,46*%
X157410000Y-83040000D02*
X157410000Y-85590000D01*
X157410000Y-85590000D02*
X158190000Y-86370000D01*
%TO.N,42*%
X167610000Y-85570000D02*
X168390000Y-86350000D01*
X167610000Y-83020000D02*
X167610000Y-85570000D01*
%TO.N,38*%
X177750000Y-85550000D02*
X178530000Y-86330000D01*
X177750000Y-83000000D02*
X177750000Y-85550000D01*
%TO.N,34*%
X187890000Y-83130000D02*
X187890000Y-85680000D01*
X187890000Y-85680000D02*
X188670000Y-86460000D01*
%TO.N,96*%
X69330000Y-91470000D02*
X69280000Y-91520000D01*
X69330000Y-86330000D02*
X69330000Y-91470000D01*
%TO.N,95*%
X71870000Y-91470000D02*
X71820000Y-91520000D01*
X71870000Y-86340000D02*
X71870000Y-91470000D01*
%TO.N,86*%
X93840000Y-83100000D02*
X93840000Y-85650000D01*
X93840000Y-85650000D02*
X94620000Y-86430000D01*
%TO.N,58*%
X126920000Y-82980000D02*
X126920000Y-85530000D01*
X126920000Y-85530000D02*
X127700000Y-86310000D01*
%TO.N,50*%
X147200000Y-85640000D02*
X147980000Y-86420000D01*
X147200000Y-83090000D02*
X147200000Y-85640000D01*
%TO.N,32*%
X192900000Y-85670000D02*
X193680000Y-86450000D01*
%TO.N,40*%
X172620000Y-85560000D02*
X173400000Y-86340000D01*
%TO.N,32*%
X192900000Y-83120000D02*
X192900000Y-85670000D01*
%TO.N,40*%
X172620000Y-83010000D02*
X172620000Y-85560000D01*
%TO.N,94*%
X74340000Y-91500000D02*
X74360000Y-91520000D01*
X74340000Y-86320000D02*
X74340000Y-91500000D01*
%TO.N,93*%
X76880000Y-91500000D02*
X76900000Y-91520000D01*
X76880000Y-86330000D02*
X76880000Y-91500000D01*
%TO.N,92*%
X79470000Y-91490000D02*
X79440000Y-91520000D01*
X79470000Y-86310000D02*
X79470000Y-91490000D01*
%TO.N,91*%
X82010000Y-91490000D02*
X81980000Y-91520000D01*
X82010000Y-86320000D02*
X82010000Y-91490000D01*
%TO.N,90*%
X84480000Y-91480000D02*
X84520000Y-91520000D01*
X84480000Y-86450000D02*
X84480000Y-91480000D01*
%TO.N,89*%
X87020000Y-91480000D02*
X87060000Y-91520000D01*
X87020000Y-86460000D02*
X87020000Y-91480000D01*
%TO.N,88*%
X89610000Y-91510000D02*
X89600000Y-91520000D01*
X89610000Y-86440000D02*
X89610000Y-91510000D01*
%TO.N,87*%
X92150000Y-91510000D02*
X92140000Y-91520000D01*
X92150000Y-86450000D02*
X92150000Y-91510000D01*
%TO.N,86*%
X94620000Y-91460000D02*
X94680000Y-91520000D01*
X94620000Y-86430000D02*
X94620000Y-91460000D01*
%TO.N,85*%
X97160000Y-91460000D02*
X97220000Y-91520000D01*
X97160000Y-86440000D02*
X97160000Y-91460000D01*
%TO.N,84*%
X99750000Y-91510000D02*
X99760000Y-91520000D01*
X99750000Y-86420000D02*
X99750000Y-91510000D01*
%TO.N,83*%
X102290000Y-91510000D02*
X102300000Y-91520000D01*
X102290000Y-86430000D02*
X102290000Y-91510000D01*
%TO.N,82*%
X104830000Y-91510000D02*
X104840000Y-91520000D01*
X104830000Y-86380000D02*
X104830000Y-91510000D01*
%TO.N,81*%
X107370000Y-91510000D02*
X107380000Y-91520000D01*
X107370000Y-86390000D02*
X107370000Y-91510000D01*
%TO.N,80*%
X64200000Y-76830000D02*
X64200000Y-82410000D01*
X64810000Y-83020000D02*
X64810000Y-85150000D01*
X64200000Y-82410000D02*
X64810000Y-83020000D01*
%TO.N,79*%
X67350000Y-83030000D02*
X67350000Y-85160000D01*
X66740000Y-82420000D02*
X67350000Y-83030000D01*
%TO.N,78*%
X69940000Y-83010000D02*
X69940000Y-85140000D01*
X69330000Y-82400000D02*
X69940000Y-83010000D01*
%TO.N,77*%
X71870000Y-82410000D02*
X72480000Y-83020000D01*
X72480000Y-83020000D02*
X72480000Y-85150000D01*
%TO.N,73*%
X82620000Y-83000000D02*
X82620000Y-85130000D01*
%TO.N,74*%
X79470000Y-82380000D02*
X80080000Y-82990000D01*
%TO.N,73*%
X82010000Y-82390000D02*
X82620000Y-83000000D01*
%TO.N,74*%
X80080000Y-82990000D02*
X80080000Y-85120000D01*
%TO.N,76*%
X74950000Y-83000000D02*
X74950000Y-85130000D01*
X74340000Y-82390000D02*
X74950000Y-83000000D01*
%TO.N,75*%
X76880000Y-82400000D02*
X77490000Y-83010000D01*
X77490000Y-83010000D02*
X77490000Y-85140000D01*
%TO.N,69*%
X92760000Y-83130000D02*
X92760000Y-85260000D01*
%TO.N,70*%
X89610000Y-82510000D02*
X90220000Y-83120000D01*
%TO.N,69*%
X92150000Y-82520000D02*
X92760000Y-83130000D01*
%TO.N,70*%
X90220000Y-83120000D02*
X90220000Y-85250000D01*
%TO.N,72*%
X85090000Y-83130000D02*
X85090000Y-85260000D01*
X84480000Y-82520000D02*
X85090000Y-83130000D01*
%TO.N,71*%
X87020000Y-82530000D02*
X87630000Y-83140000D01*
X87630000Y-83140000D02*
X87630000Y-85270000D01*
%TO.N,66*%
X100360000Y-83100000D02*
X100360000Y-85230000D01*
X99750000Y-82490000D02*
X100360000Y-83100000D01*
%TO.N,68*%
X95230000Y-83110000D02*
X95230000Y-85240000D01*
X94620000Y-82500000D02*
X95230000Y-83110000D01*
%TO.N,65*%
X102900000Y-83110000D02*
X102900000Y-85240000D01*
X102290000Y-82500000D02*
X102900000Y-83110000D01*
%TO.N,67*%
X97160000Y-82510000D02*
X97770000Y-83120000D01*
X97770000Y-83120000D02*
X97770000Y-85250000D01*
%TO.N,64*%
X105440000Y-83060000D02*
X105440000Y-85190000D01*
%TO.N,63*%
X107370000Y-82460000D02*
X107980000Y-83070000D01*
%TO.N,64*%
X104830000Y-82450000D02*
X105440000Y-83060000D01*
%TO.N,63*%
X107980000Y-83070000D02*
X107980000Y-85200000D01*
%TO.N,28*%
X125840000Y-83010000D02*
X125840000Y-85140000D01*
%TO.N,29*%
X122690000Y-82390000D02*
X123300000Y-83000000D01*
%TO.N,28*%
X125230000Y-82400000D02*
X125840000Y-83010000D01*
%TO.N,29*%
X123300000Y-83000000D02*
X123300000Y-85130000D01*
%TO.N,31*%
X118170000Y-83010000D02*
X118170000Y-85140000D01*
X117560000Y-82400000D02*
X118170000Y-83010000D01*
%TO.N,30*%
X120100000Y-82410000D02*
X120710000Y-83020000D01*
X120710000Y-83020000D02*
X120710000Y-85150000D01*
%TO.N,25*%
X133440000Y-82980000D02*
X133440000Y-85110000D01*
X132830000Y-82370000D02*
X133440000Y-82980000D01*
%TO.N,27*%
X128310000Y-82990000D02*
X128310000Y-85120000D01*
X127700000Y-82380000D02*
X128310000Y-82990000D01*
%TO.N,24*%
X135980000Y-82990000D02*
X135980000Y-85120000D01*
X135370000Y-82380000D02*
X135980000Y-82990000D01*
%TO.N,26*%
X130240000Y-82390000D02*
X130850000Y-83000000D01*
X130850000Y-83000000D02*
X130850000Y-85130000D01*
%TO.N,21*%
X143580000Y-83110000D02*
X143580000Y-85240000D01*
%TO.N,23*%
X138450000Y-83120000D02*
X138450000Y-85250000D01*
X137840000Y-82510000D02*
X138450000Y-83120000D01*
%TO.N,20*%
X145510000Y-82510000D02*
X146120000Y-83120000D01*
%TO.N,21*%
X142970000Y-82500000D02*
X143580000Y-83110000D01*
%TO.N,22*%
X140380000Y-82520000D02*
X140990000Y-83130000D01*
X140990000Y-83130000D02*
X140990000Y-85260000D01*
%TO.N,17*%
X153720000Y-83090000D02*
X153720000Y-85220000D01*
%TO.N,20*%
X146120000Y-83120000D02*
X146120000Y-85250000D01*
%TO.N,16*%
X155650000Y-82490000D02*
X156260000Y-83100000D01*
%TO.N,19*%
X148590000Y-83100000D02*
X148590000Y-85230000D01*
%TO.N,18*%
X150520000Y-82500000D02*
X151130000Y-83110000D01*
%TO.N,19*%
X147980000Y-82490000D02*
X148590000Y-83100000D01*
%TO.N,17*%
X153110000Y-82480000D02*
X153720000Y-83090000D01*
%TO.N,18*%
X151130000Y-83110000D02*
X151130000Y-85240000D01*
%TO.N,16*%
X156260000Y-83100000D02*
X156260000Y-85230000D01*
%TO.N,14*%
X160730000Y-82450000D02*
X161340000Y-83060000D01*
%TO.N,15*%
X158190000Y-82440000D02*
X158800000Y-83050000D01*
%TO.N,14*%
X161340000Y-83060000D02*
X161340000Y-85190000D01*
%TO.N,15*%
X158800000Y-83050000D02*
X158800000Y-85180000D01*
%TO.N,13*%
X163260000Y-82430000D02*
X163870000Y-83040000D01*
%TO.N,12*%
X166410000Y-83050000D02*
X166410000Y-85180000D01*
%TO.N,7*%
X179140000Y-83010000D02*
X179140000Y-85140000D01*
X178530000Y-82400000D02*
X179140000Y-83010000D01*
%TO.N,11*%
X169000000Y-83030000D02*
X169000000Y-85160000D01*
%TO.N,10*%
X170930000Y-82430000D02*
X171540000Y-83040000D01*
X171540000Y-83040000D02*
X171540000Y-85170000D01*
%TO.N,12*%
X165800000Y-82440000D02*
X166410000Y-83050000D01*
%TO.N,9*%
X174010000Y-83020000D02*
X174010000Y-85150000D01*
X173400000Y-82410000D02*
X174010000Y-83020000D01*
%TO.N,11*%
X168390000Y-82420000D02*
X169000000Y-83030000D01*
%TO.N,6*%
X181680000Y-83020000D02*
X181680000Y-85150000D01*
X181070000Y-82410000D02*
X181680000Y-83020000D01*
%TO.N,13*%
X163870000Y-83040000D02*
X163870000Y-85170000D01*
%TO.N,1*%
X193680000Y-82520000D02*
X194290000Y-83130000D01*
%TO.N,2*%
X191210000Y-82540000D02*
X191820000Y-83150000D01*
%TO.N,8*%
X175940000Y-82420000D02*
X176550000Y-83030000D01*
%TO.N,4*%
X186690000Y-83160000D02*
X186690000Y-85290000D01*
%TO.N,2*%
X191820000Y-83150000D02*
X191820000Y-85280000D01*
%TO.N,1*%
X194290000Y-83130000D02*
X194290000Y-85260000D01*
%TO.N,5*%
X183540000Y-82540000D02*
X184150000Y-83150000D01*
X184150000Y-83150000D02*
X184150000Y-85280000D01*
%TO.N,3*%
X189280000Y-83140000D02*
X189280000Y-85270000D01*
%TO.N,8*%
X176550000Y-83030000D02*
X176550000Y-85160000D01*
%TO.N,4*%
X186080000Y-82550000D02*
X186690000Y-83160000D01*
%TO.N,3*%
X188670000Y-82530000D02*
X189280000Y-83140000D01*
%TO.N,2*%
X191210000Y-76840000D02*
X191200000Y-76830000D01*
X191210000Y-82540000D02*
X191210000Y-76840000D01*
%TO.N,1*%
X193680000Y-76890000D02*
X193740000Y-76830000D01*
X193680000Y-82520000D02*
X193680000Y-76890000D01*
%TO.N,79*%
X66740000Y-82420000D02*
X66740000Y-76830000D01*
%TO.N,78*%
X69330000Y-76880000D02*
X69280000Y-76830000D01*
X69330000Y-82400000D02*
X69330000Y-76880000D01*
%TO.N,77*%
X71870000Y-76880000D02*
X71820000Y-76830000D01*
X71870000Y-82410000D02*
X71870000Y-76880000D01*
%TO.N,76*%
X74340000Y-76850000D02*
X74360000Y-76830000D01*
X74340000Y-82390000D02*
X74340000Y-76850000D01*
%TO.N,75*%
X76880000Y-76850000D02*
X76900000Y-76830000D01*
X76880000Y-82400000D02*
X76880000Y-76850000D01*
%TO.N,74*%
X79470000Y-76860000D02*
X79440000Y-76830000D01*
X79470000Y-82380000D02*
X79470000Y-76860000D01*
%TO.N,73*%
X82010000Y-76860000D02*
X81980000Y-76830000D01*
X82010000Y-82390000D02*
X82010000Y-76860000D01*
%TO.N,72*%
X84480000Y-76870000D02*
X84520000Y-76830000D01*
X84480000Y-82520000D02*
X84480000Y-76870000D01*
%TO.N,71*%
X87020000Y-76870000D02*
X87060000Y-76830000D01*
X87020000Y-82530000D02*
X87020000Y-76870000D01*
%TO.N,70*%
X89610000Y-76840000D02*
X89600000Y-76830000D01*
X89610000Y-82510000D02*
X89610000Y-76840000D01*
%TO.N,69*%
X92150000Y-76840000D02*
X92140000Y-76830000D01*
X92150000Y-82520000D02*
X92150000Y-76840000D01*
%TO.N,68*%
X94620000Y-76890000D02*
X94680000Y-76830000D01*
X94620000Y-82500000D02*
X94620000Y-76890000D01*
%TO.N,67*%
X97160000Y-76890000D02*
X97220000Y-76830000D01*
X97160000Y-82510000D02*
X97160000Y-76890000D01*
%TO.N,66*%
X99750000Y-76840000D02*
X99760000Y-76830000D01*
X99750000Y-82490000D02*
X99750000Y-76840000D01*
%TO.N,65*%
X102290000Y-76840000D02*
X102300000Y-76830000D01*
X102290000Y-82500000D02*
X102290000Y-76840000D01*
%TO.N,64*%
X104830000Y-76840000D02*
X104840000Y-76830000D01*
X104830000Y-82450000D02*
X104830000Y-76840000D01*
%TO.N,63*%
X107370000Y-76840000D02*
X107380000Y-76830000D01*
X107370000Y-82460000D02*
X107370000Y-76840000D01*
%TO.N,62*%
X117560000Y-91500000D02*
X117540000Y-91520000D01*
X117560000Y-86330000D02*
X117560000Y-91500000D01*
%TO.N,61*%
X120100000Y-91500000D02*
X120080000Y-91520000D01*
X120100000Y-86340000D02*
X120100000Y-91500000D01*
%TO.N,60*%
X122690000Y-91450000D02*
X122620000Y-91520000D01*
X122690000Y-86320000D02*
X122690000Y-91450000D01*
%TO.N,59*%
X125230000Y-91450000D02*
X125160000Y-91520000D01*
X125230000Y-86330000D02*
X125230000Y-91450000D01*
%TO.N,58*%
X127700000Y-86310000D02*
X127700000Y-91520000D01*
%TO.N,57*%
X130240000Y-86320000D02*
X130240000Y-91520000D01*
%TO.N,56*%
X132830000Y-91470000D02*
X132780000Y-91520000D01*
X132830000Y-86300000D02*
X132830000Y-91470000D01*
%TO.N,55*%
X135370000Y-91470000D02*
X135320000Y-91520000D01*
X135370000Y-86310000D02*
X135370000Y-91470000D01*
%TO.N,54*%
X137840000Y-91500000D02*
X137860000Y-91520000D01*
X137840000Y-86440000D02*
X137840000Y-91500000D01*
%TO.N,53*%
X140380000Y-91500000D02*
X140400000Y-91520000D01*
X140380000Y-86450000D02*
X140380000Y-91500000D01*
%TO.N,52*%
X142970000Y-91490000D02*
X142940000Y-91520000D01*
X142970000Y-86430000D02*
X142970000Y-91490000D01*
%TO.N,51*%
X145510000Y-91490000D02*
X145480000Y-91520000D01*
X145510000Y-86440000D02*
X145510000Y-91490000D01*
%TO.N,50*%
X147980000Y-91480000D02*
X148020000Y-91520000D01*
X147980000Y-86420000D02*
X147980000Y-91480000D01*
%TO.N,49*%
X150520000Y-91480000D02*
X150560000Y-91520000D01*
X150520000Y-86430000D02*
X150520000Y-91480000D01*
%TO.N,48*%
X153110000Y-91510000D02*
X153100000Y-91520000D01*
X153110000Y-86410000D02*
X153110000Y-91510000D01*
%TO.N,47*%
X155650000Y-91510000D02*
X155640000Y-91520000D01*
X155650000Y-86420000D02*
X155650000Y-91510000D01*
%TO.N,46*%
X158190000Y-91510000D02*
X158180000Y-91520000D01*
X158190000Y-86370000D02*
X158190000Y-91510000D01*
%TO.N,45*%
X160730000Y-91510000D02*
X160720000Y-91520000D01*
X160730000Y-86380000D02*
X160730000Y-91510000D01*
%TO.N,44*%
X163260000Y-86360000D02*
X163260000Y-91520000D01*
%TO.N,43*%
X165800000Y-86370000D02*
X165800000Y-91520000D01*
%TO.N,42*%
X168390000Y-91470000D02*
X168340000Y-91520000D01*
X168390000Y-86350000D02*
X168390000Y-91470000D01*
%TO.N,41*%
X170930000Y-91470000D02*
X170880000Y-91520000D01*
X170930000Y-86360000D02*
X170930000Y-91470000D01*
%TO.N,40*%
X173400000Y-91500000D02*
X173420000Y-91520000D01*
X173400000Y-86340000D02*
X173400000Y-91500000D01*
%TO.N,39*%
X175940000Y-91500000D02*
X175960000Y-91520000D01*
X175940000Y-86350000D02*
X175940000Y-91500000D01*
%TO.N,38*%
X178530000Y-91490000D02*
X178500000Y-91520000D01*
X178530000Y-86330000D02*
X178530000Y-91490000D01*
%TO.N,37*%
X181070000Y-91490000D02*
X181040000Y-91520000D01*
X181070000Y-86340000D02*
X181070000Y-91490000D01*
%TO.N,36*%
X183540000Y-91480000D02*
X183580000Y-91520000D01*
X183540000Y-86470000D02*
X183540000Y-91480000D01*
%TO.N,35*%
X186080000Y-91480000D02*
X186120000Y-91520000D01*
X186080000Y-86480000D02*
X186080000Y-91480000D01*
%TO.N,34*%
X188670000Y-91510000D02*
X188660000Y-91520000D01*
X188670000Y-86460000D02*
X188670000Y-91510000D01*
%TO.N,33*%
X191210000Y-91510000D02*
X191200000Y-91520000D01*
X191210000Y-86470000D02*
X191210000Y-91510000D01*
%TO.N,32*%
X193680000Y-91460000D02*
X193740000Y-91520000D01*
X193680000Y-86450000D02*
X193680000Y-91460000D01*
%TO.N,31*%
X117560000Y-76850000D02*
X117540000Y-76830000D01*
X117560000Y-82400000D02*
X117560000Y-76850000D01*
%TO.N,30*%
X120100000Y-76850000D02*
X120080000Y-76830000D01*
X120100000Y-82410000D02*
X120100000Y-76850000D01*
%TO.N,29*%
X122690000Y-76900000D02*
X122620000Y-76830000D01*
X122690000Y-82390000D02*
X122690000Y-76900000D01*
%TO.N,28*%
X125230000Y-76900000D02*
X125160000Y-76830000D01*
X125230000Y-82400000D02*
X125230000Y-76900000D01*
%TO.N,27*%
X127700000Y-82380000D02*
X127700000Y-76830000D01*
%TO.N,26*%
X130240000Y-82390000D02*
X130240000Y-76830000D01*
%TO.N,25*%
X132830000Y-76880000D02*
X132780000Y-76830000D01*
X132830000Y-82370000D02*
X132830000Y-76880000D01*
%TO.N,24*%
X135370000Y-76880000D02*
X135320000Y-76830000D01*
X135370000Y-82380000D02*
X135370000Y-76880000D01*
%TO.N,23*%
X137840000Y-76850000D02*
X137860000Y-76830000D01*
X137840000Y-82510000D02*
X137840000Y-76850000D01*
%TO.N,22*%
X140380000Y-76850000D02*
X140400000Y-76830000D01*
X140380000Y-82520000D02*
X140380000Y-76850000D01*
%TO.N,21*%
X142970000Y-76860000D02*
X142940000Y-76830000D01*
X142970000Y-82500000D02*
X142970000Y-76860000D01*
%TO.N,20*%
X145510000Y-76860000D02*
X145480000Y-76830000D01*
X145510000Y-82510000D02*
X145510000Y-76860000D01*
%TO.N,19*%
X147980000Y-76870000D02*
X148020000Y-76830000D01*
X147980000Y-82490000D02*
X147980000Y-76870000D01*
%TO.N,18*%
X150520000Y-76870000D02*
X150560000Y-76830000D01*
X150520000Y-82500000D02*
X150520000Y-76870000D01*
%TO.N,17*%
X153110000Y-76840000D02*
X153100000Y-76830000D01*
X153110000Y-82480000D02*
X153110000Y-76840000D01*
%TO.N,16*%
X155650000Y-76840000D02*
X155640000Y-76830000D01*
X155650000Y-82490000D02*
X155650000Y-76840000D01*
%TO.N,15*%
X158190000Y-76840000D02*
X158180000Y-76830000D01*
X158190000Y-82440000D02*
X158190000Y-76840000D01*
%TO.N,14*%
X160730000Y-76840000D02*
X160720000Y-76830000D01*
X160730000Y-82450000D02*
X160730000Y-76840000D01*
%TO.N,13*%
X163260000Y-82430000D02*
X163260000Y-76830000D01*
%TO.N,12*%
X165800000Y-82440000D02*
X165800000Y-76830000D01*
%TO.N,11*%
X168390000Y-76880000D02*
X168340000Y-76830000D01*
X168390000Y-82420000D02*
X168390000Y-76880000D01*
%TO.N,10*%
X170930000Y-76880000D02*
X170880000Y-76830000D01*
X170930000Y-82430000D02*
X170930000Y-76880000D01*
%TO.N,9*%
X173400000Y-76850000D02*
X173420000Y-76830000D01*
X173400000Y-82410000D02*
X173400000Y-76850000D01*
%TO.N,8*%
X175940000Y-76850000D02*
X175960000Y-76830000D01*
X175940000Y-82420000D02*
X175940000Y-76850000D01*
%TO.N,7*%
X178530000Y-76860000D02*
X178500000Y-76830000D01*
X178530000Y-82400000D02*
X178530000Y-76860000D01*
%TO.N,6*%
X181070000Y-76860000D02*
X181040000Y-76830000D01*
X181070000Y-82410000D02*
X181070000Y-76860000D01*
%TO.N,5*%
X183540000Y-76870000D02*
X183580000Y-76830000D01*
X183540000Y-82540000D02*
X183540000Y-76870000D01*
%TO.N,4*%
X186080000Y-76870000D02*
X186120000Y-76830000D01*
X186080000Y-82550000D02*
X186080000Y-76870000D01*
%TO.N,3*%
X188670000Y-76840000D02*
X188660000Y-76830000D01*
X188670000Y-82530000D02*
X188670000Y-76840000D01*
%TD*%
M02*
