M48
; DRILL file {KiCad (5.1.8)-1} date 01/23/21 22:08:19
; FORMAT={-:-/ absolute / inch / decimal}
; #@! TF.CreationDate,2021-01-23T22:08:19+01:00
; #@! TF.GenerationSoftware,Kicad,Pcbnew,(5.1.8)-1
FMAT,2
INCH
T1C0.0157
%
G90
G05
T1
X2.4969Y-3.2681
X2.5516Y-3.3524
X2.5969Y-3.2685
X2.6516Y-3.3528
X2.6988Y-3.2677
X2.7535Y-3.352
X2.7988Y-3.2681
X2.8535Y-3.3524
X2.8961Y-3.2673
X2.9508Y-3.3516
X2.9961Y-3.2677
X3.0508Y-3.352
X3.098Y-3.2669
X3.1528Y-3.3512
X3.198Y-3.2673
X3.2528Y-3.3516
X3.2953Y-3.2724
X3.35Y-3.3567
X3.3953Y-3.2728
X3.45Y-3.3571
X3.4972Y-3.272
X3.552Y-3.3563
X3.5972Y-3.2724
X3.652Y-3.3567
X3.6945Y-3.2717
X3.7492Y-3.3559
X3.7945Y-3.272
X3.8492Y-3.3563
X3.8965Y-3.2713
X3.9512Y-3.3555
X3.9965Y-3.2717
X4.0512Y-3.3559
X4.0965Y-3.2697
X4.1512Y-3.3539
X4.1965Y-3.2701
X4.2512Y-3.3543
X4.5976Y-3.2677
X4.6524Y-3.352
X4.6976Y-3.2681
X4.7524Y-3.3524
X4.7996Y-3.2673
X4.8543Y-3.3516
X4.8996Y-3.2677
X4.9543Y-3.352
X4.9969Y-3.2669
X5.0516Y-3.3512
X5.0969Y-3.2673
X5.1516Y-3.3516
X5.1988Y-3.2665
X5.2535Y-3.3508
X5.2988Y-3.2669
X5.3535Y-3.3512
X5.3961Y-3.272
X5.4508Y-3.3563
X5.4961Y-3.2724
X5.5508Y-3.3567
X5.598Y-3.2717
X5.6528Y-3.3559
X5.698Y-3.272
X5.7528Y-3.3563
X5.7953Y-3.2713
X5.85Y-3.3555
X5.8953Y-3.2717
X5.95Y-3.3559
X5.9972Y-3.2709
X6.052Y-3.3551
X6.0972Y-3.2713
X6.152Y-3.3555
X6.1972Y-3.2693
X6.252Y-3.3535
X6.2972Y-3.2697
X6.352Y-3.3539
X6.3969Y-3.2689
X6.4516Y-3.3531
X6.4969Y-3.2693
X6.5516Y-3.3535
X6.5988Y-3.2685
X6.6535Y-3.3528
X6.6988Y-3.2689
X6.7535Y-3.3531
X6.7961Y-3.2681
X6.8508Y-3.3524
X6.8961Y-3.2685
X6.9508Y-3.3528
X6.998Y-3.2677
X7.0528Y-3.352
X7.098Y-3.2681
X7.1528Y-3.3524
X7.1953Y-3.2732
X7.25Y-3.3575
X7.2953Y-3.2736
X7.35Y-3.3579
X7.3972Y-3.2728
X7.452Y-3.3571
X7.4972Y-3.2732
X7.552Y-3.3575
X7.5945Y-3.2724
X7.6492Y-3.3567
T0
M30
