0
SECTION
2
HEADER
9
$INSUNITS
70
4
9
$ACADVER
1
AC1014
9
$HANDSEED
5
FFFF
0
ENDSEC
0
SECTION
2
TABLES
0
TABLE
2
VPORT
5
8
100
AcDbSymbolTable
0
ENDTAB
0
TABLE
2
LTYPE
5
5
100
AcDbSymbolTable
0
LTYPE
5
14
100
AcDbSymbolTableRecord
100
AcDbLinetypeTableRecord
2
BYBLOCK
70
0
0
LTYPE
5
15
100
AcDbSymbolTableRecord
100
AcDbLinetypeTableRecord
2
BYLAYER
70
0
0
ENDTAB
0
TABLE
2
LAYER
5
2
100
AcDbSymbolTable
70
2
0
LAYER
5
50
100
AcDbSymbolTableRecord
100
AcDbLayerTableRecord
2
0
70
0
6
CONTINUOUS
0
ENDTAB
0
TABLE
2
STYLE
5
3
100
AcDbSymbolTable
70
1
0
STYLE
5
11
100
AcDbSymbolTableRecord
100
AcDbTextStyleTableRecord
2
STANDARD
70
0
0
ENDTAB
0
TABLE
2
VIEW
5
6
100
AcDbSymbolTable
70
0
0
ENDTAB
0
TABLE
2
UCS
5
7
100
AcDbSymbolTable
70
0
0
ENDTAB
0
TABLE
2
APPID
5
9
100
AcDbSymbolTable
70
2
0
APPID
5
12
100
AcDbSymbolTableRecord
100
AcDbRegAppTableRecord
2
ACAD
70
0
0
ENDTAB
0
TABLE
2
DIMSTYLE
5
A
100
AcDbSymbolTable
70
1
0
ENDTAB
0
TABLE
2
BLOCK_RECORD
5
1
100
AcDbSymbolTable
70
1
0
BLOCK_RECORD
5
1F
100
AcDbSymbolTableRecord
100
AcDbBlockTableRecord
2
*MODEL_SPACE
0
BLOCK_RECORD
5
1B
100
AcDbSymbolTableRecord
100
AcDbBlockTableRecord
2
*PAPER_SPACE
0
ENDTAB
0
ENDSEC
0
SECTION
2
BLOCKS
0
BLOCK
5
20
100
AcDbEntity
100
AcDbBlockBegin
2
*MODEL_SPACE
0
ENDBLK
5
21
100
AcDbEntity
100
AcDbBlockEnd
0
BLOCK
5
1C
100
AcDbEntity
100
AcDbBlockBegin
2
*PAPER_SPACE
0
ENDBLK
5
1D
100
AcDbEntity
100
AcDbBlockEnd
0
ENDSEC
0
SECTION
2
ENTITIES
0
LWPOLYLINE
5
100
100
AcDbEntity
8
0
100
AcDbPolyline
90
4
70
1
43
0.0
10
25.999999999999993
20
9
10
25.999999999999993
20
11.999999999999996
10
17.999999999999986
20
11.999999999999996
10
17.999999999999986
20
9
0
LWPOLYLINE
5
101
100
AcDbEntity
8
0
100
AcDbPolyline
90
4
70
1
43
0.0
10
66
20
9
10
58
20
9
10
58
20
11.999999999999996
10
66
20
11.999999999999996
0
LWPOLYLINE
5
102
100
AcDbEntity
8
0
100
AcDbPolyline
90
4
70
1
43
0.0
10
106.00000000000001
20
9
10
106.00000000000001
20
11.999999999999996
10
98
20
11.999999999999996
10
98
20
9
0
LWPOLYLINE
5
103
100
AcDbEntity
8
0
100
AcDbPolyline
90
4
70
1
43
0.0
10
86.000000000000014
20
9
10
86.000000000000014
20
11.999999999999996
10
78
20
11.999999999999996
10
78
20
9
0
LWPOLYLINE
5
104
100
AcDbEntity
8
0
100
AcDbPolyline
90
4
70
1
43
0.0
10
37.999999999999993
20
9
10
46
20
9
10
46
20
11.999999999999996
10
37.999999999999993
20
11.999999999999996
0
LWPOLYLINE
5
105
100
AcDbEntity
8
0
100
AcDbPolyline
90
4
70
1
43
0.0
10
146
20
11.999999999999996
10
138
20
11.999999999999996
10
138
20
9
10
146
20
9
0
LWPOLYLINE
5
106
100
AcDbEntity
8
0
100
AcDbPolyline
90
4
70
1
43
0.0
10
126.00000000000001
20
11.999999999999996
10
118
20
11.999999999999996
10
118
20
9
10
126.00000000000001
20
9
0
LWPOLYLINE
5
107
100
AcDbEntity
8
0
100
AcDbPolyline
90
4
70
1
43
0.0
10
158
20
11.999999999999996
10
158
20
9
10
166
20
9
10
166
20
11.999999999999996
0
LWPOLYLINE
5
108
100
AcDbEntity
8
0
100
AcDbPolyline
90
4
70
1
43
0.0
10
222
20
111.5
10
214
20
111.5
10
214
20
108.50000000000001
10
222
20
108.50000000000001
0
LWPOLYLINE
5
109
100
AcDbEntity
8
0
100
AcDbPolyline
90
4
70
1
43
0.0
10
235
20
77.500000000000014
10
226.99999999999994
20
77.500000000000014
10
226.99999999999994
20
74.500000000000014
10
235
20
74.500000000000014
0
LWPOLYLINE
5
110
100
AcDbEntity
8
0
100
AcDbPolyline
90
4
70
1
43
0.0
10
241.99999999999994
20
111.5
10
241.99999999999994
20
108.50000000000001
10
249.99999999999997
20
108.50000000000001
10
249.99999999999997
20
111.5
0
LWPOLYLINE
5
111
100
AcDbEntity
8
0
100
AcDbPolyline
90
4
70
1
43
0.0
10
226.99999999999994
20
108.50000000000001
10
235
20
108.50000000000001
10
235
20
111.5
10
226.99999999999994
20
111.5
0
LWPOLYLINE
5
112
100
AcDbEntity
8
0
100
AcDbPolyline
90
4
70
1
43
0.0
10
249.99999999999997
20
91.5
10
249.99999999999997
20
94.5
10
241.99999999999994
20
94.5
10
241.99999999999994
20
91.5
0
LWPOLYLINE
5
113
100
AcDbEntity
8
0
100
AcDbPolyline
90
4
70
1
43
0.0
10
226.99999999999994
20
91.5
10
235
20
91.5
10
235
20
94.5
10
226.99999999999994
20
94.5
0
LWPOLYLINE
5
114
100
AcDbEntity
8
0
100
AcDbPolyline
90
4
70
1
43
0.0
10
222
20
57.500000000000014
10
222
20
60.500000000000028
10
214
20
60.500000000000028
10
214
20
57.500000000000014
0
LWPOLYLINE
5
115
100
AcDbEntity
8
0
100
AcDbPolyline
90
4
70
1
43
0.0
10
261.99999999999994
20
110.5
10
269.99999999999994
20
110.5
10
269.99999999999994
20
113.50000000000001
10
261.99999999999994
20
113.50000000000001
0
LWPOLYLINE
5
116
100
AcDbEntity
8
0
100
AcDbPolyline
90
4
70
1
43
0.0
10
261.99999999999994
20
96.499999999999986
10
269.99999999999994
20
96.499999999999986
10
269.99999999999994
20
99.500000000000014
10
261.99999999999994
20
99.500000000000014
0
LWPOLYLINE
5
117
100
AcDbEntity
8
0
100
AcDbPolyline
90
4
70
1
43
0.0
10
261.99999999999994
20
86.5
10
261.99999999999994
20
83.500000000000014
10
269.99999999999994
20
83.500000000000014
10
269.99999999999994
20
86.5
0
LWPOLYLINE
5
118
100
AcDbEntity
8
0
100
AcDbPolyline
90
4
70
1
43
0.0
10
269.99999999999994
20
56.500000000000021
10
269.99999999999994
20
59.500000000000028
10
261.99999999999994
20
59.500000000000028
10
261.99999999999994
20
56.500000000000021
0
LWPOLYLINE
5
119
100
AcDbEntity
8
0
100
AcDbPolyline
90
4
70
1
43
0.0
10
261.99999999999994
20
72.500000000000014
10
261.99999999999994
20
69.500000000000028
10
269.99999999999994
20
69.500000000000028
10
269.99999999999994
20
72.500000000000014
0
LWPOLYLINE
5
120
100
AcDbEntity
8
0
100
AcDbPolyline
90
4
70
1
43
0.0
10
241.99999999999994
20
57.500000000000014
10
249.99999999999997
20
57.500000000000014
10
249.99999999999997
20
60.500000000000028
10
241.99999999999994
20
60.500000000000028
0
LWPOLYLINE
5
121
100
AcDbEntity
8
0
100
AcDbPolyline
90
4
70
1
43
0.0
10
209
20
74.500000000000014
10
209
20
77.500000000000014
10
201
20
77.500000000000014
10
201
20
74.500000000000014
0
LWPOLYLINE
5
122
100
AcDbEntity
8
0
100
AcDbPolyline
90
4
70
1
43
0.0
10
209
20
94.5
10
201
20
94.5
10
201
20
91.5
10
209
20
91.5
0
LWPOLYLINE
5
123
100
AcDbEntity
8
0
100
AcDbPolyline
90
4
70
1
43
0.0
10
235
20
60.500000000000028
10
226.99999999999994
20
60.500000000000028
10
226.99999999999994
20
57.500000000000014
10
235
20
57.500000000000014
0
LWPOLYLINE
5
124
100
AcDbEntity
8
0
100
AcDbPolyline
90
4
70
1
43
0.0
10
214
20
77.500000000000014
10
214
20
74.500000000000014
10
222
20
74.500000000000014
10
222
20
77.500000000000014
0
LWPOLYLINE
5
125
100
AcDbEntity
8
0
100
AcDbPolyline
90
4
70
1
43
0.0
10
214
20
91.5
10
222
20
91.5
10
222
20
94.5
10
214
20
94.5
0
LWPOLYLINE
5
126
100
AcDbEntity
8
0
100
AcDbPolyline
90
4
70
1
43
0.0
10
241.99999999999994
20
74.500000000000014
10
249.99999999999997
20
74.500000000000014
10
249.99999999999997
20
77.500000000000014
10
241.99999999999994
20
77.500000000000014
0
LWPOLYLINE
5
127
100
AcDbEntity
8
0
100
AcDbPolyline
90
4
70
1
43
0.0
10
209
20
57.500000000000014
10
209
20
60.500000000000028
10
201
20
60.500000000000028
10
201
20
57.500000000000014
0
LWPOLYLINE
5
128
100
AcDbEntity
8
0
100
AcDbPolyline
90
4
70
1
43
0.0
10
209
20
111.5
10
201
20
111.5
10
201
20
108.50000000000001
10
209
20
108.50000000000001
0
LINE
5
129
100
AcDbEntity
8
0
100
AcDbLine
10
209
20
91.5
30
0
11
208.50000310689211
21
91.5
31
0
0
LWPOLYLINE
5
130
100
AcDbEntity
8
0
100
AcDbPolyline
90
4
70
1
43
0.0
10
291.00000000000006
20
72.500000000000028
10
291.00000000000006
20
69.500000000000043
10
299
20
69.500000000000043
10
299
20
72.500000000000028
0
LWPOLYLINE
5
131
100
AcDbEntity
8
0
100
AcDbPolyline
90
4
70
1
43
0.0
10
303
20
63.500000000000043
10
311.00000000000006
20
63.500000000000043
10
311.00000000000006
20
66.500000000000028
10
303
20
66.500000000000028
0
LINE
5
132
100
AcDbEntity
8
0
100
AcDbLine
10
270.00000000000006
20
77.000001147389412
30
0
11
270.00000000000006
21
51.000000759959221
31
0
0
LWPOLYLINE
5
133
100
AcDbEntity
8
0
100
AcDbPolyline
90
4
70
1
43
0.0
10
287.00000000000006
20
66.500000000000028
10
279
20
66.500000000000028
10
279
20
63.500000000000043
10
287.00000000000006
20
63.500000000000043
0
LWPOLYLINE
5
134
100
AcDbEntity
8
0
100
AcDbPolyline
90
4
70
1
43
0.0
10
299
20
60.500000000000036
10
291.00000000000006
20
60.500000000000036
10
291.00000000000006
20
57.500000000000028
10
299
20
57.500000000000028
0
LWPOLYLINE
5
135
100
AcDbEntity
8
0
100
AcDbPolyline
90
4
70
1
43
0.0
10
235
20
136.5
10
235
20
139.49999999999997
10
226.99999999999994
20
139.49999999999997
10
226.99999999999994
20
136.5
0
LWPOLYLINE
5
136
100
AcDbEntity
8
0
100
AcDbPolyline
90
4
70
1
43
0.0
10
273.99999999999989
20
136.5
10
273.99999999999989
20
139.49999999999997
10
265.99999999999994
20
139.49999999999997
10
265.99999999999994
20
136.5
0
LWPOLYLINE
5
137
100
AcDbEntity
8
0
100
AcDbPolyline
90
4
70
1
43
0.0
10
222
20
139.49999999999997
10
222
20
136.5
10
214
20
136.5
10
214
20
139.49999999999997
0
LWPOLYLINE
5
138
100
AcDbEntity
8
0
100
AcDbPolyline
90
4
70
1
43
0.0
10
201
20
139.49999999999997
10
201
20
136.5
10
209
20
136.5
10
209
20
139.49999999999997
0
LWPOLYLINE
5
139
100
AcDbEntity
8
0
100
AcDbPolyline
90
4
70
1
43
0.0
10
203.40000000000001
20
147.79999999999995
10
203.40000000000001
20
146.19999999999996
10
206.59999999999999
20
146.19999999999996
10
206.59999999999999
20
147.79999999999995
0
LWPOLYLINE
5
140
100
AcDbEntity
8
0
100
AcDbPolyline
90
4
70
1
43
0.0
10
304.40000000000003
20
147.79999999999995
10
304.40000000000003
20
146.19999999999996
10
307.60000000000002
20
146.19999999999996
10
307.60000000000002
20
147.79999999999995
0
LWPOLYLINE
5
141
100
AcDbEntity
8
0
100
AcDbPolyline
90
4
70
1
43
0.0
10
294.60000000000002
20
146.19999999999996
10
294.60000000000002
20
147.79999999999995
10
291.39999999999998
20
147.79999999999995
10
291.39999999999998
20
146.19999999999996
0
LWPOLYLINE
5
142
100
AcDbEntity
8
0
100
AcDbPolyline
90
4
70
1
43
0.0
10
252.99999999999997
20
139.49999999999997
10
252.99999999999997
20
136.5
10
260.99999999999994
20
136.5
10
260.99999999999994
20
139.49999999999997
0
LWPOLYLINE
5
143
100
AcDbEntity
8
0
100
AcDbPolyline
90
4
70
1
43
0.0
10
286.99999999999994
20
136.5
10
286.99999999999994
20
139.49999999999997
10
278.99999999999989
20
139.49999999999997
10
278.99999999999989
20
136.5
0
LWPOLYLINE
5
144
100
AcDbEntity
8
0
100
AcDbPolyline
90
4
70
1
43
0.0
10
216.40000000000001
20
147.79999999999995
10
216.40000000000001
20
146.19999999999996
10
219.60000000000002
20
146.19999999999996
10
219.60000000000002
20
147.79999999999995
0
LWPOLYLINE
5
145
100
AcDbEntity
8
0
100
AcDbPolyline
90
4
70
1
43
0.0
10
312.99999999999989
20
139.49999999999997
10
304.99999999999994
20
139.49999999999997
10
304.99999999999994
20
136.5
10
312.99999999999989
20
136.5
0
LWPOLYLINE
5
146
100
AcDbEntity
8
0
100
AcDbPolyline
90
4
70
1
43
0.0
10
291.99999999999989
20
139.49999999999997
10
291.99999999999989
20
136.5
10
299.99999999999994
20
136.5
10
299.99999999999994
20
139.49999999999997
0
LWPOLYLINE
5
147
100
AcDbEntity
8
0
100
AcDbPolyline
90
4
70
1
43
0.0
10
203.40000000000001
20
125.8
10
206.59999999999999
20
125.8
10
206.59999999999999
20
124.20000000000002
10
203.40000000000001
20
124.20000000000002
0
LWPOLYLINE
5
148
100
AcDbEntity
8
0
100
AcDbPolyline
90
4
70
1
43
0.0
10
209.60000000000005
20
17.799999999999983
10
209.60000000000005
20
16.199999999999982
10
206.40000000000003
20
16.199999999999982
10
206.40000000000003
20
17.799999999999983
0
ENDSEC
0
SECTION
2
OBJECTS
0
DICTIONARY
5
C
100
AcDbDictionary
3
ACAD_GROUP
350
D
3
ACAD_MLINESTYLE
350
17
0
DICTIONARY
5
D
100
AcDbDictionary
0
DICTIONARY
5
1A
330
C
100
AcDbDictionary
0
DICTIONARY
5
17
100
AcDbDictionary
0
ENDSEC
0
EOF
