M48
; DRILL file {KiCad (5.1.9)-1} date 03/26/21 19:35:26
; FORMAT={-:-/ absolute / inch / decimal}
; #@! TF.CreationDate,2021-03-26T19:35:26+01:00
; #@! TF.GenerationSoftware,Kicad,Pcbnew,(5.1.9)-1
; #@! TF.FileFunction,Plated,1,2,PTH
FMAT,2
INCH
T1C0.0157
T2C0.0315
%
G90
G05
T1
X2.4461Y-8.6094
X3.2358Y-8.6102
X4.022Y-8.6102
X6.3866Y-8.6106
X7.1043Y-8.3563
X7.1744Y-8.6083
X7.2362Y-8.3555
X7.8925Y-8.3024
X7.8925Y-8.3579
X7.9598Y-8.6091
X8.0169Y-8.3559
X8.0173Y-8.3024
X8.7799Y-6.8079
X8.7807Y-7.9909
X8.8606Y-6.0992
X8.9394Y-7.9898
X8.9409Y-6.8063
X9.0201Y-7.9894
X9.1193Y-8.2657
X9.1197Y-7.989
X9.2114Y-7.9909
X9.222Y-4.426
X9.2957Y-6.9913
X9.2961Y-7.7189
X9.2976Y-7.5181
X9.3591Y-6.9917
X9.3591Y-7.5193
X9.3598Y-7.7197
X9.36Y-3.8125
X9.4205Y-3.7417
X9.6512Y-3.5906
X9.6512Y-4.3484
X9.6512Y-4.6925
X9.6512Y-5.3622
X9.6512Y-6.0307
X9.6512Y-6.7004
X9.8354Y-3.7421
X9.837Y-3.812
X9.9846Y-3.7429
X9.986Y-3.8125
X10.0437Y-3.6917
X10.0437Y-6.1843
X10.0437Y-6.3008
X10.1102Y-3.2487
X10.163Y-6.7008
X10.1638Y-6.0311
X10.165Y-3.5898
X10.165Y-4.3885
X10.165Y-4.6921
X10.165Y-5.3618
X10.5512Y-6.2992
X10.552Y-4.1854
X10.552Y-6.1799
X10.6185Y-3.7445
X10.6195Y-4.302
X10.6776Y-5.3622
X10.6776Y-6.0311
X10.678Y-3.5909
X10.678Y-4.239
X10.678Y-4.6917
X10.6819Y-6.7012
X10.9683Y-3.4453
X10.977Y-5.2165
X11.0155Y-4.013
X11.0164Y-4.5461
X11.0675Y-4.014
X11.1155Y-4.015
X11.1655Y-4.143
X11.166Y-4.017
X11.2175Y-3.3325
X11.2635Y-4.0145
X11.2635Y-4.426
X11.2677Y-4.6925
X11.2677Y-5.3618
X11.2677Y-6.0315
X11.3608Y-4.3492
X11.3615Y-4.0165
X11.4115Y-4.017
X11.4115Y-4.387
X11.4599Y-4.2409
X11.4605Y-4.0175
X11.5095Y-4.0155
X11.51Y-4.5045
X11.5585Y-4.016
X11.559Y-4.505
X11.6415Y-5.5695
X11.6415Y-6.2595
X11.6415Y-6.706
X11.6441Y-6.8059
X11.6574Y-4.184
X11.6575Y-4.014
X11.707Y-4.0145
X11.707Y-4.5765
X11.708Y-4.9755
X11.7565Y-4.0155
X11.7565Y-4.104
X11.7886Y-4.7598
X11.789Y-5.5323
X11.798Y-4.613
X11.806Y-3.2725
X11.8138Y-6.8059
X11.8565Y-3.1635
X11.9035Y-4.015
X11.9055Y-4.3005
X11.9525Y-4.015
X12.0415Y-4.301
X12.0528Y-5.678
X12.0531Y-5.1646
X12.0531Y-6.2283
X12.0535Y-4.613
X12.0695Y-3.331
X12.1768Y-4.1744
X12.2157Y-3.4453
X12.2697Y-4.1193
X12.2866Y-6.0839
X12.2961Y-6.3492
X12.3189Y-5.0839
X12.3614Y-6.5476
X12.3622Y-6.6476
X12.4197Y-6.3492
X12.4508Y-4.1185
X12.5142Y-3.6614
X12.515Y-3.5362
X12.7197Y-6.2276
X12.8457Y-6.0831
X13.1035Y-4.1744
X13.2154Y-4.1197
X13.2417Y-3.4441
X13.2433Y-3.798
X13.2972Y-3.6614
X13.2976Y-3.7988
X13.6697Y-6.4646
X13.7441Y-3.4445
T2
X10.8707Y-3.705
X10.9199Y-3.8034
X10.9691Y-3.705
X11.0183Y-3.8034
X11.0675Y-3.705
X11.1167Y-3.8034
X11.1659Y-3.705
X11.2152Y-3.8034
X11.2644Y-3.705
X11.3136Y-3.8034
X11.3628Y-3.705
X11.412Y-3.8034
X11.4612Y-3.705
X11.5104Y-3.8034
X11.5596Y-3.705
X11.6089Y-3.8034
X11.6581Y-3.705
X11.7073Y-3.8034
X11.7565Y-3.705
X11.8057Y-3.8034
X11.8549Y-3.705
X11.9041Y-3.8034
X11.9534Y-3.705
X12.0026Y-3.8034
X12.0518Y-3.705
X12.101Y-3.8034
X12.1502Y-3.705
X12.1994Y-3.8034
X12.2486Y-3.705
X12.2978Y-3.8034
X12.3471Y-3.705
X12.3963Y-3.8034
X12.4455Y-3.705
X12.4947Y-3.8034
T0
M30
