%TF.GenerationSoftware,KiCad,Pcbnew,(5.1.9)-1*%
%TF.CreationDate,2021-03-26T19:35:24+01:00*%
%TF.ProjectId,UPL_Keyboard,55504c5f-4b65-4796-926f-6172642e6b69,2*%
%TF.SameCoordinates,Original*%
%TF.FileFunction,Copper,L2,Bot*%
%TF.FilePolarity,Positive*%
%FSLAX46Y46*%
G04 Gerber Fmt 4.6, Leading zero omitted, Abs format (unit mm)*
G04 Created by KiCad (PCBNEW (5.1.9)-1) date 2021-03-26 19:35:24*
%MOMM*%
%LPD*%
G01*
G04 APERTURE LIST*
%TA.AperFunction,ComponentPad*%
%ADD10C,1.600000*%
%TD*%
%TA.AperFunction,ViaPad*%
%ADD11C,0.800000*%
%TD*%
%TA.AperFunction,Conductor*%
%ADD12C,0.250000*%
%TD*%
G04 APERTURE END LIST*
D10*
%TO.P,J1,1*%
%TO.N,LED_A*%
X276115100Y-94107000D03*
%TO.P,J1,2*%
%TO.N,KEY_DET*%
X277365100Y-96607000D03*
%TO.P,J1,3*%
%TO.N,BTN_ROW_1*%
X278615100Y-94107000D03*
%TO.P,J1,4*%
%TO.N,BTN_ROW_2*%
X279865100Y-96607000D03*
%TO.P,J1,5*%
%TO.N,BTN_ROW_3*%
X281115100Y-94107000D03*
%TO.P,J1,6*%
%TO.N,BTN_ROW_4*%
X282365100Y-96607000D03*
%TO.P,J1,7*%
%TO.N,BTN_ROW_5*%
X283615100Y-94107000D03*
%TO.P,J1,8*%
%TO.N,BTN_ROW_6*%
X284865100Y-96607000D03*
%TO.P,J1,9*%
%TO.N,BTN_ROW_7*%
X286115100Y-94107000D03*
%TO.P,J1,10*%
%TO.N,NOT_USED_1*%
X287365100Y-96607000D03*
%TO.P,J1,11*%
%TO.N,BTN_COL_1*%
X288615100Y-94107000D03*
%TO.P,J1,12*%
%TO.N,BTN_COL_2*%
X289865100Y-96607000D03*
%TO.P,J1,13*%
%TO.N,BTN_COL_3*%
X291115100Y-94107000D03*
%TO.P,J1,14*%
%TO.N,BTN_COL_4*%
X292365100Y-96607000D03*
%TO.P,J1,15*%
%TO.N,BTN_COL_5*%
X293615100Y-94107000D03*
%TO.P,J1,16*%
%TO.N,BTN_COL_6*%
X294865100Y-96607000D03*
%TO.P,J1,17*%
%TO.N,BTN_COL_7*%
X296115100Y-94107000D03*
%TO.P,J1,18*%
%TO.N,BTN_COL_8*%
X297365100Y-96607000D03*
%TO.P,J1,19*%
%TO.N,LED_DATA*%
X298615100Y-94107000D03*
%TO.P,J1,20*%
%TO.N,LED_REMOTE*%
X299865100Y-96607000D03*
%TO.P,J1,21*%
%TO.N,LED_OUTPUT*%
X301115100Y-94107000D03*
%TO.P,J1,22*%
%TO.N,LED_GEN_OVRLD*%
X302365100Y-96607000D03*
%TO.P,J1,23*%
%TO.N,LED_START*%
X303615100Y-94107000D03*
%TO.P,J1,24*%
%TO.N,LED_SINGLE*%
X304865100Y-96607000D03*
%TO.P,J1,25*%
%TO.N,KEY_DET*%
X306115100Y-94107000D03*
%TO.P,J1,26*%
%TO.N,NOT_USED_2*%
X307365100Y-96607000D03*
%TO.P,J1,27*%
%TO.N,N/C*%
X308615100Y-94107000D03*
%TO.P,J1,28*%
X309865100Y-96607000D03*
%TO.P,J1,29*%
X311115100Y-94107000D03*
%TO.P,J1,30*%
X312365100Y-96607000D03*
%TO.P,J1,31*%
X313615100Y-94107000D03*
%TO.P,J1,32*%
X314865100Y-96607000D03*
%TO.P,J1,33*%
X316115100Y-94107000D03*
%TO.P,J1,34*%
X317365100Y-96607000D03*
%TD*%
D11*
%TO.N,LED_SINGLE*%
X256800000Y-82517900D03*
%TO.N,LED_START*%
X303593500Y-101981000D03*
%TO.N,LED_GEN_OVRLD*%
X236120000Y-196060000D03*
X236160000Y-190960000D03*
X236110000Y-177580000D03*
X253610000Y-95070000D03*
X249820000Y-95050000D03*
X239280000Y-95040000D03*
X302348900Y-101981000D03*
X302399700Y-109232700D03*
X269735300Y-109270800D03*
X269709900Y-95110300D03*
%TO.N,LED_OUTPUT*%
X301155100Y-80352900D03*
%TO.N,LED_REMOTE*%
X299872400Y-83121500D03*
%TO.N,LED_DATA*%
X298615100Y-101993700D03*
X298615100Y-104241600D03*
%TO.N,BTN_COL_8*%
X297357800Y-101968300D03*
X297357800Y-116244200D03*
X295694100Y-170332400D03*
X295694100Y-158991300D03*
X295694100Y-141465300D03*
X297383200Y-126377700D03*
%TO.N,BTN_COL_7*%
X271320000Y-170210000D03*
X268000000Y-160000000D03*
X268020000Y-156970000D03*
X268020000Y-106310000D03*
X296100500Y-101955600D03*
X296097600Y-106273100D03*
%TO.N,BTN_COL_6*%
X258140000Y-170200000D03*
X255110000Y-160040000D03*
X255110000Y-157080000D03*
X255110000Y-93770000D03*
%TO.N,BTN_COL_5*%
X306150000Y-158200000D03*
X306140000Y-144220000D03*
X306150000Y-131180000D03*
X306160000Y-117170000D03*
X245140000Y-170190000D03*
X323080000Y-158180000D03*
X347210000Y-164200000D03*
X293585900Y-102006400D03*
X293598600Y-114427000D03*
X299669400Y-117170000D03*
%TO.N,BTN_COL_4*%
X286200000Y-153200000D03*
X286200000Y-136190000D03*
X286200000Y-119190000D03*
X313980000Y-166310000D03*
X314000000Y-168850000D03*
X229110000Y-202930000D03*
X292341300Y-101993700D03*
X292354000Y-114414300D03*
%TO.N,BTN_COL_3*%
X271210000Y-153190000D03*
X271210000Y-136200000D03*
X271220000Y-119170000D03*
X271220000Y-91210000D03*
X312320000Y-161270000D03*
X315460000Y-161270000D03*
X102160000Y-218700000D03*
X180450000Y-212250000D03*
X183800000Y-212230000D03*
X200470000Y-212290000D03*
X203630000Y-212240000D03*
X162220000Y-218710000D03*
X231640000Y-202920000D03*
X231630000Y-209950000D03*
X271220000Y-107670000D03*
X291096700Y-102044500D03*
X291082600Y-107720000D03*
%TO.N,BTN_COL_2*%
X258160000Y-153190000D03*
X258190000Y-136190000D03*
X258190000Y-119180000D03*
X258190000Y-91180000D03*
X82190000Y-218700000D03*
X200470000Y-210880000D03*
X203640000Y-210880000D03*
X182230000Y-218650000D03*
X233970000Y-202970000D03*
X289852100Y-102031800D03*
X289852100Y-111429800D03*
X258190000Y-111468900D03*
%TO.N,BTN_COL_1*%
X245140000Y-153180000D03*
X245140000Y-136200000D03*
X245140000Y-119190000D03*
X245140000Y-91200000D03*
X62130000Y-218680000D03*
X202180000Y-218670000D03*
X223030000Y-202970000D03*
X300070000Y-172870000D03*
X295760000Y-172870000D03*
X227100000Y-172880000D03*
X223010000Y-172920000D03*
X245140000Y-110450000D03*
X288582100Y-102019100D03*
X288564000Y-110470000D03*
%TO.N,BTN_ROW_7*%
X225060000Y-154920000D03*
X234240000Y-112420000D03*
X286092900Y-101968300D03*
X286093300Y-112420000D03*
%TO.N,BTN_ROW_6*%
X326280000Y-154510000D03*
X306565300Y-84607400D03*
X284924500Y-84645500D03*
%TO.N,BTN_ROW_5*%
X312080000Y-154530000D03*
X227060000Y-202940000D03*
X312900000Y-129130000D03*
X283616400Y-102031800D03*
X283603700Y-105232200D03*
X305854100Y-109245400D03*
%TO.N,BTN_ROW_4*%
X349100000Y-87490000D03*
X335670000Y-104640000D03*
X316250000Y-104610000D03*
X311650000Y-104630000D03*
X299430000Y-120900000D03*
X299440000Y-140520000D03*
X282333700Y-101981000D03*
%TO.N,BTN_ROW_3*%
X336380000Y-96470000D03*
X336340000Y-87480000D03*
X281114500Y-101955600D03*
X278816700Y-132500000D03*
%TO.N,BTN_ROW_2*%
X317880000Y-89820000D03*
X309290000Y-106030000D03*
X332830000Y-106030000D03*
X337760000Y-96490000D03*
X337750000Y-93000000D03*
X279793700Y-101930200D03*
X279817500Y-115470000D03*
X317860000Y-93000000D03*
%TO.N,BTN_ROW_1*%
X310280000Y-87510000D03*
X278594200Y-87510000D03*
%TO.N,LED_A*%
X237740000Y-196080000D03*
X237720000Y-190990000D03*
X237720000Y-177590000D03*
X253644400Y-96837500D03*
X249859800Y-96824800D03*
X237744000Y-96837500D03*
%TD*%
D12*
%TO.N,*%
X313050000Y-94080000D02*
X312820000Y-94080000D01*
X308624300Y-94080000D02*
X308622700Y-94081600D01*
%TO.N,KEY_DET*%
X306097600Y-94124500D02*
X306115100Y-94107000D01*
X306097600Y-99197500D02*
X306097600Y-94124500D01*
X305968400Y-99326700D02*
X306097600Y-99197500D01*
X277347600Y-99326700D02*
X305968400Y-99326700D01*
X277347600Y-96624500D02*
X277347600Y-99326700D01*
X277365100Y-96607000D02*
X277347600Y-96624500D01*
%TO.N,LED_SINGLE*%
X286639000Y-82517900D02*
X256800000Y-82517900D01*
X286639000Y-78613000D02*
X286639000Y-82517900D01*
X286778700Y-78473300D02*
X286639000Y-78613000D01*
X304806300Y-78473300D02*
X286778700Y-78473300D01*
X304865100Y-78532100D02*
X304806300Y-78473300D01*
X304865100Y-96607000D02*
X304865100Y-78532100D01*
%TO.N,LED_GEN_OVRLD*%
X236120000Y-191000000D02*
X236160000Y-190960000D01*
X236120000Y-196060000D02*
X236120000Y-191000000D01*
X249840000Y-95070000D02*
X249820000Y-95050000D01*
X253610000Y-95070000D02*
X249840000Y-95070000D01*
X239280000Y-95040000D02*
X236150000Y-95040000D01*
X236150000Y-95040000D02*
X236120000Y-95070000D01*
X236110000Y-95080000D02*
X236150000Y-95040000D01*
X236110000Y-177580000D02*
X236110000Y-95080000D01*
X302348900Y-109181900D02*
X302399700Y-109232700D01*
X302348900Y-101981000D02*
X302348900Y-109181900D01*
X269735300Y-95135700D02*
X269709900Y-95110300D01*
X269735300Y-109270800D02*
X269735300Y-95135700D01*
%TO.N,LED_OUTPUT*%
X301097600Y-80410400D02*
X301155100Y-80352900D01*
X301115100Y-80392900D02*
X301155100Y-80352900D01*
X301115100Y-94107000D02*
X301115100Y-80392900D01*
%TO.N,LED_REMOTE*%
X299847600Y-83146300D02*
X299872400Y-83121500D01*
X299865100Y-83128800D02*
X299872400Y-83121500D01*
X299865100Y-96607000D02*
X299865100Y-83128800D01*
%TO.N,LED_DATA*%
X298615100Y-104241600D02*
X298615100Y-101993700D01*
%TO.N,BTN_COL_8*%
X297357800Y-101968300D02*
X297357800Y-116244200D01*
X295694100Y-170332400D02*
X295694100Y-158991300D01*
X295694100Y-132651500D02*
X295694100Y-141465300D01*
X297383200Y-132651500D02*
X295694100Y-132651500D01*
X297383200Y-126377700D02*
X297383200Y-132651500D01*
%TO.N,BTN_COL_7*%
X271320000Y-170210000D02*
X267960000Y-170210000D01*
X267960000Y-160040000D02*
X268000000Y-160000000D01*
X267960000Y-170210000D02*
X267960000Y-160040000D01*
X268020000Y-156970000D02*
X268020000Y-106310000D01*
X296100500Y-106270200D02*
X296097600Y-106273100D01*
X296100500Y-101955600D02*
X296100500Y-106270200D01*
%TO.N,BTN_COL_6*%
X258140000Y-170200000D02*
X255100000Y-170200000D01*
X255100000Y-160050000D02*
X255110000Y-160040000D01*
X255100000Y-170200000D02*
X255100000Y-160050000D01*
X255110000Y-157080000D02*
X255110000Y-93770000D01*
%TO.N,BTN_COL_5*%
X306150000Y-144230000D02*
X306140000Y-144220000D01*
X306150000Y-158200000D02*
X306150000Y-144230000D01*
X306140000Y-131190000D02*
X306150000Y-131180000D01*
X306140000Y-144220000D02*
X306140000Y-131190000D01*
X306150000Y-117180000D02*
X306160000Y-117170000D01*
X306150000Y-131180000D02*
X306150000Y-117180000D01*
X245140000Y-170190000D02*
X245140000Y-158420000D01*
X245140000Y-158420000D02*
X245360000Y-158200000D01*
X323080000Y-158180000D02*
X323080000Y-162380000D01*
X323080000Y-162380000D02*
X323110000Y-162410000D01*
X323110000Y-162410000D02*
X347200000Y-162410000D01*
X347210000Y-162420000D02*
X347210000Y-164200000D01*
X347200000Y-162410000D02*
X347210000Y-162420000D01*
X278500000Y-158200000D02*
X306150000Y-158200000D01*
X245360000Y-158200000D02*
X278500000Y-158200000D01*
X278980000Y-158200000D02*
X278500000Y-158200000D01*
X293585900Y-114414300D02*
X293598600Y-114427000D01*
X293585900Y-102006400D02*
X293585900Y-114414300D01*
X299669400Y-117170000D02*
X306160000Y-117170000D01*
%TO.N,BTN_COL_4*%
X286200000Y-153200000D02*
X286200000Y-136190000D01*
X313980000Y-168830000D02*
X314000000Y-168850000D01*
X313980000Y-166310000D02*
X313980000Y-168830000D01*
X272050000Y-181340000D02*
X244000000Y-181340000D01*
X314000000Y-181340000D02*
X272050000Y-181340000D01*
X314000000Y-168850000D02*
X314000000Y-181340000D01*
X244000000Y-181340000D02*
X229110000Y-181340000D01*
X229110000Y-181340000D02*
X229110000Y-202930000D01*
X286200000Y-123360000D02*
X286200000Y-119190000D01*
X286200000Y-136190000D02*
X286200000Y-123360000D01*
X292341300Y-114401600D02*
X292354000Y-114414300D01*
X292341300Y-101993700D02*
X292341300Y-114401600D01*
%TO.N,BTN_COL_3*%
X271210000Y-153190000D02*
X271210000Y-136200000D01*
X271210000Y-119180000D02*
X271220000Y-119170000D01*
X271210000Y-136200000D02*
X271210000Y-119180000D01*
X312320000Y-161270000D02*
X315460000Y-161270000D01*
X200410000Y-212230000D02*
X200470000Y-212290000D01*
X183800000Y-212230000D02*
X200410000Y-212230000D01*
X102160000Y-218700000D02*
X102160000Y-212260000D01*
X102350000Y-212260000D02*
X102360000Y-212250000D01*
X102160000Y-212260000D02*
X102350000Y-212260000D01*
X162220000Y-212290000D02*
X162180000Y-212250000D01*
X162220000Y-218710000D02*
X162220000Y-212290000D01*
X162180000Y-212250000D02*
X180450000Y-212250000D01*
X102360000Y-212250000D02*
X162180000Y-212250000D01*
X271220000Y-107670000D02*
X271220000Y-91210000D01*
X271220000Y-119170000D02*
X271220000Y-107670000D01*
X315460000Y-183020000D02*
X315460000Y-161270000D01*
X315450000Y-183030000D02*
X315460000Y-183020000D01*
X231650000Y-183030000D02*
X315450000Y-183030000D01*
X231650000Y-202930000D02*
X231650000Y-183030000D01*
X231640000Y-202920000D02*
X231650000Y-202930000D01*
X227070000Y-212240000D02*
X203630000Y-212240000D01*
X227070000Y-209950000D02*
X227070000Y-212240000D01*
X231630000Y-209950000D02*
X227070000Y-209950000D01*
X291096700Y-102044500D02*
X291096700Y-107705900D01*
X291096700Y-107705900D02*
X291082600Y-107720000D01*
%TO.N,BTN_COL_2*%
X258160000Y-136220000D02*
X258190000Y-136190000D01*
X258160000Y-153190000D02*
X258160000Y-136220000D01*
X258190000Y-136190000D02*
X258190000Y-119180000D01*
X82190000Y-218700000D02*
X82190000Y-210890000D01*
X200460000Y-210890000D02*
X200470000Y-210880000D01*
X182230000Y-211000000D02*
X182120000Y-210890000D01*
X182230000Y-218650000D02*
X182230000Y-211000000D01*
X182120000Y-210890000D02*
X200460000Y-210890000D01*
X82190000Y-210890000D02*
X182120000Y-210890000D01*
X233940000Y-205720000D02*
X233970000Y-205690000D01*
X225090000Y-205720000D02*
X233940000Y-205720000D01*
X225100000Y-205730000D02*
X225090000Y-205720000D01*
X233970000Y-205690000D02*
X233970000Y-202970000D01*
X225100000Y-210880000D02*
X225100000Y-205730000D01*
X203640000Y-210880000D02*
X225100000Y-210880000D01*
X289852100Y-102031800D02*
X289852100Y-111429800D01*
X258190000Y-111468900D02*
X258190000Y-91180000D01*
X258190000Y-119180000D02*
X258190000Y-111468900D01*
%TO.N,BTN_COL_1*%
X245140000Y-153180000D02*
X245140000Y-136200000D01*
X245140000Y-136200000D02*
X245140000Y-119190000D01*
X62130000Y-218680000D02*
X62130000Y-209850000D01*
X62130000Y-209850000D02*
X62180000Y-209800000D01*
X202180000Y-218670000D02*
X202180000Y-209870000D01*
X202110000Y-209800000D02*
X221490000Y-209800000D01*
X202180000Y-209870000D02*
X202110000Y-209800000D01*
X62180000Y-209800000D02*
X202110000Y-209800000D01*
X223030000Y-202970000D02*
X223030000Y-209800000D01*
X223030000Y-209800000D02*
X221490000Y-209800000D01*
X300070000Y-172870000D02*
X295760000Y-172870000D01*
X223050000Y-172880000D02*
X223010000Y-172920000D01*
X227100000Y-172880000D02*
X223050000Y-172880000D01*
X245140000Y-110450000D02*
X245140000Y-91200000D01*
X245140000Y-119190000D02*
X245140000Y-110450000D01*
X288582100Y-110451900D02*
X288564000Y-110470000D01*
X288582100Y-102019100D02*
X288582100Y-110451900D01*
%TO.N,BTN_ROW_7*%
X234200000Y-112460000D02*
X234240000Y-112420000D01*
X225060000Y-112460000D02*
X234200000Y-112460000D01*
X225060000Y-154920000D02*
X225060000Y-112460000D01*
X286092900Y-112419600D02*
X286093300Y-112420000D01*
X286092900Y-101968300D02*
X286092900Y-112419600D01*
%TO.N,BTN_ROW_6*%
X333920000Y-94090000D02*
X333930000Y-94080000D01*
X314690000Y-107310000D02*
X333920000Y-107310000D01*
X333920000Y-107310000D02*
X333920000Y-94090000D01*
X314690000Y-148790000D02*
X314690000Y-107310000D01*
X314720000Y-148820000D02*
X314690000Y-148790000D01*
X326280000Y-148820000D02*
X314720000Y-148820000D01*
X326280000Y-154510000D02*
X326280000Y-148820000D01*
X333920000Y-94090000D02*
X333920000Y-84847600D01*
X333679800Y-84607400D02*
X306565300Y-84607400D01*
X333920000Y-84847600D02*
X333679800Y-84607400D01*
X284861000Y-96602900D02*
X284865100Y-96607000D01*
X284861000Y-84709000D02*
X284861000Y-96602900D01*
X284924500Y-84645500D02*
X284861000Y-84709000D01*
%TO.N,BTN_ROW_5*%
X272660000Y-179980000D02*
X243450000Y-179980000D01*
X309180000Y-179980000D02*
X272660000Y-179980000D01*
X309180000Y-154540000D02*
X309180000Y-179980000D01*
X309190000Y-154530000D02*
X309180000Y-154540000D01*
X312080000Y-154530000D02*
X309190000Y-154530000D01*
X243450000Y-179980000D02*
X227150000Y-179980000D01*
X227150000Y-179980000D02*
X227060000Y-180070000D01*
X227060000Y-180070000D02*
X227060000Y-202940000D01*
X312870000Y-129100000D02*
X312900000Y-129130000D01*
X312870000Y-125720000D02*
X312870000Y-129100000D01*
X312870000Y-109370000D02*
X312870000Y-125720000D01*
X312780000Y-109280000D02*
X312870000Y-109370000D01*
X283616400Y-105244900D02*
X283603700Y-105232200D01*
X283616400Y-102031800D02*
X283616400Y-105244900D01*
X312745400Y-109245400D02*
X312870000Y-109370000D01*
X305854100Y-109245400D02*
X312745400Y-109245400D01*
%TO.N,BTN_ROW_4*%
X311670000Y-104610000D02*
X311650000Y-104630000D01*
X316250000Y-104610000D02*
X311670000Y-104610000D01*
X299430000Y-140510000D02*
X299440000Y-140520000D01*
X299430000Y-120900000D02*
X299430000Y-140510000D01*
X349000000Y-104640000D02*
X349100000Y-104540000D01*
X335670000Y-104640000D02*
X349000000Y-104640000D01*
X349100000Y-87490000D02*
X349100000Y-104540000D01*
X295998900Y-120900000D02*
X299430000Y-120900000D01*
X295998900Y-117322600D02*
X295998900Y-120900000D01*
X282371800Y-117322600D02*
X295998900Y-117322600D01*
X282371800Y-102019100D02*
X282371800Y-117322600D01*
X282333700Y-101981000D02*
X282371800Y-102019100D01*
%TO.N,BTN_ROW_3*%
X336380000Y-87520000D02*
X336340000Y-87480000D01*
X336380000Y-96470000D02*
X336380000Y-87520000D01*
X278816700Y-130149600D02*
X278816700Y-132500000D01*
X281101800Y-130149600D02*
X278816700Y-130149600D01*
X281114500Y-130162300D02*
X281101800Y-130149600D01*
X281114500Y-101955600D02*
X281114500Y-130162300D01*
%TO.N,BTN_ROW_2*%
X317860000Y-89840000D02*
X317880000Y-89820000D01*
X309290000Y-106030000D02*
X332830000Y-106030000D01*
X337760000Y-93010000D02*
X337750000Y-93000000D01*
X337760000Y-96490000D02*
X337760000Y-93010000D01*
X279793700Y-115446200D02*
X279817500Y-115470000D01*
X279793700Y-101930200D02*
X279793700Y-115446200D01*
X317880000Y-92980000D02*
X317860000Y-93000000D01*
X317880000Y-89820000D02*
X317880000Y-92980000D01*
%TO.N,BTN_ROW_1*%
X278597600Y-87513400D02*
X278594200Y-87510000D01*
X278615100Y-87530900D02*
X278594200Y-87510000D01*
X278615100Y-94107000D02*
X278615100Y-87530900D01*
%TO.N,LED_A*%
X237740000Y-191010000D02*
X237720000Y-190990000D01*
X237740000Y-196080000D02*
X237740000Y-191010000D01*
X249872500Y-96837500D02*
X249859800Y-96824800D01*
X253644400Y-96837500D02*
X249872500Y-96837500D01*
X237700000Y-96881500D02*
X237744000Y-96837500D01*
X237700000Y-97200000D02*
X237700000Y-96881500D01*
X237720000Y-177590000D02*
X237720000Y-96861500D01*
X237720000Y-96861500D02*
X237744000Y-96837500D01*
%TD*%
M02*
