G75*
%MOIN*%
%OFA0B0*%
%FSLAX26Y26*%
%IPPOS*%
%LPD*%
%AMOC8*
5,1,8,0,0,1.08239X$1,22.5*
%
%ADD10OC8,0.056000*%
%ADD11C,0.039622*%
%ADD12C,0.019685*%
D10*
X09286614Y05046457D03*
X09386614Y05046457D03*
X09486614Y05046457D03*
X09586614Y05046457D03*
X09686614Y05046457D03*
X09786614Y05046457D03*
X09886614Y05046457D03*
X09986614Y05046457D03*
X10086614Y05046457D03*
X10186614Y05046457D03*
X10286614Y05046457D03*
X10386614Y05046457D03*
X10486614Y05046457D03*
X10486614Y05146457D03*
X10386614Y05146457D03*
X10286614Y05146457D03*
X10186614Y05146457D03*
X10086614Y05146457D03*
X09986614Y05146457D03*
X09886614Y05146457D03*
X09786614Y05146457D03*
X09686614Y05146457D03*
X09586614Y05146457D03*
X09486614Y05146457D03*
X09386614Y05146457D03*
X09286614Y05146457D03*
D11*
X04248031Y00405512D03*
X05472441Y00500000D03*
X05472441Y00594488D03*
X06259843Y00641732D03*
X06259843Y00511811D03*
X06578740Y00460630D03*
X07448819Y00700787D03*
X08023622Y00507874D03*
X07866142Y01326772D03*
X08259843Y01389764D03*
X08188976Y01590551D03*
X08118110Y01665354D03*
X08259843Y01787402D03*
X08259843Y01964567D03*
X07866142Y02070866D03*
X07866142Y02322835D03*
X08334646Y02318898D03*
X08594488Y02409449D03*
X08594488Y02535433D03*
X08834646Y02535433D03*
X08897638Y02692913D03*
X08834646Y02755906D03*
X08700787Y02807087D03*
X08366142Y02692913D03*
X08366142Y02622047D03*
X08188976Y02807087D03*
X08074803Y02807087D03*
X07787402Y03078740D03*
X07535433Y03157480D03*
X08188976Y03492126D03*
X08700787Y03492126D03*
X09212598Y03492126D03*
X09803150Y03492126D03*
X10232283Y03850394D03*
X10582677Y03716535D03*
X10507874Y03996063D03*
X10598425Y04137795D03*
X10212598Y04338583D03*
X10086614Y04460630D03*
X10185039Y04523622D03*
X09984252Y04578740D03*
X10185039Y04712598D03*
X10283465Y04712598D03*
X10385827Y04657480D03*
X10645669Y04712598D03*
X09984252Y04767717D03*
X09787402Y04818898D03*
X09685039Y04877953D03*
X09484252Y04881890D03*
X09685039Y04649606D03*
X09480315Y04594488D03*
X09562992Y04460630D03*
X09685039Y04192913D03*
X09803150Y04137795D03*
X09688976Y04062992D03*
X09212598Y04137795D03*
X08826772Y03877953D03*
X08594488Y04062992D03*
X08700787Y04137795D03*
X08188976Y04133858D03*
X07952756Y03996063D03*
X07523622Y04539370D03*
X08003937Y04594488D03*
X08354331Y04877953D03*
X08834646Y04972441D03*
X09125984Y04877953D03*
X09688976Y05275591D03*
X09688976Y05342520D03*
X09897638Y05370079D03*
X09984252Y05311024D03*
X10287402Y05311024D03*
X10433071Y05433071D03*
X10830709Y05429134D03*
X11188976Y05216535D03*
X12043307Y04960630D03*
X12283465Y05519685D03*
X11976378Y05685039D03*
X12204724Y05787402D03*
X09811024Y05535433D03*
X09586614Y05586614D03*
X09488189Y05590551D03*
X09385827Y05590551D03*
X08897638Y05685039D03*
X08834646Y05586614D03*
X08681102Y05342520D03*
X08358268Y05484252D03*
X08102362Y05625984D03*
X07992126Y05704724D03*
X07692913Y05629921D03*
X07645669Y05271654D03*
X07338583Y05271654D03*
X08511811Y05885827D03*
X10586614Y03204724D03*
X10759843Y02791339D03*
X09803150Y02807087D03*
X09649606Y02755906D03*
X09216535Y02807087D03*
X08834646Y02326772D03*
X10043307Y01795276D03*
X10590551Y02070866D03*
X11511811Y02059055D03*
X11511811Y02212598D03*
X11968504Y02413386D03*
X08366142Y01590551D03*
D12*
X10043307Y01590551D01*
X10043307Y01795276D01*
X10590551Y01858268D02*
X10590551Y02070866D01*
X10877953Y02188976D02*
X08334646Y02188976D01*
X08334646Y02318898D01*
X08594488Y02409449D02*
X08594488Y02535433D01*
X08834646Y02535433D02*
X08834646Y02326772D01*
X08366142Y02622047D02*
X10759843Y02622047D01*
X10759843Y02791339D01*
X10779528Y02885827D02*
X10877953Y02885827D01*
X10877953Y02188976D01*
X11511811Y02212598D02*
X11511811Y02059055D01*
X11968504Y02413386D02*
X11968504Y01326772D01*
X07866142Y01326772D01*
X08259843Y01389764D02*
X08259843Y01787402D01*
X08118110Y01665354D02*
X07618110Y01665354D01*
X07618110Y03157480D01*
X07535433Y03157480D01*
X07787402Y03078740D02*
X07787402Y01858268D01*
X10590551Y01858268D01*
X08897638Y02692913D02*
X08366142Y02692913D01*
X08188976Y02807087D02*
X08700787Y02807087D01*
X09216535Y02807087D01*
X09803150Y02807087D01*
X10259843Y02807087D01*
X10259843Y03141732D01*
X10586614Y03141732D01*
X10586614Y03204724D01*
X10582677Y03492126D02*
X10582677Y03716535D01*
X10232283Y03850394D02*
X08826772Y03850394D01*
X08826772Y03877953D01*
X08594488Y04062992D02*
X09688976Y04062992D01*
X09803150Y04137795D02*
X10598425Y04137795D01*
X10507874Y03996063D02*
X07952756Y03996063D01*
X08188976Y04133858D02*
X08188976Y04137795D01*
X08700787Y04137795D01*
X09212598Y04137795D01*
X09803150Y04137795D01*
X09685039Y04192913D02*
X09685039Y04649606D01*
X09480315Y04598425D02*
X09480315Y04594488D01*
X08003937Y04594488D01*
X08354331Y04877953D02*
X09125984Y04877953D01*
X09181102Y04842520D02*
X09484252Y04842520D01*
X09484252Y04881890D01*
X09685039Y04877953D02*
X10086614Y04877953D01*
X10086614Y04460630D01*
X10185039Y04523622D02*
X10185039Y04712598D01*
X10283465Y04712598D02*
X10645669Y04712598D01*
X10704724Y04653543D02*
X10704724Y04917323D01*
X10834646Y04917323D01*
X10834646Y05429134D01*
X10830709Y05429134D01*
X10433071Y05433071D02*
X10433071Y05267717D01*
X09786614Y05267717D01*
X09786614Y05146457D01*
X09688976Y05271654D02*
X07645669Y05271654D01*
X07523622Y05429134D02*
X09897638Y05429134D01*
X09897638Y05370079D01*
X09984252Y05311024D02*
X09984252Y05484252D01*
X08358268Y05484252D01*
X08681102Y05342520D02*
X09688976Y05342520D01*
X09688976Y05275591D02*
X09688976Y05271654D01*
X09811024Y05535433D02*
X07437008Y05535433D01*
X07437008Y04460630D01*
X09562992Y04460630D01*
X09787402Y04480315D02*
X09933071Y04480315D01*
X09933071Y04338583D01*
X10212598Y04338583D01*
X09984252Y04578740D02*
X09984252Y04767717D01*
X10086614Y04874016D02*
X10086614Y04877953D01*
X09787402Y04818898D02*
X09787402Y04480315D01*
X10385827Y04653543D02*
X10704724Y04653543D01*
X10779528Y04803150D02*
X10779528Y02885827D01*
X09649606Y02755906D02*
X08834646Y02755906D01*
X08074803Y02807087D02*
X08074803Y01964567D01*
X08259843Y01964567D01*
X07866142Y02070866D02*
X07866142Y02322835D01*
X08188976Y01590551D02*
X07196850Y01590551D01*
X07196850Y05271654D01*
X07338583Y05271654D01*
X07523622Y05429134D02*
X07523622Y04539370D01*
X08834646Y04972441D02*
X09181102Y04972441D01*
X09181102Y04842520D01*
X09286614Y04968504D02*
X10594488Y04968504D01*
X10594488Y05146457D01*
X10486614Y05146457D01*
X10354331Y05311024D02*
X10287402Y05311024D01*
X10354331Y05311024D02*
X10354331Y05523622D01*
X12283465Y05523622D01*
X12283465Y05519685D01*
X11976378Y05685039D02*
X09586614Y05685039D01*
X09586614Y05586614D01*
X09488189Y05590551D02*
X09488189Y05933071D01*
X07696850Y05933071D01*
X07696850Y05629921D01*
X07692913Y05629921D01*
X07992126Y05704724D02*
X08102362Y05704724D01*
X08102362Y05625984D01*
X08511811Y05885827D02*
X09385827Y05885827D01*
X09385827Y05590551D01*
X08897638Y05586614D02*
X08834646Y05586614D01*
X08897638Y05586614D02*
X08897638Y05685039D01*
X09286614Y05046457D02*
X09286614Y04968504D01*
X10385827Y04657480D02*
X10385827Y04653543D01*
X10779528Y04803150D02*
X12043307Y04803150D01*
X12043307Y04960630D01*
X12405512Y05212598D02*
X12405512Y05787402D01*
X12204724Y05787402D01*
X12405512Y05212598D02*
X11188976Y05212598D01*
X11188976Y05216535D01*
X10582677Y03492126D02*
X09803150Y03492126D01*
X09212598Y03492126D01*
X08700787Y03492126D01*
X08188976Y03492126D01*
X07448819Y00700787D02*
X07448819Y00641732D01*
X06578740Y00641732D01*
X06578740Y00460630D01*
X06685039Y00405512D02*
X04248031Y00405512D01*
X05472441Y00500000D02*
X05472441Y00594488D01*
X06259843Y00641732D02*
X06259843Y00511811D01*
X06685039Y00405512D02*
X06685039Y00110236D01*
X07169291Y00110236D01*
X07169291Y00409449D01*
X08023622Y00409449D01*
X08023622Y00507874D01*
M02*
