G75*
%MOIN*%
%OFA0B0*%
%FSLAX26Y26*%
%IPPOS*%
%LPD*%
%AMOC8*
5,1,8,0,0,1.08239X$1,22.5*
%
%ADD10OC8,0.056000*%
%ADD11R,0.059055X0.059055*%
%ADD12R,0.078740X0.039370*%
%ADD13C,0.019685*%
%ADD14C,0.039622*%
D10*
X09286614Y05046457D03*
X09386614Y05046457D03*
X09486614Y05046457D03*
X09586614Y05046457D03*
X09686614Y05046457D03*
X09786614Y05046457D03*
X09886614Y05046457D03*
X09986614Y05046457D03*
X10086614Y05046457D03*
X10186614Y05046457D03*
X10286614Y05046457D03*
X10386614Y05046457D03*
X10486614Y05046457D03*
X10486614Y05146457D03*
X10386614Y05146457D03*
X10286614Y05146457D03*
X10186614Y05146457D03*
X10086614Y05146457D03*
X09986614Y05146457D03*
X09886614Y05146457D03*
X09786614Y05146457D03*
X09686614Y05146457D03*
X09586614Y05146457D03*
X09486614Y05146457D03*
X09386614Y05146457D03*
X09286614Y05146457D03*
D11*
X08139370Y04920866D03*
X08001575Y04920866D03*
X07993701Y05787008D03*
X08131496Y05787008D03*
X08513386Y05784646D03*
X08651181Y05784646D03*
X11466142Y05785433D03*
X11603937Y05785433D03*
X11977953Y05786220D03*
X12115748Y05786220D03*
X08257480Y00670866D03*
X08119685Y00670866D03*
D12*
X00748031Y00415748D03*
X00984252Y00415748D03*
X01535433Y00412598D03*
X01771654Y00412598D03*
X02322835Y00417323D03*
X02559055Y00417323D03*
X03111417Y00415748D03*
X03347638Y00415748D03*
X03897638Y00411024D03*
X04133858Y00411024D03*
X04685039Y00415748D03*
X04921260Y00415748D03*
X05472441Y00412598D03*
X05708661Y00412598D03*
X06259843Y00409449D03*
X06496063Y00409449D03*
X10354331Y02281890D03*
X10590551Y02281890D03*
X11023622Y02558268D03*
X11259843Y02558268D03*
X11496063Y02796063D03*
X11732283Y02796063D03*
X11968504Y02559055D03*
X12204724Y02559055D03*
X11732283Y02320472D03*
X11496063Y02320472D03*
X10590551Y02792913D03*
X10354331Y02792913D03*
X09803150Y02990551D03*
X09566929Y02990551D03*
X09216535Y02989764D03*
X08980315Y02989764D03*
X08700787Y02988976D03*
X08464567Y02988976D03*
X08188976Y02990551D03*
X07952756Y02990551D03*
X07952756Y02322047D03*
X08188976Y02322047D03*
X08464567Y02322835D03*
X08700787Y02322835D03*
X08976378Y02323622D03*
X09212598Y02323622D03*
X09566929Y02324409D03*
X09803150Y02324409D03*
X10354331Y03343307D03*
X10590551Y03343307D03*
X09803150Y03661417D03*
X09566929Y03661417D03*
X09212598Y03660630D03*
X08976378Y03660630D03*
X08700787Y03659843D03*
X08464567Y03659843D03*
X08188976Y03659055D03*
X07952756Y03659055D03*
X07952756Y04333071D03*
X08188976Y04333071D03*
X08464567Y04329921D03*
X08700787Y04329921D03*
X08976378Y04330709D03*
X09212598Y04330709D03*
X09566929Y04327559D03*
X09803150Y04327559D03*
X10354331Y04408661D03*
X10590551Y04408661D03*
X10590551Y03854331D03*
X10354331Y03854331D03*
X10234252Y05431496D03*
X09998031Y05431496D03*
X10512992Y05432283D03*
X10749213Y05432283D03*
X11021654Y05432283D03*
X11257874Y05432283D03*
X11536614Y05433071D03*
X11772835Y05433071D03*
X12045276Y05433071D03*
X12281496Y05433071D03*
X09213780Y05431496D03*
X08977559Y05431496D03*
X08702756Y05430709D03*
X08466535Y05430709D03*
X08190157Y05430709D03*
X07953937Y05430709D03*
D13*
X07953937Y05433071D01*
X07799213Y05433071D01*
X07799213Y04333071D01*
X07952756Y04333071D01*
X07952756Y03996063D01*
X07952756Y03659055D01*
X07952756Y02990551D01*
X07952756Y02992126D01*
X07196850Y02992126D01*
X07196850Y00641732D01*
X06259843Y00641732D01*
X00748031Y00641732D01*
X00748031Y00415748D01*
X00984252Y00415748D02*
X00984252Y00314961D01*
X01779528Y00314961D01*
X01779528Y00412598D01*
X01771654Y00412598D01*
X01779528Y00314961D02*
X02566929Y00314961D01*
X02566929Y00417323D01*
X02559055Y00417323D01*
X02566929Y00314961D02*
X03338583Y00314961D01*
X06578740Y00314961D01*
X06578740Y00460630D01*
X06496063Y00507874D02*
X06496063Y00409449D01*
X06496063Y00350394D01*
X05704724Y00350394D01*
X05704724Y00412598D01*
X05708661Y00412598D01*
X05704724Y00350394D02*
X04917323Y00350394D01*
X04917323Y00415748D01*
X04921260Y00415748D01*
X04917323Y00350394D02*
X04133858Y00350394D01*
X04133858Y00411024D01*
X04248031Y00405512D02*
X04248031Y00488189D01*
X03901575Y00488189D01*
X03901575Y00411024D01*
X03897638Y00411024D01*
X03901575Y00488189D02*
X03111417Y00488189D01*
X03111417Y00415748D01*
X03338583Y00415748D02*
X03338583Y00314961D01*
X03338583Y00415748D02*
X03347638Y00415748D01*
X02322835Y00417323D02*
X02322835Y00555118D01*
X04685039Y00555118D01*
X04685039Y00415748D01*
X04685039Y00555118D02*
X07314961Y00555118D01*
X07314961Y02692913D01*
X08366142Y02692913D01*
X08366142Y02622047D02*
X07374016Y02622047D01*
X07374016Y00507874D01*
X06496063Y00507874D01*
X06259843Y00511811D02*
X06259843Y00409449D01*
X05472441Y00412598D02*
X05472441Y00500000D01*
X05472441Y00594488D02*
X07255906Y00594488D01*
X07255906Y02748031D01*
X08464567Y02748031D01*
X08464567Y02472441D01*
X10354331Y02472441D01*
X10354331Y02281890D01*
X10590551Y02281890D02*
X10590551Y02137795D01*
X10590551Y02070866D01*
X10590551Y02137795D02*
X11259843Y02137795D01*
X11740157Y02137795D01*
X11740157Y02320472D01*
X11732283Y02320472D01*
X12204724Y02320472D01*
X12204724Y02559055D01*
X12204724Y02799213D01*
X11732283Y02799213D01*
X11732283Y02796063D01*
X11496063Y02796063D02*
X11496063Y02964567D01*
X10507874Y02964567D01*
X10507874Y03996063D01*
X10507874Y04602362D01*
X09786614Y04602362D01*
X09786614Y05046457D01*
X09686614Y05046457D02*
X09686614Y04649606D01*
X09685039Y04649606D01*
X09886614Y04791339D02*
X09886614Y05046457D01*
X09986614Y05046457D02*
X09986614Y04893701D01*
X09986614Y04645669D01*
X09988189Y04645669D01*
X10086614Y04645669D02*
X10086614Y05046457D01*
X10186614Y05046457D02*
X10186614Y04834646D01*
X10286614Y04803150D02*
X10286614Y05046457D01*
X10386614Y05046457D02*
X10386614Y04881890D01*
X10590551Y04976378D02*
X11259843Y04976378D01*
X11259843Y05432283D01*
X11257874Y05432283D01*
X11021654Y05432283D02*
X11021654Y05452756D01*
X11019685Y05452756D01*
X11019685Y05318898D01*
X09986614Y05318898D01*
X09986614Y05146457D01*
X09886614Y05146457D02*
X09886614Y05531496D01*
X09307087Y05531496D01*
X09358268Y05484252D02*
X09786614Y05484252D01*
X09786614Y05146457D01*
X09586614Y05146457D02*
X09586614Y05429134D01*
X09401575Y05429134D01*
X09440945Y05374016D02*
X09486614Y05374016D01*
X09486614Y05146457D01*
X09386614Y05146457D02*
X09386614Y05208661D01*
X09059055Y05208661D01*
X08905512Y05326772D02*
X08905512Y04889764D01*
X08814961Y04964567D02*
X08814961Y05322835D01*
X08700787Y05322835D01*
X08700787Y05430709D01*
X08702756Y05430709D01*
X08702756Y05582677D01*
X09208661Y05582677D01*
X10234252Y05582677D01*
X10234252Y05431496D01*
X10236220Y05431496D01*
X10236220Y05358268D01*
X10749213Y05358268D01*
X10749213Y05432283D01*
X10512992Y05432283D02*
X10512992Y05590551D01*
X11021654Y05590551D01*
X11021654Y05452756D01*
X11021654Y05590551D02*
X11536614Y05590551D01*
X11536614Y05433071D01*
X11536614Y05590551D02*
X12043307Y05590551D01*
X12043307Y05433071D01*
X12043307Y04960630D01*
X12281496Y04866142D02*
X10779528Y04866142D01*
X10779528Y03350394D01*
X10590551Y03350394D01*
X10590551Y03343307D01*
X10586614Y03343307D01*
X10586614Y03204724D01*
X10354331Y03343307D02*
X10354331Y03854331D01*
X10354331Y04408661D01*
X10220472Y04408661D01*
X10220472Y04405512D01*
X10086614Y04460630D02*
X10086614Y02755906D01*
X09649606Y02755906D01*
X09803150Y02807087D02*
X09803150Y02990551D01*
X09566929Y02990551D02*
X09566929Y02625984D01*
X11492126Y02625984D01*
X11492126Y02320472D01*
X11496063Y02320472D01*
X11511811Y02320472D01*
X11511811Y02212598D01*
X11511811Y02059055D02*
X11511811Y01720472D01*
X08023622Y01720472D01*
X08023622Y00507874D01*
X08119685Y00670866D02*
X08119685Y01665354D01*
X08118110Y01665354D01*
X08255906Y01661417D02*
X08257480Y01661417D01*
X08257480Y00670866D01*
X07448819Y00700787D02*
X07448819Y02196850D01*
X08192913Y02196850D01*
X08700787Y02196850D01*
X09212598Y02196850D01*
X09803150Y02196850D01*
X09803150Y02324409D01*
X09944882Y02405512D02*
X09944882Y01779528D01*
X08342520Y01779528D01*
X08342520Y02133858D01*
X07535433Y02133858D01*
X07866142Y02070866D02*
X07866142Y01326772D01*
X08192913Y02196850D02*
X08192913Y02322047D01*
X08188976Y02322047D01*
X07952756Y02322047D02*
X07866142Y02322047D01*
X07866142Y02322835D01*
X08334646Y02318898D02*
X08464567Y02318898D01*
X08464567Y02322835D01*
X08594488Y02409449D02*
X08700787Y02409449D01*
X08700787Y02322835D01*
X08700787Y02196850D01*
X08834646Y02323622D02*
X08976378Y02323622D01*
X08834646Y02323622D02*
X08834646Y02326772D01*
X09212598Y02323622D02*
X09212598Y02196850D01*
X09566929Y02324409D02*
X09566929Y02405512D01*
X09944882Y02405512D01*
X10354331Y02677165D02*
X10354331Y02792913D01*
X10354331Y03343307D01*
X09803150Y03492126D02*
X09803150Y03661417D01*
X09566929Y03661417D02*
X09566929Y04327559D01*
X09562992Y04327559D01*
X09562992Y04460630D01*
X09586614Y04519685D02*
X09586614Y05046457D01*
X09486614Y05046457D02*
X09486614Y03660630D01*
X09212598Y03660630D01*
X09212598Y03492126D01*
X08980315Y03660630D02*
X08976378Y03660630D01*
X08976378Y04330709D01*
X08976378Y04539370D01*
X09000000Y04539370D01*
X09000000Y04791339D01*
X09062992Y04791339D01*
X09000000Y04791339D02*
X09000000Y05431496D01*
X08977559Y05431496D01*
X09208661Y05431496D02*
X09208661Y05582677D01*
X09208661Y05431496D02*
X09213780Y05431496D01*
X08702756Y05582677D02*
X08190157Y05582677D01*
X08190157Y05430709D01*
X08358268Y05430709D02*
X08466535Y05430709D01*
X08466535Y04303150D01*
X08464567Y04303150D01*
X08464567Y04329921D01*
X08464567Y04303150D02*
X08464567Y03659843D01*
X08464567Y02988976D01*
X08464567Y02748031D01*
X08700787Y02807087D02*
X08700787Y02988976D01*
X08980315Y02989764D02*
X08980315Y02692913D01*
X08897638Y02692913D01*
X08980315Y02692913D02*
X08980315Y02558268D01*
X11023622Y02558268D01*
X11259843Y02558268D02*
X11259843Y02137795D01*
X11968504Y02413386D02*
X11968504Y02559055D01*
X11968504Y02677165D01*
X10354331Y02677165D01*
X10590551Y02792913D02*
X10759843Y02792913D01*
X10759843Y02791339D01*
X10594488Y02792913D02*
X10590551Y02792913D01*
X10594488Y02792913D02*
X10594488Y02897638D01*
X10433071Y02897638D01*
X10433071Y04519685D01*
X09586614Y04519685D01*
X09803150Y04327559D02*
X09803150Y04137795D01*
X09685039Y04192913D02*
X09685039Y04062992D01*
X09688976Y04062992D01*
X09212598Y04137795D02*
X09212598Y04330709D01*
X08977559Y04330709D02*
X08976378Y04330709D01*
X08700787Y04329921D02*
X08700787Y04137795D01*
X08594488Y04062992D02*
X08594488Y02535433D01*
X08834646Y02535433D02*
X08834646Y02755906D01*
X09216535Y02807087D02*
X09216535Y02989764D01*
X08980315Y02989764D02*
X08980315Y03660630D01*
X08700787Y03659843D02*
X08700787Y03492126D01*
X08188976Y03492126D02*
X08188976Y03659055D01*
X07783465Y03590551D02*
X07610236Y03590551D01*
X07610236Y04539370D01*
X07523622Y04539370D02*
X07523622Y03488189D01*
X07787402Y03488189D01*
X07787402Y03078740D01*
X07535433Y03078740D02*
X07196850Y03078740D01*
X07196850Y05602362D01*
X07562992Y05602362D01*
X07562992Y05708661D01*
X07692913Y05708661D01*
X07692913Y05629921D02*
X07637795Y05629921D01*
X07637795Y05543307D01*
X07267717Y05543307D01*
X07267717Y03157480D01*
X07535433Y03157480D01*
X07535433Y03082677D02*
X07535433Y03078740D01*
X08188976Y03165354D02*
X08188976Y02990551D01*
X08188976Y02807087D01*
X09566929Y02990551D02*
X09566929Y03661417D01*
X10582677Y03716535D02*
X10582677Y03854331D01*
X10590551Y03854331D01*
X10590551Y03850394D01*
X10700787Y03850394D01*
X10700787Y04917323D01*
X11775591Y04917323D01*
X11775591Y05433071D01*
X11772835Y05433071D01*
X12043307Y05433071D02*
X12045276Y05433071D01*
X12281496Y05433071D02*
X12281496Y04866142D01*
X10590551Y04976378D02*
X10590551Y04408661D01*
X10598425Y04408661D01*
X10598425Y04137795D01*
X09286614Y05046457D02*
X09286614Y05047244D01*
X09059055Y05047244D01*
X08358268Y05430709D02*
X08358268Y05484252D01*
X08188976Y05629921D02*
X10287402Y05629921D01*
X10385827Y05736220D02*
X08799213Y05736220D01*
X08799213Y05881890D01*
X08515748Y05881890D01*
X08515748Y05784646D01*
X08513386Y05784646D01*
X08651181Y05784646D02*
X08651181Y05688976D01*
X08641732Y05688976D01*
X08131496Y05688976D01*
X08066929Y05688976D01*
X08066929Y05275591D01*
X08066929Y05047244D01*
X08141732Y05047244D01*
X08141732Y04920866D01*
X08139370Y04920866D01*
X08003937Y04920866D02*
X08003937Y04838583D01*
X08003937Y04920866D02*
X08001575Y04920866D01*
X07716535Y05047244D02*
X07338583Y05047244D01*
X08188976Y04566929D02*
X08188976Y04333071D01*
X08188976Y04133858D01*
X08188976Y04566929D02*
X08192913Y04566929D01*
X10086614Y05146457D02*
X10086614Y05267717D01*
X10186614Y05267717D02*
X10188976Y05267717D01*
X10186614Y05267717D02*
X10186614Y05146457D01*
X10286614Y05146457D02*
X10286614Y05267717D01*
X10287402Y05267717D01*
X10385827Y05267717D02*
X10386614Y05267717D01*
X10386614Y05146457D01*
X09998031Y05431496D02*
X09998031Y05527559D01*
X09996063Y05527559D01*
X10385827Y05736220D02*
X10385827Y05740157D01*
X10188976Y05826772D02*
X11220472Y05826772D01*
X11220472Y05944882D01*
X11980315Y05944882D01*
X11980315Y05786220D01*
X11977953Y05786220D01*
X12115748Y05786220D02*
X12115748Y05688976D01*
X11602362Y05688976D01*
X11602362Y05785433D01*
X11603937Y05785433D01*
X11602362Y05688976D02*
X08641732Y05688976D01*
X08131496Y05688976D02*
X08131496Y05787008D01*
X07993701Y05787008D02*
X07993701Y05952756D01*
X09448819Y05952756D01*
X09448819Y05803150D01*
X09748031Y05803150D01*
X09748031Y05948819D01*
X10905512Y05948819D01*
X11362205Y05787402D02*
X11466142Y05787402D01*
X11466142Y05785433D01*
X05472441Y00594488D02*
X01535433Y00594488D01*
X01535433Y00412598D01*
D14*
X04248031Y00405512D03*
X05472441Y00500000D03*
X05472441Y00594488D03*
X06259843Y00641732D03*
X06259843Y00511811D03*
X06578740Y00460630D03*
X07448819Y00700787D03*
X08023622Y00507874D03*
X07866142Y01326772D03*
X08118110Y01665354D03*
X08255906Y01661417D03*
X07866142Y02070866D03*
X07535433Y02133858D03*
X07866142Y02322835D03*
X08334646Y02318898D03*
X08594488Y02409449D03*
X08594488Y02535433D03*
X08834646Y02535433D03*
X08897638Y02692913D03*
X08834646Y02755906D03*
X08700787Y02807087D03*
X08366142Y02692913D03*
X08366142Y02622047D03*
X08188976Y02807087D03*
X07787402Y03078740D03*
X07535433Y03082677D03*
X07535433Y03157480D03*
X08188976Y03165354D03*
X08188976Y03492126D03*
X07783465Y03590551D03*
X07952756Y03996063D03*
X08188976Y04133858D03*
X08594488Y04062992D03*
X08700787Y04137795D03*
X09212598Y04137795D03*
X09685039Y04192913D03*
X09803150Y04137795D03*
X09688976Y04062992D03*
X09562992Y04460630D03*
X09685039Y04649606D03*
X09886614Y04791339D03*
X09986614Y04893701D03*
X10186614Y04834646D03*
X10286614Y04803150D03*
X10386614Y04881890D03*
X10086614Y04645669D03*
X09988189Y04645669D03*
X10086614Y04460630D03*
X10220472Y04405512D03*
X10598425Y04137795D03*
X10507874Y03996063D03*
X10582677Y03716535D03*
X09803150Y03492126D03*
X09212598Y03492126D03*
X08700787Y03492126D03*
X09216535Y02807087D03*
X09649606Y02755906D03*
X09803150Y02807087D03*
X10586614Y03204724D03*
X10759843Y02791339D03*
X11968504Y02413386D03*
X11511811Y02212598D03*
X11511811Y02059055D03*
X10590551Y02070866D03*
X08834646Y02326772D03*
X08192913Y04566929D03*
X08003937Y04838583D03*
X08141732Y05047244D03*
X07716535Y05047244D03*
X07338583Y05047244D03*
X08066929Y05275591D03*
X08358268Y05484252D03*
X08188976Y05629921D03*
X07692913Y05629921D03*
X07692913Y05708661D03*
X08905512Y05326772D03*
X09059055Y05208661D03*
X09059055Y05047244D03*
X08905512Y04889764D03*
X08814961Y04964567D03*
X09062992Y04791339D03*
X10086614Y05267717D03*
X10188976Y05267717D03*
X10287402Y05267717D03*
X10385827Y05267717D03*
X09996063Y05527559D03*
X10287402Y05629921D03*
X10385827Y05740157D03*
X10188976Y05826772D03*
X10905512Y05948819D03*
X11362205Y05787402D03*
X12043307Y04960630D03*
X09440945Y05374016D03*
X09401575Y05429134D03*
X09358268Y05484252D03*
X09307087Y05531496D03*
X07610236Y04539370D03*
X07523622Y04539370D03*
M02*
