G75*
%MOIN*%
%OFA0B0*%
%FSLAX26Y26*%
%IPPOS*%
%LPD*%
%AMOC8*
5,1,8,0,0,1.08239X$1,22.5*
%
%ADD10C,0.165480*%
%ADD11C,0.106425*%
%ADD12OC8,0.064000*%
%ADD13C,0.047622*%
D10*
X00354331Y00354331D03*
X03622047Y00157480D03*
X06889764Y00354331D03*
X08858268Y02007874D03*
X10590551Y01574803D03*
X12283465Y01574803D03*
X08858268Y04724409D03*
X07322835Y05748031D03*
X11417323Y05078740D03*
D11*
X10905512Y04645669D03*
X09606299Y05905512D03*
X07559055Y05905512D03*
X12480315Y05905512D03*
X07559055Y03346457D03*
X10905512Y03228346D03*
X10393701Y01456693D03*
X08464567Y01456693D03*
X08464567Y00590551D03*
X07559055Y00590551D03*
X06377953Y00157480D03*
X04803150Y00157480D03*
X02440945Y00157480D03*
X00866142Y00157480D03*
X12480315Y01456693D03*
D12*
X10486614Y05046457D03*
X10386614Y05046457D03*
X10286614Y05046457D03*
X10186614Y05046457D03*
X10086614Y05046457D03*
X09986614Y05046457D03*
X09886614Y05046457D03*
X09786614Y05046457D03*
X09686614Y05046457D03*
X09586614Y05046457D03*
X09486614Y05046457D03*
X09386614Y05046457D03*
X09286614Y05046457D03*
X09286614Y05146457D03*
X09386614Y05146457D03*
X09486614Y05146457D03*
X09586614Y05146457D03*
X09686614Y05146457D03*
X09786614Y05146457D03*
X09886614Y05146457D03*
X09986614Y05146457D03*
X10086614Y05146457D03*
X10186614Y05146457D03*
X10286614Y05146457D03*
X10386614Y05146457D03*
X10486614Y05146457D03*
D13*
X10385827Y05267717D03*
X10287402Y05267717D03*
X10188976Y05267717D03*
X10086614Y05267717D03*
X09996063Y05527559D03*
X10287402Y05629921D03*
X10385827Y05740157D03*
X10188976Y05826772D03*
X10905512Y05948819D03*
X11362205Y05787402D03*
X12043307Y04960630D03*
X10386614Y04881890D03*
X10286614Y04803150D03*
X10186614Y04834646D03*
X09986614Y04893701D03*
X09886614Y04791339D03*
X09988189Y04645669D03*
X10086614Y04645669D03*
X10086614Y04460630D03*
X10220472Y04405512D03*
X10598425Y04137795D03*
X10507874Y03996063D03*
X10582677Y03716535D03*
X09803150Y03492126D03*
X09212598Y03492126D03*
X08700787Y03492126D03*
X08188976Y03492126D03*
X07783465Y03590551D03*
X07952756Y03996063D03*
X08188976Y04133858D03*
X08594488Y04062992D03*
X08700787Y04137795D03*
X09212598Y04137795D03*
X09685039Y04192913D03*
X09803150Y04137795D03*
X09688976Y04062992D03*
X09562992Y04460630D03*
X09685039Y04649606D03*
X09062992Y04791339D03*
X08905512Y04889764D03*
X08814961Y04964567D03*
X09059055Y05047244D03*
X09059055Y05208661D03*
X08905512Y05326772D03*
X09307087Y05531496D03*
X09358268Y05484252D03*
X09401575Y05429134D03*
X09440945Y05374016D03*
X08358268Y05484252D03*
X08188976Y05629921D03*
X07692913Y05629921D03*
X07692913Y05708661D03*
X08066929Y05275591D03*
X08141732Y05047244D03*
X08003937Y04838583D03*
X07716535Y05047244D03*
X07338583Y05047244D03*
X07523622Y04539370D03*
X07610236Y04539370D03*
X08192913Y04566929D03*
X10586614Y03204724D03*
X10759843Y02791339D03*
X09803150Y02807087D03*
X09649606Y02755906D03*
X09216535Y02807087D03*
X08897638Y02692913D03*
X08834646Y02755906D03*
X08700787Y02807087D03*
X08366142Y02692913D03*
X08366142Y02622047D03*
X08594488Y02535433D03*
X08594488Y02409449D03*
X08834646Y02326772D03*
X08834646Y02535433D03*
X08334646Y02318898D03*
X07866142Y02322835D03*
X07535433Y02133858D03*
X07866142Y02070866D03*
X08118110Y01665354D03*
X08255906Y01661417D03*
X07866142Y01326772D03*
X07448819Y00700787D03*
X08023622Y00507874D03*
X06578740Y00460630D03*
X06259843Y00511811D03*
X06259843Y00641732D03*
X05472441Y00594488D03*
X05472441Y00500000D03*
X04248031Y00405512D03*
X08188976Y02807087D03*
X07787402Y03078740D03*
X07535433Y03082677D03*
X07535433Y03157480D03*
X08188976Y03165354D03*
X10590551Y02070866D03*
X11511811Y02059055D03*
X11511811Y02212598D03*
X11968504Y02413386D03*
M02*
