G75*
%MOIN*%
%OFA0B0*%
%FSLAX26Y26*%
%IPPOS*%
%LPD*%
%AMOC8*
5,1,8,0,0,1.08239X$1,22.5*
%
%ADD10C,0.000000*%
%ADD11C,0.000039*%
%ADD12R,0.341732X0.002756*%
%ADD13R,0.046850X0.002756*%
%ADD14R,0.192913X0.002756*%
%ADD15R,0.049606X0.002756*%
%ADD16R,0.344488X0.002756*%
%ADD17R,0.195669X0.002756*%
%ADD18R,0.052362X0.002756*%
%ADD19R,0.242520X0.002756*%
%ADD20R,0.055118X0.002756*%
%ADD21R,0.245276X0.002756*%
%ADD22R,0.146063X0.002756*%
%ADD23R,0.099213X0.002756*%
%ADD24R,0.154331X0.002756*%
%ADD25R,0.002756X0.002756*%
%ADD26R,0.148819X0.002756*%
%ADD27R,0.096457X0.002756*%
%ADD28R,0.093701X0.002756*%
%ADD29R,0.101969X0.002756*%
%ADD30R,0.438189X0.002756*%
%ADD31R,0.338976X0.002756*%
%ADD32R,0.482283X0.002756*%
%ADD33R,0.082677X0.002756*%
%ADD34R,0.057874X0.002756*%
%ADD35R,0.292126X0.002756*%
%ADD36R,0.198425X0.002756*%
%ADD37R,0.628346X0.002756*%
%ADD38R,0.336220X0.002756*%
%ADD39R,0.248031X0.002756*%
%ADD40R,0.534646X0.002756*%
%ADD41R,0.201181X0.002756*%
%ADD42R,0.041339X0.002756*%
%ADD43R,0.035827X0.002756*%
%ADD44R,0.239764X0.002756*%
%ADD45R,0.143307X0.002756*%
%ADD46R,0.104724X0.002756*%
%ADD47C,0.009000*%
%ADD48C,0.006000*%
%ADD49C,0.002000*%
%ADD50C,0.005000*%
D10*
X00000000Y00000000D02*
X00000000Y00748031D01*
X00275591Y00354331D02*
X00275615Y00356263D01*
X00275686Y00358195D01*
X00275804Y00360123D01*
X00275970Y00362049D01*
X00276183Y00363970D01*
X00276443Y00365885D01*
X00276750Y00367793D01*
X00277104Y00369692D01*
X00277504Y00371583D01*
X00277951Y00373463D01*
X00278443Y00375332D01*
X00278982Y00377188D01*
X00279565Y00379030D01*
X00280194Y00380858D01*
X00280867Y00382669D01*
X00281585Y00384463D01*
X00282346Y00386240D01*
X00283151Y00387997D01*
X00283999Y00389733D01*
X00284889Y00391449D01*
X00285820Y00393142D01*
X00286793Y00394811D01*
X00287807Y00396457D01*
X00288861Y00398077D01*
X00289954Y00399670D01*
X00291086Y00401236D01*
X00292257Y00402774D01*
X00293464Y00404283D01*
X00294708Y00405762D01*
X00295989Y00407210D01*
X00297304Y00408625D01*
X00298653Y00410009D01*
X00300037Y00411358D01*
X00301452Y00412673D01*
X00302900Y00413954D01*
X00304379Y00415198D01*
X00305888Y00416405D01*
X00307426Y00417576D01*
X00308992Y00418708D01*
X00310585Y00419801D01*
X00312205Y00420855D01*
X00313851Y00421869D01*
X00315520Y00422842D01*
X00317213Y00423773D01*
X00318929Y00424663D01*
X00320665Y00425511D01*
X00322422Y00426316D01*
X00324199Y00427077D01*
X00325993Y00427795D01*
X00327804Y00428468D01*
X00329632Y00429097D01*
X00331474Y00429680D01*
X00333330Y00430219D01*
X00335199Y00430711D01*
X00337079Y00431158D01*
X00338970Y00431558D01*
X00340869Y00431912D01*
X00342777Y00432219D01*
X00344692Y00432479D01*
X00346613Y00432692D01*
X00348539Y00432858D01*
X00350467Y00432976D01*
X00352399Y00433047D01*
X00354331Y00433071D01*
X00356263Y00433047D01*
X00358195Y00432976D01*
X00360123Y00432858D01*
X00362049Y00432692D01*
X00363970Y00432479D01*
X00365885Y00432219D01*
X00367793Y00431912D01*
X00369692Y00431558D01*
X00371583Y00431158D01*
X00373463Y00430711D01*
X00375332Y00430219D01*
X00377188Y00429680D01*
X00379030Y00429097D01*
X00380858Y00428468D01*
X00382669Y00427795D01*
X00384463Y00427077D01*
X00386240Y00426316D01*
X00387997Y00425511D01*
X00389733Y00424663D01*
X00391449Y00423773D01*
X00393142Y00422842D01*
X00394811Y00421869D01*
X00396457Y00420855D01*
X00398077Y00419801D01*
X00399670Y00418708D01*
X00401236Y00417576D01*
X00402774Y00416405D01*
X00404283Y00415198D01*
X00405762Y00413954D01*
X00407210Y00412673D01*
X00408625Y00411358D01*
X00410009Y00410009D01*
X00411358Y00408625D01*
X00412673Y00407210D01*
X00413954Y00405762D01*
X00415198Y00404283D01*
X00416405Y00402774D01*
X00417576Y00401236D01*
X00418708Y00399670D01*
X00419801Y00398077D01*
X00420855Y00396457D01*
X00421869Y00394811D01*
X00422842Y00393142D01*
X00423773Y00391449D01*
X00424663Y00389733D01*
X00425511Y00387997D01*
X00426316Y00386240D01*
X00427077Y00384463D01*
X00427795Y00382669D01*
X00428468Y00380858D01*
X00429097Y00379030D01*
X00429680Y00377188D01*
X00430219Y00375332D01*
X00430711Y00373463D01*
X00431158Y00371583D01*
X00431558Y00369692D01*
X00431912Y00367793D01*
X00432219Y00365885D01*
X00432479Y00363970D01*
X00432692Y00362049D01*
X00432858Y00360123D01*
X00432976Y00358195D01*
X00433047Y00356263D01*
X00433071Y00354331D01*
X00433047Y00352399D01*
X00432976Y00350467D01*
X00432858Y00348539D01*
X00432692Y00346613D01*
X00432479Y00344692D01*
X00432219Y00342777D01*
X00431912Y00340869D01*
X00431558Y00338970D01*
X00431158Y00337079D01*
X00430711Y00335199D01*
X00430219Y00333330D01*
X00429680Y00331474D01*
X00429097Y00329632D01*
X00428468Y00327804D01*
X00427795Y00325993D01*
X00427077Y00324199D01*
X00426316Y00322422D01*
X00425511Y00320665D01*
X00424663Y00318929D01*
X00423773Y00317213D01*
X00422842Y00315520D01*
X00421869Y00313851D01*
X00420855Y00312205D01*
X00419801Y00310585D01*
X00418708Y00308992D01*
X00417576Y00307426D01*
X00416405Y00305888D01*
X00415198Y00304379D01*
X00413954Y00302900D01*
X00412673Y00301452D01*
X00411358Y00300037D01*
X00410009Y00298653D01*
X00408625Y00297304D01*
X00407210Y00295989D01*
X00405762Y00294708D01*
X00404283Y00293464D01*
X00402774Y00292257D01*
X00401236Y00291086D01*
X00399670Y00289954D01*
X00398077Y00288861D01*
X00396457Y00287807D01*
X00394811Y00286793D01*
X00393142Y00285820D01*
X00391449Y00284889D01*
X00389733Y00283999D01*
X00387997Y00283151D01*
X00386240Y00282346D01*
X00384463Y00281585D01*
X00382669Y00280867D01*
X00380858Y00280194D01*
X00379030Y00279565D01*
X00377188Y00278982D01*
X00375332Y00278443D01*
X00373463Y00277951D01*
X00371583Y00277504D01*
X00369692Y00277104D01*
X00367793Y00276750D01*
X00365885Y00276443D01*
X00363970Y00276183D01*
X00362049Y00275970D01*
X00360123Y00275804D01*
X00358195Y00275686D01*
X00356263Y00275615D01*
X00354331Y00275591D01*
X00352399Y00275615D01*
X00350467Y00275686D01*
X00348539Y00275804D01*
X00346613Y00275970D01*
X00344692Y00276183D01*
X00342777Y00276443D01*
X00340869Y00276750D01*
X00338970Y00277104D01*
X00337079Y00277504D01*
X00335199Y00277951D01*
X00333330Y00278443D01*
X00331474Y00278982D01*
X00329632Y00279565D01*
X00327804Y00280194D01*
X00325993Y00280867D01*
X00324199Y00281585D01*
X00322422Y00282346D01*
X00320665Y00283151D01*
X00318929Y00283999D01*
X00317213Y00284889D01*
X00315520Y00285820D01*
X00313851Y00286793D01*
X00312205Y00287807D01*
X00310585Y00288861D01*
X00308992Y00289954D01*
X00307426Y00291086D01*
X00305888Y00292257D01*
X00304379Y00293464D01*
X00302900Y00294708D01*
X00301452Y00295989D01*
X00300037Y00297304D01*
X00298653Y00298653D01*
X00297304Y00300037D01*
X00295989Y00301452D01*
X00294708Y00302900D01*
X00293464Y00304379D01*
X00292257Y00305888D01*
X00291086Y00307426D01*
X00289954Y00308992D01*
X00288861Y00310585D01*
X00287807Y00312205D01*
X00286793Y00313851D01*
X00285820Y00315520D01*
X00284889Y00317213D01*
X00283999Y00318929D01*
X00283151Y00320665D01*
X00282346Y00322422D01*
X00281585Y00324199D01*
X00280867Y00325993D01*
X00280194Y00327804D01*
X00279565Y00329632D01*
X00278982Y00331474D01*
X00278443Y00333330D01*
X00277951Y00335199D01*
X00277504Y00337079D01*
X00277104Y00338970D01*
X00276750Y00340869D01*
X00276443Y00342777D01*
X00276183Y00344692D01*
X00275970Y00346613D01*
X00275804Y00348539D01*
X00275686Y00350467D01*
X00275615Y00352399D01*
X00275591Y00354331D01*
X00816929Y00157480D02*
X00816944Y00158688D01*
X00816988Y00159895D01*
X00817062Y00161100D01*
X00817166Y00162304D01*
X00817299Y00163504D01*
X00817462Y00164701D01*
X00817654Y00165894D01*
X00817875Y00167081D01*
X00818125Y00168263D01*
X00818404Y00169438D01*
X00818712Y00170606D01*
X00819048Y00171766D01*
X00819413Y00172917D01*
X00819806Y00174059D01*
X00820227Y00175192D01*
X00820675Y00176313D01*
X00821151Y00177423D01*
X00821654Y00178521D01*
X00822184Y00179607D01*
X00822740Y00180679D01*
X00823322Y00181737D01*
X00823931Y00182781D01*
X00824564Y00183809D01*
X00825223Y00184821D01*
X00825906Y00185817D01*
X00826614Y00186796D01*
X00827345Y00187757D01*
X00828100Y00188700D01*
X00828877Y00189625D01*
X00829678Y00190529D01*
X00830500Y00191414D01*
X00831343Y00192279D01*
X00832208Y00193122D01*
X00833093Y00193944D01*
X00833997Y00194745D01*
X00834922Y00195522D01*
X00835865Y00196277D01*
X00836826Y00197008D01*
X00837805Y00197716D01*
X00838801Y00198399D01*
X00839813Y00199058D01*
X00840841Y00199691D01*
X00841885Y00200300D01*
X00842943Y00200882D01*
X00844015Y00201438D01*
X00845101Y00201968D01*
X00846199Y00202471D01*
X00847309Y00202947D01*
X00848430Y00203395D01*
X00849563Y00203816D01*
X00850705Y00204209D01*
X00851856Y00204574D01*
X00853016Y00204910D01*
X00854184Y00205218D01*
X00855359Y00205497D01*
X00856541Y00205747D01*
X00857728Y00205968D01*
X00858921Y00206160D01*
X00860118Y00206323D01*
X00861318Y00206456D01*
X00862522Y00206560D01*
X00863727Y00206634D01*
X00864934Y00206678D01*
X00866142Y00206693D01*
X00867350Y00206678D01*
X00868557Y00206634D01*
X00869762Y00206560D01*
X00870966Y00206456D01*
X00872166Y00206323D01*
X00873363Y00206160D01*
X00874556Y00205968D01*
X00875743Y00205747D01*
X00876925Y00205497D01*
X00878100Y00205218D01*
X00879268Y00204910D01*
X00880428Y00204574D01*
X00881579Y00204209D01*
X00882721Y00203816D01*
X00883854Y00203395D01*
X00884975Y00202947D01*
X00886085Y00202471D01*
X00887183Y00201968D01*
X00888269Y00201438D01*
X00889341Y00200882D01*
X00890399Y00200300D01*
X00891443Y00199691D01*
X00892471Y00199058D01*
X00893483Y00198399D01*
X00894479Y00197716D01*
X00895458Y00197008D01*
X00896419Y00196277D01*
X00897362Y00195522D01*
X00898287Y00194745D01*
X00899191Y00193944D01*
X00900076Y00193122D01*
X00900941Y00192279D01*
X00901784Y00191414D01*
X00902606Y00190529D01*
X00903407Y00189625D01*
X00904184Y00188700D01*
X00904939Y00187757D01*
X00905670Y00186796D01*
X00906378Y00185817D01*
X00907061Y00184821D01*
X00907720Y00183809D01*
X00908353Y00182781D01*
X00908962Y00181737D01*
X00909544Y00180679D01*
X00910100Y00179607D01*
X00910630Y00178521D01*
X00911133Y00177423D01*
X00911609Y00176313D01*
X00912057Y00175192D01*
X00912478Y00174059D01*
X00912871Y00172917D01*
X00913236Y00171766D01*
X00913572Y00170606D01*
X00913880Y00169438D01*
X00914159Y00168263D01*
X00914409Y00167081D01*
X00914630Y00165894D01*
X00914822Y00164701D01*
X00914985Y00163504D01*
X00915118Y00162304D01*
X00915222Y00161100D01*
X00915296Y00159895D01*
X00915340Y00158688D01*
X00915355Y00157480D01*
X00915340Y00156272D01*
X00915296Y00155065D01*
X00915222Y00153860D01*
X00915118Y00152656D01*
X00914985Y00151456D01*
X00914822Y00150259D01*
X00914630Y00149066D01*
X00914409Y00147879D01*
X00914159Y00146697D01*
X00913880Y00145522D01*
X00913572Y00144354D01*
X00913236Y00143194D01*
X00912871Y00142043D01*
X00912478Y00140901D01*
X00912057Y00139768D01*
X00911609Y00138647D01*
X00911133Y00137537D01*
X00910630Y00136439D01*
X00910100Y00135353D01*
X00909544Y00134281D01*
X00908962Y00133223D01*
X00908353Y00132179D01*
X00907720Y00131151D01*
X00907061Y00130139D01*
X00906378Y00129143D01*
X00905670Y00128164D01*
X00904939Y00127203D01*
X00904184Y00126260D01*
X00903407Y00125335D01*
X00902606Y00124431D01*
X00901784Y00123546D01*
X00900941Y00122681D01*
X00900076Y00121838D01*
X00899191Y00121016D01*
X00898287Y00120215D01*
X00897362Y00119438D01*
X00896419Y00118683D01*
X00895458Y00117952D01*
X00894479Y00117244D01*
X00893483Y00116561D01*
X00892471Y00115902D01*
X00891443Y00115269D01*
X00890399Y00114660D01*
X00889341Y00114078D01*
X00888269Y00113522D01*
X00887183Y00112992D01*
X00886085Y00112489D01*
X00884975Y00112013D01*
X00883854Y00111565D01*
X00882721Y00111144D01*
X00881579Y00110751D01*
X00880428Y00110386D01*
X00879268Y00110050D01*
X00878100Y00109742D01*
X00876925Y00109463D01*
X00875743Y00109213D01*
X00874556Y00108992D01*
X00873363Y00108800D01*
X00872166Y00108637D01*
X00870966Y00108504D01*
X00869762Y00108400D01*
X00868557Y00108326D01*
X00867350Y00108282D01*
X00866142Y00108267D01*
X00864934Y00108282D01*
X00863727Y00108326D01*
X00862522Y00108400D01*
X00861318Y00108504D01*
X00860118Y00108637D01*
X00858921Y00108800D01*
X00857728Y00108992D01*
X00856541Y00109213D01*
X00855359Y00109463D01*
X00854184Y00109742D01*
X00853016Y00110050D01*
X00851856Y00110386D01*
X00850705Y00110751D01*
X00849563Y00111144D01*
X00848430Y00111565D01*
X00847309Y00112013D01*
X00846199Y00112489D01*
X00845101Y00112992D01*
X00844015Y00113522D01*
X00842943Y00114078D01*
X00841885Y00114660D01*
X00840841Y00115269D01*
X00839813Y00115902D01*
X00838801Y00116561D01*
X00837805Y00117244D01*
X00836826Y00117952D01*
X00835865Y00118683D01*
X00834922Y00119438D01*
X00833997Y00120215D01*
X00833093Y00121016D01*
X00832208Y00121838D01*
X00831343Y00122681D01*
X00830500Y00123546D01*
X00829678Y00124431D01*
X00828877Y00125335D01*
X00828100Y00126260D01*
X00827345Y00127203D01*
X00826614Y00128164D01*
X00825906Y00129143D01*
X00825223Y00130139D01*
X00824564Y00131151D01*
X00823931Y00132179D01*
X00823322Y00133223D01*
X00822740Y00134281D01*
X00822184Y00135353D01*
X00821654Y00136439D01*
X00821151Y00137537D01*
X00820675Y00138647D01*
X00820227Y00139768D01*
X00819806Y00140901D01*
X00819413Y00142043D01*
X00819048Y00143194D01*
X00818712Y00144354D01*
X00818404Y00145522D01*
X00818125Y00146697D01*
X00817875Y00147879D01*
X00817654Y00149066D01*
X00817462Y00150259D01*
X00817299Y00151456D01*
X00817166Y00152656D01*
X00817062Y00153860D01*
X00816988Y00155065D01*
X00816944Y00156272D01*
X00816929Y00157480D01*
X02391732Y00157480D02*
X02391747Y00158688D01*
X02391791Y00159895D01*
X02391865Y00161100D01*
X02391969Y00162304D01*
X02392102Y00163504D01*
X02392265Y00164701D01*
X02392457Y00165894D01*
X02392678Y00167081D01*
X02392928Y00168263D01*
X02393207Y00169438D01*
X02393515Y00170606D01*
X02393851Y00171766D01*
X02394216Y00172917D01*
X02394609Y00174059D01*
X02395030Y00175192D01*
X02395478Y00176313D01*
X02395954Y00177423D01*
X02396457Y00178521D01*
X02396987Y00179607D01*
X02397543Y00180679D01*
X02398125Y00181737D01*
X02398734Y00182781D01*
X02399367Y00183809D01*
X02400026Y00184821D01*
X02400709Y00185817D01*
X02401417Y00186796D01*
X02402148Y00187757D01*
X02402903Y00188700D01*
X02403680Y00189625D01*
X02404481Y00190529D01*
X02405303Y00191414D01*
X02406146Y00192279D01*
X02407011Y00193122D01*
X02407896Y00193944D01*
X02408800Y00194745D01*
X02409725Y00195522D01*
X02410668Y00196277D01*
X02411629Y00197008D01*
X02412608Y00197716D01*
X02413604Y00198399D01*
X02414616Y00199058D01*
X02415644Y00199691D01*
X02416688Y00200300D01*
X02417746Y00200882D01*
X02418818Y00201438D01*
X02419904Y00201968D01*
X02421002Y00202471D01*
X02422112Y00202947D01*
X02423233Y00203395D01*
X02424366Y00203816D01*
X02425508Y00204209D01*
X02426659Y00204574D01*
X02427819Y00204910D01*
X02428987Y00205218D01*
X02430162Y00205497D01*
X02431344Y00205747D01*
X02432531Y00205968D01*
X02433724Y00206160D01*
X02434921Y00206323D01*
X02436121Y00206456D01*
X02437325Y00206560D01*
X02438530Y00206634D01*
X02439737Y00206678D01*
X02440945Y00206693D01*
X02442153Y00206678D01*
X02443360Y00206634D01*
X02444565Y00206560D01*
X02445769Y00206456D01*
X02446969Y00206323D01*
X02448166Y00206160D01*
X02449359Y00205968D01*
X02450546Y00205747D01*
X02451728Y00205497D01*
X02452903Y00205218D01*
X02454071Y00204910D01*
X02455231Y00204574D01*
X02456382Y00204209D01*
X02457524Y00203816D01*
X02458657Y00203395D01*
X02459778Y00202947D01*
X02460888Y00202471D01*
X02461986Y00201968D01*
X02463072Y00201438D01*
X02464144Y00200882D01*
X02465202Y00200300D01*
X02466246Y00199691D01*
X02467274Y00199058D01*
X02468286Y00198399D01*
X02469282Y00197716D01*
X02470261Y00197008D01*
X02471222Y00196277D01*
X02472165Y00195522D01*
X02473090Y00194745D01*
X02473994Y00193944D01*
X02474879Y00193122D01*
X02475744Y00192279D01*
X02476587Y00191414D01*
X02477409Y00190529D01*
X02478210Y00189625D01*
X02478987Y00188700D01*
X02479742Y00187757D01*
X02480473Y00186796D01*
X02481181Y00185817D01*
X02481864Y00184821D01*
X02482523Y00183809D01*
X02483156Y00182781D01*
X02483765Y00181737D01*
X02484347Y00180679D01*
X02484903Y00179607D01*
X02485433Y00178521D01*
X02485936Y00177423D01*
X02486412Y00176313D01*
X02486860Y00175192D01*
X02487281Y00174059D01*
X02487674Y00172917D01*
X02488039Y00171766D01*
X02488375Y00170606D01*
X02488683Y00169438D01*
X02488962Y00168263D01*
X02489212Y00167081D01*
X02489433Y00165894D01*
X02489625Y00164701D01*
X02489788Y00163504D01*
X02489921Y00162304D01*
X02490025Y00161100D01*
X02490099Y00159895D01*
X02490143Y00158688D01*
X02490158Y00157480D01*
X02490143Y00156272D01*
X02490099Y00155065D01*
X02490025Y00153860D01*
X02489921Y00152656D01*
X02489788Y00151456D01*
X02489625Y00150259D01*
X02489433Y00149066D01*
X02489212Y00147879D01*
X02488962Y00146697D01*
X02488683Y00145522D01*
X02488375Y00144354D01*
X02488039Y00143194D01*
X02487674Y00142043D01*
X02487281Y00140901D01*
X02486860Y00139768D01*
X02486412Y00138647D01*
X02485936Y00137537D01*
X02485433Y00136439D01*
X02484903Y00135353D01*
X02484347Y00134281D01*
X02483765Y00133223D01*
X02483156Y00132179D01*
X02482523Y00131151D01*
X02481864Y00130139D01*
X02481181Y00129143D01*
X02480473Y00128164D01*
X02479742Y00127203D01*
X02478987Y00126260D01*
X02478210Y00125335D01*
X02477409Y00124431D01*
X02476587Y00123546D01*
X02475744Y00122681D01*
X02474879Y00121838D01*
X02473994Y00121016D01*
X02473090Y00120215D01*
X02472165Y00119438D01*
X02471222Y00118683D01*
X02470261Y00117952D01*
X02469282Y00117244D01*
X02468286Y00116561D01*
X02467274Y00115902D01*
X02466246Y00115269D01*
X02465202Y00114660D01*
X02464144Y00114078D01*
X02463072Y00113522D01*
X02461986Y00112992D01*
X02460888Y00112489D01*
X02459778Y00112013D01*
X02458657Y00111565D01*
X02457524Y00111144D01*
X02456382Y00110751D01*
X02455231Y00110386D01*
X02454071Y00110050D01*
X02452903Y00109742D01*
X02451728Y00109463D01*
X02450546Y00109213D01*
X02449359Y00108992D01*
X02448166Y00108800D01*
X02446969Y00108637D01*
X02445769Y00108504D01*
X02444565Y00108400D01*
X02443360Y00108326D01*
X02442153Y00108282D01*
X02440945Y00108267D01*
X02439737Y00108282D01*
X02438530Y00108326D01*
X02437325Y00108400D01*
X02436121Y00108504D01*
X02434921Y00108637D01*
X02433724Y00108800D01*
X02432531Y00108992D01*
X02431344Y00109213D01*
X02430162Y00109463D01*
X02428987Y00109742D01*
X02427819Y00110050D01*
X02426659Y00110386D01*
X02425508Y00110751D01*
X02424366Y00111144D01*
X02423233Y00111565D01*
X02422112Y00112013D01*
X02421002Y00112489D01*
X02419904Y00112992D01*
X02418818Y00113522D01*
X02417746Y00114078D01*
X02416688Y00114660D01*
X02415644Y00115269D01*
X02414616Y00115902D01*
X02413604Y00116561D01*
X02412608Y00117244D01*
X02411629Y00117952D01*
X02410668Y00118683D01*
X02409725Y00119438D01*
X02408800Y00120215D01*
X02407896Y00121016D01*
X02407011Y00121838D01*
X02406146Y00122681D01*
X02405303Y00123546D01*
X02404481Y00124431D01*
X02403680Y00125335D01*
X02402903Y00126260D01*
X02402148Y00127203D01*
X02401417Y00128164D01*
X02400709Y00129143D01*
X02400026Y00130139D01*
X02399367Y00131151D01*
X02398734Y00132179D01*
X02398125Y00133223D01*
X02397543Y00134281D01*
X02396987Y00135353D01*
X02396457Y00136439D01*
X02395954Y00137537D01*
X02395478Y00138647D01*
X02395030Y00139768D01*
X02394609Y00140901D01*
X02394216Y00142043D01*
X02393851Y00143194D01*
X02393515Y00144354D01*
X02393207Y00145522D01*
X02392928Y00146697D01*
X02392678Y00147879D01*
X02392457Y00149066D01*
X02392265Y00150259D01*
X02392102Y00151456D01*
X02391969Y00152656D01*
X02391865Y00153860D01*
X02391791Y00155065D01*
X02391747Y00156272D01*
X02391732Y00157480D01*
X03543307Y00157480D02*
X03543331Y00159412D01*
X03543402Y00161344D01*
X03543520Y00163272D01*
X03543686Y00165198D01*
X03543899Y00167119D01*
X03544159Y00169034D01*
X03544466Y00170942D01*
X03544820Y00172841D01*
X03545220Y00174732D01*
X03545667Y00176612D01*
X03546159Y00178481D01*
X03546698Y00180337D01*
X03547281Y00182179D01*
X03547910Y00184007D01*
X03548583Y00185818D01*
X03549301Y00187612D01*
X03550062Y00189389D01*
X03550867Y00191146D01*
X03551715Y00192882D01*
X03552605Y00194598D01*
X03553536Y00196291D01*
X03554509Y00197960D01*
X03555523Y00199606D01*
X03556577Y00201226D01*
X03557670Y00202819D01*
X03558802Y00204385D01*
X03559973Y00205923D01*
X03561180Y00207432D01*
X03562424Y00208911D01*
X03563705Y00210359D01*
X03565020Y00211774D01*
X03566369Y00213158D01*
X03567753Y00214507D01*
X03569168Y00215822D01*
X03570616Y00217103D01*
X03572095Y00218347D01*
X03573604Y00219554D01*
X03575142Y00220725D01*
X03576708Y00221857D01*
X03578301Y00222950D01*
X03579921Y00224004D01*
X03581567Y00225018D01*
X03583236Y00225991D01*
X03584929Y00226922D01*
X03586645Y00227812D01*
X03588381Y00228660D01*
X03590138Y00229465D01*
X03591915Y00230226D01*
X03593709Y00230944D01*
X03595520Y00231617D01*
X03597348Y00232246D01*
X03599190Y00232829D01*
X03601046Y00233368D01*
X03602915Y00233860D01*
X03604795Y00234307D01*
X03606686Y00234707D01*
X03608585Y00235061D01*
X03610493Y00235368D01*
X03612408Y00235628D01*
X03614329Y00235841D01*
X03616255Y00236007D01*
X03618183Y00236125D01*
X03620115Y00236196D01*
X03622047Y00236220D01*
X03623979Y00236196D01*
X03625911Y00236125D01*
X03627839Y00236007D01*
X03629765Y00235841D01*
X03631686Y00235628D01*
X03633601Y00235368D01*
X03635509Y00235061D01*
X03637408Y00234707D01*
X03639299Y00234307D01*
X03641179Y00233860D01*
X03643048Y00233368D01*
X03644904Y00232829D01*
X03646746Y00232246D01*
X03648574Y00231617D01*
X03650385Y00230944D01*
X03652179Y00230226D01*
X03653956Y00229465D01*
X03655713Y00228660D01*
X03657449Y00227812D01*
X03659165Y00226922D01*
X03660858Y00225991D01*
X03662527Y00225018D01*
X03664173Y00224004D01*
X03665793Y00222950D01*
X03667386Y00221857D01*
X03668952Y00220725D01*
X03670490Y00219554D01*
X03671999Y00218347D01*
X03673478Y00217103D01*
X03674926Y00215822D01*
X03676341Y00214507D01*
X03677725Y00213158D01*
X03679074Y00211774D01*
X03680389Y00210359D01*
X03681670Y00208911D01*
X03682914Y00207432D01*
X03684121Y00205923D01*
X03685292Y00204385D01*
X03686424Y00202819D01*
X03687517Y00201226D01*
X03688571Y00199606D01*
X03689585Y00197960D01*
X03690558Y00196291D01*
X03691489Y00194598D01*
X03692379Y00192882D01*
X03693227Y00191146D01*
X03694032Y00189389D01*
X03694793Y00187612D01*
X03695511Y00185818D01*
X03696184Y00184007D01*
X03696813Y00182179D01*
X03697396Y00180337D01*
X03697935Y00178481D01*
X03698427Y00176612D01*
X03698874Y00174732D01*
X03699274Y00172841D01*
X03699628Y00170942D01*
X03699935Y00169034D01*
X03700195Y00167119D01*
X03700408Y00165198D01*
X03700574Y00163272D01*
X03700692Y00161344D01*
X03700763Y00159412D01*
X03700787Y00157480D01*
X03700763Y00155548D01*
X03700692Y00153616D01*
X03700574Y00151688D01*
X03700408Y00149762D01*
X03700195Y00147841D01*
X03699935Y00145926D01*
X03699628Y00144018D01*
X03699274Y00142119D01*
X03698874Y00140228D01*
X03698427Y00138348D01*
X03697935Y00136479D01*
X03697396Y00134623D01*
X03696813Y00132781D01*
X03696184Y00130953D01*
X03695511Y00129142D01*
X03694793Y00127348D01*
X03694032Y00125571D01*
X03693227Y00123814D01*
X03692379Y00122078D01*
X03691489Y00120362D01*
X03690558Y00118669D01*
X03689585Y00117000D01*
X03688571Y00115354D01*
X03687517Y00113734D01*
X03686424Y00112141D01*
X03685292Y00110575D01*
X03684121Y00109037D01*
X03682914Y00107528D01*
X03681670Y00106049D01*
X03680389Y00104601D01*
X03679074Y00103186D01*
X03677725Y00101802D01*
X03676341Y00100453D01*
X03674926Y00099138D01*
X03673478Y00097857D01*
X03671999Y00096613D01*
X03670490Y00095406D01*
X03668952Y00094235D01*
X03667386Y00093103D01*
X03665793Y00092010D01*
X03664173Y00090956D01*
X03662527Y00089942D01*
X03660858Y00088969D01*
X03659165Y00088038D01*
X03657449Y00087148D01*
X03655713Y00086300D01*
X03653956Y00085495D01*
X03652179Y00084734D01*
X03650385Y00084016D01*
X03648574Y00083343D01*
X03646746Y00082714D01*
X03644904Y00082131D01*
X03643048Y00081592D01*
X03641179Y00081100D01*
X03639299Y00080653D01*
X03637408Y00080253D01*
X03635509Y00079899D01*
X03633601Y00079592D01*
X03631686Y00079332D01*
X03629765Y00079119D01*
X03627839Y00078953D01*
X03625911Y00078835D01*
X03623979Y00078764D01*
X03622047Y00078740D01*
X03620115Y00078764D01*
X03618183Y00078835D01*
X03616255Y00078953D01*
X03614329Y00079119D01*
X03612408Y00079332D01*
X03610493Y00079592D01*
X03608585Y00079899D01*
X03606686Y00080253D01*
X03604795Y00080653D01*
X03602915Y00081100D01*
X03601046Y00081592D01*
X03599190Y00082131D01*
X03597348Y00082714D01*
X03595520Y00083343D01*
X03593709Y00084016D01*
X03591915Y00084734D01*
X03590138Y00085495D01*
X03588381Y00086300D01*
X03586645Y00087148D01*
X03584929Y00088038D01*
X03583236Y00088969D01*
X03581567Y00089942D01*
X03579921Y00090956D01*
X03578301Y00092010D01*
X03576708Y00093103D01*
X03575142Y00094235D01*
X03573604Y00095406D01*
X03572095Y00096613D01*
X03570616Y00097857D01*
X03569168Y00099138D01*
X03567753Y00100453D01*
X03566369Y00101802D01*
X03565020Y00103186D01*
X03563705Y00104601D01*
X03562424Y00106049D01*
X03561180Y00107528D01*
X03559973Y00109037D01*
X03558802Y00110575D01*
X03557670Y00112141D01*
X03556577Y00113734D01*
X03555523Y00115354D01*
X03554509Y00117000D01*
X03553536Y00118669D01*
X03552605Y00120362D01*
X03551715Y00122078D01*
X03550867Y00123814D01*
X03550062Y00125571D01*
X03549301Y00127348D01*
X03548583Y00129142D01*
X03547910Y00130953D01*
X03547281Y00132781D01*
X03546698Y00134623D01*
X03546159Y00136479D01*
X03545667Y00138348D01*
X03545220Y00140228D01*
X03544820Y00142119D01*
X03544466Y00144018D01*
X03544159Y00145926D01*
X03543899Y00147841D01*
X03543686Y00149762D01*
X03543520Y00151688D01*
X03543402Y00153616D01*
X03543331Y00155548D01*
X03543307Y00157480D01*
X04753937Y00157480D02*
X04753952Y00158688D01*
X04753996Y00159895D01*
X04754070Y00161100D01*
X04754174Y00162304D01*
X04754307Y00163504D01*
X04754470Y00164701D01*
X04754662Y00165894D01*
X04754883Y00167081D01*
X04755133Y00168263D01*
X04755412Y00169438D01*
X04755720Y00170606D01*
X04756056Y00171766D01*
X04756421Y00172917D01*
X04756814Y00174059D01*
X04757235Y00175192D01*
X04757683Y00176313D01*
X04758159Y00177423D01*
X04758662Y00178521D01*
X04759192Y00179607D01*
X04759748Y00180679D01*
X04760330Y00181737D01*
X04760939Y00182781D01*
X04761572Y00183809D01*
X04762231Y00184821D01*
X04762914Y00185817D01*
X04763622Y00186796D01*
X04764353Y00187757D01*
X04765108Y00188700D01*
X04765885Y00189625D01*
X04766686Y00190529D01*
X04767508Y00191414D01*
X04768351Y00192279D01*
X04769216Y00193122D01*
X04770101Y00193944D01*
X04771005Y00194745D01*
X04771930Y00195522D01*
X04772873Y00196277D01*
X04773834Y00197008D01*
X04774813Y00197716D01*
X04775809Y00198399D01*
X04776821Y00199058D01*
X04777849Y00199691D01*
X04778893Y00200300D01*
X04779951Y00200882D01*
X04781023Y00201438D01*
X04782109Y00201968D01*
X04783207Y00202471D01*
X04784317Y00202947D01*
X04785438Y00203395D01*
X04786571Y00203816D01*
X04787713Y00204209D01*
X04788864Y00204574D01*
X04790024Y00204910D01*
X04791192Y00205218D01*
X04792367Y00205497D01*
X04793549Y00205747D01*
X04794736Y00205968D01*
X04795929Y00206160D01*
X04797126Y00206323D01*
X04798326Y00206456D01*
X04799530Y00206560D01*
X04800735Y00206634D01*
X04801942Y00206678D01*
X04803150Y00206693D01*
X04804358Y00206678D01*
X04805565Y00206634D01*
X04806770Y00206560D01*
X04807974Y00206456D01*
X04809174Y00206323D01*
X04810371Y00206160D01*
X04811564Y00205968D01*
X04812751Y00205747D01*
X04813933Y00205497D01*
X04815108Y00205218D01*
X04816276Y00204910D01*
X04817436Y00204574D01*
X04818587Y00204209D01*
X04819729Y00203816D01*
X04820862Y00203395D01*
X04821983Y00202947D01*
X04823093Y00202471D01*
X04824191Y00201968D01*
X04825277Y00201438D01*
X04826349Y00200882D01*
X04827407Y00200300D01*
X04828451Y00199691D01*
X04829479Y00199058D01*
X04830491Y00198399D01*
X04831487Y00197716D01*
X04832466Y00197008D01*
X04833427Y00196277D01*
X04834370Y00195522D01*
X04835295Y00194745D01*
X04836199Y00193944D01*
X04837084Y00193122D01*
X04837949Y00192279D01*
X04838792Y00191414D01*
X04839614Y00190529D01*
X04840415Y00189625D01*
X04841192Y00188700D01*
X04841947Y00187757D01*
X04842678Y00186796D01*
X04843386Y00185817D01*
X04844069Y00184821D01*
X04844728Y00183809D01*
X04845361Y00182781D01*
X04845970Y00181737D01*
X04846552Y00180679D01*
X04847108Y00179607D01*
X04847638Y00178521D01*
X04848141Y00177423D01*
X04848617Y00176313D01*
X04849065Y00175192D01*
X04849486Y00174059D01*
X04849879Y00172917D01*
X04850244Y00171766D01*
X04850580Y00170606D01*
X04850888Y00169438D01*
X04851167Y00168263D01*
X04851417Y00167081D01*
X04851638Y00165894D01*
X04851830Y00164701D01*
X04851993Y00163504D01*
X04852126Y00162304D01*
X04852230Y00161100D01*
X04852304Y00159895D01*
X04852348Y00158688D01*
X04852363Y00157480D01*
X04852348Y00156272D01*
X04852304Y00155065D01*
X04852230Y00153860D01*
X04852126Y00152656D01*
X04851993Y00151456D01*
X04851830Y00150259D01*
X04851638Y00149066D01*
X04851417Y00147879D01*
X04851167Y00146697D01*
X04850888Y00145522D01*
X04850580Y00144354D01*
X04850244Y00143194D01*
X04849879Y00142043D01*
X04849486Y00140901D01*
X04849065Y00139768D01*
X04848617Y00138647D01*
X04848141Y00137537D01*
X04847638Y00136439D01*
X04847108Y00135353D01*
X04846552Y00134281D01*
X04845970Y00133223D01*
X04845361Y00132179D01*
X04844728Y00131151D01*
X04844069Y00130139D01*
X04843386Y00129143D01*
X04842678Y00128164D01*
X04841947Y00127203D01*
X04841192Y00126260D01*
X04840415Y00125335D01*
X04839614Y00124431D01*
X04838792Y00123546D01*
X04837949Y00122681D01*
X04837084Y00121838D01*
X04836199Y00121016D01*
X04835295Y00120215D01*
X04834370Y00119438D01*
X04833427Y00118683D01*
X04832466Y00117952D01*
X04831487Y00117244D01*
X04830491Y00116561D01*
X04829479Y00115902D01*
X04828451Y00115269D01*
X04827407Y00114660D01*
X04826349Y00114078D01*
X04825277Y00113522D01*
X04824191Y00112992D01*
X04823093Y00112489D01*
X04821983Y00112013D01*
X04820862Y00111565D01*
X04819729Y00111144D01*
X04818587Y00110751D01*
X04817436Y00110386D01*
X04816276Y00110050D01*
X04815108Y00109742D01*
X04813933Y00109463D01*
X04812751Y00109213D01*
X04811564Y00108992D01*
X04810371Y00108800D01*
X04809174Y00108637D01*
X04807974Y00108504D01*
X04806770Y00108400D01*
X04805565Y00108326D01*
X04804358Y00108282D01*
X04803150Y00108267D01*
X04801942Y00108282D01*
X04800735Y00108326D01*
X04799530Y00108400D01*
X04798326Y00108504D01*
X04797126Y00108637D01*
X04795929Y00108800D01*
X04794736Y00108992D01*
X04793549Y00109213D01*
X04792367Y00109463D01*
X04791192Y00109742D01*
X04790024Y00110050D01*
X04788864Y00110386D01*
X04787713Y00110751D01*
X04786571Y00111144D01*
X04785438Y00111565D01*
X04784317Y00112013D01*
X04783207Y00112489D01*
X04782109Y00112992D01*
X04781023Y00113522D01*
X04779951Y00114078D01*
X04778893Y00114660D01*
X04777849Y00115269D01*
X04776821Y00115902D01*
X04775809Y00116561D01*
X04774813Y00117244D01*
X04773834Y00117952D01*
X04772873Y00118683D01*
X04771930Y00119438D01*
X04771005Y00120215D01*
X04770101Y00121016D01*
X04769216Y00121838D01*
X04768351Y00122681D01*
X04767508Y00123546D01*
X04766686Y00124431D01*
X04765885Y00125335D01*
X04765108Y00126260D01*
X04764353Y00127203D01*
X04763622Y00128164D01*
X04762914Y00129143D01*
X04762231Y00130139D01*
X04761572Y00131151D01*
X04760939Y00132179D01*
X04760330Y00133223D01*
X04759748Y00134281D01*
X04759192Y00135353D01*
X04758662Y00136439D01*
X04758159Y00137537D01*
X04757683Y00138647D01*
X04757235Y00139768D01*
X04756814Y00140901D01*
X04756421Y00142043D01*
X04756056Y00143194D01*
X04755720Y00144354D01*
X04755412Y00145522D01*
X04755133Y00146697D01*
X04754883Y00147879D01*
X04754662Y00149066D01*
X04754470Y00150259D01*
X04754307Y00151456D01*
X04754174Y00152656D01*
X04754070Y00153860D01*
X04753996Y00155065D01*
X04753952Y00156272D01*
X04753937Y00157480D01*
X06328740Y00157480D02*
X06328755Y00158688D01*
X06328799Y00159895D01*
X06328873Y00161100D01*
X06328977Y00162304D01*
X06329110Y00163504D01*
X06329273Y00164701D01*
X06329465Y00165894D01*
X06329686Y00167081D01*
X06329936Y00168263D01*
X06330215Y00169438D01*
X06330523Y00170606D01*
X06330859Y00171766D01*
X06331224Y00172917D01*
X06331617Y00174059D01*
X06332038Y00175192D01*
X06332486Y00176313D01*
X06332962Y00177423D01*
X06333465Y00178521D01*
X06333995Y00179607D01*
X06334551Y00180679D01*
X06335133Y00181737D01*
X06335742Y00182781D01*
X06336375Y00183809D01*
X06337034Y00184821D01*
X06337717Y00185817D01*
X06338425Y00186796D01*
X06339156Y00187757D01*
X06339911Y00188700D01*
X06340688Y00189625D01*
X06341489Y00190529D01*
X06342311Y00191414D01*
X06343154Y00192279D01*
X06344019Y00193122D01*
X06344904Y00193944D01*
X06345808Y00194745D01*
X06346733Y00195522D01*
X06347676Y00196277D01*
X06348637Y00197008D01*
X06349616Y00197716D01*
X06350612Y00198399D01*
X06351624Y00199058D01*
X06352652Y00199691D01*
X06353696Y00200300D01*
X06354754Y00200882D01*
X06355826Y00201438D01*
X06356912Y00201968D01*
X06358010Y00202471D01*
X06359120Y00202947D01*
X06360241Y00203395D01*
X06361374Y00203816D01*
X06362516Y00204209D01*
X06363667Y00204574D01*
X06364827Y00204910D01*
X06365995Y00205218D01*
X06367170Y00205497D01*
X06368352Y00205747D01*
X06369539Y00205968D01*
X06370732Y00206160D01*
X06371929Y00206323D01*
X06373129Y00206456D01*
X06374333Y00206560D01*
X06375538Y00206634D01*
X06376745Y00206678D01*
X06377953Y00206693D01*
X06379161Y00206678D01*
X06380368Y00206634D01*
X06381573Y00206560D01*
X06382777Y00206456D01*
X06383977Y00206323D01*
X06385174Y00206160D01*
X06386367Y00205968D01*
X06387554Y00205747D01*
X06388736Y00205497D01*
X06389911Y00205218D01*
X06391079Y00204910D01*
X06392239Y00204574D01*
X06393390Y00204209D01*
X06394532Y00203816D01*
X06395665Y00203395D01*
X06396786Y00202947D01*
X06397896Y00202471D01*
X06398994Y00201968D01*
X06400080Y00201438D01*
X06401152Y00200882D01*
X06402210Y00200300D01*
X06403254Y00199691D01*
X06404282Y00199058D01*
X06405294Y00198399D01*
X06406290Y00197716D01*
X06407269Y00197008D01*
X06408230Y00196277D01*
X06409173Y00195522D01*
X06410098Y00194745D01*
X06411002Y00193944D01*
X06411887Y00193122D01*
X06412752Y00192279D01*
X06413595Y00191414D01*
X06414417Y00190529D01*
X06415218Y00189625D01*
X06415995Y00188700D01*
X06416750Y00187757D01*
X06417481Y00186796D01*
X06418189Y00185817D01*
X06418872Y00184821D01*
X06419531Y00183809D01*
X06420164Y00182781D01*
X06420773Y00181737D01*
X06421355Y00180679D01*
X06421911Y00179607D01*
X06422441Y00178521D01*
X06422944Y00177423D01*
X06423420Y00176313D01*
X06423868Y00175192D01*
X06424289Y00174059D01*
X06424682Y00172917D01*
X06425047Y00171766D01*
X06425383Y00170606D01*
X06425691Y00169438D01*
X06425970Y00168263D01*
X06426220Y00167081D01*
X06426441Y00165894D01*
X06426633Y00164701D01*
X06426796Y00163504D01*
X06426929Y00162304D01*
X06427033Y00161100D01*
X06427107Y00159895D01*
X06427151Y00158688D01*
X06427166Y00157480D01*
X06427151Y00156272D01*
X06427107Y00155065D01*
X06427033Y00153860D01*
X06426929Y00152656D01*
X06426796Y00151456D01*
X06426633Y00150259D01*
X06426441Y00149066D01*
X06426220Y00147879D01*
X06425970Y00146697D01*
X06425691Y00145522D01*
X06425383Y00144354D01*
X06425047Y00143194D01*
X06424682Y00142043D01*
X06424289Y00140901D01*
X06423868Y00139768D01*
X06423420Y00138647D01*
X06422944Y00137537D01*
X06422441Y00136439D01*
X06421911Y00135353D01*
X06421355Y00134281D01*
X06420773Y00133223D01*
X06420164Y00132179D01*
X06419531Y00131151D01*
X06418872Y00130139D01*
X06418189Y00129143D01*
X06417481Y00128164D01*
X06416750Y00127203D01*
X06415995Y00126260D01*
X06415218Y00125335D01*
X06414417Y00124431D01*
X06413595Y00123546D01*
X06412752Y00122681D01*
X06411887Y00121838D01*
X06411002Y00121016D01*
X06410098Y00120215D01*
X06409173Y00119438D01*
X06408230Y00118683D01*
X06407269Y00117952D01*
X06406290Y00117244D01*
X06405294Y00116561D01*
X06404282Y00115902D01*
X06403254Y00115269D01*
X06402210Y00114660D01*
X06401152Y00114078D01*
X06400080Y00113522D01*
X06398994Y00112992D01*
X06397896Y00112489D01*
X06396786Y00112013D01*
X06395665Y00111565D01*
X06394532Y00111144D01*
X06393390Y00110751D01*
X06392239Y00110386D01*
X06391079Y00110050D01*
X06389911Y00109742D01*
X06388736Y00109463D01*
X06387554Y00109213D01*
X06386367Y00108992D01*
X06385174Y00108800D01*
X06383977Y00108637D01*
X06382777Y00108504D01*
X06381573Y00108400D01*
X06380368Y00108326D01*
X06379161Y00108282D01*
X06377953Y00108267D01*
X06376745Y00108282D01*
X06375538Y00108326D01*
X06374333Y00108400D01*
X06373129Y00108504D01*
X06371929Y00108637D01*
X06370732Y00108800D01*
X06369539Y00108992D01*
X06368352Y00109213D01*
X06367170Y00109463D01*
X06365995Y00109742D01*
X06364827Y00110050D01*
X06363667Y00110386D01*
X06362516Y00110751D01*
X06361374Y00111144D01*
X06360241Y00111565D01*
X06359120Y00112013D01*
X06358010Y00112489D01*
X06356912Y00112992D01*
X06355826Y00113522D01*
X06354754Y00114078D01*
X06353696Y00114660D01*
X06352652Y00115269D01*
X06351624Y00115902D01*
X06350612Y00116561D01*
X06349616Y00117244D01*
X06348637Y00117952D01*
X06347676Y00118683D01*
X06346733Y00119438D01*
X06345808Y00120215D01*
X06344904Y00121016D01*
X06344019Y00121838D01*
X06343154Y00122681D01*
X06342311Y00123546D01*
X06341489Y00124431D01*
X06340688Y00125335D01*
X06339911Y00126260D01*
X06339156Y00127203D01*
X06338425Y00128164D01*
X06337717Y00129143D01*
X06337034Y00130139D01*
X06336375Y00131151D01*
X06335742Y00132179D01*
X06335133Y00133223D01*
X06334551Y00134281D01*
X06333995Y00135353D01*
X06333465Y00136439D01*
X06332962Y00137537D01*
X06332486Y00138647D01*
X06332038Y00139768D01*
X06331617Y00140901D01*
X06331224Y00142043D01*
X06330859Y00143194D01*
X06330523Y00144354D01*
X06330215Y00145522D01*
X06329936Y00146697D01*
X06329686Y00147879D01*
X06329465Y00149066D01*
X06329273Y00150259D01*
X06329110Y00151456D01*
X06328977Y00152656D01*
X06328873Y00153860D01*
X06328799Y00155065D01*
X06328755Y00156272D01*
X06328740Y00157480D01*
X06811024Y00354331D02*
X06811048Y00356263D01*
X06811119Y00358195D01*
X06811237Y00360123D01*
X06811403Y00362049D01*
X06811616Y00363970D01*
X06811876Y00365885D01*
X06812183Y00367793D01*
X06812537Y00369692D01*
X06812937Y00371583D01*
X06813384Y00373463D01*
X06813876Y00375332D01*
X06814415Y00377188D01*
X06814998Y00379030D01*
X06815627Y00380858D01*
X06816300Y00382669D01*
X06817018Y00384463D01*
X06817779Y00386240D01*
X06818584Y00387997D01*
X06819432Y00389733D01*
X06820322Y00391449D01*
X06821253Y00393142D01*
X06822226Y00394811D01*
X06823240Y00396457D01*
X06824294Y00398077D01*
X06825387Y00399670D01*
X06826519Y00401236D01*
X06827690Y00402774D01*
X06828897Y00404283D01*
X06830141Y00405762D01*
X06831422Y00407210D01*
X06832737Y00408625D01*
X06834086Y00410009D01*
X06835470Y00411358D01*
X06836885Y00412673D01*
X06838333Y00413954D01*
X06839812Y00415198D01*
X06841321Y00416405D01*
X06842859Y00417576D01*
X06844425Y00418708D01*
X06846018Y00419801D01*
X06847638Y00420855D01*
X06849284Y00421869D01*
X06850953Y00422842D01*
X06852646Y00423773D01*
X06854362Y00424663D01*
X06856098Y00425511D01*
X06857855Y00426316D01*
X06859632Y00427077D01*
X06861426Y00427795D01*
X06863237Y00428468D01*
X06865065Y00429097D01*
X06866907Y00429680D01*
X06868763Y00430219D01*
X06870632Y00430711D01*
X06872512Y00431158D01*
X06874403Y00431558D01*
X06876302Y00431912D01*
X06878210Y00432219D01*
X06880125Y00432479D01*
X06882046Y00432692D01*
X06883972Y00432858D01*
X06885900Y00432976D01*
X06887832Y00433047D01*
X06889764Y00433071D01*
X06891696Y00433047D01*
X06893628Y00432976D01*
X06895556Y00432858D01*
X06897482Y00432692D01*
X06899403Y00432479D01*
X06901318Y00432219D01*
X06903226Y00431912D01*
X06905125Y00431558D01*
X06907016Y00431158D01*
X06908896Y00430711D01*
X06910765Y00430219D01*
X06912621Y00429680D01*
X06914463Y00429097D01*
X06916291Y00428468D01*
X06918102Y00427795D01*
X06919896Y00427077D01*
X06921673Y00426316D01*
X06923430Y00425511D01*
X06925166Y00424663D01*
X06926882Y00423773D01*
X06928575Y00422842D01*
X06930244Y00421869D01*
X06931890Y00420855D01*
X06933510Y00419801D01*
X06935103Y00418708D01*
X06936669Y00417576D01*
X06938207Y00416405D01*
X06939716Y00415198D01*
X06941195Y00413954D01*
X06942643Y00412673D01*
X06944058Y00411358D01*
X06945442Y00410009D01*
X06946791Y00408625D01*
X06948106Y00407210D01*
X06949387Y00405762D01*
X06950631Y00404283D01*
X06951838Y00402774D01*
X06953009Y00401236D01*
X06954141Y00399670D01*
X06955234Y00398077D01*
X06956288Y00396457D01*
X06957302Y00394811D01*
X06958275Y00393142D01*
X06959206Y00391449D01*
X06960096Y00389733D01*
X06960944Y00387997D01*
X06961749Y00386240D01*
X06962510Y00384463D01*
X06963228Y00382669D01*
X06963901Y00380858D01*
X06964530Y00379030D01*
X06965113Y00377188D01*
X06965652Y00375332D01*
X06966144Y00373463D01*
X06966591Y00371583D01*
X06966991Y00369692D01*
X06967345Y00367793D01*
X06967652Y00365885D01*
X06967912Y00363970D01*
X06968125Y00362049D01*
X06968291Y00360123D01*
X06968409Y00358195D01*
X06968480Y00356263D01*
X06968504Y00354331D01*
X06968480Y00352399D01*
X06968409Y00350467D01*
X06968291Y00348539D01*
X06968125Y00346613D01*
X06967912Y00344692D01*
X06967652Y00342777D01*
X06967345Y00340869D01*
X06966991Y00338970D01*
X06966591Y00337079D01*
X06966144Y00335199D01*
X06965652Y00333330D01*
X06965113Y00331474D01*
X06964530Y00329632D01*
X06963901Y00327804D01*
X06963228Y00325993D01*
X06962510Y00324199D01*
X06961749Y00322422D01*
X06960944Y00320665D01*
X06960096Y00318929D01*
X06959206Y00317213D01*
X06958275Y00315520D01*
X06957302Y00313851D01*
X06956288Y00312205D01*
X06955234Y00310585D01*
X06954141Y00308992D01*
X06953009Y00307426D01*
X06951838Y00305888D01*
X06950631Y00304379D01*
X06949387Y00302900D01*
X06948106Y00301452D01*
X06946791Y00300037D01*
X06945442Y00298653D01*
X06944058Y00297304D01*
X06942643Y00295989D01*
X06941195Y00294708D01*
X06939716Y00293464D01*
X06938207Y00292257D01*
X06936669Y00291086D01*
X06935103Y00289954D01*
X06933510Y00288861D01*
X06931890Y00287807D01*
X06930244Y00286793D01*
X06928575Y00285820D01*
X06926882Y00284889D01*
X06925166Y00283999D01*
X06923430Y00283151D01*
X06921673Y00282346D01*
X06919896Y00281585D01*
X06918102Y00280867D01*
X06916291Y00280194D01*
X06914463Y00279565D01*
X06912621Y00278982D01*
X06910765Y00278443D01*
X06908896Y00277951D01*
X06907016Y00277504D01*
X06905125Y00277104D01*
X06903226Y00276750D01*
X06901318Y00276443D01*
X06899403Y00276183D01*
X06897482Y00275970D01*
X06895556Y00275804D01*
X06893628Y00275686D01*
X06891696Y00275615D01*
X06889764Y00275591D01*
X06887832Y00275615D01*
X06885900Y00275686D01*
X06883972Y00275804D01*
X06882046Y00275970D01*
X06880125Y00276183D01*
X06878210Y00276443D01*
X06876302Y00276750D01*
X06874403Y00277104D01*
X06872512Y00277504D01*
X06870632Y00277951D01*
X06868763Y00278443D01*
X06866907Y00278982D01*
X06865065Y00279565D01*
X06863237Y00280194D01*
X06861426Y00280867D01*
X06859632Y00281585D01*
X06857855Y00282346D01*
X06856098Y00283151D01*
X06854362Y00283999D01*
X06852646Y00284889D01*
X06850953Y00285820D01*
X06849284Y00286793D01*
X06847638Y00287807D01*
X06846018Y00288861D01*
X06844425Y00289954D01*
X06842859Y00291086D01*
X06841321Y00292257D01*
X06839812Y00293464D01*
X06838333Y00294708D01*
X06836885Y00295989D01*
X06835470Y00297304D01*
X06834086Y00298653D01*
X06832737Y00300037D01*
X06831422Y00301452D01*
X06830141Y00302900D01*
X06828897Y00304379D01*
X06827690Y00305888D01*
X06826519Y00307426D01*
X06825387Y00308992D01*
X06824294Y00310585D01*
X06823240Y00312205D01*
X06822226Y00313851D01*
X06821253Y00315520D01*
X06820322Y00317213D01*
X06819432Y00318929D01*
X06818584Y00320665D01*
X06817779Y00322422D01*
X06817018Y00324199D01*
X06816300Y00325993D01*
X06815627Y00327804D01*
X06814998Y00329632D01*
X06814415Y00331474D01*
X06813876Y00333330D01*
X06813384Y00335199D01*
X06812937Y00337079D01*
X06812537Y00338970D01*
X06812183Y00340869D01*
X06811876Y00342777D01*
X06811616Y00344692D01*
X06811403Y00346613D01*
X06811237Y00348539D01*
X06811119Y00350467D01*
X06811048Y00352399D01*
X06811024Y00354331D01*
X07509842Y00590551D02*
X07509857Y00591759D01*
X07509901Y00592966D01*
X07509975Y00594171D01*
X07510079Y00595375D01*
X07510212Y00596575D01*
X07510375Y00597772D01*
X07510567Y00598965D01*
X07510788Y00600152D01*
X07511038Y00601334D01*
X07511317Y00602509D01*
X07511625Y00603677D01*
X07511961Y00604837D01*
X07512326Y00605988D01*
X07512719Y00607130D01*
X07513140Y00608263D01*
X07513588Y00609384D01*
X07514064Y00610494D01*
X07514567Y00611592D01*
X07515097Y00612678D01*
X07515653Y00613750D01*
X07516235Y00614808D01*
X07516844Y00615852D01*
X07517477Y00616880D01*
X07518136Y00617892D01*
X07518819Y00618888D01*
X07519527Y00619867D01*
X07520258Y00620828D01*
X07521013Y00621771D01*
X07521790Y00622696D01*
X07522591Y00623600D01*
X07523413Y00624485D01*
X07524256Y00625350D01*
X07525121Y00626193D01*
X07526006Y00627015D01*
X07526910Y00627816D01*
X07527835Y00628593D01*
X07528778Y00629348D01*
X07529739Y00630079D01*
X07530718Y00630787D01*
X07531714Y00631470D01*
X07532726Y00632129D01*
X07533754Y00632762D01*
X07534798Y00633371D01*
X07535856Y00633953D01*
X07536928Y00634509D01*
X07538014Y00635039D01*
X07539112Y00635542D01*
X07540222Y00636018D01*
X07541343Y00636466D01*
X07542476Y00636887D01*
X07543618Y00637280D01*
X07544769Y00637645D01*
X07545929Y00637981D01*
X07547097Y00638289D01*
X07548272Y00638568D01*
X07549454Y00638818D01*
X07550641Y00639039D01*
X07551834Y00639231D01*
X07553031Y00639394D01*
X07554231Y00639527D01*
X07555435Y00639631D01*
X07556640Y00639705D01*
X07557847Y00639749D01*
X07559055Y00639764D01*
X07560263Y00639749D01*
X07561470Y00639705D01*
X07562675Y00639631D01*
X07563879Y00639527D01*
X07565079Y00639394D01*
X07566276Y00639231D01*
X07567469Y00639039D01*
X07568656Y00638818D01*
X07569838Y00638568D01*
X07571013Y00638289D01*
X07572181Y00637981D01*
X07573341Y00637645D01*
X07574492Y00637280D01*
X07575634Y00636887D01*
X07576767Y00636466D01*
X07577888Y00636018D01*
X07578998Y00635542D01*
X07580096Y00635039D01*
X07581182Y00634509D01*
X07582254Y00633953D01*
X07583312Y00633371D01*
X07584356Y00632762D01*
X07585384Y00632129D01*
X07586396Y00631470D01*
X07587392Y00630787D01*
X07588371Y00630079D01*
X07589332Y00629348D01*
X07590275Y00628593D01*
X07591200Y00627816D01*
X07592104Y00627015D01*
X07592989Y00626193D01*
X07593854Y00625350D01*
X07594697Y00624485D01*
X07595519Y00623600D01*
X07596320Y00622696D01*
X07597097Y00621771D01*
X07597852Y00620828D01*
X07598583Y00619867D01*
X07599291Y00618888D01*
X07599974Y00617892D01*
X07600633Y00616880D01*
X07601266Y00615852D01*
X07601875Y00614808D01*
X07602457Y00613750D01*
X07603013Y00612678D01*
X07603543Y00611592D01*
X07604046Y00610494D01*
X07604522Y00609384D01*
X07604970Y00608263D01*
X07605391Y00607130D01*
X07605784Y00605988D01*
X07606149Y00604837D01*
X07606485Y00603677D01*
X07606793Y00602509D01*
X07607072Y00601334D01*
X07607322Y00600152D01*
X07607543Y00598965D01*
X07607735Y00597772D01*
X07607898Y00596575D01*
X07608031Y00595375D01*
X07608135Y00594171D01*
X07608209Y00592966D01*
X07608253Y00591759D01*
X07608268Y00590551D01*
X07608253Y00589343D01*
X07608209Y00588136D01*
X07608135Y00586931D01*
X07608031Y00585727D01*
X07607898Y00584527D01*
X07607735Y00583330D01*
X07607543Y00582137D01*
X07607322Y00580950D01*
X07607072Y00579768D01*
X07606793Y00578593D01*
X07606485Y00577425D01*
X07606149Y00576265D01*
X07605784Y00575114D01*
X07605391Y00573972D01*
X07604970Y00572839D01*
X07604522Y00571718D01*
X07604046Y00570608D01*
X07603543Y00569510D01*
X07603013Y00568424D01*
X07602457Y00567352D01*
X07601875Y00566294D01*
X07601266Y00565250D01*
X07600633Y00564222D01*
X07599974Y00563210D01*
X07599291Y00562214D01*
X07598583Y00561235D01*
X07597852Y00560274D01*
X07597097Y00559331D01*
X07596320Y00558406D01*
X07595519Y00557502D01*
X07594697Y00556617D01*
X07593854Y00555752D01*
X07592989Y00554909D01*
X07592104Y00554087D01*
X07591200Y00553286D01*
X07590275Y00552509D01*
X07589332Y00551754D01*
X07588371Y00551023D01*
X07587392Y00550315D01*
X07586396Y00549632D01*
X07585384Y00548973D01*
X07584356Y00548340D01*
X07583312Y00547731D01*
X07582254Y00547149D01*
X07581182Y00546593D01*
X07580096Y00546063D01*
X07578998Y00545560D01*
X07577888Y00545084D01*
X07576767Y00544636D01*
X07575634Y00544215D01*
X07574492Y00543822D01*
X07573341Y00543457D01*
X07572181Y00543121D01*
X07571013Y00542813D01*
X07569838Y00542534D01*
X07568656Y00542284D01*
X07567469Y00542063D01*
X07566276Y00541871D01*
X07565079Y00541708D01*
X07563879Y00541575D01*
X07562675Y00541471D01*
X07561470Y00541397D01*
X07560263Y00541353D01*
X07559055Y00541338D01*
X07557847Y00541353D01*
X07556640Y00541397D01*
X07555435Y00541471D01*
X07554231Y00541575D01*
X07553031Y00541708D01*
X07551834Y00541871D01*
X07550641Y00542063D01*
X07549454Y00542284D01*
X07548272Y00542534D01*
X07547097Y00542813D01*
X07545929Y00543121D01*
X07544769Y00543457D01*
X07543618Y00543822D01*
X07542476Y00544215D01*
X07541343Y00544636D01*
X07540222Y00545084D01*
X07539112Y00545560D01*
X07538014Y00546063D01*
X07536928Y00546593D01*
X07535856Y00547149D01*
X07534798Y00547731D01*
X07533754Y00548340D01*
X07532726Y00548973D01*
X07531714Y00549632D01*
X07530718Y00550315D01*
X07529739Y00551023D01*
X07528778Y00551754D01*
X07527835Y00552509D01*
X07526910Y00553286D01*
X07526006Y00554087D01*
X07525121Y00554909D01*
X07524256Y00555752D01*
X07523413Y00556617D01*
X07522591Y00557502D01*
X07521790Y00558406D01*
X07521013Y00559331D01*
X07520258Y00560274D01*
X07519527Y00561235D01*
X07518819Y00562214D01*
X07518136Y00563210D01*
X07517477Y00564222D01*
X07516844Y00565250D01*
X07516235Y00566294D01*
X07515653Y00567352D01*
X07515097Y00568424D01*
X07514567Y00569510D01*
X07514064Y00570608D01*
X07513588Y00571718D01*
X07513140Y00572839D01*
X07512719Y00573972D01*
X07512326Y00575114D01*
X07511961Y00576265D01*
X07511625Y00577425D01*
X07511317Y00578593D01*
X07511038Y00579768D01*
X07510788Y00580950D01*
X07510567Y00582137D01*
X07510375Y00583330D01*
X07510212Y00584527D01*
X07510079Y00585727D01*
X07509975Y00586931D01*
X07509901Y00588136D01*
X07509857Y00589343D01*
X07509842Y00590551D01*
X08415354Y00590551D02*
X08415369Y00591759D01*
X08415413Y00592966D01*
X08415487Y00594171D01*
X08415591Y00595375D01*
X08415724Y00596575D01*
X08415887Y00597772D01*
X08416079Y00598965D01*
X08416300Y00600152D01*
X08416550Y00601334D01*
X08416829Y00602509D01*
X08417137Y00603677D01*
X08417473Y00604837D01*
X08417838Y00605988D01*
X08418231Y00607130D01*
X08418652Y00608263D01*
X08419100Y00609384D01*
X08419576Y00610494D01*
X08420079Y00611592D01*
X08420609Y00612678D01*
X08421165Y00613750D01*
X08421747Y00614808D01*
X08422356Y00615852D01*
X08422989Y00616880D01*
X08423648Y00617892D01*
X08424331Y00618888D01*
X08425039Y00619867D01*
X08425770Y00620828D01*
X08426525Y00621771D01*
X08427302Y00622696D01*
X08428103Y00623600D01*
X08428925Y00624485D01*
X08429768Y00625350D01*
X08430633Y00626193D01*
X08431518Y00627015D01*
X08432422Y00627816D01*
X08433347Y00628593D01*
X08434290Y00629348D01*
X08435251Y00630079D01*
X08436230Y00630787D01*
X08437226Y00631470D01*
X08438238Y00632129D01*
X08439266Y00632762D01*
X08440310Y00633371D01*
X08441368Y00633953D01*
X08442440Y00634509D01*
X08443526Y00635039D01*
X08444624Y00635542D01*
X08445734Y00636018D01*
X08446855Y00636466D01*
X08447988Y00636887D01*
X08449130Y00637280D01*
X08450281Y00637645D01*
X08451441Y00637981D01*
X08452609Y00638289D01*
X08453784Y00638568D01*
X08454966Y00638818D01*
X08456153Y00639039D01*
X08457346Y00639231D01*
X08458543Y00639394D01*
X08459743Y00639527D01*
X08460947Y00639631D01*
X08462152Y00639705D01*
X08463359Y00639749D01*
X08464567Y00639764D01*
X08465775Y00639749D01*
X08466982Y00639705D01*
X08468187Y00639631D01*
X08469391Y00639527D01*
X08470591Y00639394D01*
X08471788Y00639231D01*
X08472981Y00639039D01*
X08474168Y00638818D01*
X08475350Y00638568D01*
X08476525Y00638289D01*
X08477693Y00637981D01*
X08478853Y00637645D01*
X08480004Y00637280D01*
X08481146Y00636887D01*
X08482279Y00636466D01*
X08483400Y00636018D01*
X08484510Y00635542D01*
X08485608Y00635039D01*
X08486694Y00634509D01*
X08487766Y00633953D01*
X08488824Y00633371D01*
X08489868Y00632762D01*
X08490896Y00632129D01*
X08491908Y00631470D01*
X08492904Y00630787D01*
X08493883Y00630079D01*
X08494844Y00629348D01*
X08495787Y00628593D01*
X08496712Y00627816D01*
X08497616Y00627015D01*
X08498501Y00626193D01*
X08499366Y00625350D01*
X08500209Y00624485D01*
X08501031Y00623600D01*
X08501832Y00622696D01*
X08502609Y00621771D01*
X08503364Y00620828D01*
X08504095Y00619867D01*
X08504803Y00618888D01*
X08505486Y00617892D01*
X08506145Y00616880D01*
X08506778Y00615852D01*
X08507387Y00614808D01*
X08507969Y00613750D01*
X08508525Y00612678D01*
X08509055Y00611592D01*
X08509558Y00610494D01*
X08510034Y00609384D01*
X08510482Y00608263D01*
X08510903Y00607130D01*
X08511296Y00605988D01*
X08511661Y00604837D01*
X08511997Y00603677D01*
X08512305Y00602509D01*
X08512584Y00601334D01*
X08512834Y00600152D01*
X08513055Y00598965D01*
X08513247Y00597772D01*
X08513410Y00596575D01*
X08513543Y00595375D01*
X08513647Y00594171D01*
X08513721Y00592966D01*
X08513765Y00591759D01*
X08513780Y00590551D01*
X08513765Y00589343D01*
X08513721Y00588136D01*
X08513647Y00586931D01*
X08513543Y00585727D01*
X08513410Y00584527D01*
X08513247Y00583330D01*
X08513055Y00582137D01*
X08512834Y00580950D01*
X08512584Y00579768D01*
X08512305Y00578593D01*
X08511997Y00577425D01*
X08511661Y00576265D01*
X08511296Y00575114D01*
X08510903Y00573972D01*
X08510482Y00572839D01*
X08510034Y00571718D01*
X08509558Y00570608D01*
X08509055Y00569510D01*
X08508525Y00568424D01*
X08507969Y00567352D01*
X08507387Y00566294D01*
X08506778Y00565250D01*
X08506145Y00564222D01*
X08505486Y00563210D01*
X08504803Y00562214D01*
X08504095Y00561235D01*
X08503364Y00560274D01*
X08502609Y00559331D01*
X08501832Y00558406D01*
X08501031Y00557502D01*
X08500209Y00556617D01*
X08499366Y00555752D01*
X08498501Y00554909D01*
X08497616Y00554087D01*
X08496712Y00553286D01*
X08495787Y00552509D01*
X08494844Y00551754D01*
X08493883Y00551023D01*
X08492904Y00550315D01*
X08491908Y00549632D01*
X08490896Y00548973D01*
X08489868Y00548340D01*
X08488824Y00547731D01*
X08487766Y00547149D01*
X08486694Y00546593D01*
X08485608Y00546063D01*
X08484510Y00545560D01*
X08483400Y00545084D01*
X08482279Y00544636D01*
X08481146Y00544215D01*
X08480004Y00543822D01*
X08478853Y00543457D01*
X08477693Y00543121D01*
X08476525Y00542813D01*
X08475350Y00542534D01*
X08474168Y00542284D01*
X08472981Y00542063D01*
X08471788Y00541871D01*
X08470591Y00541708D01*
X08469391Y00541575D01*
X08468187Y00541471D01*
X08466982Y00541397D01*
X08465775Y00541353D01*
X08464567Y00541338D01*
X08463359Y00541353D01*
X08462152Y00541397D01*
X08460947Y00541471D01*
X08459743Y00541575D01*
X08458543Y00541708D01*
X08457346Y00541871D01*
X08456153Y00542063D01*
X08454966Y00542284D01*
X08453784Y00542534D01*
X08452609Y00542813D01*
X08451441Y00543121D01*
X08450281Y00543457D01*
X08449130Y00543822D01*
X08447988Y00544215D01*
X08446855Y00544636D01*
X08445734Y00545084D01*
X08444624Y00545560D01*
X08443526Y00546063D01*
X08442440Y00546593D01*
X08441368Y00547149D01*
X08440310Y00547731D01*
X08439266Y00548340D01*
X08438238Y00548973D01*
X08437226Y00549632D01*
X08436230Y00550315D01*
X08435251Y00551023D01*
X08434290Y00551754D01*
X08433347Y00552509D01*
X08432422Y00553286D01*
X08431518Y00554087D01*
X08430633Y00554909D01*
X08429768Y00555752D01*
X08428925Y00556617D01*
X08428103Y00557502D01*
X08427302Y00558406D01*
X08426525Y00559331D01*
X08425770Y00560274D01*
X08425039Y00561235D01*
X08424331Y00562214D01*
X08423648Y00563210D01*
X08422989Y00564222D01*
X08422356Y00565250D01*
X08421747Y00566294D01*
X08421165Y00567352D01*
X08420609Y00568424D01*
X08420079Y00569510D01*
X08419576Y00570608D01*
X08419100Y00571718D01*
X08418652Y00572839D01*
X08418231Y00573972D01*
X08417838Y00575114D01*
X08417473Y00576265D01*
X08417137Y00577425D01*
X08416829Y00578593D01*
X08416550Y00579768D01*
X08416300Y00580950D01*
X08416079Y00582137D01*
X08415887Y00583330D01*
X08415724Y00584527D01*
X08415591Y00585727D01*
X08415487Y00586931D01*
X08415413Y00588136D01*
X08415369Y00589343D01*
X08415354Y00590551D01*
X08415354Y01456693D02*
X08415369Y01457901D01*
X08415413Y01459108D01*
X08415487Y01460313D01*
X08415591Y01461517D01*
X08415724Y01462717D01*
X08415887Y01463914D01*
X08416079Y01465107D01*
X08416300Y01466294D01*
X08416550Y01467476D01*
X08416829Y01468651D01*
X08417137Y01469819D01*
X08417473Y01470979D01*
X08417838Y01472130D01*
X08418231Y01473272D01*
X08418652Y01474405D01*
X08419100Y01475526D01*
X08419576Y01476636D01*
X08420079Y01477734D01*
X08420609Y01478820D01*
X08421165Y01479892D01*
X08421747Y01480950D01*
X08422356Y01481994D01*
X08422989Y01483022D01*
X08423648Y01484034D01*
X08424331Y01485030D01*
X08425039Y01486009D01*
X08425770Y01486970D01*
X08426525Y01487913D01*
X08427302Y01488838D01*
X08428103Y01489742D01*
X08428925Y01490627D01*
X08429768Y01491492D01*
X08430633Y01492335D01*
X08431518Y01493157D01*
X08432422Y01493958D01*
X08433347Y01494735D01*
X08434290Y01495490D01*
X08435251Y01496221D01*
X08436230Y01496929D01*
X08437226Y01497612D01*
X08438238Y01498271D01*
X08439266Y01498904D01*
X08440310Y01499513D01*
X08441368Y01500095D01*
X08442440Y01500651D01*
X08443526Y01501181D01*
X08444624Y01501684D01*
X08445734Y01502160D01*
X08446855Y01502608D01*
X08447988Y01503029D01*
X08449130Y01503422D01*
X08450281Y01503787D01*
X08451441Y01504123D01*
X08452609Y01504431D01*
X08453784Y01504710D01*
X08454966Y01504960D01*
X08456153Y01505181D01*
X08457346Y01505373D01*
X08458543Y01505536D01*
X08459743Y01505669D01*
X08460947Y01505773D01*
X08462152Y01505847D01*
X08463359Y01505891D01*
X08464567Y01505906D01*
X08465775Y01505891D01*
X08466982Y01505847D01*
X08468187Y01505773D01*
X08469391Y01505669D01*
X08470591Y01505536D01*
X08471788Y01505373D01*
X08472981Y01505181D01*
X08474168Y01504960D01*
X08475350Y01504710D01*
X08476525Y01504431D01*
X08477693Y01504123D01*
X08478853Y01503787D01*
X08480004Y01503422D01*
X08481146Y01503029D01*
X08482279Y01502608D01*
X08483400Y01502160D01*
X08484510Y01501684D01*
X08485608Y01501181D01*
X08486694Y01500651D01*
X08487766Y01500095D01*
X08488824Y01499513D01*
X08489868Y01498904D01*
X08490896Y01498271D01*
X08491908Y01497612D01*
X08492904Y01496929D01*
X08493883Y01496221D01*
X08494844Y01495490D01*
X08495787Y01494735D01*
X08496712Y01493958D01*
X08497616Y01493157D01*
X08498501Y01492335D01*
X08499366Y01491492D01*
X08500209Y01490627D01*
X08501031Y01489742D01*
X08501832Y01488838D01*
X08502609Y01487913D01*
X08503364Y01486970D01*
X08504095Y01486009D01*
X08504803Y01485030D01*
X08505486Y01484034D01*
X08506145Y01483022D01*
X08506778Y01481994D01*
X08507387Y01480950D01*
X08507969Y01479892D01*
X08508525Y01478820D01*
X08509055Y01477734D01*
X08509558Y01476636D01*
X08510034Y01475526D01*
X08510482Y01474405D01*
X08510903Y01473272D01*
X08511296Y01472130D01*
X08511661Y01470979D01*
X08511997Y01469819D01*
X08512305Y01468651D01*
X08512584Y01467476D01*
X08512834Y01466294D01*
X08513055Y01465107D01*
X08513247Y01463914D01*
X08513410Y01462717D01*
X08513543Y01461517D01*
X08513647Y01460313D01*
X08513721Y01459108D01*
X08513765Y01457901D01*
X08513780Y01456693D01*
X08513765Y01455485D01*
X08513721Y01454278D01*
X08513647Y01453073D01*
X08513543Y01451869D01*
X08513410Y01450669D01*
X08513247Y01449472D01*
X08513055Y01448279D01*
X08512834Y01447092D01*
X08512584Y01445910D01*
X08512305Y01444735D01*
X08511997Y01443567D01*
X08511661Y01442407D01*
X08511296Y01441256D01*
X08510903Y01440114D01*
X08510482Y01438981D01*
X08510034Y01437860D01*
X08509558Y01436750D01*
X08509055Y01435652D01*
X08508525Y01434566D01*
X08507969Y01433494D01*
X08507387Y01432436D01*
X08506778Y01431392D01*
X08506145Y01430364D01*
X08505486Y01429352D01*
X08504803Y01428356D01*
X08504095Y01427377D01*
X08503364Y01426416D01*
X08502609Y01425473D01*
X08501832Y01424548D01*
X08501031Y01423644D01*
X08500209Y01422759D01*
X08499366Y01421894D01*
X08498501Y01421051D01*
X08497616Y01420229D01*
X08496712Y01419428D01*
X08495787Y01418651D01*
X08494844Y01417896D01*
X08493883Y01417165D01*
X08492904Y01416457D01*
X08491908Y01415774D01*
X08490896Y01415115D01*
X08489868Y01414482D01*
X08488824Y01413873D01*
X08487766Y01413291D01*
X08486694Y01412735D01*
X08485608Y01412205D01*
X08484510Y01411702D01*
X08483400Y01411226D01*
X08482279Y01410778D01*
X08481146Y01410357D01*
X08480004Y01409964D01*
X08478853Y01409599D01*
X08477693Y01409263D01*
X08476525Y01408955D01*
X08475350Y01408676D01*
X08474168Y01408426D01*
X08472981Y01408205D01*
X08471788Y01408013D01*
X08470591Y01407850D01*
X08469391Y01407717D01*
X08468187Y01407613D01*
X08466982Y01407539D01*
X08465775Y01407495D01*
X08464567Y01407480D01*
X08463359Y01407495D01*
X08462152Y01407539D01*
X08460947Y01407613D01*
X08459743Y01407717D01*
X08458543Y01407850D01*
X08457346Y01408013D01*
X08456153Y01408205D01*
X08454966Y01408426D01*
X08453784Y01408676D01*
X08452609Y01408955D01*
X08451441Y01409263D01*
X08450281Y01409599D01*
X08449130Y01409964D01*
X08447988Y01410357D01*
X08446855Y01410778D01*
X08445734Y01411226D01*
X08444624Y01411702D01*
X08443526Y01412205D01*
X08442440Y01412735D01*
X08441368Y01413291D01*
X08440310Y01413873D01*
X08439266Y01414482D01*
X08438238Y01415115D01*
X08437226Y01415774D01*
X08436230Y01416457D01*
X08435251Y01417165D01*
X08434290Y01417896D01*
X08433347Y01418651D01*
X08432422Y01419428D01*
X08431518Y01420229D01*
X08430633Y01421051D01*
X08429768Y01421894D01*
X08428925Y01422759D01*
X08428103Y01423644D01*
X08427302Y01424548D01*
X08426525Y01425473D01*
X08425770Y01426416D01*
X08425039Y01427377D01*
X08424331Y01428356D01*
X08423648Y01429352D01*
X08422989Y01430364D01*
X08422356Y01431392D01*
X08421747Y01432436D01*
X08421165Y01433494D01*
X08420609Y01434566D01*
X08420079Y01435652D01*
X08419576Y01436750D01*
X08419100Y01437860D01*
X08418652Y01438981D01*
X08418231Y01440114D01*
X08417838Y01441256D01*
X08417473Y01442407D01*
X08417137Y01443567D01*
X08416829Y01444735D01*
X08416550Y01445910D01*
X08416300Y01447092D01*
X08416079Y01448279D01*
X08415887Y01449472D01*
X08415724Y01450669D01*
X08415591Y01451869D01*
X08415487Y01453073D01*
X08415413Y01454278D01*
X08415369Y01455485D01*
X08415354Y01456693D01*
X08779528Y02007874D02*
X08779552Y02009806D01*
X08779623Y02011738D01*
X08779741Y02013666D01*
X08779907Y02015592D01*
X08780120Y02017513D01*
X08780380Y02019428D01*
X08780687Y02021336D01*
X08781041Y02023235D01*
X08781441Y02025126D01*
X08781888Y02027006D01*
X08782380Y02028875D01*
X08782919Y02030731D01*
X08783502Y02032573D01*
X08784131Y02034401D01*
X08784804Y02036212D01*
X08785522Y02038006D01*
X08786283Y02039783D01*
X08787088Y02041540D01*
X08787936Y02043276D01*
X08788826Y02044992D01*
X08789757Y02046685D01*
X08790730Y02048354D01*
X08791744Y02050000D01*
X08792798Y02051620D01*
X08793891Y02053213D01*
X08795023Y02054779D01*
X08796194Y02056317D01*
X08797401Y02057826D01*
X08798645Y02059305D01*
X08799926Y02060753D01*
X08801241Y02062168D01*
X08802590Y02063552D01*
X08803974Y02064901D01*
X08805389Y02066216D01*
X08806837Y02067497D01*
X08808316Y02068741D01*
X08809825Y02069948D01*
X08811363Y02071119D01*
X08812929Y02072251D01*
X08814522Y02073344D01*
X08816142Y02074398D01*
X08817788Y02075412D01*
X08819457Y02076385D01*
X08821150Y02077316D01*
X08822866Y02078206D01*
X08824602Y02079054D01*
X08826359Y02079859D01*
X08828136Y02080620D01*
X08829930Y02081338D01*
X08831741Y02082011D01*
X08833569Y02082640D01*
X08835411Y02083223D01*
X08837267Y02083762D01*
X08839136Y02084254D01*
X08841016Y02084701D01*
X08842907Y02085101D01*
X08844806Y02085455D01*
X08846714Y02085762D01*
X08848629Y02086022D01*
X08850550Y02086235D01*
X08852476Y02086401D01*
X08854404Y02086519D01*
X08856336Y02086590D01*
X08858268Y02086614D01*
X08860200Y02086590D01*
X08862132Y02086519D01*
X08864060Y02086401D01*
X08865986Y02086235D01*
X08867907Y02086022D01*
X08869822Y02085762D01*
X08871730Y02085455D01*
X08873629Y02085101D01*
X08875520Y02084701D01*
X08877400Y02084254D01*
X08879269Y02083762D01*
X08881125Y02083223D01*
X08882967Y02082640D01*
X08884795Y02082011D01*
X08886606Y02081338D01*
X08888400Y02080620D01*
X08890177Y02079859D01*
X08891934Y02079054D01*
X08893670Y02078206D01*
X08895386Y02077316D01*
X08897079Y02076385D01*
X08898748Y02075412D01*
X08900394Y02074398D01*
X08902014Y02073344D01*
X08903607Y02072251D01*
X08905173Y02071119D01*
X08906711Y02069948D01*
X08908220Y02068741D01*
X08909699Y02067497D01*
X08911147Y02066216D01*
X08912562Y02064901D01*
X08913946Y02063552D01*
X08915295Y02062168D01*
X08916610Y02060753D01*
X08917891Y02059305D01*
X08919135Y02057826D01*
X08920342Y02056317D01*
X08921513Y02054779D01*
X08922645Y02053213D01*
X08923738Y02051620D01*
X08924792Y02050000D01*
X08925806Y02048354D01*
X08926779Y02046685D01*
X08927710Y02044992D01*
X08928600Y02043276D01*
X08929448Y02041540D01*
X08930253Y02039783D01*
X08931014Y02038006D01*
X08931732Y02036212D01*
X08932405Y02034401D01*
X08933034Y02032573D01*
X08933617Y02030731D01*
X08934156Y02028875D01*
X08934648Y02027006D01*
X08935095Y02025126D01*
X08935495Y02023235D01*
X08935849Y02021336D01*
X08936156Y02019428D01*
X08936416Y02017513D01*
X08936629Y02015592D01*
X08936795Y02013666D01*
X08936913Y02011738D01*
X08936984Y02009806D01*
X08937008Y02007874D01*
X08936984Y02005942D01*
X08936913Y02004010D01*
X08936795Y02002082D01*
X08936629Y02000156D01*
X08936416Y01998235D01*
X08936156Y01996320D01*
X08935849Y01994412D01*
X08935495Y01992513D01*
X08935095Y01990622D01*
X08934648Y01988742D01*
X08934156Y01986873D01*
X08933617Y01985017D01*
X08933034Y01983175D01*
X08932405Y01981347D01*
X08931732Y01979536D01*
X08931014Y01977742D01*
X08930253Y01975965D01*
X08929448Y01974208D01*
X08928600Y01972472D01*
X08927710Y01970756D01*
X08926779Y01969063D01*
X08925806Y01967394D01*
X08924792Y01965748D01*
X08923738Y01964128D01*
X08922645Y01962535D01*
X08921513Y01960969D01*
X08920342Y01959431D01*
X08919135Y01957922D01*
X08917891Y01956443D01*
X08916610Y01954995D01*
X08915295Y01953580D01*
X08913946Y01952196D01*
X08912562Y01950847D01*
X08911147Y01949532D01*
X08909699Y01948251D01*
X08908220Y01947007D01*
X08906711Y01945800D01*
X08905173Y01944629D01*
X08903607Y01943497D01*
X08902014Y01942404D01*
X08900394Y01941350D01*
X08898748Y01940336D01*
X08897079Y01939363D01*
X08895386Y01938432D01*
X08893670Y01937542D01*
X08891934Y01936694D01*
X08890177Y01935889D01*
X08888400Y01935128D01*
X08886606Y01934410D01*
X08884795Y01933737D01*
X08882967Y01933108D01*
X08881125Y01932525D01*
X08879269Y01931986D01*
X08877400Y01931494D01*
X08875520Y01931047D01*
X08873629Y01930647D01*
X08871730Y01930293D01*
X08869822Y01929986D01*
X08867907Y01929726D01*
X08865986Y01929513D01*
X08864060Y01929347D01*
X08862132Y01929229D01*
X08860200Y01929158D01*
X08858268Y01929134D01*
X08856336Y01929158D01*
X08854404Y01929229D01*
X08852476Y01929347D01*
X08850550Y01929513D01*
X08848629Y01929726D01*
X08846714Y01929986D01*
X08844806Y01930293D01*
X08842907Y01930647D01*
X08841016Y01931047D01*
X08839136Y01931494D01*
X08837267Y01931986D01*
X08835411Y01932525D01*
X08833569Y01933108D01*
X08831741Y01933737D01*
X08829930Y01934410D01*
X08828136Y01935128D01*
X08826359Y01935889D01*
X08824602Y01936694D01*
X08822866Y01937542D01*
X08821150Y01938432D01*
X08819457Y01939363D01*
X08817788Y01940336D01*
X08816142Y01941350D01*
X08814522Y01942404D01*
X08812929Y01943497D01*
X08811363Y01944629D01*
X08809825Y01945800D01*
X08808316Y01947007D01*
X08806837Y01948251D01*
X08805389Y01949532D01*
X08803974Y01950847D01*
X08802590Y01952196D01*
X08801241Y01953580D01*
X08799926Y01954995D01*
X08798645Y01956443D01*
X08797401Y01957922D01*
X08796194Y01959431D01*
X08795023Y01960969D01*
X08793891Y01962535D01*
X08792798Y01964128D01*
X08791744Y01965748D01*
X08790730Y01967394D01*
X08789757Y01969063D01*
X08788826Y01970756D01*
X08787936Y01972472D01*
X08787088Y01974208D01*
X08786283Y01975965D01*
X08785522Y01977742D01*
X08784804Y01979536D01*
X08784131Y01981347D01*
X08783502Y01983175D01*
X08782919Y01985017D01*
X08782380Y01986873D01*
X08781888Y01988742D01*
X08781441Y01990622D01*
X08781041Y01992513D01*
X08780687Y01994412D01*
X08780380Y01996320D01*
X08780120Y01998235D01*
X08779907Y02000156D01*
X08779741Y02002082D01*
X08779623Y02004010D01*
X08779552Y02005942D01*
X08779528Y02007874D01*
X10344488Y01456693D02*
X10344503Y01457901D01*
X10344547Y01459108D01*
X10344621Y01460313D01*
X10344725Y01461517D01*
X10344858Y01462717D01*
X10345021Y01463914D01*
X10345213Y01465107D01*
X10345434Y01466294D01*
X10345684Y01467476D01*
X10345963Y01468651D01*
X10346271Y01469819D01*
X10346607Y01470979D01*
X10346972Y01472130D01*
X10347365Y01473272D01*
X10347786Y01474405D01*
X10348234Y01475526D01*
X10348710Y01476636D01*
X10349213Y01477734D01*
X10349743Y01478820D01*
X10350299Y01479892D01*
X10350881Y01480950D01*
X10351490Y01481994D01*
X10352123Y01483022D01*
X10352782Y01484034D01*
X10353465Y01485030D01*
X10354173Y01486009D01*
X10354904Y01486970D01*
X10355659Y01487913D01*
X10356436Y01488838D01*
X10357237Y01489742D01*
X10358059Y01490627D01*
X10358902Y01491492D01*
X10359767Y01492335D01*
X10360652Y01493157D01*
X10361556Y01493958D01*
X10362481Y01494735D01*
X10363424Y01495490D01*
X10364385Y01496221D01*
X10365364Y01496929D01*
X10366360Y01497612D01*
X10367372Y01498271D01*
X10368400Y01498904D01*
X10369444Y01499513D01*
X10370502Y01500095D01*
X10371574Y01500651D01*
X10372660Y01501181D01*
X10373758Y01501684D01*
X10374868Y01502160D01*
X10375989Y01502608D01*
X10377122Y01503029D01*
X10378264Y01503422D01*
X10379415Y01503787D01*
X10380575Y01504123D01*
X10381743Y01504431D01*
X10382918Y01504710D01*
X10384100Y01504960D01*
X10385287Y01505181D01*
X10386480Y01505373D01*
X10387677Y01505536D01*
X10388877Y01505669D01*
X10390081Y01505773D01*
X10391286Y01505847D01*
X10392493Y01505891D01*
X10393701Y01505906D01*
X10394909Y01505891D01*
X10396116Y01505847D01*
X10397321Y01505773D01*
X10398525Y01505669D01*
X10399725Y01505536D01*
X10400922Y01505373D01*
X10402115Y01505181D01*
X10403302Y01504960D01*
X10404484Y01504710D01*
X10405659Y01504431D01*
X10406827Y01504123D01*
X10407987Y01503787D01*
X10409138Y01503422D01*
X10410280Y01503029D01*
X10411413Y01502608D01*
X10412534Y01502160D01*
X10413644Y01501684D01*
X10414742Y01501181D01*
X10415828Y01500651D01*
X10416900Y01500095D01*
X10417958Y01499513D01*
X10419002Y01498904D01*
X10420030Y01498271D01*
X10421042Y01497612D01*
X10422038Y01496929D01*
X10423017Y01496221D01*
X10423978Y01495490D01*
X10424921Y01494735D01*
X10425846Y01493958D01*
X10426750Y01493157D01*
X10427635Y01492335D01*
X10428500Y01491492D01*
X10429343Y01490627D01*
X10430165Y01489742D01*
X10430966Y01488838D01*
X10431743Y01487913D01*
X10432498Y01486970D01*
X10433229Y01486009D01*
X10433937Y01485030D01*
X10434620Y01484034D01*
X10435279Y01483022D01*
X10435912Y01481994D01*
X10436521Y01480950D01*
X10437103Y01479892D01*
X10437659Y01478820D01*
X10438189Y01477734D01*
X10438692Y01476636D01*
X10439168Y01475526D01*
X10439616Y01474405D01*
X10440037Y01473272D01*
X10440430Y01472130D01*
X10440795Y01470979D01*
X10441131Y01469819D01*
X10441439Y01468651D01*
X10441718Y01467476D01*
X10441968Y01466294D01*
X10442189Y01465107D01*
X10442381Y01463914D01*
X10442544Y01462717D01*
X10442677Y01461517D01*
X10442781Y01460313D01*
X10442855Y01459108D01*
X10442899Y01457901D01*
X10442914Y01456693D01*
X10442899Y01455485D01*
X10442855Y01454278D01*
X10442781Y01453073D01*
X10442677Y01451869D01*
X10442544Y01450669D01*
X10442381Y01449472D01*
X10442189Y01448279D01*
X10441968Y01447092D01*
X10441718Y01445910D01*
X10441439Y01444735D01*
X10441131Y01443567D01*
X10440795Y01442407D01*
X10440430Y01441256D01*
X10440037Y01440114D01*
X10439616Y01438981D01*
X10439168Y01437860D01*
X10438692Y01436750D01*
X10438189Y01435652D01*
X10437659Y01434566D01*
X10437103Y01433494D01*
X10436521Y01432436D01*
X10435912Y01431392D01*
X10435279Y01430364D01*
X10434620Y01429352D01*
X10433937Y01428356D01*
X10433229Y01427377D01*
X10432498Y01426416D01*
X10431743Y01425473D01*
X10430966Y01424548D01*
X10430165Y01423644D01*
X10429343Y01422759D01*
X10428500Y01421894D01*
X10427635Y01421051D01*
X10426750Y01420229D01*
X10425846Y01419428D01*
X10424921Y01418651D01*
X10423978Y01417896D01*
X10423017Y01417165D01*
X10422038Y01416457D01*
X10421042Y01415774D01*
X10420030Y01415115D01*
X10419002Y01414482D01*
X10417958Y01413873D01*
X10416900Y01413291D01*
X10415828Y01412735D01*
X10414742Y01412205D01*
X10413644Y01411702D01*
X10412534Y01411226D01*
X10411413Y01410778D01*
X10410280Y01410357D01*
X10409138Y01409964D01*
X10407987Y01409599D01*
X10406827Y01409263D01*
X10405659Y01408955D01*
X10404484Y01408676D01*
X10403302Y01408426D01*
X10402115Y01408205D01*
X10400922Y01408013D01*
X10399725Y01407850D01*
X10398525Y01407717D01*
X10397321Y01407613D01*
X10396116Y01407539D01*
X10394909Y01407495D01*
X10393701Y01407480D01*
X10392493Y01407495D01*
X10391286Y01407539D01*
X10390081Y01407613D01*
X10388877Y01407717D01*
X10387677Y01407850D01*
X10386480Y01408013D01*
X10385287Y01408205D01*
X10384100Y01408426D01*
X10382918Y01408676D01*
X10381743Y01408955D01*
X10380575Y01409263D01*
X10379415Y01409599D01*
X10378264Y01409964D01*
X10377122Y01410357D01*
X10375989Y01410778D01*
X10374868Y01411226D01*
X10373758Y01411702D01*
X10372660Y01412205D01*
X10371574Y01412735D01*
X10370502Y01413291D01*
X10369444Y01413873D01*
X10368400Y01414482D01*
X10367372Y01415115D01*
X10366360Y01415774D01*
X10365364Y01416457D01*
X10364385Y01417165D01*
X10363424Y01417896D01*
X10362481Y01418651D01*
X10361556Y01419428D01*
X10360652Y01420229D01*
X10359767Y01421051D01*
X10358902Y01421894D01*
X10358059Y01422759D01*
X10357237Y01423644D01*
X10356436Y01424548D01*
X10355659Y01425473D01*
X10354904Y01426416D01*
X10354173Y01427377D01*
X10353465Y01428356D01*
X10352782Y01429352D01*
X10352123Y01430364D01*
X10351490Y01431392D01*
X10350881Y01432436D01*
X10350299Y01433494D01*
X10349743Y01434566D01*
X10349213Y01435652D01*
X10348710Y01436750D01*
X10348234Y01437860D01*
X10347786Y01438981D01*
X10347365Y01440114D01*
X10346972Y01441256D01*
X10346607Y01442407D01*
X10346271Y01443567D01*
X10345963Y01444735D01*
X10345684Y01445910D01*
X10345434Y01447092D01*
X10345213Y01448279D01*
X10345021Y01449472D01*
X10344858Y01450669D01*
X10344725Y01451869D01*
X10344621Y01453073D01*
X10344547Y01454278D01*
X10344503Y01455485D01*
X10344488Y01456693D01*
X10511811Y01574803D02*
X10511835Y01576735D01*
X10511906Y01578667D01*
X10512024Y01580595D01*
X10512190Y01582521D01*
X10512403Y01584442D01*
X10512663Y01586357D01*
X10512970Y01588265D01*
X10513324Y01590164D01*
X10513724Y01592055D01*
X10514171Y01593935D01*
X10514663Y01595804D01*
X10515202Y01597660D01*
X10515785Y01599502D01*
X10516414Y01601330D01*
X10517087Y01603141D01*
X10517805Y01604935D01*
X10518566Y01606712D01*
X10519371Y01608469D01*
X10520219Y01610205D01*
X10521109Y01611921D01*
X10522040Y01613614D01*
X10523013Y01615283D01*
X10524027Y01616929D01*
X10525081Y01618549D01*
X10526174Y01620142D01*
X10527306Y01621708D01*
X10528477Y01623246D01*
X10529684Y01624755D01*
X10530928Y01626234D01*
X10532209Y01627682D01*
X10533524Y01629097D01*
X10534873Y01630481D01*
X10536257Y01631830D01*
X10537672Y01633145D01*
X10539120Y01634426D01*
X10540599Y01635670D01*
X10542108Y01636877D01*
X10543646Y01638048D01*
X10545212Y01639180D01*
X10546805Y01640273D01*
X10548425Y01641327D01*
X10550071Y01642341D01*
X10551740Y01643314D01*
X10553433Y01644245D01*
X10555149Y01645135D01*
X10556885Y01645983D01*
X10558642Y01646788D01*
X10560419Y01647549D01*
X10562213Y01648267D01*
X10564024Y01648940D01*
X10565852Y01649569D01*
X10567694Y01650152D01*
X10569550Y01650691D01*
X10571419Y01651183D01*
X10573299Y01651630D01*
X10575190Y01652030D01*
X10577089Y01652384D01*
X10578997Y01652691D01*
X10580912Y01652951D01*
X10582833Y01653164D01*
X10584759Y01653330D01*
X10586687Y01653448D01*
X10588619Y01653519D01*
X10590551Y01653543D01*
X10592483Y01653519D01*
X10594415Y01653448D01*
X10596343Y01653330D01*
X10598269Y01653164D01*
X10600190Y01652951D01*
X10602105Y01652691D01*
X10604013Y01652384D01*
X10605912Y01652030D01*
X10607803Y01651630D01*
X10609683Y01651183D01*
X10611552Y01650691D01*
X10613408Y01650152D01*
X10615250Y01649569D01*
X10617078Y01648940D01*
X10618889Y01648267D01*
X10620683Y01647549D01*
X10622460Y01646788D01*
X10624217Y01645983D01*
X10625953Y01645135D01*
X10627669Y01644245D01*
X10629362Y01643314D01*
X10631031Y01642341D01*
X10632677Y01641327D01*
X10634297Y01640273D01*
X10635890Y01639180D01*
X10637456Y01638048D01*
X10638994Y01636877D01*
X10640503Y01635670D01*
X10641982Y01634426D01*
X10643430Y01633145D01*
X10644845Y01631830D01*
X10646229Y01630481D01*
X10647578Y01629097D01*
X10648893Y01627682D01*
X10650174Y01626234D01*
X10651418Y01624755D01*
X10652625Y01623246D01*
X10653796Y01621708D01*
X10654928Y01620142D01*
X10656021Y01618549D01*
X10657075Y01616929D01*
X10658089Y01615283D01*
X10659062Y01613614D01*
X10659993Y01611921D01*
X10660883Y01610205D01*
X10661731Y01608469D01*
X10662536Y01606712D01*
X10663297Y01604935D01*
X10664015Y01603141D01*
X10664688Y01601330D01*
X10665317Y01599502D01*
X10665900Y01597660D01*
X10666439Y01595804D01*
X10666931Y01593935D01*
X10667378Y01592055D01*
X10667778Y01590164D01*
X10668132Y01588265D01*
X10668439Y01586357D01*
X10668699Y01584442D01*
X10668912Y01582521D01*
X10669078Y01580595D01*
X10669196Y01578667D01*
X10669267Y01576735D01*
X10669291Y01574803D01*
X10669267Y01572871D01*
X10669196Y01570939D01*
X10669078Y01569011D01*
X10668912Y01567085D01*
X10668699Y01565164D01*
X10668439Y01563249D01*
X10668132Y01561341D01*
X10667778Y01559442D01*
X10667378Y01557551D01*
X10666931Y01555671D01*
X10666439Y01553802D01*
X10665900Y01551946D01*
X10665317Y01550104D01*
X10664688Y01548276D01*
X10664015Y01546465D01*
X10663297Y01544671D01*
X10662536Y01542894D01*
X10661731Y01541137D01*
X10660883Y01539401D01*
X10659993Y01537685D01*
X10659062Y01535992D01*
X10658089Y01534323D01*
X10657075Y01532677D01*
X10656021Y01531057D01*
X10654928Y01529464D01*
X10653796Y01527898D01*
X10652625Y01526360D01*
X10651418Y01524851D01*
X10650174Y01523372D01*
X10648893Y01521924D01*
X10647578Y01520509D01*
X10646229Y01519125D01*
X10644845Y01517776D01*
X10643430Y01516461D01*
X10641982Y01515180D01*
X10640503Y01513936D01*
X10638994Y01512729D01*
X10637456Y01511558D01*
X10635890Y01510426D01*
X10634297Y01509333D01*
X10632677Y01508279D01*
X10631031Y01507265D01*
X10629362Y01506292D01*
X10627669Y01505361D01*
X10625953Y01504471D01*
X10624217Y01503623D01*
X10622460Y01502818D01*
X10620683Y01502057D01*
X10618889Y01501339D01*
X10617078Y01500666D01*
X10615250Y01500037D01*
X10613408Y01499454D01*
X10611552Y01498915D01*
X10609683Y01498423D01*
X10607803Y01497976D01*
X10605912Y01497576D01*
X10604013Y01497222D01*
X10602105Y01496915D01*
X10600190Y01496655D01*
X10598269Y01496442D01*
X10596343Y01496276D01*
X10594415Y01496158D01*
X10592483Y01496087D01*
X10590551Y01496063D01*
X10588619Y01496087D01*
X10586687Y01496158D01*
X10584759Y01496276D01*
X10582833Y01496442D01*
X10580912Y01496655D01*
X10578997Y01496915D01*
X10577089Y01497222D01*
X10575190Y01497576D01*
X10573299Y01497976D01*
X10571419Y01498423D01*
X10569550Y01498915D01*
X10567694Y01499454D01*
X10565852Y01500037D01*
X10564024Y01500666D01*
X10562213Y01501339D01*
X10560419Y01502057D01*
X10558642Y01502818D01*
X10556885Y01503623D01*
X10555149Y01504471D01*
X10553433Y01505361D01*
X10551740Y01506292D01*
X10550071Y01507265D01*
X10548425Y01508279D01*
X10546805Y01509333D01*
X10545212Y01510426D01*
X10543646Y01511558D01*
X10542108Y01512729D01*
X10540599Y01513936D01*
X10539120Y01515180D01*
X10537672Y01516461D01*
X10536257Y01517776D01*
X10534873Y01519125D01*
X10533524Y01520509D01*
X10532209Y01521924D01*
X10530928Y01523372D01*
X10529684Y01524851D01*
X10528477Y01526360D01*
X10527306Y01527898D01*
X10526174Y01529464D01*
X10525081Y01531057D01*
X10524027Y01532677D01*
X10523013Y01534323D01*
X10522040Y01535992D01*
X10521109Y01537685D01*
X10520219Y01539401D01*
X10519371Y01541137D01*
X10518566Y01542894D01*
X10517805Y01544671D01*
X10517087Y01546465D01*
X10516414Y01548276D01*
X10515785Y01550104D01*
X10515202Y01551946D01*
X10514663Y01553802D01*
X10514171Y01555671D01*
X10513724Y01557551D01*
X10513324Y01559442D01*
X10512970Y01561341D01*
X10512663Y01563249D01*
X10512403Y01565164D01*
X10512190Y01567085D01*
X10512024Y01569011D01*
X10511906Y01570939D01*
X10511835Y01572871D01*
X10511811Y01574803D01*
X12204725Y01574803D02*
X12204749Y01576735D01*
X12204820Y01578667D01*
X12204938Y01580595D01*
X12205104Y01582521D01*
X12205317Y01584442D01*
X12205577Y01586357D01*
X12205884Y01588265D01*
X12206238Y01590164D01*
X12206638Y01592055D01*
X12207085Y01593935D01*
X12207577Y01595804D01*
X12208116Y01597660D01*
X12208699Y01599502D01*
X12209328Y01601330D01*
X12210001Y01603141D01*
X12210719Y01604935D01*
X12211480Y01606712D01*
X12212285Y01608469D01*
X12213133Y01610205D01*
X12214023Y01611921D01*
X12214954Y01613614D01*
X12215927Y01615283D01*
X12216941Y01616929D01*
X12217995Y01618549D01*
X12219088Y01620142D01*
X12220220Y01621708D01*
X12221391Y01623246D01*
X12222598Y01624755D01*
X12223842Y01626234D01*
X12225123Y01627682D01*
X12226438Y01629097D01*
X12227787Y01630481D01*
X12229171Y01631830D01*
X12230586Y01633145D01*
X12232034Y01634426D01*
X12233513Y01635670D01*
X12235022Y01636877D01*
X12236560Y01638048D01*
X12238126Y01639180D01*
X12239719Y01640273D01*
X12241339Y01641327D01*
X12242985Y01642341D01*
X12244654Y01643314D01*
X12246347Y01644245D01*
X12248063Y01645135D01*
X12249799Y01645983D01*
X12251556Y01646788D01*
X12253333Y01647549D01*
X12255127Y01648267D01*
X12256938Y01648940D01*
X12258766Y01649569D01*
X12260608Y01650152D01*
X12262464Y01650691D01*
X12264333Y01651183D01*
X12266213Y01651630D01*
X12268104Y01652030D01*
X12270003Y01652384D01*
X12271911Y01652691D01*
X12273826Y01652951D01*
X12275747Y01653164D01*
X12277673Y01653330D01*
X12279601Y01653448D01*
X12281533Y01653519D01*
X12283465Y01653543D01*
X12285397Y01653519D01*
X12287329Y01653448D01*
X12289257Y01653330D01*
X12291183Y01653164D01*
X12293104Y01652951D01*
X12295019Y01652691D01*
X12296927Y01652384D01*
X12298826Y01652030D01*
X12300717Y01651630D01*
X12302597Y01651183D01*
X12304466Y01650691D01*
X12306322Y01650152D01*
X12308164Y01649569D01*
X12309992Y01648940D01*
X12311803Y01648267D01*
X12313597Y01647549D01*
X12315374Y01646788D01*
X12317131Y01645983D01*
X12318867Y01645135D01*
X12320583Y01644245D01*
X12322276Y01643314D01*
X12323945Y01642341D01*
X12325591Y01641327D01*
X12327211Y01640273D01*
X12328804Y01639180D01*
X12330370Y01638048D01*
X12331908Y01636877D01*
X12333417Y01635670D01*
X12334896Y01634426D01*
X12336344Y01633145D01*
X12337759Y01631830D01*
X12339143Y01630481D01*
X12340492Y01629097D01*
X12341807Y01627682D01*
X12343088Y01626234D01*
X12344332Y01624755D01*
X12345539Y01623246D01*
X12346710Y01621708D01*
X12347842Y01620142D01*
X12348935Y01618549D01*
X12349989Y01616929D01*
X12351003Y01615283D01*
X12351976Y01613614D01*
X12352907Y01611921D01*
X12353797Y01610205D01*
X12354645Y01608469D01*
X12355450Y01606712D01*
X12356211Y01604935D01*
X12356929Y01603141D01*
X12357602Y01601330D01*
X12358231Y01599502D01*
X12358814Y01597660D01*
X12359353Y01595804D01*
X12359845Y01593935D01*
X12360292Y01592055D01*
X12360692Y01590164D01*
X12361046Y01588265D01*
X12361353Y01586357D01*
X12361613Y01584442D01*
X12361826Y01582521D01*
X12361992Y01580595D01*
X12362110Y01578667D01*
X12362181Y01576735D01*
X12362205Y01574803D01*
X12362181Y01572871D01*
X12362110Y01570939D01*
X12361992Y01569011D01*
X12361826Y01567085D01*
X12361613Y01565164D01*
X12361353Y01563249D01*
X12361046Y01561341D01*
X12360692Y01559442D01*
X12360292Y01557551D01*
X12359845Y01555671D01*
X12359353Y01553802D01*
X12358814Y01551946D01*
X12358231Y01550104D01*
X12357602Y01548276D01*
X12356929Y01546465D01*
X12356211Y01544671D01*
X12355450Y01542894D01*
X12354645Y01541137D01*
X12353797Y01539401D01*
X12352907Y01537685D01*
X12351976Y01535992D01*
X12351003Y01534323D01*
X12349989Y01532677D01*
X12348935Y01531057D01*
X12347842Y01529464D01*
X12346710Y01527898D01*
X12345539Y01526360D01*
X12344332Y01524851D01*
X12343088Y01523372D01*
X12341807Y01521924D01*
X12340492Y01520509D01*
X12339143Y01519125D01*
X12337759Y01517776D01*
X12336344Y01516461D01*
X12334896Y01515180D01*
X12333417Y01513936D01*
X12331908Y01512729D01*
X12330370Y01511558D01*
X12328804Y01510426D01*
X12327211Y01509333D01*
X12325591Y01508279D01*
X12323945Y01507265D01*
X12322276Y01506292D01*
X12320583Y01505361D01*
X12318867Y01504471D01*
X12317131Y01503623D01*
X12315374Y01502818D01*
X12313597Y01502057D01*
X12311803Y01501339D01*
X12309992Y01500666D01*
X12308164Y01500037D01*
X12306322Y01499454D01*
X12304466Y01498915D01*
X12302597Y01498423D01*
X12300717Y01497976D01*
X12298826Y01497576D01*
X12296927Y01497222D01*
X12295019Y01496915D01*
X12293104Y01496655D01*
X12291183Y01496442D01*
X12289257Y01496276D01*
X12287329Y01496158D01*
X12285397Y01496087D01*
X12283465Y01496063D01*
X12281533Y01496087D01*
X12279601Y01496158D01*
X12277673Y01496276D01*
X12275747Y01496442D01*
X12273826Y01496655D01*
X12271911Y01496915D01*
X12270003Y01497222D01*
X12268104Y01497576D01*
X12266213Y01497976D01*
X12264333Y01498423D01*
X12262464Y01498915D01*
X12260608Y01499454D01*
X12258766Y01500037D01*
X12256938Y01500666D01*
X12255127Y01501339D01*
X12253333Y01502057D01*
X12251556Y01502818D01*
X12249799Y01503623D01*
X12248063Y01504471D01*
X12246347Y01505361D01*
X12244654Y01506292D01*
X12242985Y01507265D01*
X12241339Y01508279D01*
X12239719Y01509333D01*
X12238126Y01510426D01*
X12236560Y01511558D01*
X12235022Y01512729D01*
X12233513Y01513936D01*
X12232034Y01515180D01*
X12230586Y01516461D01*
X12229171Y01517776D01*
X12227787Y01519125D01*
X12226438Y01520509D01*
X12225123Y01521924D01*
X12223842Y01523372D01*
X12222598Y01524851D01*
X12221391Y01526360D01*
X12220220Y01527898D01*
X12219088Y01529464D01*
X12217995Y01531057D01*
X12216941Y01532677D01*
X12215927Y01534323D01*
X12214954Y01535992D01*
X12214023Y01537685D01*
X12213133Y01539401D01*
X12212285Y01541137D01*
X12211480Y01542894D01*
X12210719Y01544671D01*
X12210001Y01546465D01*
X12209328Y01548276D01*
X12208699Y01550104D01*
X12208116Y01551946D01*
X12207577Y01553802D01*
X12207085Y01555671D01*
X12206638Y01557551D01*
X12206238Y01559442D01*
X12205884Y01561341D01*
X12205577Y01563249D01*
X12205317Y01565164D01*
X12205104Y01567085D01*
X12204938Y01569011D01*
X12204820Y01570939D01*
X12204749Y01572871D01*
X12204725Y01574803D01*
X12431102Y01456693D02*
X12431117Y01457901D01*
X12431161Y01459108D01*
X12431235Y01460313D01*
X12431339Y01461517D01*
X12431472Y01462717D01*
X12431635Y01463914D01*
X12431827Y01465107D01*
X12432048Y01466294D01*
X12432298Y01467476D01*
X12432577Y01468651D01*
X12432885Y01469819D01*
X12433221Y01470979D01*
X12433586Y01472130D01*
X12433979Y01473272D01*
X12434400Y01474405D01*
X12434848Y01475526D01*
X12435324Y01476636D01*
X12435827Y01477734D01*
X12436357Y01478820D01*
X12436913Y01479892D01*
X12437495Y01480950D01*
X12438104Y01481994D01*
X12438737Y01483022D01*
X12439396Y01484034D01*
X12440079Y01485030D01*
X12440787Y01486009D01*
X12441518Y01486970D01*
X12442273Y01487913D01*
X12443050Y01488838D01*
X12443851Y01489742D01*
X12444673Y01490627D01*
X12445516Y01491492D01*
X12446381Y01492335D01*
X12447266Y01493157D01*
X12448170Y01493958D01*
X12449095Y01494735D01*
X12450038Y01495490D01*
X12450999Y01496221D01*
X12451978Y01496929D01*
X12452974Y01497612D01*
X12453986Y01498271D01*
X12455014Y01498904D01*
X12456058Y01499513D01*
X12457116Y01500095D01*
X12458188Y01500651D01*
X12459274Y01501181D01*
X12460372Y01501684D01*
X12461482Y01502160D01*
X12462603Y01502608D01*
X12463736Y01503029D01*
X12464878Y01503422D01*
X12466029Y01503787D01*
X12467189Y01504123D01*
X12468357Y01504431D01*
X12469532Y01504710D01*
X12470714Y01504960D01*
X12471901Y01505181D01*
X12473094Y01505373D01*
X12474291Y01505536D01*
X12475491Y01505669D01*
X12476695Y01505773D01*
X12477900Y01505847D01*
X12479107Y01505891D01*
X12480315Y01505906D01*
X12481523Y01505891D01*
X12482730Y01505847D01*
X12483935Y01505773D01*
X12485139Y01505669D01*
X12486339Y01505536D01*
X12487536Y01505373D01*
X12488729Y01505181D01*
X12489916Y01504960D01*
X12491098Y01504710D01*
X12492273Y01504431D01*
X12493441Y01504123D01*
X12494601Y01503787D01*
X12495752Y01503422D01*
X12496894Y01503029D01*
X12498027Y01502608D01*
X12499148Y01502160D01*
X12500258Y01501684D01*
X12501356Y01501181D01*
X12502442Y01500651D01*
X12503514Y01500095D01*
X12504572Y01499513D01*
X12505616Y01498904D01*
X12506644Y01498271D01*
X12507656Y01497612D01*
X12508652Y01496929D01*
X12509631Y01496221D01*
X12510592Y01495490D01*
X12511535Y01494735D01*
X12512460Y01493958D01*
X12513364Y01493157D01*
X12514249Y01492335D01*
X12515114Y01491492D01*
X12515957Y01490627D01*
X12516779Y01489742D01*
X12517580Y01488838D01*
X12518357Y01487913D01*
X12519112Y01486970D01*
X12519843Y01486009D01*
X12520551Y01485030D01*
X12521234Y01484034D01*
X12521893Y01483022D01*
X12522526Y01481994D01*
X12523135Y01480950D01*
X12523717Y01479892D01*
X12524273Y01478820D01*
X12524803Y01477734D01*
X12525306Y01476636D01*
X12525782Y01475526D01*
X12526230Y01474405D01*
X12526651Y01473272D01*
X12527044Y01472130D01*
X12527409Y01470979D01*
X12527745Y01469819D01*
X12528053Y01468651D01*
X12528332Y01467476D01*
X12528582Y01466294D01*
X12528803Y01465107D01*
X12528995Y01463914D01*
X12529158Y01462717D01*
X12529291Y01461517D01*
X12529395Y01460313D01*
X12529469Y01459108D01*
X12529513Y01457901D01*
X12529528Y01456693D01*
X12529513Y01455485D01*
X12529469Y01454278D01*
X12529395Y01453073D01*
X12529291Y01451869D01*
X12529158Y01450669D01*
X12528995Y01449472D01*
X12528803Y01448279D01*
X12528582Y01447092D01*
X12528332Y01445910D01*
X12528053Y01444735D01*
X12527745Y01443567D01*
X12527409Y01442407D01*
X12527044Y01441256D01*
X12526651Y01440114D01*
X12526230Y01438981D01*
X12525782Y01437860D01*
X12525306Y01436750D01*
X12524803Y01435652D01*
X12524273Y01434566D01*
X12523717Y01433494D01*
X12523135Y01432436D01*
X12522526Y01431392D01*
X12521893Y01430364D01*
X12521234Y01429352D01*
X12520551Y01428356D01*
X12519843Y01427377D01*
X12519112Y01426416D01*
X12518357Y01425473D01*
X12517580Y01424548D01*
X12516779Y01423644D01*
X12515957Y01422759D01*
X12515114Y01421894D01*
X12514249Y01421051D01*
X12513364Y01420229D01*
X12512460Y01419428D01*
X12511535Y01418651D01*
X12510592Y01417896D01*
X12509631Y01417165D01*
X12508652Y01416457D01*
X12507656Y01415774D01*
X12506644Y01415115D01*
X12505616Y01414482D01*
X12504572Y01413873D01*
X12503514Y01413291D01*
X12502442Y01412735D01*
X12501356Y01412205D01*
X12500258Y01411702D01*
X12499148Y01411226D01*
X12498027Y01410778D01*
X12496894Y01410357D01*
X12495752Y01409964D01*
X12494601Y01409599D01*
X12493441Y01409263D01*
X12492273Y01408955D01*
X12491098Y01408676D01*
X12489916Y01408426D01*
X12488729Y01408205D01*
X12487536Y01408013D01*
X12486339Y01407850D01*
X12485139Y01407717D01*
X12483935Y01407613D01*
X12482730Y01407539D01*
X12481523Y01407495D01*
X12480315Y01407480D01*
X12479107Y01407495D01*
X12477900Y01407539D01*
X12476695Y01407613D01*
X12475491Y01407717D01*
X12474291Y01407850D01*
X12473094Y01408013D01*
X12471901Y01408205D01*
X12470714Y01408426D01*
X12469532Y01408676D01*
X12468357Y01408955D01*
X12467189Y01409263D01*
X12466029Y01409599D01*
X12464878Y01409964D01*
X12463736Y01410357D01*
X12462603Y01410778D01*
X12461482Y01411226D01*
X12460372Y01411702D01*
X12459274Y01412205D01*
X12458188Y01412735D01*
X12457116Y01413291D01*
X12456058Y01413873D01*
X12455014Y01414482D01*
X12453986Y01415115D01*
X12452974Y01415774D01*
X12451978Y01416457D01*
X12450999Y01417165D01*
X12450038Y01417896D01*
X12449095Y01418651D01*
X12448170Y01419428D01*
X12447266Y01420229D01*
X12446381Y01421051D01*
X12445516Y01421894D01*
X12444673Y01422759D01*
X12443851Y01423644D01*
X12443050Y01424548D01*
X12442273Y01425473D01*
X12441518Y01426416D01*
X12440787Y01427377D01*
X12440079Y01428356D01*
X12439396Y01429352D01*
X12438737Y01430364D01*
X12438104Y01431392D01*
X12437495Y01432436D01*
X12436913Y01433494D01*
X12436357Y01434566D01*
X12435827Y01435652D01*
X12435324Y01436750D01*
X12434848Y01437860D01*
X12434400Y01438981D01*
X12433979Y01440114D01*
X12433586Y01441256D01*
X12433221Y01442407D01*
X12432885Y01443567D01*
X12432577Y01444735D01*
X12432298Y01445910D01*
X12432048Y01447092D01*
X12431827Y01448279D01*
X12431635Y01449472D01*
X12431472Y01450669D01*
X12431339Y01451869D01*
X12431235Y01453073D01*
X12431161Y01454278D01*
X12431117Y01455485D01*
X12431102Y01456693D01*
X10856299Y03228346D02*
X10856314Y03229554D01*
X10856358Y03230761D01*
X10856432Y03231966D01*
X10856536Y03233170D01*
X10856669Y03234370D01*
X10856832Y03235567D01*
X10857024Y03236760D01*
X10857245Y03237947D01*
X10857495Y03239129D01*
X10857774Y03240304D01*
X10858082Y03241472D01*
X10858418Y03242632D01*
X10858783Y03243783D01*
X10859176Y03244925D01*
X10859597Y03246058D01*
X10860045Y03247179D01*
X10860521Y03248289D01*
X10861024Y03249387D01*
X10861554Y03250473D01*
X10862110Y03251545D01*
X10862692Y03252603D01*
X10863301Y03253647D01*
X10863934Y03254675D01*
X10864593Y03255687D01*
X10865276Y03256683D01*
X10865984Y03257662D01*
X10866715Y03258623D01*
X10867470Y03259566D01*
X10868247Y03260491D01*
X10869048Y03261395D01*
X10869870Y03262280D01*
X10870713Y03263145D01*
X10871578Y03263988D01*
X10872463Y03264810D01*
X10873367Y03265611D01*
X10874292Y03266388D01*
X10875235Y03267143D01*
X10876196Y03267874D01*
X10877175Y03268582D01*
X10878171Y03269265D01*
X10879183Y03269924D01*
X10880211Y03270557D01*
X10881255Y03271166D01*
X10882313Y03271748D01*
X10883385Y03272304D01*
X10884471Y03272834D01*
X10885569Y03273337D01*
X10886679Y03273813D01*
X10887800Y03274261D01*
X10888933Y03274682D01*
X10890075Y03275075D01*
X10891226Y03275440D01*
X10892386Y03275776D01*
X10893554Y03276084D01*
X10894729Y03276363D01*
X10895911Y03276613D01*
X10897098Y03276834D01*
X10898291Y03277026D01*
X10899488Y03277189D01*
X10900688Y03277322D01*
X10901892Y03277426D01*
X10903097Y03277500D01*
X10904304Y03277544D01*
X10905512Y03277559D01*
X10906720Y03277544D01*
X10907927Y03277500D01*
X10909132Y03277426D01*
X10910336Y03277322D01*
X10911536Y03277189D01*
X10912733Y03277026D01*
X10913926Y03276834D01*
X10915113Y03276613D01*
X10916295Y03276363D01*
X10917470Y03276084D01*
X10918638Y03275776D01*
X10919798Y03275440D01*
X10920949Y03275075D01*
X10922091Y03274682D01*
X10923224Y03274261D01*
X10924345Y03273813D01*
X10925455Y03273337D01*
X10926553Y03272834D01*
X10927639Y03272304D01*
X10928711Y03271748D01*
X10929769Y03271166D01*
X10930813Y03270557D01*
X10931841Y03269924D01*
X10932853Y03269265D01*
X10933849Y03268582D01*
X10934828Y03267874D01*
X10935789Y03267143D01*
X10936732Y03266388D01*
X10937657Y03265611D01*
X10938561Y03264810D01*
X10939446Y03263988D01*
X10940311Y03263145D01*
X10941154Y03262280D01*
X10941976Y03261395D01*
X10942777Y03260491D01*
X10943554Y03259566D01*
X10944309Y03258623D01*
X10945040Y03257662D01*
X10945748Y03256683D01*
X10946431Y03255687D01*
X10947090Y03254675D01*
X10947723Y03253647D01*
X10948332Y03252603D01*
X10948914Y03251545D01*
X10949470Y03250473D01*
X10950000Y03249387D01*
X10950503Y03248289D01*
X10950979Y03247179D01*
X10951427Y03246058D01*
X10951848Y03244925D01*
X10952241Y03243783D01*
X10952606Y03242632D01*
X10952942Y03241472D01*
X10953250Y03240304D01*
X10953529Y03239129D01*
X10953779Y03237947D01*
X10954000Y03236760D01*
X10954192Y03235567D01*
X10954355Y03234370D01*
X10954488Y03233170D01*
X10954592Y03231966D01*
X10954666Y03230761D01*
X10954710Y03229554D01*
X10954725Y03228346D01*
X10954710Y03227138D01*
X10954666Y03225931D01*
X10954592Y03224726D01*
X10954488Y03223522D01*
X10954355Y03222322D01*
X10954192Y03221125D01*
X10954000Y03219932D01*
X10953779Y03218745D01*
X10953529Y03217563D01*
X10953250Y03216388D01*
X10952942Y03215220D01*
X10952606Y03214060D01*
X10952241Y03212909D01*
X10951848Y03211767D01*
X10951427Y03210634D01*
X10950979Y03209513D01*
X10950503Y03208403D01*
X10950000Y03207305D01*
X10949470Y03206219D01*
X10948914Y03205147D01*
X10948332Y03204089D01*
X10947723Y03203045D01*
X10947090Y03202017D01*
X10946431Y03201005D01*
X10945748Y03200009D01*
X10945040Y03199030D01*
X10944309Y03198069D01*
X10943554Y03197126D01*
X10942777Y03196201D01*
X10941976Y03195297D01*
X10941154Y03194412D01*
X10940311Y03193547D01*
X10939446Y03192704D01*
X10938561Y03191882D01*
X10937657Y03191081D01*
X10936732Y03190304D01*
X10935789Y03189549D01*
X10934828Y03188818D01*
X10933849Y03188110D01*
X10932853Y03187427D01*
X10931841Y03186768D01*
X10930813Y03186135D01*
X10929769Y03185526D01*
X10928711Y03184944D01*
X10927639Y03184388D01*
X10926553Y03183858D01*
X10925455Y03183355D01*
X10924345Y03182879D01*
X10923224Y03182431D01*
X10922091Y03182010D01*
X10920949Y03181617D01*
X10919798Y03181252D01*
X10918638Y03180916D01*
X10917470Y03180608D01*
X10916295Y03180329D01*
X10915113Y03180079D01*
X10913926Y03179858D01*
X10912733Y03179666D01*
X10911536Y03179503D01*
X10910336Y03179370D01*
X10909132Y03179266D01*
X10907927Y03179192D01*
X10906720Y03179148D01*
X10905512Y03179133D01*
X10904304Y03179148D01*
X10903097Y03179192D01*
X10901892Y03179266D01*
X10900688Y03179370D01*
X10899488Y03179503D01*
X10898291Y03179666D01*
X10897098Y03179858D01*
X10895911Y03180079D01*
X10894729Y03180329D01*
X10893554Y03180608D01*
X10892386Y03180916D01*
X10891226Y03181252D01*
X10890075Y03181617D01*
X10888933Y03182010D01*
X10887800Y03182431D01*
X10886679Y03182879D01*
X10885569Y03183355D01*
X10884471Y03183858D01*
X10883385Y03184388D01*
X10882313Y03184944D01*
X10881255Y03185526D01*
X10880211Y03186135D01*
X10879183Y03186768D01*
X10878171Y03187427D01*
X10877175Y03188110D01*
X10876196Y03188818D01*
X10875235Y03189549D01*
X10874292Y03190304D01*
X10873367Y03191081D01*
X10872463Y03191882D01*
X10871578Y03192704D01*
X10870713Y03193547D01*
X10869870Y03194412D01*
X10869048Y03195297D01*
X10868247Y03196201D01*
X10867470Y03197126D01*
X10866715Y03198069D01*
X10865984Y03199030D01*
X10865276Y03200009D01*
X10864593Y03201005D01*
X10863934Y03202017D01*
X10863301Y03203045D01*
X10862692Y03204089D01*
X10862110Y03205147D01*
X10861554Y03206219D01*
X10861024Y03207305D01*
X10860521Y03208403D01*
X10860045Y03209513D01*
X10859597Y03210634D01*
X10859176Y03211767D01*
X10858783Y03212909D01*
X10858418Y03214060D01*
X10858082Y03215220D01*
X10857774Y03216388D01*
X10857495Y03217563D01*
X10857245Y03218745D01*
X10857024Y03219932D01*
X10856832Y03221125D01*
X10856669Y03222322D01*
X10856536Y03223522D01*
X10856432Y03224726D01*
X10856358Y03225931D01*
X10856314Y03227138D01*
X10856299Y03228346D01*
X10856299Y04645669D02*
X10856314Y04646877D01*
X10856358Y04648084D01*
X10856432Y04649289D01*
X10856536Y04650493D01*
X10856669Y04651693D01*
X10856832Y04652890D01*
X10857024Y04654083D01*
X10857245Y04655270D01*
X10857495Y04656452D01*
X10857774Y04657627D01*
X10858082Y04658795D01*
X10858418Y04659955D01*
X10858783Y04661106D01*
X10859176Y04662248D01*
X10859597Y04663381D01*
X10860045Y04664502D01*
X10860521Y04665612D01*
X10861024Y04666710D01*
X10861554Y04667796D01*
X10862110Y04668868D01*
X10862692Y04669926D01*
X10863301Y04670970D01*
X10863934Y04671998D01*
X10864593Y04673010D01*
X10865276Y04674006D01*
X10865984Y04674985D01*
X10866715Y04675946D01*
X10867470Y04676889D01*
X10868247Y04677814D01*
X10869048Y04678718D01*
X10869870Y04679603D01*
X10870713Y04680468D01*
X10871578Y04681311D01*
X10872463Y04682133D01*
X10873367Y04682934D01*
X10874292Y04683711D01*
X10875235Y04684466D01*
X10876196Y04685197D01*
X10877175Y04685905D01*
X10878171Y04686588D01*
X10879183Y04687247D01*
X10880211Y04687880D01*
X10881255Y04688489D01*
X10882313Y04689071D01*
X10883385Y04689627D01*
X10884471Y04690157D01*
X10885569Y04690660D01*
X10886679Y04691136D01*
X10887800Y04691584D01*
X10888933Y04692005D01*
X10890075Y04692398D01*
X10891226Y04692763D01*
X10892386Y04693099D01*
X10893554Y04693407D01*
X10894729Y04693686D01*
X10895911Y04693936D01*
X10897098Y04694157D01*
X10898291Y04694349D01*
X10899488Y04694512D01*
X10900688Y04694645D01*
X10901892Y04694749D01*
X10903097Y04694823D01*
X10904304Y04694867D01*
X10905512Y04694882D01*
X10906720Y04694867D01*
X10907927Y04694823D01*
X10909132Y04694749D01*
X10910336Y04694645D01*
X10911536Y04694512D01*
X10912733Y04694349D01*
X10913926Y04694157D01*
X10915113Y04693936D01*
X10916295Y04693686D01*
X10917470Y04693407D01*
X10918638Y04693099D01*
X10919798Y04692763D01*
X10920949Y04692398D01*
X10922091Y04692005D01*
X10923224Y04691584D01*
X10924345Y04691136D01*
X10925455Y04690660D01*
X10926553Y04690157D01*
X10927639Y04689627D01*
X10928711Y04689071D01*
X10929769Y04688489D01*
X10930813Y04687880D01*
X10931841Y04687247D01*
X10932853Y04686588D01*
X10933849Y04685905D01*
X10934828Y04685197D01*
X10935789Y04684466D01*
X10936732Y04683711D01*
X10937657Y04682934D01*
X10938561Y04682133D01*
X10939446Y04681311D01*
X10940311Y04680468D01*
X10941154Y04679603D01*
X10941976Y04678718D01*
X10942777Y04677814D01*
X10943554Y04676889D01*
X10944309Y04675946D01*
X10945040Y04674985D01*
X10945748Y04674006D01*
X10946431Y04673010D01*
X10947090Y04671998D01*
X10947723Y04670970D01*
X10948332Y04669926D01*
X10948914Y04668868D01*
X10949470Y04667796D01*
X10950000Y04666710D01*
X10950503Y04665612D01*
X10950979Y04664502D01*
X10951427Y04663381D01*
X10951848Y04662248D01*
X10952241Y04661106D01*
X10952606Y04659955D01*
X10952942Y04658795D01*
X10953250Y04657627D01*
X10953529Y04656452D01*
X10953779Y04655270D01*
X10954000Y04654083D01*
X10954192Y04652890D01*
X10954355Y04651693D01*
X10954488Y04650493D01*
X10954592Y04649289D01*
X10954666Y04648084D01*
X10954710Y04646877D01*
X10954725Y04645669D01*
X10954710Y04644461D01*
X10954666Y04643254D01*
X10954592Y04642049D01*
X10954488Y04640845D01*
X10954355Y04639645D01*
X10954192Y04638448D01*
X10954000Y04637255D01*
X10953779Y04636068D01*
X10953529Y04634886D01*
X10953250Y04633711D01*
X10952942Y04632543D01*
X10952606Y04631383D01*
X10952241Y04630232D01*
X10951848Y04629090D01*
X10951427Y04627957D01*
X10950979Y04626836D01*
X10950503Y04625726D01*
X10950000Y04624628D01*
X10949470Y04623542D01*
X10948914Y04622470D01*
X10948332Y04621412D01*
X10947723Y04620368D01*
X10947090Y04619340D01*
X10946431Y04618328D01*
X10945748Y04617332D01*
X10945040Y04616353D01*
X10944309Y04615392D01*
X10943554Y04614449D01*
X10942777Y04613524D01*
X10941976Y04612620D01*
X10941154Y04611735D01*
X10940311Y04610870D01*
X10939446Y04610027D01*
X10938561Y04609205D01*
X10937657Y04608404D01*
X10936732Y04607627D01*
X10935789Y04606872D01*
X10934828Y04606141D01*
X10933849Y04605433D01*
X10932853Y04604750D01*
X10931841Y04604091D01*
X10930813Y04603458D01*
X10929769Y04602849D01*
X10928711Y04602267D01*
X10927639Y04601711D01*
X10926553Y04601181D01*
X10925455Y04600678D01*
X10924345Y04600202D01*
X10923224Y04599754D01*
X10922091Y04599333D01*
X10920949Y04598940D01*
X10919798Y04598575D01*
X10918638Y04598239D01*
X10917470Y04597931D01*
X10916295Y04597652D01*
X10915113Y04597402D01*
X10913926Y04597181D01*
X10912733Y04596989D01*
X10911536Y04596826D01*
X10910336Y04596693D01*
X10909132Y04596589D01*
X10907927Y04596515D01*
X10906720Y04596471D01*
X10905512Y04596456D01*
X10904304Y04596471D01*
X10903097Y04596515D01*
X10901892Y04596589D01*
X10900688Y04596693D01*
X10899488Y04596826D01*
X10898291Y04596989D01*
X10897098Y04597181D01*
X10895911Y04597402D01*
X10894729Y04597652D01*
X10893554Y04597931D01*
X10892386Y04598239D01*
X10891226Y04598575D01*
X10890075Y04598940D01*
X10888933Y04599333D01*
X10887800Y04599754D01*
X10886679Y04600202D01*
X10885569Y04600678D01*
X10884471Y04601181D01*
X10883385Y04601711D01*
X10882313Y04602267D01*
X10881255Y04602849D01*
X10880211Y04603458D01*
X10879183Y04604091D01*
X10878171Y04604750D01*
X10877175Y04605433D01*
X10876196Y04606141D01*
X10875235Y04606872D01*
X10874292Y04607627D01*
X10873367Y04608404D01*
X10872463Y04609205D01*
X10871578Y04610027D01*
X10870713Y04610870D01*
X10869870Y04611735D01*
X10869048Y04612620D01*
X10868247Y04613524D01*
X10867470Y04614449D01*
X10866715Y04615392D01*
X10865984Y04616353D01*
X10865276Y04617332D01*
X10864593Y04618328D01*
X10863934Y04619340D01*
X10863301Y04620368D01*
X10862692Y04621412D01*
X10862110Y04622470D01*
X10861554Y04623542D01*
X10861024Y04624628D01*
X10860521Y04625726D01*
X10860045Y04626836D01*
X10859597Y04627957D01*
X10859176Y04629090D01*
X10858783Y04630232D01*
X10858418Y04631383D01*
X10858082Y04632543D01*
X10857774Y04633711D01*
X10857495Y04634886D01*
X10857245Y04636068D01*
X10857024Y04637255D01*
X10856832Y04638448D01*
X10856669Y04639645D01*
X10856536Y04640845D01*
X10856432Y04642049D01*
X10856358Y04643254D01*
X10856314Y04644461D01*
X10856299Y04645669D01*
X11338583Y05078740D02*
X11338607Y05080672D01*
X11338678Y05082604D01*
X11338796Y05084532D01*
X11338962Y05086458D01*
X11339175Y05088379D01*
X11339435Y05090294D01*
X11339742Y05092202D01*
X11340096Y05094101D01*
X11340496Y05095992D01*
X11340943Y05097872D01*
X11341435Y05099741D01*
X11341974Y05101597D01*
X11342557Y05103439D01*
X11343186Y05105267D01*
X11343859Y05107078D01*
X11344577Y05108872D01*
X11345338Y05110649D01*
X11346143Y05112406D01*
X11346991Y05114142D01*
X11347881Y05115858D01*
X11348812Y05117551D01*
X11349785Y05119220D01*
X11350799Y05120866D01*
X11351853Y05122486D01*
X11352946Y05124079D01*
X11354078Y05125645D01*
X11355249Y05127183D01*
X11356456Y05128692D01*
X11357700Y05130171D01*
X11358981Y05131619D01*
X11360296Y05133034D01*
X11361645Y05134418D01*
X11363029Y05135767D01*
X11364444Y05137082D01*
X11365892Y05138363D01*
X11367371Y05139607D01*
X11368880Y05140814D01*
X11370418Y05141985D01*
X11371984Y05143117D01*
X11373577Y05144210D01*
X11375197Y05145264D01*
X11376843Y05146278D01*
X11378512Y05147251D01*
X11380205Y05148182D01*
X11381921Y05149072D01*
X11383657Y05149920D01*
X11385414Y05150725D01*
X11387191Y05151486D01*
X11388985Y05152204D01*
X11390796Y05152877D01*
X11392624Y05153506D01*
X11394466Y05154089D01*
X11396322Y05154628D01*
X11398191Y05155120D01*
X11400071Y05155567D01*
X11401962Y05155967D01*
X11403861Y05156321D01*
X11405769Y05156628D01*
X11407684Y05156888D01*
X11409605Y05157101D01*
X11411531Y05157267D01*
X11413459Y05157385D01*
X11415391Y05157456D01*
X11417323Y05157480D01*
X11419255Y05157456D01*
X11421187Y05157385D01*
X11423115Y05157267D01*
X11425041Y05157101D01*
X11426962Y05156888D01*
X11428877Y05156628D01*
X11430785Y05156321D01*
X11432684Y05155967D01*
X11434575Y05155567D01*
X11436455Y05155120D01*
X11438324Y05154628D01*
X11440180Y05154089D01*
X11442022Y05153506D01*
X11443850Y05152877D01*
X11445661Y05152204D01*
X11447455Y05151486D01*
X11449232Y05150725D01*
X11450989Y05149920D01*
X11452725Y05149072D01*
X11454441Y05148182D01*
X11456134Y05147251D01*
X11457803Y05146278D01*
X11459449Y05145264D01*
X11461069Y05144210D01*
X11462662Y05143117D01*
X11464228Y05141985D01*
X11465766Y05140814D01*
X11467275Y05139607D01*
X11468754Y05138363D01*
X11470202Y05137082D01*
X11471617Y05135767D01*
X11473001Y05134418D01*
X11474350Y05133034D01*
X11475665Y05131619D01*
X11476946Y05130171D01*
X11478190Y05128692D01*
X11479397Y05127183D01*
X11480568Y05125645D01*
X11481700Y05124079D01*
X11482793Y05122486D01*
X11483847Y05120866D01*
X11484861Y05119220D01*
X11485834Y05117551D01*
X11486765Y05115858D01*
X11487655Y05114142D01*
X11488503Y05112406D01*
X11489308Y05110649D01*
X11490069Y05108872D01*
X11490787Y05107078D01*
X11491460Y05105267D01*
X11492089Y05103439D01*
X11492672Y05101597D01*
X11493211Y05099741D01*
X11493703Y05097872D01*
X11494150Y05095992D01*
X11494550Y05094101D01*
X11494904Y05092202D01*
X11495211Y05090294D01*
X11495471Y05088379D01*
X11495684Y05086458D01*
X11495850Y05084532D01*
X11495968Y05082604D01*
X11496039Y05080672D01*
X11496063Y05078740D01*
X11496039Y05076808D01*
X11495968Y05074876D01*
X11495850Y05072948D01*
X11495684Y05071022D01*
X11495471Y05069101D01*
X11495211Y05067186D01*
X11494904Y05065278D01*
X11494550Y05063379D01*
X11494150Y05061488D01*
X11493703Y05059608D01*
X11493211Y05057739D01*
X11492672Y05055883D01*
X11492089Y05054041D01*
X11491460Y05052213D01*
X11490787Y05050402D01*
X11490069Y05048608D01*
X11489308Y05046831D01*
X11488503Y05045074D01*
X11487655Y05043338D01*
X11486765Y05041622D01*
X11485834Y05039929D01*
X11484861Y05038260D01*
X11483847Y05036614D01*
X11482793Y05034994D01*
X11481700Y05033401D01*
X11480568Y05031835D01*
X11479397Y05030297D01*
X11478190Y05028788D01*
X11476946Y05027309D01*
X11475665Y05025861D01*
X11474350Y05024446D01*
X11473001Y05023062D01*
X11471617Y05021713D01*
X11470202Y05020398D01*
X11468754Y05019117D01*
X11467275Y05017873D01*
X11465766Y05016666D01*
X11464228Y05015495D01*
X11462662Y05014363D01*
X11461069Y05013270D01*
X11459449Y05012216D01*
X11457803Y05011202D01*
X11456134Y05010229D01*
X11454441Y05009298D01*
X11452725Y05008408D01*
X11450989Y05007560D01*
X11449232Y05006755D01*
X11447455Y05005994D01*
X11445661Y05005276D01*
X11443850Y05004603D01*
X11442022Y05003974D01*
X11440180Y05003391D01*
X11438324Y05002852D01*
X11436455Y05002360D01*
X11434575Y05001913D01*
X11432684Y05001513D01*
X11430785Y05001159D01*
X11428877Y05000852D01*
X11426962Y05000592D01*
X11425041Y05000379D01*
X11423115Y05000213D01*
X11421187Y05000095D01*
X11419255Y05000024D01*
X11417323Y05000000D01*
X11415391Y05000024D01*
X11413459Y05000095D01*
X11411531Y05000213D01*
X11409605Y05000379D01*
X11407684Y05000592D01*
X11405769Y05000852D01*
X11403861Y05001159D01*
X11401962Y05001513D01*
X11400071Y05001913D01*
X11398191Y05002360D01*
X11396322Y05002852D01*
X11394466Y05003391D01*
X11392624Y05003974D01*
X11390796Y05004603D01*
X11388985Y05005276D01*
X11387191Y05005994D01*
X11385414Y05006755D01*
X11383657Y05007560D01*
X11381921Y05008408D01*
X11380205Y05009298D01*
X11378512Y05010229D01*
X11376843Y05011202D01*
X11375197Y05012216D01*
X11373577Y05013270D01*
X11371984Y05014363D01*
X11370418Y05015495D01*
X11368880Y05016666D01*
X11367371Y05017873D01*
X11365892Y05019117D01*
X11364444Y05020398D01*
X11363029Y05021713D01*
X11361645Y05023062D01*
X11360296Y05024446D01*
X11358981Y05025861D01*
X11357700Y05027309D01*
X11356456Y05028788D01*
X11355249Y05030297D01*
X11354078Y05031835D01*
X11352946Y05033401D01*
X11351853Y05034994D01*
X11350799Y05036614D01*
X11349785Y05038260D01*
X11348812Y05039929D01*
X11347881Y05041622D01*
X11346991Y05043338D01*
X11346143Y05045074D01*
X11345338Y05046831D01*
X11344577Y05048608D01*
X11343859Y05050402D01*
X11343186Y05052213D01*
X11342557Y05054041D01*
X11341974Y05055883D01*
X11341435Y05057739D01*
X11340943Y05059608D01*
X11340496Y05061488D01*
X11340096Y05063379D01*
X11339742Y05065278D01*
X11339435Y05067186D01*
X11339175Y05069101D01*
X11338962Y05071022D01*
X11338796Y05072948D01*
X11338678Y05074876D01*
X11338607Y05076808D01*
X11338583Y05078740D01*
X12431102Y05905512D02*
X12431117Y05906720D01*
X12431161Y05907927D01*
X12431235Y05909132D01*
X12431339Y05910336D01*
X12431472Y05911536D01*
X12431635Y05912733D01*
X12431827Y05913926D01*
X12432048Y05915113D01*
X12432298Y05916295D01*
X12432577Y05917470D01*
X12432885Y05918638D01*
X12433221Y05919798D01*
X12433586Y05920949D01*
X12433979Y05922091D01*
X12434400Y05923224D01*
X12434848Y05924345D01*
X12435324Y05925455D01*
X12435827Y05926553D01*
X12436357Y05927639D01*
X12436913Y05928711D01*
X12437495Y05929769D01*
X12438104Y05930813D01*
X12438737Y05931841D01*
X12439396Y05932853D01*
X12440079Y05933849D01*
X12440787Y05934828D01*
X12441518Y05935789D01*
X12442273Y05936732D01*
X12443050Y05937657D01*
X12443851Y05938561D01*
X12444673Y05939446D01*
X12445516Y05940311D01*
X12446381Y05941154D01*
X12447266Y05941976D01*
X12448170Y05942777D01*
X12449095Y05943554D01*
X12450038Y05944309D01*
X12450999Y05945040D01*
X12451978Y05945748D01*
X12452974Y05946431D01*
X12453986Y05947090D01*
X12455014Y05947723D01*
X12456058Y05948332D01*
X12457116Y05948914D01*
X12458188Y05949470D01*
X12459274Y05950000D01*
X12460372Y05950503D01*
X12461482Y05950979D01*
X12462603Y05951427D01*
X12463736Y05951848D01*
X12464878Y05952241D01*
X12466029Y05952606D01*
X12467189Y05952942D01*
X12468357Y05953250D01*
X12469532Y05953529D01*
X12470714Y05953779D01*
X12471901Y05954000D01*
X12473094Y05954192D01*
X12474291Y05954355D01*
X12475491Y05954488D01*
X12476695Y05954592D01*
X12477900Y05954666D01*
X12479107Y05954710D01*
X12480315Y05954725D01*
X12481523Y05954710D01*
X12482730Y05954666D01*
X12483935Y05954592D01*
X12485139Y05954488D01*
X12486339Y05954355D01*
X12487536Y05954192D01*
X12488729Y05954000D01*
X12489916Y05953779D01*
X12491098Y05953529D01*
X12492273Y05953250D01*
X12493441Y05952942D01*
X12494601Y05952606D01*
X12495752Y05952241D01*
X12496894Y05951848D01*
X12498027Y05951427D01*
X12499148Y05950979D01*
X12500258Y05950503D01*
X12501356Y05950000D01*
X12502442Y05949470D01*
X12503514Y05948914D01*
X12504572Y05948332D01*
X12505616Y05947723D01*
X12506644Y05947090D01*
X12507656Y05946431D01*
X12508652Y05945748D01*
X12509631Y05945040D01*
X12510592Y05944309D01*
X12511535Y05943554D01*
X12512460Y05942777D01*
X12513364Y05941976D01*
X12514249Y05941154D01*
X12515114Y05940311D01*
X12515957Y05939446D01*
X12516779Y05938561D01*
X12517580Y05937657D01*
X12518357Y05936732D01*
X12519112Y05935789D01*
X12519843Y05934828D01*
X12520551Y05933849D01*
X12521234Y05932853D01*
X12521893Y05931841D01*
X12522526Y05930813D01*
X12523135Y05929769D01*
X12523717Y05928711D01*
X12524273Y05927639D01*
X12524803Y05926553D01*
X12525306Y05925455D01*
X12525782Y05924345D01*
X12526230Y05923224D01*
X12526651Y05922091D01*
X12527044Y05920949D01*
X12527409Y05919798D01*
X12527745Y05918638D01*
X12528053Y05917470D01*
X12528332Y05916295D01*
X12528582Y05915113D01*
X12528803Y05913926D01*
X12528995Y05912733D01*
X12529158Y05911536D01*
X12529291Y05910336D01*
X12529395Y05909132D01*
X12529469Y05907927D01*
X12529513Y05906720D01*
X12529528Y05905512D01*
X12529513Y05904304D01*
X12529469Y05903097D01*
X12529395Y05901892D01*
X12529291Y05900688D01*
X12529158Y05899488D01*
X12528995Y05898291D01*
X12528803Y05897098D01*
X12528582Y05895911D01*
X12528332Y05894729D01*
X12528053Y05893554D01*
X12527745Y05892386D01*
X12527409Y05891226D01*
X12527044Y05890075D01*
X12526651Y05888933D01*
X12526230Y05887800D01*
X12525782Y05886679D01*
X12525306Y05885569D01*
X12524803Y05884471D01*
X12524273Y05883385D01*
X12523717Y05882313D01*
X12523135Y05881255D01*
X12522526Y05880211D01*
X12521893Y05879183D01*
X12521234Y05878171D01*
X12520551Y05877175D01*
X12519843Y05876196D01*
X12519112Y05875235D01*
X12518357Y05874292D01*
X12517580Y05873367D01*
X12516779Y05872463D01*
X12515957Y05871578D01*
X12515114Y05870713D01*
X12514249Y05869870D01*
X12513364Y05869048D01*
X12512460Y05868247D01*
X12511535Y05867470D01*
X12510592Y05866715D01*
X12509631Y05865984D01*
X12508652Y05865276D01*
X12507656Y05864593D01*
X12506644Y05863934D01*
X12505616Y05863301D01*
X12504572Y05862692D01*
X12503514Y05862110D01*
X12502442Y05861554D01*
X12501356Y05861024D01*
X12500258Y05860521D01*
X12499148Y05860045D01*
X12498027Y05859597D01*
X12496894Y05859176D01*
X12495752Y05858783D01*
X12494601Y05858418D01*
X12493441Y05858082D01*
X12492273Y05857774D01*
X12491098Y05857495D01*
X12489916Y05857245D01*
X12488729Y05857024D01*
X12487536Y05856832D01*
X12486339Y05856669D01*
X12485139Y05856536D01*
X12483935Y05856432D01*
X12482730Y05856358D01*
X12481523Y05856314D01*
X12480315Y05856299D01*
X12479107Y05856314D01*
X12477900Y05856358D01*
X12476695Y05856432D01*
X12475491Y05856536D01*
X12474291Y05856669D01*
X12473094Y05856832D01*
X12471901Y05857024D01*
X12470714Y05857245D01*
X12469532Y05857495D01*
X12468357Y05857774D01*
X12467189Y05858082D01*
X12466029Y05858418D01*
X12464878Y05858783D01*
X12463736Y05859176D01*
X12462603Y05859597D01*
X12461482Y05860045D01*
X12460372Y05860521D01*
X12459274Y05861024D01*
X12458188Y05861554D01*
X12457116Y05862110D01*
X12456058Y05862692D01*
X12455014Y05863301D01*
X12453986Y05863934D01*
X12452974Y05864593D01*
X12451978Y05865276D01*
X12450999Y05865984D01*
X12450038Y05866715D01*
X12449095Y05867470D01*
X12448170Y05868247D01*
X12447266Y05869048D01*
X12446381Y05869870D01*
X12445516Y05870713D01*
X12444673Y05871578D01*
X12443851Y05872463D01*
X12443050Y05873367D01*
X12442273Y05874292D01*
X12441518Y05875235D01*
X12440787Y05876196D01*
X12440079Y05877175D01*
X12439396Y05878171D01*
X12438737Y05879183D01*
X12438104Y05880211D01*
X12437495Y05881255D01*
X12436913Y05882313D01*
X12436357Y05883385D01*
X12435827Y05884471D01*
X12435324Y05885569D01*
X12434848Y05886679D01*
X12434400Y05887800D01*
X12433979Y05888933D01*
X12433586Y05890075D01*
X12433221Y05891226D01*
X12432885Y05892386D01*
X12432577Y05893554D01*
X12432298Y05894729D01*
X12432048Y05895911D01*
X12431827Y05897098D01*
X12431635Y05898291D01*
X12431472Y05899488D01*
X12431339Y05900688D01*
X12431235Y05901892D01*
X12431161Y05903097D01*
X12431117Y05904304D01*
X12431102Y05905512D01*
X09557086Y05905512D02*
X09557101Y05906720D01*
X09557145Y05907927D01*
X09557219Y05909132D01*
X09557323Y05910336D01*
X09557456Y05911536D01*
X09557619Y05912733D01*
X09557811Y05913926D01*
X09558032Y05915113D01*
X09558282Y05916295D01*
X09558561Y05917470D01*
X09558869Y05918638D01*
X09559205Y05919798D01*
X09559570Y05920949D01*
X09559963Y05922091D01*
X09560384Y05923224D01*
X09560832Y05924345D01*
X09561308Y05925455D01*
X09561811Y05926553D01*
X09562341Y05927639D01*
X09562897Y05928711D01*
X09563479Y05929769D01*
X09564088Y05930813D01*
X09564721Y05931841D01*
X09565380Y05932853D01*
X09566063Y05933849D01*
X09566771Y05934828D01*
X09567502Y05935789D01*
X09568257Y05936732D01*
X09569034Y05937657D01*
X09569835Y05938561D01*
X09570657Y05939446D01*
X09571500Y05940311D01*
X09572365Y05941154D01*
X09573250Y05941976D01*
X09574154Y05942777D01*
X09575079Y05943554D01*
X09576022Y05944309D01*
X09576983Y05945040D01*
X09577962Y05945748D01*
X09578958Y05946431D01*
X09579970Y05947090D01*
X09580998Y05947723D01*
X09582042Y05948332D01*
X09583100Y05948914D01*
X09584172Y05949470D01*
X09585258Y05950000D01*
X09586356Y05950503D01*
X09587466Y05950979D01*
X09588587Y05951427D01*
X09589720Y05951848D01*
X09590862Y05952241D01*
X09592013Y05952606D01*
X09593173Y05952942D01*
X09594341Y05953250D01*
X09595516Y05953529D01*
X09596698Y05953779D01*
X09597885Y05954000D01*
X09599078Y05954192D01*
X09600275Y05954355D01*
X09601475Y05954488D01*
X09602679Y05954592D01*
X09603884Y05954666D01*
X09605091Y05954710D01*
X09606299Y05954725D01*
X09607507Y05954710D01*
X09608714Y05954666D01*
X09609919Y05954592D01*
X09611123Y05954488D01*
X09612323Y05954355D01*
X09613520Y05954192D01*
X09614713Y05954000D01*
X09615900Y05953779D01*
X09617082Y05953529D01*
X09618257Y05953250D01*
X09619425Y05952942D01*
X09620585Y05952606D01*
X09621736Y05952241D01*
X09622878Y05951848D01*
X09624011Y05951427D01*
X09625132Y05950979D01*
X09626242Y05950503D01*
X09627340Y05950000D01*
X09628426Y05949470D01*
X09629498Y05948914D01*
X09630556Y05948332D01*
X09631600Y05947723D01*
X09632628Y05947090D01*
X09633640Y05946431D01*
X09634636Y05945748D01*
X09635615Y05945040D01*
X09636576Y05944309D01*
X09637519Y05943554D01*
X09638444Y05942777D01*
X09639348Y05941976D01*
X09640233Y05941154D01*
X09641098Y05940311D01*
X09641941Y05939446D01*
X09642763Y05938561D01*
X09643564Y05937657D01*
X09644341Y05936732D01*
X09645096Y05935789D01*
X09645827Y05934828D01*
X09646535Y05933849D01*
X09647218Y05932853D01*
X09647877Y05931841D01*
X09648510Y05930813D01*
X09649119Y05929769D01*
X09649701Y05928711D01*
X09650257Y05927639D01*
X09650787Y05926553D01*
X09651290Y05925455D01*
X09651766Y05924345D01*
X09652214Y05923224D01*
X09652635Y05922091D01*
X09653028Y05920949D01*
X09653393Y05919798D01*
X09653729Y05918638D01*
X09654037Y05917470D01*
X09654316Y05916295D01*
X09654566Y05915113D01*
X09654787Y05913926D01*
X09654979Y05912733D01*
X09655142Y05911536D01*
X09655275Y05910336D01*
X09655379Y05909132D01*
X09655453Y05907927D01*
X09655497Y05906720D01*
X09655512Y05905512D01*
X09655497Y05904304D01*
X09655453Y05903097D01*
X09655379Y05901892D01*
X09655275Y05900688D01*
X09655142Y05899488D01*
X09654979Y05898291D01*
X09654787Y05897098D01*
X09654566Y05895911D01*
X09654316Y05894729D01*
X09654037Y05893554D01*
X09653729Y05892386D01*
X09653393Y05891226D01*
X09653028Y05890075D01*
X09652635Y05888933D01*
X09652214Y05887800D01*
X09651766Y05886679D01*
X09651290Y05885569D01*
X09650787Y05884471D01*
X09650257Y05883385D01*
X09649701Y05882313D01*
X09649119Y05881255D01*
X09648510Y05880211D01*
X09647877Y05879183D01*
X09647218Y05878171D01*
X09646535Y05877175D01*
X09645827Y05876196D01*
X09645096Y05875235D01*
X09644341Y05874292D01*
X09643564Y05873367D01*
X09642763Y05872463D01*
X09641941Y05871578D01*
X09641098Y05870713D01*
X09640233Y05869870D01*
X09639348Y05869048D01*
X09638444Y05868247D01*
X09637519Y05867470D01*
X09636576Y05866715D01*
X09635615Y05865984D01*
X09634636Y05865276D01*
X09633640Y05864593D01*
X09632628Y05863934D01*
X09631600Y05863301D01*
X09630556Y05862692D01*
X09629498Y05862110D01*
X09628426Y05861554D01*
X09627340Y05861024D01*
X09626242Y05860521D01*
X09625132Y05860045D01*
X09624011Y05859597D01*
X09622878Y05859176D01*
X09621736Y05858783D01*
X09620585Y05858418D01*
X09619425Y05858082D01*
X09618257Y05857774D01*
X09617082Y05857495D01*
X09615900Y05857245D01*
X09614713Y05857024D01*
X09613520Y05856832D01*
X09612323Y05856669D01*
X09611123Y05856536D01*
X09609919Y05856432D01*
X09608714Y05856358D01*
X09607507Y05856314D01*
X09606299Y05856299D01*
X09605091Y05856314D01*
X09603884Y05856358D01*
X09602679Y05856432D01*
X09601475Y05856536D01*
X09600275Y05856669D01*
X09599078Y05856832D01*
X09597885Y05857024D01*
X09596698Y05857245D01*
X09595516Y05857495D01*
X09594341Y05857774D01*
X09593173Y05858082D01*
X09592013Y05858418D01*
X09590862Y05858783D01*
X09589720Y05859176D01*
X09588587Y05859597D01*
X09587466Y05860045D01*
X09586356Y05860521D01*
X09585258Y05861024D01*
X09584172Y05861554D01*
X09583100Y05862110D01*
X09582042Y05862692D01*
X09580998Y05863301D01*
X09579970Y05863934D01*
X09578958Y05864593D01*
X09577962Y05865276D01*
X09576983Y05865984D01*
X09576022Y05866715D01*
X09575079Y05867470D01*
X09574154Y05868247D01*
X09573250Y05869048D01*
X09572365Y05869870D01*
X09571500Y05870713D01*
X09570657Y05871578D01*
X09569835Y05872463D01*
X09569034Y05873367D01*
X09568257Y05874292D01*
X09567502Y05875235D01*
X09566771Y05876196D01*
X09566063Y05877175D01*
X09565380Y05878171D01*
X09564721Y05879183D01*
X09564088Y05880211D01*
X09563479Y05881255D01*
X09562897Y05882313D01*
X09562341Y05883385D01*
X09561811Y05884471D01*
X09561308Y05885569D01*
X09560832Y05886679D01*
X09560384Y05887800D01*
X09559963Y05888933D01*
X09559570Y05890075D01*
X09559205Y05891226D01*
X09558869Y05892386D01*
X09558561Y05893554D01*
X09558282Y05894729D01*
X09558032Y05895911D01*
X09557811Y05897098D01*
X09557619Y05898291D01*
X09557456Y05899488D01*
X09557323Y05900688D01*
X09557219Y05901892D01*
X09557145Y05903097D01*
X09557101Y05904304D01*
X09557086Y05905512D01*
X07509842Y05905512D02*
X07509857Y05906720D01*
X07509901Y05907927D01*
X07509975Y05909132D01*
X07510079Y05910336D01*
X07510212Y05911536D01*
X07510375Y05912733D01*
X07510567Y05913926D01*
X07510788Y05915113D01*
X07511038Y05916295D01*
X07511317Y05917470D01*
X07511625Y05918638D01*
X07511961Y05919798D01*
X07512326Y05920949D01*
X07512719Y05922091D01*
X07513140Y05923224D01*
X07513588Y05924345D01*
X07514064Y05925455D01*
X07514567Y05926553D01*
X07515097Y05927639D01*
X07515653Y05928711D01*
X07516235Y05929769D01*
X07516844Y05930813D01*
X07517477Y05931841D01*
X07518136Y05932853D01*
X07518819Y05933849D01*
X07519527Y05934828D01*
X07520258Y05935789D01*
X07521013Y05936732D01*
X07521790Y05937657D01*
X07522591Y05938561D01*
X07523413Y05939446D01*
X07524256Y05940311D01*
X07525121Y05941154D01*
X07526006Y05941976D01*
X07526910Y05942777D01*
X07527835Y05943554D01*
X07528778Y05944309D01*
X07529739Y05945040D01*
X07530718Y05945748D01*
X07531714Y05946431D01*
X07532726Y05947090D01*
X07533754Y05947723D01*
X07534798Y05948332D01*
X07535856Y05948914D01*
X07536928Y05949470D01*
X07538014Y05950000D01*
X07539112Y05950503D01*
X07540222Y05950979D01*
X07541343Y05951427D01*
X07542476Y05951848D01*
X07543618Y05952241D01*
X07544769Y05952606D01*
X07545929Y05952942D01*
X07547097Y05953250D01*
X07548272Y05953529D01*
X07549454Y05953779D01*
X07550641Y05954000D01*
X07551834Y05954192D01*
X07553031Y05954355D01*
X07554231Y05954488D01*
X07555435Y05954592D01*
X07556640Y05954666D01*
X07557847Y05954710D01*
X07559055Y05954725D01*
X07560263Y05954710D01*
X07561470Y05954666D01*
X07562675Y05954592D01*
X07563879Y05954488D01*
X07565079Y05954355D01*
X07566276Y05954192D01*
X07567469Y05954000D01*
X07568656Y05953779D01*
X07569838Y05953529D01*
X07571013Y05953250D01*
X07572181Y05952942D01*
X07573341Y05952606D01*
X07574492Y05952241D01*
X07575634Y05951848D01*
X07576767Y05951427D01*
X07577888Y05950979D01*
X07578998Y05950503D01*
X07580096Y05950000D01*
X07581182Y05949470D01*
X07582254Y05948914D01*
X07583312Y05948332D01*
X07584356Y05947723D01*
X07585384Y05947090D01*
X07586396Y05946431D01*
X07587392Y05945748D01*
X07588371Y05945040D01*
X07589332Y05944309D01*
X07590275Y05943554D01*
X07591200Y05942777D01*
X07592104Y05941976D01*
X07592989Y05941154D01*
X07593854Y05940311D01*
X07594697Y05939446D01*
X07595519Y05938561D01*
X07596320Y05937657D01*
X07597097Y05936732D01*
X07597852Y05935789D01*
X07598583Y05934828D01*
X07599291Y05933849D01*
X07599974Y05932853D01*
X07600633Y05931841D01*
X07601266Y05930813D01*
X07601875Y05929769D01*
X07602457Y05928711D01*
X07603013Y05927639D01*
X07603543Y05926553D01*
X07604046Y05925455D01*
X07604522Y05924345D01*
X07604970Y05923224D01*
X07605391Y05922091D01*
X07605784Y05920949D01*
X07606149Y05919798D01*
X07606485Y05918638D01*
X07606793Y05917470D01*
X07607072Y05916295D01*
X07607322Y05915113D01*
X07607543Y05913926D01*
X07607735Y05912733D01*
X07607898Y05911536D01*
X07608031Y05910336D01*
X07608135Y05909132D01*
X07608209Y05907927D01*
X07608253Y05906720D01*
X07608268Y05905512D01*
X07608253Y05904304D01*
X07608209Y05903097D01*
X07608135Y05901892D01*
X07608031Y05900688D01*
X07607898Y05899488D01*
X07607735Y05898291D01*
X07607543Y05897098D01*
X07607322Y05895911D01*
X07607072Y05894729D01*
X07606793Y05893554D01*
X07606485Y05892386D01*
X07606149Y05891226D01*
X07605784Y05890075D01*
X07605391Y05888933D01*
X07604970Y05887800D01*
X07604522Y05886679D01*
X07604046Y05885569D01*
X07603543Y05884471D01*
X07603013Y05883385D01*
X07602457Y05882313D01*
X07601875Y05881255D01*
X07601266Y05880211D01*
X07600633Y05879183D01*
X07599974Y05878171D01*
X07599291Y05877175D01*
X07598583Y05876196D01*
X07597852Y05875235D01*
X07597097Y05874292D01*
X07596320Y05873367D01*
X07595519Y05872463D01*
X07594697Y05871578D01*
X07593854Y05870713D01*
X07592989Y05869870D01*
X07592104Y05869048D01*
X07591200Y05868247D01*
X07590275Y05867470D01*
X07589332Y05866715D01*
X07588371Y05865984D01*
X07587392Y05865276D01*
X07586396Y05864593D01*
X07585384Y05863934D01*
X07584356Y05863301D01*
X07583312Y05862692D01*
X07582254Y05862110D01*
X07581182Y05861554D01*
X07580096Y05861024D01*
X07578998Y05860521D01*
X07577888Y05860045D01*
X07576767Y05859597D01*
X07575634Y05859176D01*
X07574492Y05858783D01*
X07573341Y05858418D01*
X07572181Y05858082D01*
X07571013Y05857774D01*
X07569838Y05857495D01*
X07568656Y05857245D01*
X07567469Y05857024D01*
X07566276Y05856832D01*
X07565079Y05856669D01*
X07563879Y05856536D01*
X07562675Y05856432D01*
X07561470Y05856358D01*
X07560263Y05856314D01*
X07559055Y05856299D01*
X07557847Y05856314D01*
X07556640Y05856358D01*
X07555435Y05856432D01*
X07554231Y05856536D01*
X07553031Y05856669D01*
X07551834Y05856832D01*
X07550641Y05857024D01*
X07549454Y05857245D01*
X07548272Y05857495D01*
X07547097Y05857774D01*
X07545929Y05858082D01*
X07544769Y05858418D01*
X07543618Y05858783D01*
X07542476Y05859176D01*
X07541343Y05859597D01*
X07540222Y05860045D01*
X07539112Y05860521D01*
X07538014Y05861024D01*
X07536928Y05861554D01*
X07535856Y05862110D01*
X07534798Y05862692D01*
X07533754Y05863301D01*
X07532726Y05863934D01*
X07531714Y05864593D01*
X07530718Y05865276D01*
X07529739Y05865984D01*
X07528778Y05866715D01*
X07527835Y05867470D01*
X07526910Y05868247D01*
X07526006Y05869048D01*
X07525121Y05869870D01*
X07524256Y05870713D01*
X07523413Y05871578D01*
X07522591Y05872463D01*
X07521790Y05873367D01*
X07521013Y05874292D01*
X07520258Y05875235D01*
X07519527Y05876196D01*
X07518819Y05877175D01*
X07518136Y05878171D01*
X07517477Y05879183D01*
X07516844Y05880211D01*
X07516235Y05881255D01*
X07515653Y05882313D01*
X07515097Y05883385D01*
X07514567Y05884471D01*
X07514064Y05885569D01*
X07513588Y05886679D01*
X07513140Y05887800D01*
X07512719Y05888933D01*
X07512326Y05890075D01*
X07511961Y05891226D01*
X07511625Y05892386D01*
X07511317Y05893554D01*
X07511038Y05894729D01*
X07510788Y05895911D01*
X07510567Y05897098D01*
X07510375Y05898291D01*
X07510212Y05899488D01*
X07510079Y05900688D01*
X07509975Y05901892D01*
X07509901Y05903097D01*
X07509857Y05904304D01*
X07509842Y05905512D01*
X07244095Y05748031D02*
X07244119Y05749963D01*
X07244190Y05751895D01*
X07244308Y05753823D01*
X07244474Y05755749D01*
X07244687Y05757670D01*
X07244947Y05759585D01*
X07245254Y05761493D01*
X07245608Y05763392D01*
X07246008Y05765283D01*
X07246455Y05767163D01*
X07246947Y05769032D01*
X07247486Y05770888D01*
X07248069Y05772730D01*
X07248698Y05774558D01*
X07249371Y05776369D01*
X07250089Y05778163D01*
X07250850Y05779940D01*
X07251655Y05781697D01*
X07252503Y05783433D01*
X07253393Y05785149D01*
X07254324Y05786842D01*
X07255297Y05788511D01*
X07256311Y05790157D01*
X07257365Y05791777D01*
X07258458Y05793370D01*
X07259590Y05794936D01*
X07260761Y05796474D01*
X07261968Y05797983D01*
X07263212Y05799462D01*
X07264493Y05800910D01*
X07265808Y05802325D01*
X07267157Y05803709D01*
X07268541Y05805058D01*
X07269956Y05806373D01*
X07271404Y05807654D01*
X07272883Y05808898D01*
X07274392Y05810105D01*
X07275930Y05811276D01*
X07277496Y05812408D01*
X07279089Y05813501D01*
X07280709Y05814555D01*
X07282355Y05815569D01*
X07284024Y05816542D01*
X07285717Y05817473D01*
X07287433Y05818363D01*
X07289169Y05819211D01*
X07290926Y05820016D01*
X07292703Y05820777D01*
X07294497Y05821495D01*
X07296308Y05822168D01*
X07298136Y05822797D01*
X07299978Y05823380D01*
X07301834Y05823919D01*
X07303703Y05824411D01*
X07305583Y05824858D01*
X07307474Y05825258D01*
X07309373Y05825612D01*
X07311281Y05825919D01*
X07313196Y05826179D01*
X07315117Y05826392D01*
X07317043Y05826558D01*
X07318971Y05826676D01*
X07320903Y05826747D01*
X07322835Y05826771D01*
X07324767Y05826747D01*
X07326699Y05826676D01*
X07328627Y05826558D01*
X07330553Y05826392D01*
X07332474Y05826179D01*
X07334389Y05825919D01*
X07336297Y05825612D01*
X07338196Y05825258D01*
X07340087Y05824858D01*
X07341967Y05824411D01*
X07343836Y05823919D01*
X07345692Y05823380D01*
X07347534Y05822797D01*
X07349362Y05822168D01*
X07351173Y05821495D01*
X07352967Y05820777D01*
X07354744Y05820016D01*
X07356501Y05819211D01*
X07358237Y05818363D01*
X07359953Y05817473D01*
X07361646Y05816542D01*
X07363315Y05815569D01*
X07364961Y05814555D01*
X07366581Y05813501D01*
X07368174Y05812408D01*
X07369740Y05811276D01*
X07371278Y05810105D01*
X07372787Y05808898D01*
X07374266Y05807654D01*
X07375714Y05806373D01*
X07377129Y05805058D01*
X07378513Y05803709D01*
X07379862Y05802325D01*
X07381177Y05800910D01*
X07382458Y05799462D01*
X07383702Y05797983D01*
X07384909Y05796474D01*
X07386080Y05794936D01*
X07387212Y05793370D01*
X07388305Y05791777D01*
X07389359Y05790157D01*
X07390373Y05788511D01*
X07391346Y05786842D01*
X07392277Y05785149D01*
X07393167Y05783433D01*
X07394015Y05781697D01*
X07394820Y05779940D01*
X07395581Y05778163D01*
X07396299Y05776369D01*
X07396972Y05774558D01*
X07397601Y05772730D01*
X07398184Y05770888D01*
X07398723Y05769032D01*
X07399215Y05767163D01*
X07399662Y05765283D01*
X07400062Y05763392D01*
X07400416Y05761493D01*
X07400723Y05759585D01*
X07400983Y05757670D01*
X07401196Y05755749D01*
X07401362Y05753823D01*
X07401480Y05751895D01*
X07401551Y05749963D01*
X07401575Y05748031D01*
X07401551Y05746099D01*
X07401480Y05744167D01*
X07401362Y05742239D01*
X07401196Y05740313D01*
X07400983Y05738392D01*
X07400723Y05736477D01*
X07400416Y05734569D01*
X07400062Y05732670D01*
X07399662Y05730779D01*
X07399215Y05728899D01*
X07398723Y05727030D01*
X07398184Y05725174D01*
X07397601Y05723332D01*
X07396972Y05721504D01*
X07396299Y05719693D01*
X07395581Y05717899D01*
X07394820Y05716122D01*
X07394015Y05714365D01*
X07393167Y05712629D01*
X07392277Y05710913D01*
X07391346Y05709220D01*
X07390373Y05707551D01*
X07389359Y05705905D01*
X07388305Y05704285D01*
X07387212Y05702692D01*
X07386080Y05701126D01*
X07384909Y05699588D01*
X07383702Y05698079D01*
X07382458Y05696600D01*
X07381177Y05695152D01*
X07379862Y05693737D01*
X07378513Y05692353D01*
X07377129Y05691004D01*
X07375714Y05689689D01*
X07374266Y05688408D01*
X07372787Y05687164D01*
X07371278Y05685957D01*
X07369740Y05684786D01*
X07368174Y05683654D01*
X07366581Y05682561D01*
X07364961Y05681507D01*
X07363315Y05680493D01*
X07361646Y05679520D01*
X07359953Y05678589D01*
X07358237Y05677699D01*
X07356501Y05676851D01*
X07354744Y05676046D01*
X07352967Y05675285D01*
X07351173Y05674567D01*
X07349362Y05673894D01*
X07347534Y05673265D01*
X07345692Y05672682D01*
X07343836Y05672143D01*
X07341967Y05671651D01*
X07340087Y05671204D01*
X07338196Y05670804D01*
X07336297Y05670450D01*
X07334389Y05670143D01*
X07332474Y05669883D01*
X07330553Y05669670D01*
X07328627Y05669504D01*
X07326699Y05669386D01*
X07324767Y05669315D01*
X07322835Y05669291D01*
X07320903Y05669315D01*
X07318971Y05669386D01*
X07317043Y05669504D01*
X07315117Y05669670D01*
X07313196Y05669883D01*
X07311281Y05670143D01*
X07309373Y05670450D01*
X07307474Y05670804D01*
X07305583Y05671204D01*
X07303703Y05671651D01*
X07301834Y05672143D01*
X07299978Y05672682D01*
X07298136Y05673265D01*
X07296308Y05673894D01*
X07294497Y05674567D01*
X07292703Y05675285D01*
X07290926Y05676046D01*
X07289169Y05676851D01*
X07287433Y05677699D01*
X07285717Y05678589D01*
X07284024Y05679520D01*
X07282355Y05680493D01*
X07280709Y05681507D01*
X07279089Y05682561D01*
X07277496Y05683654D01*
X07275930Y05684786D01*
X07274392Y05685957D01*
X07272883Y05687164D01*
X07271404Y05688408D01*
X07269956Y05689689D01*
X07268541Y05691004D01*
X07267157Y05692353D01*
X07265808Y05693737D01*
X07264493Y05695152D01*
X07263212Y05696600D01*
X07261968Y05698079D01*
X07260761Y05699588D01*
X07259590Y05701126D01*
X07258458Y05702692D01*
X07257365Y05704285D01*
X07256311Y05705905D01*
X07255297Y05707551D01*
X07254324Y05709220D01*
X07253393Y05710913D01*
X07252503Y05712629D01*
X07251655Y05714365D01*
X07250850Y05716122D01*
X07250089Y05717899D01*
X07249371Y05719693D01*
X07248698Y05721504D01*
X07248069Y05723332D01*
X07247486Y05725174D01*
X07246947Y05727030D01*
X07246455Y05728899D01*
X07246008Y05730779D01*
X07245608Y05732670D01*
X07245254Y05734569D01*
X07244947Y05736477D01*
X07244687Y05738392D01*
X07244474Y05740313D01*
X07244308Y05742239D01*
X07244190Y05744167D01*
X07244119Y05746099D01*
X07244095Y05748031D01*
X08779528Y04724409D02*
X08779552Y04726341D01*
X08779623Y04728273D01*
X08779741Y04730201D01*
X08779907Y04732127D01*
X08780120Y04734048D01*
X08780380Y04735963D01*
X08780687Y04737871D01*
X08781041Y04739770D01*
X08781441Y04741661D01*
X08781888Y04743541D01*
X08782380Y04745410D01*
X08782919Y04747266D01*
X08783502Y04749108D01*
X08784131Y04750936D01*
X08784804Y04752747D01*
X08785522Y04754541D01*
X08786283Y04756318D01*
X08787088Y04758075D01*
X08787936Y04759811D01*
X08788826Y04761527D01*
X08789757Y04763220D01*
X08790730Y04764889D01*
X08791744Y04766535D01*
X08792798Y04768155D01*
X08793891Y04769748D01*
X08795023Y04771314D01*
X08796194Y04772852D01*
X08797401Y04774361D01*
X08798645Y04775840D01*
X08799926Y04777288D01*
X08801241Y04778703D01*
X08802590Y04780087D01*
X08803974Y04781436D01*
X08805389Y04782751D01*
X08806837Y04784032D01*
X08808316Y04785276D01*
X08809825Y04786483D01*
X08811363Y04787654D01*
X08812929Y04788786D01*
X08814522Y04789879D01*
X08816142Y04790933D01*
X08817788Y04791947D01*
X08819457Y04792920D01*
X08821150Y04793851D01*
X08822866Y04794741D01*
X08824602Y04795589D01*
X08826359Y04796394D01*
X08828136Y04797155D01*
X08829930Y04797873D01*
X08831741Y04798546D01*
X08833569Y04799175D01*
X08835411Y04799758D01*
X08837267Y04800297D01*
X08839136Y04800789D01*
X08841016Y04801236D01*
X08842907Y04801636D01*
X08844806Y04801990D01*
X08846714Y04802297D01*
X08848629Y04802557D01*
X08850550Y04802770D01*
X08852476Y04802936D01*
X08854404Y04803054D01*
X08856336Y04803125D01*
X08858268Y04803149D01*
X08860200Y04803125D01*
X08862132Y04803054D01*
X08864060Y04802936D01*
X08865986Y04802770D01*
X08867907Y04802557D01*
X08869822Y04802297D01*
X08871730Y04801990D01*
X08873629Y04801636D01*
X08875520Y04801236D01*
X08877400Y04800789D01*
X08879269Y04800297D01*
X08881125Y04799758D01*
X08882967Y04799175D01*
X08884795Y04798546D01*
X08886606Y04797873D01*
X08888400Y04797155D01*
X08890177Y04796394D01*
X08891934Y04795589D01*
X08893670Y04794741D01*
X08895386Y04793851D01*
X08897079Y04792920D01*
X08898748Y04791947D01*
X08900394Y04790933D01*
X08902014Y04789879D01*
X08903607Y04788786D01*
X08905173Y04787654D01*
X08906711Y04786483D01*
X08908220Y04785276D01*
X08909699Y04784032D01*
X08911147Y04782751D01*
X08912562Y04781436D01*
X08913946Y04780087D01*
X08915295Y04778703D01*
X08916610Y04777288D01*
X08917891Y04775840D01*
X08919135Y04774361D01*
X08920342Y04772852D01*
X08921513Y04771314D01*
X08922645Y04769748D01*
X08923738Y04768155D01*
X08924792Y04766535D01*
X08925806Y04764889D01*
X08926779Y04763220D01*
X08927710Y04761527D01*
X08928600Y04759811D01*
X08929448Y04758075D01*
X08930253Y04756318D01*
X08931014Y04754541D01*
X08931732Y04752747D01*
X08932405Y04750936D01*
X08933034Y04749108D01*
X08933617Y04747266D01*
X08934156Y04745410D01*
X08934648Y04743541D01*
X08935095Y04741661D01*
X08935495Y04739770D01*
X08935849Y04737871D01*
X08936156Y04735963D01*
X08936416Y04734048D01*
X08936629Y04732127D01*
X08936795Y04730201D01*
X08936913Y04728273D01*
X08936984Y04726341D01*
X08937008Y04724409D01*
X08936984Y04722477D01*
X08936913Y04720545D01*
X08936795Y04718617D01*
X08936629Y04716691D01*
X08936416Y04714770D01*
X08936156Y04712855D01*
X08935849Y04710947D01*
X08935495Y04709048D01*
X08935095Y04707157D01*
X08934648Y04705277D01*
X08934156Y04703408D01*
X08933617Y04701552D01*
X08933034Y04699710D01*
X08932405Y04697882D01*
X08931732Y04696071D01*
X08931014Y04694277D01*
X08930253Y04692500D01*
X08929448Y04690743D01*
X08928600Y04689007D01*
X08927710Y04687291D01*
X08926779Y04685598D01*
X08925806Y04683929D01*
X08924792Y04682283D01*
X08923738Y04680663D01*
X08922645Y04679070D01*
X08921513Y04677504D01*
X08920342Y04675966D01*
X08919135Y04674457D01*
X08917891Y04672978D01*
X08916610Y04671530D01*
X08915295Y04670115D01*
X08913946Y04668731D01*
X08912562Y04667382D01*
X08911147Y04666067D01*
X08909699Y04664786D01*
X08908220Y04663542D01*
X08906711Y04662335D01*
X08905173Y04661164D01*
X08903607Y04660032D01*
X08902014Y04658939D01*
X08900394Y04657885D01*
X08898748Y04656871D01*
X08897079Y04655898D01*
X08895386Y04654967D01*
X08893670Y04654077D01*
X08891934Y04653229D01*
X08890177Y04652424D01*
X08888400Y04651663D01*
X08886606Y04650945D01*
X08884795Y04650272D01*
X08882967Y04649643D01*
X08881125Y04649060D01*
X08879269Y04648521D01*
X08877400Y04648029D01*
X08875520Y04647582D01*
X08873629Y04647182D01*
X08871730Y04646828D01*
X08869822Y04646521D01*
X08867907Y04646261D01*
X08865986Y04646048D01*
X08864060Y04645882D01*
X08862132Y04645764D01*
X08860200Y04645693D01*
X08858268Y04645669D01*
X08856336Y04645693D01*
X08854404Y04645764D01*
X08852476Y04645882D01*
X08850550Y04646048D01*
X08848629Y04646261D01*
X08846714Y04646521D01*
X08844806Y04646828D01*
X08842907Y04647182D01*
X08841016Y04647582D01*
X08839136Y04648029D01*
X08837267Y04648521D01*
X08835411Y04649060D01*
X08833569Y04649643D01*
X08831741Y04650272D01*
X08829930Y04650945D01*
X08828136Y04651663D01*
X08826359Y04652424D01*
X08824602Y04653229D01*
X08822866Y04654077D01*
X08821150Y04654967D01*
X08819457Y04655898D01*
X08817788Y04656871D01*
X08816142Y04657885D01*
X08814522Y04658939D01*
X08812929Y04660032D01*
X08811363Y04661164D01*
X08809825Y04662335D01*
X08808316Y04663542D01*
X08806837Y04664786D01*
X08805389Y04666067D01*
X08803974Y04667382D01*
X08802590Y04668731D01*
X08801241Y04670115D01*
X08799926Y04671530D01*
X08798645Y04672978D01*
X08797401Y04674457D01*
X08796194Y04675966D01*
X08795023Y04677504D01*
X08793891Y04679070D01*
X08792798Y04680663D01*
X08791744Y04682283D01*
X08790730Y04683929D01*
X08789757Y04685598D01*
X08788826Y04687291D01*
X08787936Y04689007D01*
X08787088Y04690743D01*
X08786283Y04692500D01*
X08785522Y04694277D01*
X08784804Y04696071D01*
X08784131Y04697882D01*
X08783502Y04699710D01*
X08782919Y04701552D01*
X08782380Y04703408D01*
X08781888Y04705277D01*
X08781441Y04707157D01*
X08781041Y04709048D01*
X08780687Y04710947D01*
X08780380Y04712855D01*
X08780120Y04714770D01*
X08779907Y04716691D01*
X08779741Y04718617D01*
X08779623Y04720545D01*
X08779552Y04722477D01*
X08779528Y04724409D01*
X07509842Y03346457D02*
X07509857Y03347665D01*
X07509901Y03348872D01*
X07509975Y03350077D01*
X07510079Y03351281D01*
X07510212Y03352481D01*
X07510375Y03353678D01*
X07510567Y03354871D01*
X07510788Y03356058D01*
X07511038Y03357240D01*
X07511317Y03358415D01*
X07511625Y03359583D01*
X07511961Y03360743D01*
X07512326Y03361894D01*
X07512719Y03363036D01*
X07513140Y03364169D01*
X07513588Y03365290D01*
X07514064Y03366400D01*
X07514567Y03367498D01*
X07515097Y03368584D01*
X07515653Y03369656D01*
X07516235Y03370714D01*
X07516844Y03371758D01*
X07517477Y03372786D01*
X07518136Y03373798D01*
X07518819Y03374794D01*
X07519527Y03375773D01*
X07520258Y03376734D01*
X07521013Y03377677D01*
X07521790Y03378602D01*
X07522591Y03379506D01*
X07523413Y03380391D01*
X07524256Y03381256D01*
X07525121Y03382099D01*
X07526006Y03382921D01*
X07526910Y03383722D01*
X07527835Y03384499D01*
X07528778Y03385254D01*
X07529739Y03385985D01*
X07530718Y03386693D01*
X07531714Y03387376D01*
X07532726Y03388035D01*
X07533754Y03388668D01*
X07534798Y03389277D01*
X07535856Y03389859D01*
X07536928Y03390415D01*
X07538014Y03390945D01*
X07539112Y03391448D01*
X07540222Y03391924D01*
X07541343Y03392372D01*
X07542476Y03392793D01*
X07543618Y03393186D01*
X07544769Y03393551D01*
X07545929Y03393887D01*
X07547097Y03394195D01*
X07548272Y03394474D01*
X07549454Y03394724D01*
X07550641Y03394945D01*
X07551834Y03395137D01*
X07553031Y03395300D01*
X07554231Y03395433D01*
X07555435Y03395537D01*
X07556640Y03395611D01*
X07557847Y03395655D01*
X07559055Y03395670D01*
X07560263Y03395655D01*
X07561470Y03395611D01*
X07562675Y03395537D01*
X07563879Y03395433D01*
X07565079Y03395300D01*
X07566276Y03395137D01*
X07567469Y03394945D01*
X07568656Y03394724D01*
X07569838Y03394474D01*
X07571013Y03394195D01*
X07572181Y03393887D01*
X07573341Y03393551D01*
X07574492Y03393186D01*
X07575634Y03392793D01*
X07576767Y03392372D01*
X07577888Y03391924D01*
X07578998Y03391448D01*
X07580096Y03390945D01*
X07581182Y03390415D01*
X07582254Y03389859D01*
X07583312Y03389277D01*
X07584356Y03388668D01*
X07585384Y03388035D01*
X07586396Y03387376D01*
X07587392Y03386693D01*
X07588371Y03385985D01*
X07589332Y03385254D01*
X07590275Y03384499D01*
X07591200Y03383722D01*
X07592104Y03382921D01*
X07592989Y03382099D01*
X07593854Y03381256D01*
X07594697Y03380391D01*
X07595519Y03379506D01*
X07596320Y03378602D01*
X07597097Y03377677D01*
X07597852Y03376734D01*
X07598583Y03375773D01*
X07599291Y03374794D01*
X07599974Y03373798D01*
X07600633Y03372786D01*
X07601266Y03371758D01*
X07601875Y03370714D01*
X07602457Y03369656D01*
X07603013Y03368584D01*
X07603543Y03367498D01*
X07604046Y03366400D01*
X07604522Y03365290D01*
X07604970Y03364169D01*
X07605391Y03363036D01*
X07605784Y03361894D01*
X07606149Y03360743D01*
X07606485Y03359583D01*
X07606793Y03358415D01*
X07607072Y03357240D01*
X07607322Y03356058D01*
X07607543Y03354871D01*
X07607735Y03353678D01*
X07607898Y03352481D01*
X07608031Y03351281D01*
X07608135Y03350077D01*
X07608209Y03348872D01*
X07608253Y03347665D01*
X07608268Y03346457D01*
X07608253Y03345249D01*
X07608209Y03344042D01*
X07608135Y03342837D01*
X07608031Y03341633D01*
X07607898Y03340433D01*
X07607735Y03339236D01*
X07607543Y03338043D01*
X07607322Y03336856D01*
X07607072Y03335674D01*
X07606793Y03334499D01*
X07606485Y03333331D01*
X07606149Y03332171D01*
X07605784Y03331020D01*
X07605391Y03329878D01*
X07604970Y03328745D01*
X07604522Y03327624D01*
X07604046Y03326514D01*
X07603543Y03325416D01*
X07603013Y03324330D01*
X07602457Y03323258D01*
X07601875Y03322200D01*
X07601266Y03321156D01*
X07600633Y03320128D01*
X07599974Y03319116D01*
X07599291Y03318120D01*
X07598583Y03317141D01*
X07597852Y03316180D01*
X07597097Y03315237D01*
X07596320Y03314312D01*
X07595519Y03313408D01*
X07594697Y03312523D01*
X07593854Y03311658D01*
X07592989Y03310815D01*
X07592104Y03309993D01*
X07591200Y03309192D01*
X07590275Y03308415D01*
X07589332Y03307660D01*
X07588371Y03306929D01*
X07587392Y03306221D01*
X07586396Y03305538D01*
X07585384Y03304879D01*
X07584356Y03304246D01*
X07583312Y03303637D01*
X07582254Y03303055D01*
X07581182Y03302499D01*
X07580096Y03301969D01*
X07578998Y03301466D01*
X07577888Y03300990D01*
X07576767Y03300542D01*
X07575634Y03300121D01*
X07574492Y03299728D01*
X07573341Y03299363D01*
X07572181Y03299027D01*
X07571013Y03298719D01*
X07569838Y03298440D01*
X07568656Y03298190D01*
X07567469Y03297969D01*
X07566276Y03297777D01*
X07565079Y03297614D01*
X07563879Y03297481D01*
X07562675Y03297377D01*
X07561470Y03297303D01*
X07560263Y03297259D01*
X07559055Y03297244D01*
X07557847Y03297259D01*
X07556640Y03297303D01*
X07555435Y03297377D01*
X07554231Y03297481D01*
X07553031Y03297614D01*
X07551834Y03297777D01*
X07550641Y03297969D01*
X07549454Y03298190D01*
X07548272Y03298440D01*
X07547097Y03298719D01*
X07545929Y03299027D01*
X07544769Y03299363D01*
X07543618Y03299728D01*
X07542476Y03300121D01*
X07541343Y03300542D01*
X07540222Y03300990D01*
X07539112Y03301466D01*
X07538014Y03301969D01*
X07536928Y03302499D01*
X07535856Y03303055D01*
X07534798Y03303637D01*
X07533754Y03304246D01*
X07532726Y03304879D01*
X07531714Y03305538D01*
X07530718Y03306221D01*
X07529739Y03306929D01*
X07528778Y03307660D01*
X07527835Y03308415D01*
X07526910Y03309192D01*
X07526006Y03309993D01*
X07525121Y03310815D01*
X07524256Y03311658D01*
X07523413Y03312523D01*
X07522591Y03313408D01*
X07521790Y03314312D01*
X07521013Y03315237D01*
X07520258Y03316180D01*
X07519527Y03317141D01*
X07518819Y03318120D01*
X07518136Y03319116D01*
X07517477Y03320128D01*
X07516844Y03321156D01*
X07516235Y03322200D01*
X07515653Y03323258D01*
X07515097Y03324330D01*
X07514567Y03325416D01*
X07514064Y03326514D01*
X07513588Y03327624D01*
X07513140Y03328745D01*
X07512719Y03329878D01*
X07512326Y03331020D01*
X07511961Y03332171D01*
X07511625Y03333331D01*
X07511317Y03334499D01*
X07511038Y03335674D01*
X07510788Y03336856D01*
X07510567Y03338043D01*
X07510375Y03339236D01*
X07510212Y03340433D01*
X07510079Y03341633D01*
X07509975Y03342837D01*
X07509901Y03344042D01*
X07509857Y03345249D01*
X07509842Y03346457D01*
D11*
X07480315Y00000000D02*
X00000000Y00000000D01*
X00000000Y00748031D02*
X07086614Y00748031D01*
X07086614Y06023622D01*
X12598425Y06023622D01*
X12598425Y05000000D01*
X12165354Y04566929D01*
X10984252Y04566929D01*
X10984252Y03307087D01*
X12165354Y03307087D01*
X12598425Y02874016D01*
X12598425Y02598425D01*
X12480315Y02598425D01*
X12480315Y02047244D01*
X12598425Y02047244D01*
X12598425Y01259843D01*
X08543307Y01259843D01*
X08543307Y00472441D01*
X08149606Y00472441D01*
X08149606Y00157480D01*
X07480315Y00157480D01*
X07480315Y00000000D01*
D12*
X11992323Y01901575D03*
X11992323Y01904331D03*
X11992323Y02240551D03*
X11992323Y02585039D03*
X11992323Y02921260D03*
X11311614Y02921260D03*
X11311614Y02918504D03*
X11311614Y02915748D03*
X11311614Y02912992D03*
X11311614Y02910236D03*
X11311614Y02907480D03*
X11311614Y02904724D03*
X11311614Y02901969D03*
X11311614Y02899213D03*
X11311614Y02896457D03*
X11311614Y02893701D03*
X11311614Y02890945D03*
X11311614Y02888189D03*
X11311614Y02885433D03*
X11311614Y02882677D03*
X11311614Y02879921D03*
X11311614Y02877165D03*
X11311614Y02874409D03*
X11311614Y02631890D03*
X11311614Y02629134D03*
X11311614Y02626378D03*
X11311614Y02623622D03*
X11311614Y02620866D03*
X11311614Y02618110D03*
X11311614Y02615354D03*
X11311614Y02612598D03*
X11311614Y02609843D03*
X11311614Y02607087D03*
X11311614Y02604331D03*
X11311614Y02601575D03*
X11311614Y02598819D03*
X11311614Y02596063D03*
X11311614Y02593307D03*
X11311614Y02590551D03*
X11311614Y02587795D03*
D13*
X11164173Y02640157D03*
X11164173Y02532677D03*
X11164173Y02494094D03*
X11164173Y02383858D03*
X11164173Y02381102D03*
X11164173Y02345276D03*
X11213780Y02334252D03*
X11505906Y02436220D03*
X11505906Y02485827D03*
X11748425Y02585039D03*
X11748425Y02874409D03*
X11748425Y02877165D03*
X11748425Y02924016D03*
X11651969Y02924016D03*
X11552756Y02924016D03*
X11164173Y02868898D03*
X11748425Y02243307D03*
X11748425Y02097244D03*
X11748425Y02055906D03*
X11748425Y01904331D03*
X11748425Y01901575D03*
X11359843Y01901575D03*
X11263386Y01951181D03*
X11164173Y01951181D03*
X11164173Y01998031D03*
D14*
X11529331Y01948425D03*
X11529331Y01945669D03*
X11529331Y01942913D03*
X11529331Y01940157D03*
X11529331Y01937402D03*
X11529331Y01934646D03*
X11529331Y01931890D03*
X11529331Y01929134D03*
X11529331Y01926378D03*
X11529331Y01923622D03*
X11529331Y01920866D03*
X11529331Y01918110D03*
X11529331Y01915354D03*
X11529331Y01912598D03*
X11529331Y01904331D03*
X11529331Y01901575D03*
X11383268Y02339764D03*
X11237205Y02389370D03*
D15*
X11212402Y02337008D03*
X11212402Y02331496D03*
X11212402Y02328740D03*
X11212402Y02325984D03*
X11212402Y02323228D03*
X11212402Y02320472D03*
X11212402Y02317717D03*
X11212402Y02314961D03*
X11212402Y02312205D03*
X11212402Y02309449D03*
X11212402Y02306693D03*
X11212402Y02303937D03*
X11212402Y02301181D03*
X11212402Y02298425D03*
X11212402Y02295669D03*
X11212402Y02292913D03*
X11212402Y02290157D03*
X11212402Y02287402D03*
X11212402Y02284646D03*
X11212402Y02281890D03*
X11212402Y02279134D03*
X11212402Y02276378D03*
X11212402Y02273622D03*
X11212402Y02270866D03*
X11212402Y02268110D03*
X11212402Y02265354D03*
X11212402Y02262598D03*
X11212402Y02259843D03*
X11212402Y02257087D03*
X11212402Y02254331D03*
X11212402Y02251575D03*
X11212402Y02248819D03*
X11165551Y02342520D03*
X11165551Y02348031D03*
X11165551Y02350787D03*
X11165551Y02353543D03*
X11165551Y02356299D03*
X11165551Y02359055D03*
X11165551Y02361811D03*
X11165551Y02364567D03*
X11165551Y02367323D03*
X11165551Y02370079D03*
X11165551Y02372835D03*
X11165551Y02375591D03*
X11165551Y02378346D03*
X11165551Y02386614D03*
X11311614Y02386614D03*
X11311614Y02383858D03*
X11311614Y02381102D03*
X11311614Y02378346D03*
X11311614Y02375591D03*
X11311614Y02372835D03*
X11311614Y02370079D03*
X11311614Y02367323D03*
X11311614Y02364567D03*
X11311614Y02361811D03*
X11311614Y02359055D03*
X11311614Y02356299D03*
X11311614Y02353543D03*
X11311614Y02350787D03*
X11311614Y02348031D03*
X11311614Y02345276D03*
X11311614Y02342520D03*
X11408071Y02345276D03*
X11408071Y02348031D03*
X11408071Y02350787D03*
X11408071Y02353543D03*
X11408071Y02356299D03*
X11408071Y02359055D03*
X11408071Y02361811D03*
X11408071Y02364567D03*
X11408071Y02367323D03*
X11408071Y02370079D03*
X11408071Y02372835D03*
X11408071Y02375591D03*
X11408071Y02378346D03*
X11408071Y02381102D03*
X11408071Y02383858D03*
X11408071Y02386614D03*
X11408071Y02389370D03*
X11408071Y02392126D03*
X11408071Y02394882D03*
X11408071Y02397638D03*
X11408071Y02400394D03*
X11408071Y02403150D03*
X11408071Y02405906D03*
X11408071Y02408661D03*
X11408071Y02411417D03*
X11408071Y02414173D03*
X11408071Y02416929D03*
X11408071Y02419685D03*
X11408071Y02422441D03*
X11408071Y02425197D03*
X11408071Y02427953D03*
X11408071Y02430709D03*
X11408071Y02433465D03*
X11504528Y02433465D03*
X11504528Y02430709D03*
X11504528Y02427953D03*
X11504528Y02425197D03*
X11504528Y02422441D03*
X11504528Y02419685D03*
X11504528Y02416929D03*
X11504528Y02414173D03*
X11504528Y02411417D03*
X11504528Y02408661D03*
X11504528Y02405906D03*
X11504528Y02403150D03*
X11504528Y02400394D03*
X11504528Y02397638D03*
X11504528Y02394882D03*
X11507283Y02392126D03*
X11554134Y02383858D03*
X11554134Y02381102D03*
X11554134Y02378346D03*
X11554134Y02375591D03*
X11554134Y02372835D03*
X11554134Y02370079D03*
X11554134Y02367323D03*
X11554134Y02364567D03*
X11554134Y02361811D03*
X11554134Y02359055D03*
X11554134Y02356299D03*
X11554134Y02353543D03*
X11554134Y02350787D03*
X11554134Y02348031D03*
X11554134Y02345276D03*
X11600984Y02337008D03*
X11600984Y02334252D03*
X11600984Y02331496D03*
X11600984Y02328740D03*
X11600984Y02325984D03*
X11600984Y02323228D03*
X11600984Y02320472D03*
X11600984Y02317717D03*
X11600984Y02314961D03*
X11600984Y02312205D03*
X11600984Y02309449D03*
X11600984Y02306693D03*
X11600984Y02303937D03*
X11600984Y02301181D03*
X11600984Y02298425D03*
X11600984Y02295669D03*
X11600984Y02292913D03*
X11650591Y02240551D03*
X11650591Y02237795D03*
X11650591Y02235039D03*
X11650591Y02232283D03*
X11650591Y02229528D03*
X11650591Y02226772D03*
X11650591Y02224016D03*
X11650591Y02221260D03*
X11650591Y02218504D03*
X11650591Y02215748D03*
X11650591Y02212992D03*
X11650591Y02210236D03*
X11650591Y02207480D03*
X11650591Y02204724D03*
X11650591Y02201969D03*
X11650591Y02199213D03*
X11747047Y02246063D03*
X11747047Y02248819D03*
X11747047Y02251575D03*
X11747047Y02254331D03*
X11747047Y02257087D03*
X11747047Y02259843D03*
X11747047Y02262598D03*
X11747047Y02265354D03*
X11747047Y02268110D03*
X11747047Y02270866D03*
X11747047Y02273622D03*
X11747047Y02276378D03*
X11747047Y02279134D03*
X11747047Y02281890D03*
X11747047Y02284646D03*
X11747047Y02287402D03*
X11747047Y02290157D03*
X11700197Y02295669D03*
X11700197Y02298425D03*
X11700197Y02301181D03*
X11700197Y02303937D03*
X11700197Y02306693D03*
X11700197Y02309449D03*
X11700197Y02312205D03*
X11700197Y02314961D03*
X11700197Y02317717D03*
X11700197Y02320472D03*
X11700197Y02323228D03*
X11700197Y02325984D03*
X11700197Y02328740D03*
X11700197Y02331496D03*
X11700197Y02334252D03*
X11650591Y02345276D03*
X11650591Y02348031D03*
X11650591Y02350787D03*
X11650591Y02353543D03*
X11650591Y02356299D03*
X11650591Y02359055D03*
X11650591Y02361811D03*
X11650591Y02364567D03*
X11650591Y02367323D03*
X11650591Y02370079D03*
X11650591Y02372835D03*
X11650591Y02375591D03*
X11650591Y02378346D03*
X11650591Y02381102D03*
X11650591Y02383858D03*
X11650591Y02386614D03*
X11504528Y02488583D03*
X11504528Y02491339D03*
X11504528Y02494094D03*
X11504528Y02496850D03*
X11504528Y02499606D03*
X11504528Y02502362D03*
X11504528Y02505118D03*
X11504528Y02507874D03*
X11504528Y02510630D03*
X11504528Y02513386D03*
X11504528Y02516142D03*
X11504528Y02518898D03*
X11504528Y02521654D03*
X11504528Y02524409D03*
X11504528Y02527165D03*
X11504528Y02529921D03*
X11554134Y02585039D03*
X11554134Y02587795D03*
X11554134Y02590551D03*
X11554134Y02593307D03*
X11554134Y02596063D03*
X11554134Y02598819D03*
X11554134Y02601575D03*
X11554134Y02604331D03*
X11554134Y02607087D03*
X11554134Y02609843D03*
X11554134Y02612598D03*
X11554134Y02615354D03*
X11554134Y02618110D03*
X11554134Y02620866D03*
X11554134Y02623622D03*
X11554134Y02626378D03*
X11554134Y02629134D03*
X11650591Y02629134D03*
X11650591Y02626378D03*
X11650591Y02623622D03*
X11650591Y02620866D03*
X11650591Y02618110D03*
X11650591Y02615354D03*
X11650591Y02612598D03*
X11650591Y02609843D03*
X11650591Y02607087D03*
X11650591Y02604331D03*
X11650591Y02601575D03*
X11650591Y02598819D03*
X11650591Y02596063D03*
X11650591Y02593307D03*
X11650591Y02590551D03*
X11650591Y02587795D03*
X11650591Y02585039D03*
X11747047Y02587795D03*
X11747047Y02590551D03*
X11747047Y02593307D03*
X11747047Y02596063D03*
X11747047Y02598819D03*
X11747047Y02601575D03*
X11747047Y02604331D03*
X11747047Y02607087D03*
X11747047Y02609843D03*
X11747047Y02612598D03*
X11747047Y02615354D03*
X11747047Y02618110D03*
X11747047Y02620866D03*
X11747047Y02623622D03*
X11747047Y02626378D03*
X11747047Y02629134D03*
X11747047Y02684252D03*
X11747047Y02687008D03*
X11747047Y02689764D03*
X11747047Y02692520D03*
X11747047Y02695276D03*
X11747047Y02698031D03*
X11747047Y02700787D03*
X11747047Y02703543D03*
X11747047Y02706299D03*
X11747047Y02709055D03*
X11747047Y02711811D03*
X11747047Y02714567D03*
X11747047Y02717323D03*
X11747047Y02720079D03*
X11747047Y02722835D03*
X11747047Y02725591D03*
X11747047Y02728346D03*
X11846260Y02728346D03*
X11846260Y02725591D03*
X11846260Y02722835D03*
X11846260Y02720079D03*
X11846260Y02717323D03*
X11846260Y02714567D03*
X11846260Y02711811D03*
X11846260Y02709055D03*
X11846260Y02706299D03*
X11846260Y02703543D03*
X11846260Y02700787D03*
X11846260Y02698031D03*
X11846260Y02695276D03*
X11846260Y02692520D03*
X11846260Y02689764D03*
X11846260Y02687008D03*
X11846260Y02684252D03*
X11846260Y02681496D03*
X11846260Y02678740D03*
X11846260Y02675984D03*
X11846260Y02673228D03*
X11846260Y02670472D03*
X11846260Y02667717D03*
X11846260Y02664961D03*
X11846260Y02662205D03*
X11846260Y02659449D03*
X11846260Y02656693D03*
X11846260Y02653937D03*
X11846260Y02651181D03*
X11846260Y02648425D03*
X11846260Y02645669D03*
X11846260Y02642913D03*
X11846260Y02640157D03*
X11846260Y02637402D03*
X11846260Y02634646D03*
X11846260Y02532677D03*
X11846260Y02529921D03*
X11846260Y02527165D03*
X11846260Y02524409D03*
X11846260Y02521654D03*
X11846260Y02518898D03*
X11846260Y02516142D03*
X11846260Y02513386D03*
X11846260Y02510630D03*
X11846260Y02507874D03*
X11846260Y02505118D03*
X11846260Y02502362D03*
X11846260Y02499606D03*
X11846260Y02496850D03*
X11846260Y02494094D03*
X11846260Y02491339D03*
X11942717Y02386614D03*
X11942717Y02383858D03*
X11942717Y02381102D03*
X11942717Y02378346D03*
X11942717Y02375591D03*
X11942717Y02372835D03*
X11942717Y02370079D03*
X11942717Y02367323D03*
X11942717Y02364567D03*
X11942717Y02361811D03*
X11942717Y02359055D03*
X11942717Y02356299D03*
X11942717Y02353543D03*
X11942717Y02350787D03*
X11942717Y02348031D03*
X11942717Y02345276D03*
X12039173Y02345276D03*
X12039173Y02348031D03*
X12039173Y02350787D03*
X12039173Y02353543D03*
X12039173Y02356299D03*
X12039173Y02359055D03*
X12039173Y02361811D03*
X12039173Y02364567D03*
X12039173Y02367323D03*
X12039173Y02370079D03*
X12039173Y02372835D03*
X12039173Y02375591D03*
X12039173Y02378346D03*
X12039173Y02381102D03*
X12039173Y02383858D03*
X11846260Y02190945D03*
X11846260Y02188189D03*
X11846260Y02185433D03*
X11846260Y02182677D03*
X11846260Y02179921D03*
X11846260Y02177165D03*
X11846260Y02174409D03*
X11846260Y02171654D03*
X11846260Y02168898D03*
X11846260Y02166142D03*
X11846260Y02163386D03*
X11846260Y02160630D03*
X11846260Y02157874D03*
X11846260Y02155118D03*
X11846260Y02152362D03*
X11846260Y02149606D03*
X11846260Y02146850D03*
X11846260Y02144094D03*
X11846260Y02141339D03*
X11846260Y02138583D03*
X11846260Y02135827D03*
X11846260Y02133071D03*
X11846260Y02130315D03*
X11846260Y02127559D03*
X11846260Y02124803D03*
X11846260Y02122047D03*
X11846260Y02119291D03*
X11846260Y02116535D03*
X11846260Y02113780D03*
X11846260Y02111024D03*
X11846260Y02108268D03*
X11846260Y02105512D03*
X11846260Y02102756D03*
X11846260Y02100000D03*
X11846260Y02097244D03*
X11846260Y02094488D03*
X11846260Y02091732D03*
X11846260Y02088976D03*
X11846260Y02086220D03*
X11846260Y02083465D03*
X11846260Y02080709D03*
X11846260Y02077953D03*
X11846260Y02075197D03*
X11846260Y02072441D03*
X11846260Y02069685D03*
X11846260Y02066929D03*
X11846260Y02064173D03*
X11846260Y02061417D03*
X11846260Y02058661D03*
X11846260Y02055906D03*
X11846260Y02053150D03*
X11846260Y02050394D03*
X11846260Y02047638D03*
X11846260Y02044882D03*
X11846260Y02042126D03*
X11846260Y02039370D03*
X11846260Y02036614D03*
X11846260Y02033858D03*
X11846260Y02031102D03*
X11846260Y02028346D03*
X11846260Y02025591D03*
X11846260Y02022835D03*
X11846260Y02020079D03*
X11846260Y02017323D03*
X11846260Y02014567D03*
X11846260Y02011811D03*
X11846260Y02009055D03*
X11846260Y02006299D03*
X11846260Y02003543D03*
X11846260Y02000787D03*
X11846260Y01998031D03*
X11846260Y01995276D03*
X11846260Y01992520D03*
X11846260Y01989764D03*
X11846260Y01987008D03*
X11846260Y01984252D03*
X11846260Y01981496D03*
X11846260Y01978740D03*
X11846260Y01975984D03*
X11846260Y01973228D03*
X11846260Y01970472D03*
X11846260Y01967717D03*
X11846260Y01964961D03*
X11846260Y01962205D03*
X11846260Y01959449D03*
X11846260Y01956693D03*
X11846260Y01953937D03*
X11747047Y01953937D03*
X11747047Y01956693D03*
X11747047Y01959449D03*
X11747047Y01962205D03*
X11747047Y01964961D03*
X11747047Y01967717D03*
X11747047Y01970472D03*
X11747047Y01973228D03*
X11747047Y01975984D03*
X11747047Y01978740D03*
X11747047Y01981496D03*
X11747047Y01984252D03*
X11747047Y01987008D03*
X11747047Y01989764D03*
X11747047Y01992520D03*
X11747047Y01995276D03*
X11747047Y01998031D03*
X11747047Y01951181D03*
X11747047Y01948425D03*
X11747047Y01945669D03*
X11747047Y01942913D03*
X11747047Y01940157D03*
X11747047Y01937402D03*
X11747047Y01934646D03*
X11747047Y01931890D03*
X11747047Y01929134D03*
X11747047Y01926378D03*
X11747047Y01923622D03*
X11747047Y01920866D03*
X11747047Y01918110D03*
X11747047Y01915354D03*
X11747047Y01912598D03*
X11747047Y01909843D03*
X11747047Y01907087D03*
X11747047Y02050394D03*
X11747047Y02053150D03*
X11747047Y02058661D03*
X11747047Y02061417D03*
X11747047Y02064173D03*
X11747047Y02066929D03*
X11747047Y02069685D03*
X11747047Y02072441D03*
X11747047Y02075197D03*
X11747047Y02077953D03*
X11747047Y02080709D03*
X11747047Y02083465D03*
X11747047Y02086220D03*
X11747047Y02088976D03*
X11747047Y02091732D03*
X11747047Y02094488D03*
X11554134Y02091732D03*
X11554134Y02088976D03*
X11554134Y02086220D03*
X11554134Y02083465D03*
X11554134Y02080709D03*
X11554134Y02077953D03*
X11554134Y02075197D03*
X11554134Y02072441D03*
X11554134Y02069685D03*
X11554134Y02066929D03*
X11554134Y02064173D03*
X11554134Y02061417D03*
X11554134Y02058661D03*
X11554134Y02055906D03*
X11554134Y02053150D03*
X11504528Y02102756D03*
X11504528Y02105512D03*
X11504528Y02108268D03*
X11504528Y02111024D03*
X11504528Y02113780D03*
X11504528Y02116535D03*
X11504528Y02119291D03*
X11504528Y02122047D03*
X11504528Y02124803D03*
X11504528Y02127559D03*
X11504528Y02130315D03*
X11504528Y02133071D03*
X11504528Y02135827D03*
X11504528Y02138583D03*
X11504528Y02141339D03*
X11408071Y02141339D03*
X11408071Y02138583D03*
X11408071Y02135827D03*
X11408071Y02133071D03*
X11408071Y02130315D03*
X11408071Y02127559D03*
X11408071Y02124803D03*
X11408071Y02122047D03*
X11408071Y02119291D03*
X11408071Y02116535D03*
X11408071Y02113780D03*
X11408071Y02111024D03*
X11408071Y02108268D03*
X11408071Y02105512D03*
X11408071Y02102756D03*
X11408071Y02100000D03*
X11408071Y02097244D03*
X11408071Y02094488D03*
X11408071Y02091732D03*
X11408071Y02088976D03*
X11408071Y02086220D03*
X11408071Y02083465D03*
X11408071Y02080709D03*
X11408071Y02077953D03*
X11408071Y02075197D03*
X11408071Y02072441D03*
X11408071Y02069685D03*
X11408071Y02066929D03*
X11408071Y02064173D03*
X11408071Y02061417D03*
X11408071Y02058661D03*
X11408071Y02055906D03*
X11408071Y02053150D03*
X11408071Y02050394D03*
X11358465Y01998031D03*
X11358465Y01992520D03*
X11358465Y01989764D03*
X11358465Y01987008D03*
X11358465Y01984252D03*
X11358465Y01981496D03*
X11358465Y01978740D03*
X11358465Y01975984D03*
X11358465Y01973228D03*
X11358465Y01970472D03*
X11358465Y01967717D03*
X11358465Y01964961D03*
X11358465Y01962205D03*
X11358465Y01959449D03*
X11358465Y01956693D03*
X11358465Y01953937D03*
X11358465Y01951181D03*
X11358465Y01948425D03*
X11358465Y01945669D03*
X11358465Y01942913D03*
X11358465Y01940157D03*
X11358465Y01937402D03*
X11358465Y01934646D03*
X11358465Y01931890D03*
X11358465Y01929134D03*
X11358465Y01926378D03*
X11358465Y01923622D03*
X11358465Y01920866D03*
X11358465Y01918110D03*
X11358465Y01915354D03*
X11358465Y01912598D03*
X11358465Y01907087D03*
X11358465Y01904331D03*
X11262008Y01904331D03*
X11262008Y01907087D03*
X11262008Y01909843D03*
X11262008Y01912598D03*
X11262008Y01915354D03*
X11262008Y01918110D03*
X11262008Y01920866D03*
X11262008Y01923622D03*
X11262008Y01926378D03*
X11262008Y01929134D03*
X11262008Y01931890D03*
X11262008Y01934646D03*
X11262008Y01937402D03*
X11262008Y01940157D03*
X11262008Y01942913D03*
X11262008Y01945669D03*
X11262008Y01948425D03*
X11262008Y01901575D03*
X11165551Y01953937D03*
X11165551Y01956693D03*
X11165551Y01959449D03*
X11165551Y01962205D03*
X11165551Y01964961D03*
X11165551Y01967717D03*
X11165551Y01970472D03*
X11165551Y01973228D03*
X11165551Y01975984D03*
X11165551Y01978740D03*
X11165551Y01981496D03*
X11165551Y01984252D03*
X11165551Y01987008D03*
X11165551Y01989764D03*
X11165551Y01992520D03*
X11165551Y01995276D03*
X11165551Y02488583D03*
X11165551Y02491339D03*
X11165551Y02496850D03*
X11165551Y02499606D03*
X11165551Y02502362D03*
X11165551Y02505118D03*
X11165551Y02507874D03*
X11165551Y02510630D03*
X11165551Y02513386D03*
X11165551Y02516142D03*
X11165551Y02518898D03*
X11165551Y02521654D03*
X11165551Y02524409D03*
X11165551Y02527165D03*
X11165551Y02529921D03*
X11165551Y02634646D03*
X11165551Y02637402D03*
X11165551Y02642913D03*
X11165551Y02645669D03*
X11165551Y02648425D03*
X11165551Y02651181D03*
X11165551Y02653937D03*
X11165551Y02656693D03*
X11165551Y02659449D03*
X11165551Y02662205D03*
X11165551Y02664961D03*
X11165551Y02667717D03*
X11165551Y02670472D03*
X11165551Y02673228D03*
X11165551Y02675984D03*
X11165551Y02678740D03*
X11165551Y02681496D03*
X11165551Y02684252D03*
X11165551Y02687008D03*
X11165551Y02689764D03*
X11165551Y02692520D03*
X11165551Y02695276D03*
X11165551Y02698031D03*
X11165551Y02700787D03*
X11165551Y02703543D03*
X11165551Y02706299D03*
X11165551Y02709055D03*
X11165551Y02711811D03*
X11165551Y02714567D03*
X11165551Y02717323D03*
X11165551Y02720079D03*
X11165551Y02722835D03*
X11165551Y02725591D03*
X11165551Y02728346D03*
X11165551Y02731102D03*
X11165551Y02733858D03*
X11165551Y02736614D03*
X11165551Y02739370D03*
X11165551Y02742126D03*
X11165551Y02744882D03*
X11165551Y02747638D03*
X11165551Y02750394D03*
X11165551Y02753150D03*
X11165551Y02755906D03*
X11165551Y02758661D03*
X11165551Y02761417D03*
X11165551Y02764173D03*
X11165551Y02766929D03*
X11165551Y02769685D03*
X11165551Y02772441D03*
X11165551Y02775197D03*
X11165551Y02777953D03*
X11165551Y02780709D03*
X11165551Y02783465D03*
X11165551Y02786220D03*
X11165551Y02788976D03*
X11165551Y02791732D03*
X11165551Y02794488D03*
X11165551Y02797244D03*
X11165551Y02800000D03*
X11165551Y02802756D03*
X11165551Y02805512D03*
X11165551Y02808268D03*
X11165551Y02811024D03*
X11165551Y02813780D03*
X11165551Y02816535D03*
X11165551Y02819291D03*
X11165551Y02822047D03*
X11165551Y02824803D03*
X11165551Y02827559D03*
X11165551Y02830315D03*
X11165551Y02833071D03*
X11165551Y02835827D03*
X11165551Y02838583D03*
X11165551Y02841339D03*
X11165551Y02844094D03*
X11165551Y02846850D03*
X11165551Y02849606D03*
X11165551Y02852362D03*
X11165551Y02855118D03*
X11165551Y02857874D03*
X11165551Y02860630D03*
X11165551Y02863386D03*
X11165551Y02866142D03*
X11165551Y02871654D03*
X11457677Y02868898D03*
X11457677Y02866142D03*
X11457677Y02860630D03*
X11457677Y02857874D03*
X11457677Y02855118D03*
X11457677Y02852362D03*
X11457677Y02849606D03*
X11457677Y02846850D03*
X11457677Y02844094D03*
X11457677Y02841339D03*
X11457677Y02838583D03*
X11457677Y02835827D03*
X11457677Y02833071D03*
X11457677Y02830315D03*
X11457677Y02827559D03*
X11457677Y02824803D03*
X11457677Y02822047D03*
X11457677Y02819291D03*
X11457677Y02816535D03*
X11457677Y02813780D03*
X11457677Y02811024D03*
X11457677Y02808268D03*
X11457677Y02805512D03*
X11457677Y02802756D03*
X11457677Y02800000D03*
X11457677Y02797244D03*
X11457677Y02794488D03*
X11457677Y02791732D03*
X11457677Y02788976D03*
X11457677Y02786220D03*
X11457677Y02783465D03*
X11457677Y02780709D03*
X11457677Y02777953D03*
X11457677Y02775197D03*
X11457677Y02772441D03*
X11457677Y02769685D03*
X11457677Y02766929D03*
X11457677Y02764173D03*
X11457677Y02761417D03*
X11457677Y02758661D03*
X11457677Y02755906D03*
X11457677Y02753150D03*
X11457677Y02750394D03*
X11457677Y02747638D03*
X11457677Y02744882D03*
X11457677Y02742126D03*
X11457677Y02739370D03*
X11457677Y02736614D03*
X11457677Y02733858D03*
X11457677Y02731102D03*
X11457677Y02728346D03*
X11457677Y02725591D03*
X11457677Y02722835D03*
X11457677Y02720079D03*
X11457677Y02717323D03*
X11457677Y02714567D03*
X11457677Y02711811D03*
X11457677Y02709055D03*
X11457677Y02706299D03*
X11457677Y02703543D03*
X11457677Y02700787D03*
X11457677Y02698031D03*
X11457677Y02695276D03*
X11457677Y02692520D03*
X11457677Y02689764D03*
X11457677Y02687008D03*
X11457677Y02684252D03*
X11457677Y02681496D03*
X11457677Y02678740D03*
X11457677Y02675984D03*
X11457677Y02673228D03*
X11457677Y02670472D03*
X11457677Y02667717D03*
X11457677Y02664961D03*
X11457677Y02662205D03*
X11457677Y02659449D03*
X11457677Y02656693D03*
X11457677Y02653937D03*
X11457677Y02648425D03*
X11457677Y02645669D03*
X11457677Y02642913D03*
X11457677Y02640157D03*
X11457677Y02637402D03*
X11600984Y02780709D03*
X11600984Y02783465D03*
X11600984Y02786220D03*
X11600984Y02788976D03*
X11600984Y02791732D03*
X11600984Y02794488D03*
X11600984Y02797244D03*
X11600984Y02800000D03*
X11600984Y02802756D03*
X11600984Y02805512D03*
X11600984Y02808268D03*
X11600984Y02811024D03*
X11600984Y02813780D03*
X11600984Y02816535D03*
X11600984Y02819291D03*
X11600984Y02822047D03*
X11650591Y02877165D03*
X11650591Y02879921D03*
X11650591Y02882677D03*
X11650591Y02885433D03*
X11650591Y02888189D03*
X11650591Y02890945D03*
X11650591Y02893701D03*
X11650591Y02896457D03*
X11650591Y02899213D03*
X11650591Y02901969D03*
X11650591Y02904724D03*
X11650591Y02907480D03*
X11650591Y02910236D03*
X11650591Y02912992D03*
X11650591Y02915748D03*
X11650591Y02918504D03*
X11650591Y02921260D03*
X11747047Y02921260D03*
X11747047Y02918504D03*
X11747047Y02915748D03*
X11747047Y02912992D03*
X11747047Y02910236D03*
X11747047Y02907480D03*
X11747047Y02904724D03*
X11747047Y02901969D03*
X11747047Y02899213D03*
X11747047Y02896457D03*
X11747047Y02893701D03*
X11747047Y02890945D03*
X11747047Y02888189D03*
X11747047Y02885433D03*
X11747047Y02882677D03*
X11747047Y02879921D03*
X11846260Y02871654D03*
X11846260Y02868898D03*
X11846260Y02866142D03*
X11846260Y02863386D03*
X11846260Y02860630D03*
X11846260Y02857874D03*
X11846260Y02855118D03*
X11846260Y02852362D03*
X11846260Y02849606D03*
X11846260Y02846850D03*
X11846260Y02844094D03*
X11846260Y02841339D03*
X11846260Y02838583D03*
X11846260Y02835827D03*
X11846260Y02833071D03*
X11846260Y02830315D03*
X11846260Y02827559D03*
X11846260Y02824803D03*
X11846260Y02822047D03*
X11846260Y02819291D03*
X11846260Y02816535D03*
X11846260Y02813780D03*
X11846260Y02811024D03*
X11846260Y02808268D03*
X11846260Y02805512D03*
X11846260Y02802756D03*
X11846260Y02800000D03*
X11846260Y02797244D03*
X11846260Y02794488D03*
X11846260Y02791732D03*
X11846260Y02788976D03*
X11846260Y02786220D03*
X11846260Y02783465D03*
X11846260Y02780709D03*
X11846260Y02777953D03*
X11846260Y02775197D03*
X11846260Y02772441D03*
X11846260Y02769685D03*
X11846260Y02766929D03*
X11846260Y02764173D03*
X11846260Y02761417D03*
X11846260Y02758661D03*
X11846260Y02755906D03*
X11846260Y02753150D03*
X11846260Y02750394D03*
X11846260Y02747638D03*
X11846260Y02744882D03*
X11846260Y02742126D03*
X11846260Y02739370D03*
X11846260Y02736614D03*
X11846260Y02733858D03*
X11846260Y02731102D03*
X11554134Y02879921D03*
X11554134Y02882677D03*
X11554134Y02885433D03*
X11554134Y02888189D03*
X11554134Y02890945D03*
X11554134Y02893701D03*
X11554134Y02896457D03*
X11554134Y02899213D03*
X11554134Y02901969D03*
X11554134Y02904724D03*
X11554134Y02907480D03*
X11554134Y02910236D03*
X11554134Y02912992D03*
X11554134Y02915748D03*
X11554134Y02918504D03*
X11554134Y02921260D03*
D16*
X11993701Y02918504D03*
X11993701Y02915748D03*
X11993701Y02912992D03*
X11993701Y02910236D03*
X11993701Y02907480D03*
X11993701Y02904724D03*
X11993701Y02901969D03*
X11993701Y02899213D03*
X11993701Y02896457D03*
X11993701Y02893701D03*
X11993701Y02890945D03*
X11993701Y02888189D03*
X11993701Y02885433D03*
X11993701Y02882677D03*
X11993701Y02879921D03*
X11993701Y02877165D03*
X11993701Y02874409D03*
X11993701Y02631890D03*
X11993701Y02629134D03*
X11993701Y02626378D03*
X11993701Y02623622D03*
X11993701Y02620866D03*
X11993701Y02618110D03*
X11993701Y02615354D03*
X11993701Y02612598D03*
X11993701Y02609843D03*
X11993701Y02607087D03*
X11993701Y02604331D03*
X11993701Y02601575D03*
X11993701Y02598819D03*
X11993701Y02596063D03*
X11993701Y02593307D03*
X11993701Y02590551D03*
X11993701Y02587795D03*
X11993701Y02237795D03*
X11993701Y02235039D03*
X11993701Y02232283D03*
X11993701Y02229528D03*
X11993701Y02226772D03*
X11993701Y02224016D03*
X11993701Y02221260D03*
X11993701Y02218504D03*
X11993701Y02215748D03*
X11993701Y02212992D03*
X11993701Y02210236D03*
X11993701Y02207480D03*
X11993701Y02204724D03*
X11993701Y02201969D03*
X11993701Y02199213D03*
X11993701Y02196457D03*
X11993701Y02193701D03*
X11993701Y01951181D03*
X11993701Y01948425D03*
X11993701Y01945669D03*
X11993701Y01942913D03*
X11993701Y01940157D03*
X11993701Y01937402D03*
X11993701Y01934646D03*
X11993701Y01931890D03*
X11993701Y01929134D03*
X11993701Y01926378D03*
X11993701Y01923622D03*
X11993701Y01920866D03*
X11993701Y01918110D03*
X11993701Y01915354D03*
X11993701Y01912598D03*
X11993701Y01909843D03*
X11993701Y01907087D03*
D17*
X11527953Y01907087D03*
X11527953Y01909843D03*
X11384646Y02295669D03*
X11384646Y02298425D03*
X11384646Y02301181D03*
X11384646Y02303937D03*
X11384646Y02306693D03*
X11384646Y02309449D03*
X11384646Y02312205D03*
X11384646Y02314961D03*
X11384646Y02317717D03*
X11384646Y02320472D03*
X11384646Y02323228D03*
X11384646Y02325984D03*
X11384646Y02328740D03*
X11384646Y02331496D03*
X11384646Y02334252D03*
X11384646Y02337008D03*
X12065354Y02494094D03*
X12065354Y02532677D03*
D18*
X11844882Y02488583D03*
X12040551Y02386614D03*
X12040551Y02342520D03*
X11944094Y02342520D03*
X12137008Y02342520D03*
X12137008Y02386614D03*
X11698819Y02337008D03*
X11701575Y02292913D03*
X11651969Y02342520D03*
X11555512Y02342520D03*
X11552756Y02386614D03*
X11406693Y02436220D03*
X11505906Y02532677D03*
X11456299Y02634646D03*
X11456299Y02651181D03*
X11602362Y02824803D03*
X11555512Y02877165D03*
X11456299Y02871654D03*
X11456299Y02863386D03*
X11745669Y02681496D03*
X11359843Y02287402D03*
X11359843Y02284646D03*
X11359843Y02281890D03*
X11359843Y02279134D03*
X11359843Y02276378D03*
X11359843Y02273622D03*
X11359843Y02270866D03*
X11359843Y02268110D03*
X11359843Y02265354D03*
X11359843Y02262598D03*
X11359843Y02259843D03*
X11359843Y02257087D03*
X11359843Y02254331D03*
X11359843Y02251575D03*
X11359843Y02248819D03*
X11359843Y02246063D03*
X11406693Y02144094D03*
X11505906Y02144094D03*
X11505906Y02100000D03*
X11552756Y02094488D03*
X11359843Y01995276D03*
X11359843Y01909843D03*
X11651969Y02196457D03*
X11213780Y02246063D03*
D19*
X11358465Y02235039D03*
X11262008Y02444488D03*
X11262008Y02447244D03*
X11262008Y02450000D03*
X11262008Y02452756D03*
X11262008Y02455512D03*
X11262008Y02458268D03*
X11262008Y02461024D03*
X11262008Y02463780D03*
X11262008Y02466535D03*
X11262008Y02469291D03*
X11262008Y02472047D03*
X11262008Y02474803D03*
X11262008Y02477559D03*
X11262008Y02480315D03*
X11262008Y02483071D03*
X11262008Y02485827D03*
X11796654Y02433465D03*
X11796654Y02430709D03*
X11796654Y02427953D03*
X11796654Y02425197D03*
X11796654Y02422441D03*
X11796654Y02419685D03*
X11796654Y02416929D03*
X11796654Y02414173D03*
X11796654Y02411417D03*
X11796654Y02408661D03*
X11796654Y02405906D03*
X11796654Y02403150D03*
X11796654Y02400394D03*
X11796654Y02397638D03*
X11796654Y02394882D03*
X11554134Y01989764D03*
X11554134Y01987008D03*
X11554134Y01984252D03*
X11554134Y01981496D03*
X11554134Y01978740D03*
X11554134Y01975984D03*
X11554134Y01973228D03*
X11554134Y01970472D03*
X11554134Y01967717D03*
X11554134Y01964961D03*
X11554134Y01962205D03*
X11554134Y01959449D03*
X11554134Y01956693D03*
X11554134Y01953937D03*
X11554134Y01951181D03*
D20*
X11554134Y02050394D03*
X11408071Y02342520D03*
X12138386Y02345276D03*
X12138386Y02348031D03*
X12138386Y02350787D03*
X12138386Y02353543D03*
X12138386Y02356299D03*
X12138386Y02359055D03*
X12138386Y02361811D03*
X12138386Y02364567D03*
X12138386Y02367323D03*
X12138386Y02370079D03*
X12138386Y02372835D03*
X12138386Y02375591D03*
X12138386Y02378346D03*
X12138386Y02381102D03*
X12138386Y02383858D03*
X12138386Y02190945D03*
X12138386Y02188189D03*
X12138386Y02185433D03*
X12138386Y02182677D03*
X12138386Y02179921D03*
X12138386Y02177165D03*
X12138386Y02174409D03*
X12138386Y02171654D03*
X12138386Y02168898D03*
X12138386Y02166142D03*
X12138386Y02163386D03*
X12138386Y02160630D03*
X12138386Y02157874D03*
X12138386Y02155118D03*
X12138386Y02152362D03*
X12138386Y02149606D03*
X12138386Y02146850D03*
X12138386Y02144094D03*
X12138386Y02141339D03*
X12138386Y02138583D03*
X12138386Y02135827D03*
X12138386Y02133071D03*
X12138386Y02130315D03*
X12138386Y02127559D03*
X12138386Y02124803D03*
X12138386Y02122047D03*
X12138386Y02119291D03*
X12138386Y02116535D03*
X12138386Y02113780D03*
X12138386Y02111024D03*
X12138386Y02108268D03*
X12138386Y02105512D03*
X12138386Y02102756D03*
X12138386Y02100000D03*
X12138386Y02097244D03*
X12138386Y02094488D03*
X12138386Y02091732D03*
X12138386Y02088976D03*
X12138386Y02086220D03*
X12138386Y02083465D03*
X12138386Y02080709D03*
X12138386Y02077953D03*
X12138386Y02075197D03*
X12138386Y02072441D03*
X12138386Y02069685D03*
X12138386Y02066929D03*
X12138386Y02064173D03*
X12138386Y02061417D03*
X12138386Y02058661D03*
X12138386Y02055906D03*
X12138386Y02053150D03*
X12138386Y02050394D03*
X12138386Y02047638D03*
X12138386Y02044882D03*
X12138386Y02042126D03*
X12138386Y02039370D03*
X12138386Y02036614D03*
X12138386Y02033858D03*
X12138386Y02031102D03*
X12138386Y02028346D03*
X12138386Y02025591D03*
X12138386Y02022835D03*
X12138386Y02020079D03*
X12138386Y02017323D03*
X12138386Y02014567D03*
X12138386Y02011811D03*
X12138386Y02009055D03*
X12138386Y02006299D03*
X12138386Y02003543D03*
X12138386Y02000787D03*
X12138386Y01998031D03*
X12138386Y01995276D03*
X12138386Y01992520D03*
X12138386Y01989764D03*
X12138386Y01987008D03*
X12138386Y01984252D03*
X12138386Y01981496D03*
X12138386Y01978740D03*
X12138386Y01975984D03*
X12138386Y01973228D03*
X12138386Y01970472D03*
X12138386Y01967717D03*
X12138386Y01964961D03*
X12138386Y01962205D03*
X12138386Y01959449D03*
X12138386Y01956693D03*
X12138386Y01953937D03*
X12138386Y02634646D03*
X12138386Y02637402D03*
X12138386Y02640157D03*
X12138386Y02642913D03*
X12138386Y02645669D03*
X12138386Y02648425D03*
X12138386Y02651181D03*
X12138386Y02653937D03*
X12138386Y02656693D03*
X12138386Y02659449D03*
X12138386Y02662205D03*
X12138386Y02664961D03*
X12138386Y02667717D03*
X12138386Y02670472D03*
X12138386Y02673228D03*
X12138386Y02675984D03*
X12138386Y02678740D03*
X12138386Y02681496D03*
X12138386Y02684252D03*
X12138386Y02687008D03*
X12138386Y02689764D03*
X12138386Y02692520D03*
X12138386Y02695276D03*
X12138386Y02698031D03*
X12138386Y02700787D03*
X12138386Y02703543D03*
X12138386Y02706299D03*
X12138386Y02709055D03*
X12138386Y02711811D03*
X12138386Y02714567D03*
X12138386Y02717323D03*
X12138386Y02720079D03*
X12138386Y02722835D03*
X12138386Y02725591D03*
X12138386Y02728346D03*
X12138386Y02731102D03*
X12138386Y02733858D03*
X12138386Y02736614D03*
X12138386Y02739370D03*
X12138386Y02742126D03*
X12138386Y02744882D03*
X12138386Y02747638D03*
X12138386Y02750394D03*
X12138386Y02753150D03*
X12138386Y02755906D03*
X12138386Y02758661D03*
X12138386Y02761417D03*
X12138386Y02764173D03*
X12138386Y02766929D03*
X12138386Y02769685D03*
X12138386Y02772441D03*
X12138386Y02775197D03*
X12138386Y02777953D03*
X12138386Y02780709D03*
X12138386Y02783465D03*
X12138386Y02786220D03*
X12138386Y02788976D03*
X12138386Y02791732D03*
X12138386Y02794488D03*
X12138386Y02797244D03*
X12138386Y02800000D03*
X12138386Y02802756D03*
X12138386Y02805512D03*
X12138386Y02808268D03*
X12138386Y02811024D03*
X12138386Y02813780D03*
X12138386Y02816535D03*
X12138386Y02819291D03*
X12138386Y02822047D03*
X12138386Y02824803D03*
X12138386Y02827559D03*
X12138386Y02830315D03*
X12138386Y02833071D03*
X12138386Y02835827D03*
X12138386Y02838583D03*
X12138386Y02841339D03*
X12138386Y02844094D03*
X12138386Y02846850D03*
X12138386Y02849606D03*
X12138386Y02852362D03*
X12138386Y02855118D03*
X12138386Y02857874D03*
X12138386Y02860630D03*
X12138386Y02863386D03*
X12138386Y02866142D03*
X12138386Y02868898D03*
X12138386Y02871654D03*
D21*
X11798031Y02436220D03*
X11359843Y02240551D03*
X11359843Y02237795D03*
X11359843Y02232283D03*
X11359843Y02229528D03*
X11359843Y02226772D03*
X11359843Y02224016D03*
X11359843Y02221260D03*
X11359843Y02218504D03*
X11359843Y02215748D03*
X11359843Y02212992D03*
X11359843Y02210236D03*
X11359843Y02207480D03*
X11359843Y02204724D03*
X11359843Y02201969D03*
X11359843Y02199213D03*
X11359843Y02196457D03*
X11555512Y01998031D03*
X11552756Y01995276D03*
X11552756Y01992520D03*
X11263386Y02438976D03*
X11263386Y02441732D03*
D22*
X11213780Y02433465D03*
X11213780Y02430709D03*
X11213780Y02427953D03*
X11213780Y02425197D03*
X11213780Y02422441D03*
X11213780Y02419685D03*
X11213780Y02416929D03*
X11213780Y02414173D03*
X11213780Y02411417D03*
X11213780Y02408661D03*
X11213780Y02405906D03*
X11213780Y02403150D03*
X11213780Y02400394D03*
X11213780Y02397638D03*
X11213780Y02394882D03*
X11213780Y02392126D03*
X11310236Y02488583D03*
X11310236Y02491339D03*
X11310236Y02494094D03*
X11310236Y02496850D03*
X11310236Y02499606D03*
X11310236Y02502362D03*
X11310236Y02505118D03*
X11310236Y02507874D03*
X11310236Y02510630D03*
X11310236Y02513386D03*
X11310236Y02516142D03*
X11310236Y02518898D03*
X11310236Y02521654D03*
X11310236Y02524409D03*
X11310236Y02527165D03*
X11310236Y02532677D03*
X11310236Y02681496D03*
X11310236Y02824803D03*
X11698819Y02532677D03*
X11698819Y02529921D03*
X11698819Y02527165D03*
X11698819Y02524409D03*
X11698819Y02521654D03*
X11698819Y02518898D03*
X11698819Y02516142D03*
X11698819Y02513386D03*
X11698819Y02510630D03*
X11698819Y02507874D03*
X11698819Y02505118D03*
X11698819Y02502362D03*
X11698819Y02499606D03*
X11698819Y02496850D03*
X11698819Y02494094D03*
X11698819Y02491339D03*
X11748425Y02483071D03*
X11748425Y02480315D03*
X11748425Y02477559D03*
X11748425Y02474803D03*
X11748425Y02472047D03*
X11748425Y02469291D03*
X11748425Y02466535D03*
X11748425Y02463780D03*
X11748425Y02461024D03*
X11748425Y02458268D03*
X11748425Y02455512D03*
X11748425Y02452756D03*
X11748425Y02450000D03*
X11748425Y02447244D03*
X11748425Y02444488D03*
X11748425Y02441732D03*
X11552756Y02287402D03*
X11552756Y02284646D03*
X11552756Y02281890D03*
X11552756Y02279134D03*
X11552756Y02276378D03*
X11552756Y02273622D03*
X11552756Y02270866D03*
X11552756Y02268110D03*
X11552756Y02265354D03*
X11552756Y02262598D03*
X11552756Y02259843D03*
X11552756Y02257087D03*
X11552756Y02254331D03*
X11552756Y02251575D03*
X11552756Y02248819D03*
X11552756Y02047638D03*
X11552756Y02044882D03*
X11552756Y02042126D03*
X11552756Y02039370D03*
X11552756Y02036614D03*
X11552756Y02033858D03*
X11552756Y02031102D03*
X11552756Y02028346D03*
X11552756Y02025591D03*
X11552756Y02022835D03*
X11552756Y02020079D03*
X11552756Y02017323D03*
X11552756Y02014567D03*
X11552756Y02011811D03*
X11552756Y02009055D03*
X11552756Y02006299D03*
X11552756Y02003543D03*
X11213780Y02149606D03*
X11213780Y02152362D03*
X11213780Y02155118D03*
X11213780Y02157874D03*
X11213780Y02160630D03*
X11213780Y02163386D03*
X11213780Y02166142D03*
X11213780Y02168898D03*
X11213780Y02171654D03*
X11213780Y02174409D03*
X11213780Y02177165D03*
X11213780Y02179921D03*
X11213780Y02182677D03*
X11213780Y02185433D03*
X11213780Y02188189D03*
X11213780Y02190945D03*
X11990945Y02144094D03*
X11990945Y02133071D03*
X11990945Y02130315D03*
X11990945Y02127559D03*
X11990945Y02124803D03*
X11990945Y02122047D03*
X11990945Y02119291D03*
X11990945Y02116535D03*
X11990945Y02113780D03*
X11990945Y02111024D03*
X11990945Y02108268D03*
X11990945Y02105512D03*
X11990945Y02102756D03*
X11990945Y02100000D03*
X11990945Y02097244D03*
X11990945Y02094488D03*
X11990945Y02091732D03*
X11990945Y02088976D03*
X11990945Y02086220D03*
X11990945Y02083465D03*
X11990945Y02080709D03*
X11990945Y02077953D03*
X11990945Y02075197D03*
X11990945Y02072441D03*
X11990945Y02069685D03*
X11990945Y02066929D03*
X11990945Y02064173D03*
X11990945Y02061417D03*
X11990945Y02058661D03*
X11990945Y02055906D03*
X11990945Y02053150D03*
X11990945Y02050394D03*
X11990945Y02047638D03*
X11990945Y02044882D03*
X11990945Y02042126D03*
X11990945Y02039370D03*
X11990945Y02036614D03*
X11990945Y02033858D03*
X11990945Y02031102D03*
X11990945Y02028346D03*
X11990945Y02025591D03*
X11990945Y02022835D03*
X11990945Y02020079D03*
X11990945Y02017323D03*
X11990945Y02014567D03*
X11990945Y02011811D03*
X11990945Y02003543D03*
X11990945Y02000787D03*
X12087402Y02389370D03*
X11990945Y02684252D03*
X11990945Y02687008D03*
X11990945Y02689764D03*
X11990945Y02692520D03*
X11990945Y02695276D03*
X11990945Y02698031D03*
X11990945Y02700787D03*
X11990945Y02703543D03*
X11990945Y02706299D03*
X11990945Y02709055D03*
X11990945Y02711811D03*
X11990945Y02714567D03*
X11990945Y02717323D03*
X11990945Y02720079D03*
X11990945Y02722835D03*
X11990945Y02725591D03*
X11990945Y02728346D03*
X11990945Y02731102D03*
X11990945Y02733858D03*
X11990945Y02736614D03*
X11990945Y02739370D03*
X11990945Y02742126D03*
X11990945Y02744882D03*
X11990945Y02747638D03*
X11990945Y02750394D03*
X11990945Y02753150D03*
X11990945Y02755906D03*
X11990945Y02758661D03*
X11990945Y02761417D03*
X11990945Y02764173D03*
X11990945Y02766929D03*
X11990945Y02769685D03*
X11990945Y02772441D03*
X11990945Y02775197D03*
X11990945Y02777953D03*
X11990945Y02780709D03*
X11990945Y02783465D03*
X11990945Y02786220D03*
X11990945Y02788976D03*
X11990945Y02791732D03*
X11990945Y02794488D03*
X11990945Y02797244D03*
X11990945Y02800000D03*
X11990945Y02802756D03*
X11990945Y02805512D03*
X11990945Y02808268D03*
X11990945Y02811024D03*
X11990945Y02813780D03*
X11990945Y02816535D03*
X11990945Y02819291D03*
X11990945Y02822047D03*
X11990945Y02824803D03*
D23*
X11722244Y02824803D03*
X11722244Y02733858D03*
X11625787Y02830315D03*
X11625787Y02833071D03*
X11625787Y02835827D03*
X11625787Y02838583D03*
X11625787Y02841339D03*
X11625787Y02844094D03*
X11625787Y02846850D03*
X11625787Y02849606D03*
X11625787Y02852362D03*
X11625787Y02855118D03*
X11625787Y02857874D03*
X11625787Y02860630D03*
X11625787Y02863386D03*
X11625787Y02866142D03*
X11625787Y02868898D03*
X11625787Y02871654D03*
X11578937Y02582283D03*
X11771850Y02386614D03*
X11771850Y02381102D03*
X11771850Y02378346D03*
X11771850Y02375591D03*
X11771850Y02372835D03*
X11771850Y02370079D03*
X11771850Y02367323D03*
X11771850Y02364567D03*
X11771850Y02361811D03*
X11771850Y02359055D03*
X11771850Y02356299D03*
X11771850Y02353543D03*
X11771850Y02350787D03*
X11771850Y02348031D03*
X11771850Y02345276D03*
X11917913Y02438976D03*
X11917913Y02441732D03*
X11917913Y02447244D03*
X11917913Y02450000D03*
X11917913Y02452756D03*
X11917913Y02455512D03*
X11917913Y02458268D03*
X11917913Y02461024D03*
X11917913Y02463780D03*
X11917913Y02466535D03*
X11917913Y02469291D03*
X11917913Y02472047D03*
X11917913Y02474803D03*
X11917913Y02477559D03*
X11917913Y02480315D03*
X11917913Y02483071D03*
X12063976Y02433465D03*
X12063976Y02430709D03*
X12063976Y02427953D03*
X12063976Y02425197D03*
X12063976Y02422441D03*
X12063976Y02419685D03*
X12063976Y02416929D03*
X12063976Y02414173D03*
X12063976Y02411417D03*
X12063976Y02408661D03*
X12063976Y02405906D03*
X12063976Y02403150D03*
X12063976Y02400394D03*
X12063976Y02397638D03*
X12063976Y02394882D03*
X12063976Y02392126D03*
X12066732Y02436220D03*
X12110827Y02438976D03*
X12113583Y02441732D03*
X12113583Y02444488D03*
X12113583Y02447244D03*
X12113583Y02450000D03*
X12113583Y02452756D03*
X12113583Y02455512D03*
X12113583Y02458268D03*
X12113583Y02461024D03*
X12113583Y02463780D03*
X12113583Y02466535D03*
X12113583Y02469291D03*
X12113583Y02472047D03*
X12113583Y02474803D03*
X12113583Y02477559D03*
X12113583Y02480315D03*
X12113583Y02483071D03*
X11675394Y02193701D03*
X11675394Y02190945D03*
X11675394Y02188189D03*
X11675394Y02185433D03*
X11675394Y02182677D03*
X11675394Y02179921D03*
X11675394Y02177165D03*
X11675394Y02174409D03*
X11675394Y02171654D03*
X11675394Y02168898D03*
X11675394Y02166142D03*
X11675394Y02163386D03*
X11675394Y02160630D03*
X11675394Y02157874D03*
X11675394Y02155118D03*
X11675394Y02152362D03*
X11675394Y02149606D03*
X11675394Y02146850D03*
X11529331Y02146850D03*
X11529331Y02149606D03*
X11529331Y02152362D03*
X11529331Y02155118D03*
X11529331Y02157874D03*
X11529331Y02160630D03*
X11529331Y02163386D03*
X11529331Y02166142D03*
X11529331Y02168898D03*
X11529331Y02171654D03*
X11529331Y02174409D03*
X11529331Y02177165D03*
X11529331Y02179921D03*
X11529331Y02182677D03*
X11529331Y02185433D03*
X11529331Y02188189D03*
X11529331Y02190945D03*
X11383268Y02190945D03*
X11383268Y02188189D03*
X11383268Y02185433D03*
X11383268Y02182677D03*
X11383268Y02179921D03*
X11383268Y02177165D03*
X11383268Y02174409D03*
X11383268Y02171654D03*
X11383268Y02168898D03*
X11383268Y02166142D03*
X11383268Y02163386D03*
X11383268Y02160630D03*
X11383268Y02157874D03*
X11383268Y02155118D03*
X11383268Y02152362D03*
X11383268Y02149606D03*
X11722244Y02003543D03*
X11722244Y02000787D03*
D24*
X11554134Y02000787D03*
D25*
X11425984Y02047638D03*
X11387402Y02047638D03*
X11376378Y02000787D03*
X11340551Y02000787D03*
X11194488Y02047638D03*
X11183465Y02000787D03*
X11147638Y02000787D03*
X11183465Y02535433D03*
X11767717Y02827559D03*
D26*
X11650591Y02678740D03*
X11650591Y02675984D03*
X11650591Y02673228D03*
X11650591Y02670472D03*
X11650591Y02667717D03*
X11650591Y02664961D03*
X11650591Y02662205D03*
X11650591Y02659449D03*
X11650591Y02656693D03*
X11650591Y02653937D03*
X11650591Y02651181D03*
X11650591Y02648425D03*
X11650591Y02645669D03*
X11650591Y02642913D03*
X11650591Y02640157D03*
X11650591Y02637402D03*
X11650591Y02634646D03*
X11700197Y02488583D03*
X11749803Y02438976D03*
X11551378Y02290157D03*
X11554134Y02246063D03*
X11262008Y02144094D03*
X11262008Y02141339D03*
X11262008Y02138583D03*
X11262008Y02135827D03*
X11262008Y02133071D03*
X11262008Y02130315D03*
X11262008Y02127559D03*
X11262008Y02124803D03*
X11262008Y02122047D03*
X11262008Y02119291D03*
X11262008Y02116535D03*
X11262008Y02113780D03*
X11262008Y02111024D03*
X11262008Y02108268D03*
X11262008Y02105512D03*
X11262008Y02102756D03*
X11262008Y02100000D03*
X11262008Y02097244D03*
X11262008Y02094488D03*
X11262008Y02091732D03*
X11262008Y02088976D03*
X11262008Y02086220D03*
X11262008Y02083465D03*
X11262008Y02080709D03*
X11262008Y02077953D03*
X11262008Y02075197D03*
X11262008Y02072441D03*
X11262008Y02069685D03*
X11262008Y02066929D03*
X11262008Y02064173D03*
X11262008Y02061417D03*
X11262008Y02058661D03*
X11262008Y02055906D03*
X11262008Y02053150D03*
X11262008Y02050394D03*
X11215157Y02146850D03*
X11215157Y02436220D03*
X11311614Y02529921D03*
X11311614Y02684252D03*
X11311614Y02687008D03*
X11311614Y02689764D03*
X11311614Y02692520D03*
X11311614Y02695276D03*
X11311614Y02698031D03*
X11311614Y02700787D03*
X11311614Y02703543D03*
X11311614Y02706299D03*
X11311614Y02709055D03*
X11311614Y02711811D03*
X11311614Y02714567D03*
X11311614Y02717323D03*
X11311614Y02720079D03*
X11311614Y02722835D03*
X11311614Y02725591D03*
X11311614Y02728346D03*
X11311614Y02731102D03*
X11311614Y02733858D03*
X11311614Y02736614D03*
X11311614Y02739370D03*
X11311614Y02742126D03*
X11311614Y02744882D03*
X11311614Y02747638D03*
X11311614Y02750394D03*
X11311614Y02753150D03*
X11311614Y02755906D03*
X11311614Y02758661D03*
X11311614Y02761417D03*
X11311614Y02764173D03*
X11311614Y02766929D03*
X11311614Y02769685D03*
X11311614Y02772441D03*
X11311614Y02775197D03*
X11311614Y02777953D03*
X11311614Y02780709D03*
X11311614Y02783465D03*
X11311614Y02786220D03*
X11311614Y02788976D03*
X11311614Y02791732D03*
X11311614Y02794488D03*
X11311614Y02797244D03*
X11311614Y02800000D03*
X11311614Y02802756D03*
X11311614Y02805512D03*
X11311614Y02808268D03*
X11311614Y02811024D03*
X11311614Y02813780D03*
X11311614Y02816535D03*
X11311614Y02819291D03*
X11311614Y02822047D03*
X11989567Y02141339D03*
X11989567Y02138583D03*
X11989567Y02135827D03*
X11989567Y02009055D03*
X11989567Y02006299D03*
D27*
X11723622Y02006299D03*
X11723622Y02009055D03*
X11723622Y02011811D03*
X11723622Y02014567D03*
X11723622Y02017323D03*
X11723622Y02020079D03*
X11723622Y02022835D03*
X11723622Y02025591D03*
X11723622Y02028346D03*
X11723622Y02031102D03*
X11723622Y02033858D03*
X11723622Y02036614D03*
X11723622Y02039370D03*
X11723622Y02042126D03*
X11723622Y02044882D03*
X11723622Y02047638D03*
X11188976Y02339764D03*
X11577559Y02538189D03*
X11577559Y02540945D03*
X11577559Y02543701D03*
X11577559Y02546457D03*
X11577559Y02549213D03*
X11577559Y02551969D03*
X11577559Y02554724D03*
X11577559Y02557480D03*
X11577559Y02560236D03*
X11577559Y02562992D03*
X11577559Y02565748D03*
X11577559Y02568504D03*
X11577559Y02571260D03*
X11577559Y02574016D03*
X11577559Y02576772D03*
X11577559Y02579528D03*
X11577559Y02684252D03*
X11577559Y02687008D03*
X11577559Y02689764D03*
X11577559Y02692520D03*
X11577559Y02695276D03*
X11577559Y02698031D03*
X11577559Y02700787D03*
X11577559Y02703543D03*
X11577559Y02706299D03*
X11577559Y02709055D03*
X11577559Y02711811D03*
X11577559Y02714567D03*
X11577559Y02717323D03*
X11577559Y02720079D03*
X11577559Y02722835D03*
X11577559Y02725591D03*
X11577559Y02728346D03*
X11577559Y02731102D03*
X11577559Y02733858D03*
X11577559Y02736614D03*
X11577559Y02739370D03*
X11577559Y02742126D03*
X11577559Y02744882D03*
X11577559Y02747638D03*
X11577559Y02750394D03*
X11577559Y02753150D03*
X11577559Y02755906D03*
X11577559Y02758661D03*
X11577559Y02761417D03*
X11577559Y02764173D03*
X11577559Y02766929D03*
X11577559Y02769685D03*
X11577559Y02772441D03*
X11577559Y02775197D03*
X11577559Y02777953D03*
X11723622Y02777953D03*
X11723622Y02780709D03*
X11723622Y02783465D03*
X11723622Y02786220D03*
X11723622Y02788976D03*
X11723622Y02791732D03*
X11723622Y02794488D03*
X11723622Y02797244D03*
X11723622Y02800000D03*
X11723622Y02802756D03*
X11723622Y02805512D03*
X11723622Y02808268D03*
X11723622Y02811024D03*
X11723622Y02813780D03*
X11723622Y02816535D03*
X11723622Y02819291D03*
X11723622Y02822047D03*
X11723622Y02775197D03*
X11723622Y02772441D03*
X11723622Y02769685D03*
X11723622Y02766929D03*
X11723622Y02764173D03*
X11723622Y02761417D03*
X11723622Y02758661D03*
X11723622Y02755906D03*
X11723622Y02753150D03*
X11723622Y02750394D03*
X11723622Y02747638D03*
X11723622Y02744882D03*
X11723622Y02742126D03*
X11723622Y02739370D03*
X11723622Y02736614D03*
X11723622Y02731102D03*
X11919291Y02444488D03*
X11773228Y02383858D03*
D28*
X11529331Y02389370D03*
X11529331Y02097244D03*
D29*
X11381890Y02146850D03*
X11773228Y02342520D03*
X11577559Y02535433D03*
X11580315Y02681496D03*
D30*
X11359843Y02193701D03*
D31*
X11990945Y02243307D03*
X11310236Y02585039D03*
X11310236Y02924016D03*
X11990945Y02924016D03*
D32*
X11431496Y02243307D03*
D33*
X11432874Y02290157D03*
D34*
X11359843Y02290157D03*
D35*
X11967520Y02292913D03*
X11967520Y02295669D03*
X11967520Y02298425D03*
X11967520Y02301181D03*
X11967520Y02303937D03*
X11967520Y02306693D03*
X11967520Y02309449D03*
X11967520Y02312205D03*
X11967520Y02314961D03*
X11967520Y02317717D03*
X11967520Y02320472D03*
X11967520Y02323228D03*
X11967520Y02325984D03*
X11967520Y02328740D03*
X11967520Y02331496D03*
X11967520Y02334252D03*
X11967520Y02337008D03*
D36*
X12063976Y02488583D03*
X12063976Y02491339D03*
X12063976Y02496850D03*
X12063976Y02499606D03*
X12063976Y02502362D03*
X12063976Y02505118D03*
X12063976Y02507874D03*
X12063976Y02510630D03*
X12063976Y02513386D03*
X12063976Y02516142D03*
X12063976Y02518898D03*
X12063976Y02521654D03*
X12063976Y02524409D03*
X12063976Y02527165D03*
X11386024Y02292913D03*
D37*
X11846260Y02339764D03*
D38*
X11796654Y02389370D03*
D39*
X11796654Y02392126D03*
D40*
X11895866Y02485827D03*
D41*
X12065354Y02529921D03*
D42*
X11844882Y02535433D03*
D43*
X11503150Y02535433D03*
D44*
X11651969Y02631890D03*
D45*
X11992323Y02681496D03*
X11603740Y02874409D03*
X11311614Y02827559D03*
D46*
X11628543Y02827559D03*
D47*
X09847862Y01821184D02*
X09793260Y01821184D01*
X09775060Y01802983D01*
X09775060Y01784783D01*
X09793260Y01766582D01*
X09847862Y01766582D01*
X09793260Y01766582D02*
X09775060Y01748381D01*
X09775060Y01730181D01*
X09793260Y01711980D01*
X09847862Y01711980D01*
X09847862Y01821184D01*
X09739108Y01821184D02*
X09739108Y01748381D01*
X09702707Y01711980D01*
X09666306Y01748381D01*
X09666306Y01821184D01*
X09630354Y01821184D02*
X09630354Y01711980D01*
X09630354Y01748381D02*
X09557551Y01821184D01*
X09521599Y01802983D02*
X09503399Y01821184D01*
X09466998Y01821184D01*
X09448797Y01802983D01*
X09466998Y01766582D02*
X09448797Y01748381D01*
X09448797Y01730181D01*
X09466998Y01711980D01*
X09503399Y01711980D01*
X09521599Y01730181D01*
X09557551Y01711980D02*
X09612153Y01766582D01*
X09521599Y01784783D02*
X09503399Y01766582D01*
X09466998Y01766582D01*
X09412845Y01766582D02*
X09412845Y01730181D01*
X09394644Y01711980D01*
X09358243Y01711980D01*
X09340043Y01730181D01*
X09340043Y01766582D01*
X09358243Y01784783D01*
X09394644Y01784783D01*
X09412845Y01766582D01*
X09304091Y01784783D02*
X09304091Y01730181D01*
X09285890Y01711980D01*
X09231288Y01711980D01*
X09231288Y01784783D01*
X09195336Y01784783D02*
X09195336Y01711980D01*
X09122534Y01711980D02*
X09122534Y01766582D01*
X09140735Y01784783D01*
X09195336Y01784783D01*
X09086582Y01766582D02*
X09068382Y01784783D01*
X09013780Y01784783D01*
X09013780Y01821184D02*
X09013780Y01711980D01*
X09068382Y01711980D01*
X09086582Y01730181D01*
X09086582Y01766582D01*
X09086582Y01644018D02*
X09068382Y01644018D01*
X09068382Y01534815D01*
X09086582Y01534815D02*
X09050181Y01534815D01*
X09014079Y01553016D02*
X08995879Y01534815D01*
X08941277Y01534815D01*
X08941277Y01516614D02*
X08959477Y01498414D01*
X08977678Y01498414D01*
X08959627Y01466853D02*
X08977828Y01448653D01*
X08959627Y01466853D02*
X08923226Y01466853D01*
X08905025Y01448653D01*
X08905025Y01430452D01*
X08977828Y01357650D01*
X08905025Y01357650D01*
X08869073Y01375850D02*
X08796271Y01448653D01*
X08796271Y01375850D01*
X08814472Y01357650D01*
X08850873Y01357650D01*
X08869073Y01375850D01*
X08869073Y01448653D01*
X08850873Y01466853D01*
X08814472Y01466853D01*
X08796271Y01448653D01*
X08778370Y01534815D02*
X08796571Y01553016D01*
X08796571Y01589417D01*
X08778370Y01607617D01*
X08741969Y01607617D01*
X08723768Y01589417D01*
X08723768Y01571216D01*
X08796571Y01571216D01*
X08778370Y01534815D02*
X08741969Y01534815D01*
X08687816Y01534815D02*
X08687816Y01607617D01*
X08651415Y01607617D02*
X08633215Y01607617D01*
X08651415Y01607617D02*
X08687816Y01571216D01*
X08832523Y01534815D02*
X08905325Y01534815D01*
X08832523Y01607617D01*
X08905325Y01607617D01*
X08941277Y01607617D02*
X08941277Y01516614D01*
X09014079Y01553016D02*
X09014079Y01607617D01*
X09122534Y01589417D02*
X09122534Y01534815D01*
X09177136Y01534815D01*
X09195336Y01553016D01*
X09177136Y01571216D01*
X09122534Y01571216D01*
X09122534Y01589417D02*
X09140735Y01607617D01*
X09177136Y01607617D01*
X09231288Y01589417D02*
X09231288Y01534815D01*
X09231288Y01589417D02*
X09249489Y01607617D01*
X09304091Y01607617D01*
X09304091Y01534815D01*
X09340043Y01534815D02*
X09340043Y01607617D01*
X09376444Y01644018D01*
X09412845Y01607617D01*
X09412845Y01534815D01*
X09412845Y01589417D02*
X09340043Y01589417D01*
X09557551Y01534815D02*
X09630354Y01534815D01*
X09630354Y01644018D01*
X09666306Y01625818D02*
X09666306Y01589417D01*
X09684506Y01571216D01*
X09739108Y01571216D01*
X09739108Y01534815D02*
X09739108Y01644018D01*
X09684506Y01644018D01*
X09666306Y01625818D01*
X09775060Y01644018D02*
X09775060Y01553016D01*
X09793260Y01534815D01*
X09829662Y01534815D01*
X09847862Y01553016D01*
X09847862Y01644018D01*
X09829662Y01466853D02*
X09847862Y01448653D01*
X09829662Y01466853D02*
X09793260Y01466853D01*
X09775060Y01448653D01*
X09775060Y01430452D01*
X09847862Y01357650D01*
X09775060Y01357650D01*
X09739108Y01375850D02*
X09666306Y01448653D01*
X09666306Y01375850D01*
X09684506Y01357650D01*
X09720907Y01357650D01*
X09739108Y01375850D01*
X09739108Y01448653D01*
X09720907Y01466853D01*
X09684506Y01466853D01*
X09666306Y01448653D01*
X09630354Y01357650D02*
X09557551Y01466853D01*
X09521599Y01448653D02*
X09503399Y01466853D01*
X09466998Y01466853D01*
X09448797Y01448653D01*
X09521599Y01375850D01*
X09503399Y01357650D01*
X09466998Y01357650D01*
X09448797Y01375850D01*
X09448797Y01448653D01*
X09412845Y01412251D02*
X09358243Y01466853D01*
X09358243Y01357650D01*
X09304091Y01357650D02*
X09231288Y01466853D01*
X09195336Y01448653D02*
X09177136Y01466853D01*
X09140735Y01466853D01*
X09122534Y01448653D01*
X09122534Y01430452D01*
X09195336Y01357650D01*
X09122534Y01357650D01*
X09086582Y01375850D02*
X09013780Y01448653D01*
X09013780Y01375850D01*
X09031980Y01357650D01*
X09068382Y01357650D01*
X09086582Y01375850D01*
X09086582Y01448653D01*
X09068382Y01466853D01*
X09031980Y01466853D01*
X09013780Y01448653D01*
X09340043Y01412251D02*
X09412845Y01412251D01*
X09521599Y01375850D02*
X09521599Y01448653D01*
X09521599Y01784783D02*
X09521599Y01802983D01*
D48*
X09401614Y04921457D02*
X09386614Y04941457D01*
X09366614Y04941457D01*
X09306614Y04941457D01*
X09306614Y04961457D01*
X09306614Y04971457D01*
X09366614Y04971457D01*
X09806614Y04971457D01*
X09806614Y04961457D01*
X09806614Y04921457D01*
X09966614Y04921457D01*
X10271614Y04921457D01*
X10286614Y04941457D01*
X10306614Y04941457D01*
X10366614Y04941457D01*
X10386614Y04941457D01*
X10401614Y04921457D01*
X10456614Y04921457D01*
X10456614Y04926457D01*
X10516614Y04926457D01*
X10516614Y04921457D01*
X10686614Y04921457D01*
X10686614Y05271457D01*
X10636614Y05271457D01*
X10636614Y05281457D01*
X10586614Y05281457D01*
X10586614Y05271457D01*
X09911614Y05271457D01*
X09911614Y05281457D01*
X09861614Y05281457D01*
X09861614Y05271457D01*
X09186614Y05271457D01*
X09186614Y05281457D01*
X09136614Y05281457D01*
X09136614Y05271457D01*
X09086614Y05271457D01*
X09086614Y04921457D01*
X09271614Y04921457D01*
X09286614Y04941457D01*
X09306614Y04941457D01*
X09306614Y04971457D02*
X09136614Y04971457D01*
X09136614Y05221457D01*
X10636614Y05221457D01*
X10636614Y04971457D01*
X10366614Y04971457D01*
X10306614Y04971457D01*
X10306614Y04961457D01*
X10306614Y04941457D01*
X10306614Y04971457D02*
X09966614Y04971457D01*
X09966614Y04961457D01*
X09966614Y04921457D01*
X09966614Y04971457D02*
X09966614Y05001457D01*
X09806614Y05001457D01*
X09806614Y04971457D01*
X09806614Y04921457D02*
X09401614Y04921457D01*
X09366614Y04941457D02*
X09366614Y04961457D01*
X09366614Y04971457D01*
X10366614Y04971457D02*
X10366614Y04961457D01*
X10366614Y04941457D01*
D49*
X10366614Y04961457D02*
X10646614Y04961457D01*
X10646614Y05231457D01*
X09126614Y05231457D01*
X09126614Y04961457D01*
X09306614Y04961457D01*
X09366614Y04961457D02*
X09806614Y04961457D01*
X09966614Y04961457D02*
X10306614Y04961457D01*
D50*
X10554089Y05023957D02*
X10584114Y05023957D01*
X10569101Y05023957D02*
X10569101Y05068995D01*
X10584114Y05053982D01*
X10584114Y05123957D02*
X10554089Y05153982D01*
X10554089Y05161489D01*
X10561595Y05168995D01*
X10576608Y05168995D01*
X10584114Y05161489D01*
X10584114Y05123957D02*
X10554089Y05123957D01*
X09924114Y04976489D02*
X09916608Y04983995D01*
X09901595Y04983995D01*
X09894089Y04976489D01*
X09894089Y04968982D01*
X09924114Y04938957D01*
X09894089Y04938957D01*
X09878075Y04946463D02*
X09870569Y04938957D01*
X09855556Y04938957D01*
X09848049Y04946463D01*
X09848049Y04953969D01*
X09855556Y04961476D01*
X09878075Y04961476D01*
X09878075Y04946463D01*
X09878075Y04961476D02*
X09863062Y04976489D01*
X09848049Y04983995D01*
M02*
