M48
; DRILL file {KiCad (5.1.8)-1} date 02/13/21 15:24:25
; FORMAT={-:-/ absolute / inch / decimal}
; #@! TF.CreationDate,2021-02-13T15:24:25+01:00
; #@! TF.GenerationSoftware,Kicad,Pcbnew,(5.1.8)-1
FMAT,2
INCH
T1C0.0157
T2C0.0394
%
G90
G05
T1
X2.4461Y-8.6094
X3.2358Y-8.6102
X4.022Y-8.6102
X6.3866Y-8.6106
X7.1043Y-8.3563
X7.1744Y-8.6083
X7.2362Y-8.3555
X7.8925Y-8.3024
X7.8925Y-8.3579
X7.9598Y-8.6091
X8.0169Y-8.3559
X8.0173Y-8.3024
X8.7799Y-6.8079
X8.7807Y-7.9909
X8.8606Y-6.0992
X8.9394Y-7.9898
X8.9409Y-6.8063
X9.0201Y-7.9894
X9.1193Y-8.2657
X9.1197Y-7.989
X9.2114Y-7.9909
X9.222Y-4.426
X9.2957Y-6.9913
X9.2961Y-7.7189
X9.2976Y-7.5181
X9.3587Y-3.8264
X9.3591Y-6.9917
X9.3591Y-7.5193
X9.3598Y-7.7197
X9.4205Y-3.7417
X9.5976Y-3.3059
X9.6512Y-3.5906
X9.6512Y-4.3484
X9.6512Y-4.6925
X9.6512Y-5.3622
X9.6512Y-6.0307
X9.6512Y-6.7004
X9.8354Y-3.7421
X9.9173Y-3.5252
X9.9846Y-3.7429
X10.0437Y-3.6917
X10.0437Y-6.1843
X10.0437Y-6.3008
X10.163Y-6.7008
X10.1638Y-6.0311
X10.165Y-3.5898
X10.165Y-4.6921
X10.165Y-5.3618
X10.5512Y-6.2992
X10.552Y-4.1854
X10.552Y-6.1799
X10.6776Y-5.3622
X10.6776Y-6.0311
X10.678Y-3.5909
X10.678Y-4.239
X10.678Y-4.6917
X10.6819Y-6.7012
X11.0398Y-3.2772
X11.0406Y-4.1457
X11.135Y-6.3004
X11.1358Y-3.6524
X11.1358Y-6.176
X11.1992Y-3.3343
X11.2Y-3.7
X11.2677Y-4.6925
X11.2677Y-5.3618
X11.2677Y-6.0315
X11.2717Y-6.6957
X11.3138Y-3.5909
X11.3602Y-3.6539
X11.3626Y-3.7441
X11.6157Y-4.0602
X11.6165Y-4.1457
X11.6169Y-3.6531
X11.6441Y-6.8059
X11.7161Y-3.352
X11.7886Y-4.3492
X11.7886Y-4.7598
X11.789Y-5.5323
X11.8138Y-6.8059
X11.8406Y-4.2992
X11.8409Y-4.2409
X11.9142Y-4.3972
X11.9165Y-3.5913
X12.0165Y-4.2421
X12.0528Y-5.678
X12.0531Y-5.1646
X12.0531Y-6.2283
X12.0535Y-4.613
X12.1157Y-4.3484
X12.1768Y-4.1744
X12.2157Y-3.4453
X12.2189Y-4.2992
X12.2697Y-4.1193
X12.2866Y-6.0839
X12.2961Y-6.3492
X12.3177Y-4.9496
X12.3189Y-5.0839
X12.3614Y-6.5476
X12.3622Y-6.6476
X12.4165Y-3.5382
X12.4173Y-3.6614
X12.4197Y-6.3492
X12.4508Y-4.1185
X12.5142Y-3.6614
X12.515Y-3.5362
X12.7197Y-6.2276
X12.8457Y-6.0831
X13.1035Y-4.1744
X13.1937Y-3.7976
X13.2154Y-4.1197
X13.2417Y-3.4441
X13.2433Y-3.798
X13.2972Y-3.6614
X13.2976Y-3.7988
X13.6697Y-6.4646
X13.7441Y-3.4445
T2
X11.4157Y-3.8248
X11.4157Y-3.9248
X11.5157Y-3.8248
X11.5157Y-3.9248
X11.6157Y-3.8248
X11.6157Y-3.9248
X11.7157Y-3.8248
X11.7157Y-3.9248
X11.8157Y-3.8248
X11.8157Y-3.9248
X11.9157Y-3.8248
X11.9157Y-3.9248
X12.0157Y-3.8248
X12.0157Y-3.9248
X12.1157Y-3.8248
X12.1157Y-3.9248
X12.2157Y-3.8248
X12.2157Y-3.9248
X12.3157Y-3.8248
X12.3157Y-3.9248
X12.4157Y-3.8248
X12.4157Y-3.9248
X12.5157Y-3.8248
X12.5157Y-3.9248
X12.6157Y-3.8248
X12.6157Y-3.9248
T0
M30
