%TF.GenerationSoftware,KiCad,Pcbnew,(5.1.8)-1*%
%TF.CreationDate,2021-02-13T16:04:11+01:00*%
%TF.ProjectId,UPL_Keyboard,55504c5f-4b65-4796-926f-6172642e6b69,2*%
%TF.SameCoordinates,Original*%
%TF.FileFunction,Legend,Top*%
%TF.FilePolarity,Positive*%
%FSLAX46Y46*%
G04 Gerber Fmt 4.6, Leading zero omitted, Abs format (unit mm)*
G04 Created by KiCad (PCBNEW (5.1.8)-1) date 2021-02-13 16:04:11*
%MOMM*%
%LPD*%
G01*
G04 APERTURE LIST*
%ADD10C,0.300000*%
%ADD11C,0.120000*%
%ADD12C,0.100000*%
%ADD13C,0.150000*%
G04 APERTURE END LIST*
D10*
X290160000Y-176917142D02*
X290160000Y-179345714D01*
X290302857Y-179631428D01*
X290445714Y-179774285D01*
X290731428Y-179917142D01*
X291302857Y-179917142D01*
X291588571Y-179774285D01*
X291731428Y-179631428D01*
X291874285Y-179345714D01*
X291874285Y-176917142D01*
X293302857Y-179917142D02*
X293302857Y-176917142D01*
X294445714Y-176917142D01*
X294731428Y-177060000D01*
X294874285Y-177202857D01*
X295017142Y-177488571D01*
X295017142Y-177917142D01*
X294874285Y-178202857D01*
X294731428Y-178345714D01*
X294445714Y-178488571D01*
X293302857Y-178488571D01*
X297731428Y-179917142D02*
X296302857Y-179917142D01*
X296302857Y-176917142D01*
X300874285Y-179060000D02*
X302302857Y-179060000D01*
X300588571Y-179917142D02*
X301588571Y-176917142D01*
X302588571Y-179917142D01*
X303588571Y-177917142D02*
X303588571Y-179917142D01*
X303588571Y-178202857D02*
X303731428Y-178060000D01*
X304017142Y-177917142D01*
X304445714Y-177917142D01*
X304731428Y-178060000D01*
X304874285Y-178345714D01*
X304874285Y-179917142D01*
X307588571Y-179917142D02*
X307588571Y-178345714D01*
X307445714Y-178060000D01*
X307160000Y-177917142D01*
X306588571Y-177917142D01*
X306302857Y-178060000D01*
X307588571Y-179774285D02*
X307302857Y-179917142D01*
X306588571Y-179917142D01*
X306302857Y-179774285D01*
X306160000Y-179488571D01*
X306160000Y-179202857D01*
X306302857Y-178917142D01*
X306588571Y-178774285D01*
X307302857Y-178774285D01*
X307588571Y-178631428D01*
X309445714Y-179917142D02*
X309160000Y-179774285D01*
X309017142Y-179488571D01*
X309017142Y-176917142D01*
X310302857Y-177917142D02*
X311017142Y-179917142D01*
X311731428Y-177917142D02*
X311017142Y-179917142D01*
X310731428Y-180631428D01*
X310588571Y-180774285D01*
X310302857Y-180917142D01*
X312588571Y-177917142D02*
X314160000Y-177917142D01*
X312588571Y-179917142D01*
X314160000Y-179917142D01*
X316445714Y-179774285D02*
X316160000Y-179917142D01*
X315588571Y-179917142D01*
X315302857Y-179774285D01*
X315160000Y-179488571D01*
X315160000Y-178345714D01*
X315302857Y-178060000D01*
X315588571Y-177917142D01*
X316160000Y-177917142D01*
X316445714Y-178060000D01*
X316588571Y-178345714D01*
X316588571Y-178631428D01*
X315160000Y-178917142D01*
X317874285Y-179917142D02*
X317874285Y-177917142D01*
X317874285Y-178488571D02*
X318017142Y-178202857D01*
X318160000Y-178060000D01*
X318445714Y-177917142D01*
X318731428Y-177917142D01*
X322017142Y-179917142D02*
X322017142Y-176917142D01*
X323731428Y-179917142D02*
X322445714Y-178202857D01*
X323731428Y-176917142D02*
X322017142Y-178631428D01*
X326160000Y-179774285D02*
X325874285Y-179917142D01*
X325302857Y-179917142D01*
X325017142Y-179774285D01*
X324874285Y-179488571D01*
X324874285Y-178345714D01*
X325017142Y-178060000D01*
X325302857Y-177917142D01*
X325874285Y-177917142D01*
X326160000Y-178060000D01*
X326302857Y-178345714D01*
X326302857Y-178631428D01*
X324874285Y-178917142D01*
X327302857Y-177917142D02*
X328017142Y-179917142D01*
X328731428Y-177917142D02*
X328017142Y-179917142D01*
X327731428Y-180631428D01*
X327588571Y-180774285D01*
X327302857Y-180917142D01*
X329874285Y-179917142D02*
X329874285Y-176917142D01*
X329874285Y-178060000D02*
X330160000Y-177917142D01*
X330731428Y-177917142D01*
X331017142Y-178060000D01*
X331160000Y-178202857D01*
X331302857Y-178488571D01*
X331302857Y-179345714D01*
X331160000Y-179631428D01*
X331017142Y-179774285D01*
X330731428Y-179917142D01*
X330160000Y-179917142D01*
X329874285Y-179774285D01*
X333017142Y-179917142D02*
X332731428Y-179774285D01*
X332588571Y-179631428D01*
X332445714Y-179345714D01*
X332445714Y-178488571D01*
X332588571Y-178202857D01*
X332731428Y-178060000D01*
X333017142Y-177917142D01*
X333445714Y-177917142D01*
X333731428Y-178060000D01*
X333874285Y-178202857D01*
X334017142Y-178488571D01*
X334017142Y-179345714D01*
X333874285Y-179631428D01*
X333731428Y-179774285D01*
X333445714Y-179917142D01*
X333017142Y-179917142D01*
X336588571Y-179917142D02*
X336588571Y-178345714D01*
X336445714Y-178060000D01*
X336160000Y-177917142D01*
X335588571Y-177917142D01*
X335302857Y-178060000D01*
X336588571Y-179774285D02*
X336302857Y-179917142D01*
X335588571Y-179917142D01*
X335302857Y-179774285D01*
X335160000Y-179488571D01*
X335160000Y-179202857D01*
X335302857Y-178917142D01*
X335588571Y-178774285D01*
X336302857Y-178774285D01*
X336588571Y-178631428D01*
X338017142Y-179917142D02*
X338017142Y-177917142D01*
X338017142Y-178488571D02*
X338160000Y-178202857D01*
X338302857Y-178060000D01*
X338588571Y-177917142D01*
X338874285Y-177917142D01*
X341160000Y-179917142D02*
X341160000Y-176917142D01*
X341160000Y-179774285D02*
X340874285Y-179917142D01*
X340302857Y-179917142D01*
X340017142Y-179774285D01*
X339874285Y-179631428D01*
X339731428Y-179345714D01*
X339731428Y-178488571D01*
X339874285Y-178202857D01*
X340017142Y-178060000D01*
X340302857Y-177917142D01*
X340874285Y-177917142D01*
X341160000Y-178060000D01*
X346588571Y-179917142D02*
X345588571Y-178488571D01*
X344874285Y-179917142D02*
X344874285Y-176917142D01*
X346017142Y-176917142D01*
X346302857Y-177060000D01*
X346445714Y-177202857D01*
X346588571Y-177488571D01*
X346588571Y-177917142D01*
X346445714Y-178202857D01*
X346302857Y-178345714D01*
X346017142Y-178488571D01*
X344874285Y-178488571D01*
X349017142Y-179774285D02*
X348731428Y-179917142D01*
X348160000Y-179917142D01*
X347874285Y-179774285D01*
X347731428Y-179488571D01*
X347731428Y-178345714D01*
X347874285Y-178060000D01*
X348160000Y-177917142D01*
X348731428Y-177917142D01*
X349017142Y-178060000D01*
X349160000Y-178345714D01*
X349160000Y-178631428D01*
X347731428Y-178917142D01*
X350160000Y-177917142D02*
X350874285Y-179917142D01*
X351588571Y-177917142D01*
X352588571Y-177202857D02*
X352731428Y-177060000D01*
X353017142Y-176917142D01*
X353731428Y-176917142D01*
X354017142Y-177060000D01*
X354160000Y-177202857D01*
X354302857Y-177488571D01*
X354302857Y-177774285D01*
X354160000Y-178202857D01*
X352445714Y-179917142D01*
X354302857Y-179917142D01*
D11*
%TO.C,LED_START1*%
X246810000Y-79215000D02*
X242925000Y-79215000D01*
X242925000Y-79215000D02*
X242925000Y-81485000D01*
X242925000Y-81485000D02*
X246810000Y-81485000D01*
%TO.C,LED_SINGLE1*%
X259800000Y-79205000D02*
X255915000Y-79205000D01*
X255915000Y-79205000D02*
X255915000Y-81475000D01*
X255915000Y-81475000D02*
X259800000Y-81475000D01*
%TO.C,LED_REMOTE1*%
X347700000Y-79215000D02*
X343815000Y-79215000D01*
X343815000Y-79215000D02*
X343815000Y-81485000D01*
X343815000Y-81485000D02*
X347700000Y-81485000D01*
%TO.C,LED_OUTPUT1*%
X334750000Y-79205000D02*
X330865000Y-79205000D01*
X330865000Y-79205000D02*
X330865000Y-81475000D01*
X330865000Y-81475000D02*
X334750000Y-81475000D01*
%TO.C,LED_GEN_OVRLD1*%
X249720000Y-209215000D02*
X245835000Y-209215000D01*
X245835000Y-209215000D02*
X245835000Y-211485000D01*
X245835000Y-211485000D02*
X249720000Y-211485000D01*
%TO.C,LED_DATA1*%
X246790000Y-101215000D02*
X242905000Y-101215000D01*
X242905000Y-101215000D02*
X242905000Y-103485000D01*
X242905000Y-103485000D02*
X246790000Y-103485000D01*
%TO.C,SW40*%
D12*
X181951379Y-220345767D02*
X181737679Y-220345767D01*
X181737679Y-220681581D02*
X181737679Y-220040480D01*
X182042965Y-220040480D01*
X182226137Y-220040480D02*
X182653537Y-220040480D01*
X182378780Y-220681581D01*
%TO.C,SW41*%
X201951379Y-220365767D02*
X201737679Y-220365767D01*
X201737679Y-220701581D02*
X201737679Y-220060480D01*
X202042965Y-220060480D01*
X202378780Y-220335238D02*
X202317723Y-220304709D01*
X202287194Y-220274181D01*
X202256665Y-220213123D01*
X202256665Y-220182595D01*
X202287194Y-220121538D01*
X202317723Y-220091009D01*
X202378780Y-220060480D01*
X202500894Y-220060480D01*
X202561952Y-220091009D01*
X202592480Y-220121538D01*
X202623009Y-220182595D01*
X202623009Y-220213123D01*
X202592480Y-220274181D01*
X202561952Y-220304709D01*
X202500894Y-220335238D01*
X202378780Y-220335238D01*
X202317723Y-220365767D01*
X202287194Y-220396295D01*
X202256665Y-220457352D01*
X202256665Y-220579467D01*
X202287194Y-220640524D01*
X202317723Y-220671053D01*
X202378780Y-220701581D01*
X202500894Y-220701581D01*
X202561952Y-220671053D01*
X202592480Y-220640524D01*
X202623009Y-220579467D01*
X202623009Y-220457352D01*
X202592480Y-220396295D01*
X202561952Y-220365767D01*
X202500894Y-220335238D01*
%TO.C,SW39*%
X161971379Y-220405767D02*
X161757679Y-220405767D01*
X161757679Y-220741581D02*
X161757679Y-220100480D01*
X162062965Y-220100480D01*
X162581952Y-220100480D02*
X162459837Y-220100480D01*
X162398780Y-220131009D01*
X162368251Y-220161538D01*
X162307194Y-220253123D01*
X162276665Y-220375238D01*
X162276665Y-220619467D01*
X162307194Y-220680524D01*
X162337723Y-220711053D01*
X162398780Y-220741581D01*
X162520894Y-220741581D01*
X162581952Y-220711053D01*
X162612480Y-220680524D01*
X162643009Y-220619467D01*
X162643009Y-220466824D01*
X162612480Y-220405767D01*
X162581952Y-220375238D01*
X162520894Y-220344709D01*
X162398780Y-220344709D01*
X162337723Y-220375238D01*
X162307194Y-220405767D01*
X162276665Y-220466824D01*
%TO.C,SW38*%
X141891379Y-220385767D02*
X141677679Y-220385767D01*
X141677679Y-220721581D02*
X141677679Y-220080480D01*
X141982965Y-220080480D01*
X142532480Y-220080480D02*
X142227194Y-220080480D01*
X142196665Y-220385767D01*
X142227194Y-220355238D01*
X142288251Y-220324709D01*
X142440894Y-220324709D01*
X142501952Y-220355238D01*
X142532480Y-220385767D01*
X142563009Y-220446824D01*
X142563009Y-220599467D01*
X142532480Y-220660524D01*
X142501952Y-220691053D01*
X142440894Y-220721581D01*
X142288251Y-220721581D01*
X142227194Y-220691053D01*
X142196665Y-220660524D01*
%TO.C,SW37*%
X121901379Y-220385767D02*
X121687679Y-220385767D01*
X121687679Y-220721581D02*
X121687679Y-220080480D01*
X121992965Y-220080480D01*
X122511952Y-220294181D02*
X122511952Y-220721581D01*
X122359308Y-220049952D02*
X122206665Y-220507881D01*
X122603537Y-220507881D01*
%TO.C,SW36*%
X101941379Y-220395767D02*
X101727679Y-220395767D01*
X101727679Y-220731581D02*
X101727679Y-220090480D01*
X102032965Y-220090480D01*
X102216137Y-220090480D02*
X102613009Y-220090480D01*
X102399308Y-220334709D01*
X102490894Y-220334709D01*
X102551952Y-220365238D01*
X102582480Y-220395767D01*
X102613009Y-220456824D01*
X102613009Y-220609467D01*
X102582480Y-220670524D01*
X102551952Y-220701053D01*
X102490894Y-220731581D01*
X102307723Y-220731581D01*
X102246665Y-220701053D01*
X102216137Y-220670524D01*
%TO.C,SW35*%
X81991379Y-220395767D02*
X81777679Y-220395767D01*
X81777679Y-220731581D02*
X81777679Y-220090480D01*
X82082965Y-220090480D01*
X82296665Y-220151538D02*
X82327194Y-220121009D01*
X82388251Y-220090480D01*
X82540894Y-220090480D01*
X82601952Y-220121009D01*
X82632480Y-220151538D01*
X82663009Y-220212595D01*
X82663009Y-220273652D01*
X82632480Y-220365238D01*
X82266137Y-220731581D01*
X82663009Y-220731581D01*
%TO.C,SW34*%
X61921379Y-220375767D02*
X61707679Y-220375767D01*
X61707679Y-220711581D02*
X61707679Y-220070480D01*
X62012965Y-220070480D01*
X62593009Y-220711581D02*
X62226665Y-220711581D01*
X62409837Y-220711581D02*
X62409837Y-220070480D01*
X62348780Y-220162066D01*
X62287723Y-220223123D01*
X62226665Y-220253652D01*
%TO.C,SW33*%
X333939199Y-172221581D02*
X333939199Y-171580480D01*
X334091842Y-171580480D01*
X334183428Y-171611009D01*
X334244485Y-171672066D01*
X334275014Y-171733123D01*
X334305542Y-171855238D01*
X334305542Y-171946824D01*
X334275014Y-172068938D01*
X334244485Y-172129996D01*
X334183428Y-172191053D01*
X334091842Y-172221581D01*
X333939199Y-172221581D01*
X334702415Y-171580480D02*
X334824529Y-171580480D01*
X334885586Y-171611009D01*
X334946643Y-171672066D01*
X334977172Y-171794181D01*
X334977172Y-172007881D01*
X334946643Y-172129996D01*
X334885586Y-172191053D01*
X334824529Y-172221581D01*
X334702415Y-172221581D01*
X334641357Y-172191053D01*
X334580300Y-172129996D01*
X334549771Y-172007881D01*
X334549771Y-171794181D01*
X334580300Y-171672066D01*
X334641357Y-171611009D01*
X334702415Y-171580480D01*
X335190872Y-171580480D02*
X335343516Y-172221581D01*
X335465630Y-171763652D01*
X335587744Y-172221581D01*
X335740388Y-171580480D01*
X335984617Y-172221581D02*
X335984617Y-171580480D01*
X336350960Y-172221581D01*
X336350960Y-171580480D01*
%TO.C,SW32*%
X334661357Y-159600480D02*
X334661357Y-160119467D01*
X334691886Y-160180524D01*
X334722415Y-160211053D01*
X334783472Y-160241581D01*
X334905586Y-160241581D01*
X334966643Y-160211053D01*
X334997172Y-160180524D01*
X335027701Y-160119467D01*
X335027701Y-159600480D01*
X335332987Y-160241581D02*
X335332987Y-159600480D01*
X335577216Y-159600480D01*
X335638273Y-159631009D01*
X335668802Y-159661538D01*
X335699330Y-159722595D01*
X335699330Y-159814181D01*
X335668802Y-159875238D01*
X335638273Y-159905767D01*
X335577216Y-159936295D01*
X335332987Y-159936295D01*
%TO.C,SW31*%
X346340278Y-166231581D02*
X346126578Y-165926295D01*
X345973935Y-166231581D02*
X345973935Y-165590480D01*
X346218164Y-165590480D01*
X346279221Y-165621009D01*
X346309750Y-165651538D01*
X346340278Y-165712595D01*
X346340278Y-165804181D01*
X346309750Y-165865238D01*
X346279221Y-165895767D01*
X346218164Y-165926295D01*
X345973935Y-165926295D01*
X346615036Y-166231581D02*
X346615036Y-165590480D01*
X347256137Y-165621009D02*
X347195080Y-165590480D01*
X347103494Y-165590480D01*
X347011908Y-165621009D01*
X346950851Y-165682066D01*
X346920322Y-165743123D01*
X346889793Y-165865238D01*
X346889793Y-165956824D01*
X346920322Y-166078938D01*
X346950851Y-166139996D01*
X347011908Y-166201053D01*
X347103494Y-166231581D01*
X347164551Y-166231581D01*
X347256137Y-166201053D01*
X347286665Y-166170524D01*
X347286665Y-165956824D01*
X347164551Y-165956824D01*
X347561423Y-166231581D02*
X347561423Y-165590480D01*
X347561423Y-165895767D02*
X347927766Y-165895767D01*
X347927766Y-166231581D02*
X347927766Y-165590480D01*
X348141467Y-165590480D02*
X348507810Y-165590480D01*
X348324638Y-166231581D02*
X348324638Y-165590480D01*
%TO.C,SW30*%
X322544507Y-166201581D02*
X322239221Y-166201581D01*
X322239221Y-165560480D01*
X322758207Y-165865767D02*
X322971908Y-165865767D01*
X323063494Y-166201581D02*
X322758207Y-166201581D01*
X322758207Y-165560480D01*
X323063494Y-165560480D01*
X323551952Y-165865767D02*
X323338251Y-165865767D01*
X323338251Y-166201581D02*
X323338251Y-165560480D01*
X323643537Y-165560480D01*
X323796181Y-165560480D02*
X324162524Y-165560480D01*
X323979352Y-166201581D02*
X323979352Y-165560480D01*
%TO.C,SW29*%
X284847085Y-171875767D02*
X285060785Y-171875767D01*
X285152371Y-172211581D02*
X284847085Y-172211581D01*
X284847085Y-171570480D01*
X285152371Y-171570480D01*
X285427128Y-172211581D02*
X285427128Y-171570480D01*
X285793472Y-172211581D01*
X285793472Y-171570480D01*
X286007172Y-171570480D02*
X286373516Y-171570480D01*
X286190344Y-172211581D02*
X286190344Y-171570480D01*
X286587216Y-171875767D02*
X286800916Y-171875767D01*
X286892502Y-172211581D02*
X286587216Y-172211581D01*
X286587216Y-171570480D01*
X286892502Y-171570480D01*
X287533603Y-172211581D02*
X287319903Y-171906295D01*
X287167260Y-172211581D02*
X287167260Y-171570480D01*
X287411489Y-171570480D01*
X287472546Y-171601009D01*
X287503074Y-171631538D01*
X287533603Y-171692595D01*
X287533603Y-171784181D01*
X287503074Y-171845238D01*
X287472546Y-171875767D01*
X287411489Y-171906295D01*
X287167260Y-171906295D01*
%TO.C,SW28*%
X269841820Y-172221581D02*
X269841820Y-171580480D01*
X270055521Y-172038410D01*
X270269221Y-171580480D01*
X270269221Y-172221581D01*
X270574507Y-172221581D02*
X270574507Y-171580480D01*
X270879793Y-172221581D02*
X270879793Y-171580480D01*
X271246137Y-172221581D01*
X271246137Y-171580480D01*
X271551423Y-171580480D02*
X271551423Y-172099467D01*
X271581952Y-172160524D01*
X271612480Y-172191053D01*
X271673537Y-172221581D01*
X271795652Y-172221581D01*
X271856709Y-172191053D01*
X271887238Y-172160524D01*
X271917766Y-172099467D01*
X271917766Y-171580480D01*
X272192524Y-172191053D02*
X272284110Y-172221581D01*
X272436753Y-172221581D01*
X272497810Y-172191053D01*
X272528339Y-172160524D01*
X272558867Y-172099467D01*
X272558867Y-172038410D01*
X272528339Y-171977352D01*
X272497810Y-171946824D01*
X272436753Y-171916295D01*
X272314638Y-171885767D01*
X272253581Y-171855238D01*
X272223053Y-171824709D01*
X272192524Y-171763652D01*
X272192524Y-171702595D01*
X272223053Y-171641538D01*
X272253581Y-171611009D01*
X272314638Y-171580480D01*
X272467282Y-171580480D01*
X272558867Y-171611009D01*
%TO.C,SW27*%
X256918670Y-172231581D02*
X256918670Y-171590480D01*
X257162899Y-171590480D01*
X257223957Y-171621009D01*
X257254485Y-171651538D01*
X257285014Y-171712595D01*
X257285014Y-171804181D01*
X257254485Y-171865238D01*
X257223957Y-171895767D01*
X257162899Y-171926295D01*
X256918670Y-171926295D01*
X257681886Y-171590480D02*
X257804000Y-171590480D01*
X257865058Y-171621009D01*
X257926115Y-171682066D01*
X257956643Y-171804181D01*
X257956643Y-172017881D01*
X257926115Y-172139996D01*
X257865058Y-172201053D01*
X257804000Y-172231581D01*
X257681886Y-172231581D01*
X257620829Y-172201053D01*
X257559771Y-172139996D01*
X257529243Y-172017881D01*
X257529243Y-171804181D01*
X257559771Y-171682066D01*
X257620829Y-171621009D01*
X257681886Y-171590480D01*
X258231401Y-172231581D02*
X258231401Y-171590480D01*
X258536687Y-172231581D02*
X258536687Y-171590480D01*
X258903031Y-172231581D01*
X258903031Y-171590480D01*
X259116731Y-171590480D02*
X259483074Y-171590480D01*
X259299903Y-172231581D02*
X259299903Y-171590480D01*
%TO.C,SW26*%
X245164551Y-171580480D02*
X245225608Y-171580480D01*
X245286665Y-171611009D01*
X245317194Y-171641538D01*
X245347723Y-171702595D01*
X245378251Y-171824709D01*
X245378251Y-171977352D01*
X245347723Y-172099467D01*
X245317194Y-172160524D01*
X245286665Y-172191053D01*
X245225608Y-172221581D01*
X245164551Y-172221581D01*
X245103494Y-172191053D01*
X245072965Y-172160524D01*
X245042436Y-172099467D01*
X245011908Y-171977352D01*
X245011908Y-171824709D01*
X245042436Y-171702595D01*
X245072965Y-171641538D01*
X245103494Y-171611009D01*
X245164551Y-171580480D01*
%TO.C,SW25*%
X304338098Y-173231581D02*
X304338098Y-172590480D01*
X304582327Y-172590480D01*
X304643384Y-172621009D01*
X304673913Y-172651538D01*
X304704441Y-172712595D01*
X304704441Y-172804181D01*
X304673913Y-172865238D01*
X304643384Y-172895767D01*
X304582327Y-172926295D01*
X304338098Y-172926295D01*
X305315014Y-172621009D02*
X305253957Y-172590480D01*
X305162371Y-172590480D01*
X305070785Y-172621009D01*
X305009728Y-172682066D01*
X304979199Y-172743123D01*
X304948670Y-172865238D01*
X304948670Y-172956824D01*
X304979199Y-173078938D01*
X305009728Y-173139996D01*
X305070785Y-173201053D01*
X305162371Y-173231581D01*
X305223428Y-173231581D01*
X305315014Y-173201053D01*
X305345542Y-173170524D01*
X305345542Y-172956824D01*
X305223428Y-172956824D01*
X305620300Y-173231581D02*
X305620300Y-172590480D01*
X305772943Y-172590480D01*
X305864529Y-172621009D01*
X305925586Y-172682066D01*
X305956115Y-172743123D01*
X305986643Y-172865238D01*
X305986643Y-172956824D01*
X305956115Y-173078938D01*
X305925586Y-173139996D01*
X305864529Y-173201053D01*
X305772943Y-173231581D01*
X305620300Y-173231581D01*
X306383516Y-172590480D02*
X306505630Y-172590480D01*
X306566687Y-172621009D01*
X306627744Y-172682066D01*
X306658273Y-172804181D01*
X306658273Y-173017881D01*
X306627744Y-173139996D01*
X306566687Y-173201053D01*
X306505630Y-173231581D01*
X306383516Y-173231581D01*
X306322458Y-173201053D01*
X306261401Y-173139996D01*
X306230872Y-173017881D01*
X306230872Y-172804181D01*
X306261401Y-172682066D01*
X306322458Y-172621009D01*
X306383516Y-172590480D01*
X306871973Y-172590480D02*
X307024617Y-173231581D01*
X307146731Y-172773652D01*
X307268845Y-173231581D01*
X307421489Y-172590480D01*
X307665718Y-173231581D02*
X307665718Y-172590480D01*
X308032061Y-173231581D01*
X308032061Y-172590480D01*
%TO.C,SW24*%
X284872878Y-155170524D02*
X284842349Y-155201053D01*
X284750763Y-155231581D01*
X284689706Y-155231581D01*
X284598120Y-155201053D01*
X284537063Y-155139996D01*
X284506534Y-155078938D01*
X284476005Y-154956824D01*
X284476005Y-154865238D01*
X284506534Y-154743123D01*
X284537063Y-154682066D01*
X284598120Y-154621009D01*
X284689706Y-154590480D01*
X284750763Y-154590480D01*
X284842349Y-154621009D01*
X284872878Y-154651538D01*
X285117106Y-155048410D02*
X285422393Y-155048410D01*
X285056049Y-155231581D02*
X285269750Y-154590480D01*
X285483450Y-155231581D01*
X285697150Y-155231581D02*
X285697150Y-154590480D01*
X286063494Y-155231581D01*
X286063494Y-154590480D01*
X286735123Y-155170524D02*
X286704595Y-155201053D01*
X286613009Y-155231581D01*
X286551952Y-155231581D01*
X286460366Y-155201053D01*
X286399308Y-155139996D01*
X286368780Y-155078938D01*
X286338251Y-154956824D01*
X286338251Y-154865238D01*
X286368780Y-154743123D01*
X286399308Y-154682066D01*
X286460366Y-154621009D01*
X286551952Y-154590480D01*
X286613009Y-154590480D01*
X286704595Y-154621009D01*
X286735123Y-154651538D01*
X287009881Y-154895767D02*
X287223581Y-154895767D01*
X287315167Y-155231581D02*
X287009881Y-155231581D01*
X287009881Y-154590480D01*
X287315167Y-154590480D01*
X287895211Y-155231581D02*
X287589925Y-155231581D01*
X287589925Y-154590480D01*
%TO.C,SW23*%
X270931379Y-154580480D02*
X271328251Y-154580480D01*
X271114551Y-154824709D01*
X271206137Y-154824709D01*
X271267194Y-154855238D01*
X271297723Y-154885767D01*
X271328251Y-154946824D01*
X271328251Y-155099467D01*
X271297723Y-155160524D01*
X271267194Y-155191053D01*
X271206137Y-155221581D01*
X271022965Y-155221581D01*
X270961908Y-155191053D01*
X270931379Y-155160524D01*
%TO.C,SW22*%
X257971908Y-154641538D02*
X258002436Y-154611009D01*
X258063494Y-154580480D01*
X258216137Y-154580480D01*
X258277194Y-154611009D01*
X258307723Y-154641538D01*
X258338251Y-154702595D01*
X258338251Y-154763652D01*
X258307723Y-154855238D01*
X257941379Y-155221581D01*
X258338251Y-155221581D01*
%TO.C,SW21*%
X245338251Y-155211581D02*
X244971908Y-155211581D01*
X245155080Y-155211581D02*
X245155080Y-154570480D01*
X245094022Y-154662066D01*
X245032965Y-154723123D01*
X244971908Y-154753652D01*
%TO.C,SW20*%
X305000256Y-160231581D02*
X305000256Y-159590480D01*
X305244485Y-159590480D01*
X305305542Y-159621009D01*
X305336071Y-159651538D01*
X305366600Y-159712595D01*
X305366600Y-159804181D01*
X305336071Y-159865238D01*
X305305542Y-159895767D01*
X305244485Y-159926295D01*
X305000256Y-159926295D01*
X305977172Y-159621009D02*
X305916115Y-159590480D01*
X305824529Y-159590480D01*
X305732943Y-159621009D01*
X305671886Y-159682066D01*
X305641357Y-159743123D01*
X305610829Y-159865238D01*
X305610829Y-159956824D01*
X305641357Y-160078938D01*
X305671886Y-160139996D01*
X305732943Y-160201053D01*
X305824529Y-160231581D01*
X305885586Y-160231581D01*
X305977172Y-160201053D01*
X306007701Y-160170524D01*
X306007701Y-159956824D01*
X305885586Y-159956824D01*
X306282458Y-159590480D02*
X306282458Y-160109467D01*
X306312987Y-160170524D01*
X306343516Y-160201053D01*
X306404573Y-160231581D01*
X306526687Y-160231581D01*
X306587744Y-160201053D01*
X306618273Y-160170524D01*
X306648802Y-160109467D01*
X306648802Y-159590480D01*
X306954088Y-160231581D02*
X306954088Y-159590480D01*
X307198317Y-159590480D01*
X307259374Y-159621009D01*
X307289903Y-159651538D01*
X307320431Y-159712595D01*
X307320431Y-159804181D01*
X307289903Y-159865238D01*
X307259374Y-159895767D01*
X307198317Y-159926295D01*
X306954088Y-159926295D01*
%TO.C,SW19*%
X304338098Y-145610480D02*
X304704441Y-145610480D01*
X304521270Y-146251581D02*
X304521270Y-145610480D01*
X304887613Y-146068410D02*
X305192899Y-146068410D01*
X304826556Y-146251581D02*
X305040256Y-145610480D01*
X305253957Y-146251581D01*
X305681357Y-145915767D02*
X305772943Y-145946295D01*
X305803472Y-145976824D01*
X305834000Y-146037881D01*
X305834000Y-146129467D01*
X305803472Y-146190524D01*
X305772943Y-146221053D01*
X305711886Y-146251581D01*
X305467657Y-146251581D01*
X305467657Y-145610480D01*
X305681357Y-145610480D01*
X305742415Y-145641009D01*
X305772943Y-145671538D01*
X305803472Y-145732595D01*
X305803472Y-145793652D01*
X305772943Y-145854709D01*
X305742415Y-145885238D01*
X305681357Y-145915767D01*
X305467657Y-145915767D01*
X306414044Y-146251581D02*
X306108758Y-146251581D01*
X306108758Y-145610480D01*
X306627744Y-145915767D02*
X306841445Y-145915767D01*
X306933031Y-146251581D02*
X306627744Y-146251581D01*
X306627744Y-145610480D01*
X306933031Y-145610480D01*
X307421489Y-145915767D02*
X307207788Y-145915767D01*
X307207788Y-146251581D02*
X307207788Y-145610480D01*
X307513074Y-145610480D01*
X307665718Y-145610480D02*
X308032061Y-145610480D01*
X307848889Y-146251581D02*
X307848889Y-145610480D01*
%TO.C,SW18*%
X284669177Y-137885767D02*
X284760763Y-137916295D01*
X284791292Y-137946824D01*
X284821820Y-138007881D01*
X284821820Y-138099467D01*
X284791292Y-138160524D01*
X284760763Y-138191053D01*
X284699706Y-138221581D01*
X284455477Y-138221581D01*
X284455477Y-137580480D01*
X284669177Y-137580480D01*
X284730234Y-137611009D01*
X284760763Y-137641538D01*
X284791292Y-137702595D01*
X284791292Y-137763652D01*
X284760763Y-137824709D01*
X284730234Y-137855238D01*
X284669177Y-137885767D01*
X284455477Y-137885767D01*
X285066049Y-138038410D02*
X285371335Y-138038410D01*
X285004992Y-138221581D02*
X285218692Y-137580480D01*
X285432393Y-138221581D01*
X286012436Y-138160524D02*
X285981908Y-138191053D01*
X285890322Y-138221581D01*
X285829265Y-138221581D01*
X285737679Y-138191053D01*
X285676622Y-138129996D01*
X285646093Y-138068938D01*
X285615564Y-137946824D01*
X285615564Y-137855238D01*
X285646093Y-137733123D01*
X285676622Y-137672066D01*
X285737679Y-137611009D01*
X285829265Y-137580480D01*
X285890322Y-137580480D01*
X285981908Y-137611009D01*
X286012436Y-137641538D01*
X286287194Y-138221581D02*
X286287194Y-137580480D01*
X286653537Y-138221581D02*
X286378780Y-137855238D01*
X286653537Y-137580480D02*
X286287194Y-137946824D01*
X286897766Y-138191053D02*
X286989352Y-138221581D01*
X287141995Y-138221581D01*
X287203053Y-138191053D01*
X287233581Y-138160524D01*
X287264110Y-138099467D01*
X287264110Y-138038410D01*
X287233581Y-137977352D01*
X287203053Y-137946824D01*
X287141995Y-137916295D01*
X287019881Y-137885767D01*
X286958824Y-137855238D01*
X286928295Y-137824709D01*
X286897766Y-137763652D01*
X286897766Y-137702595D01*
X286928295Y-137641538D01*
X286958824Y-137611009D01*
X287019881Y-137580480D01*
X287172524Y-137580480D01*
X287264110Y-137611009D01*
X287538867Y-138221581D02*
X287538867Y-137580480D01*
X287783096Y-137580480D01*
X287844154Y-137611009D01*
X287874682Y-137641538D01*
X287905211Y-137702595D01*
X287905211Y-137794181D01*
X287874682Y-137855238D01*
X287844154Y-137885767D01*
X287783096Y-137916295D01*
X287538867Y-137916295D01*
%TO.C,SW17*%
X271287194Y-137590480D02*
X271165080Y-137590480D01*
X271104022Y-137621009D01*
X271073494Y-137651538D01*
X271012436Y-137743123D01*
X270981908Y-137865238D01*
X270981908Y-138109467D01*
X271012436Y-138170524D01*
X271042965Y-138201053D01*
X271104022Y-138231581D01*
X271226137Y-138231581D01*
X271287194Y-138201053D01*
X271317723Y-138170524D01*
X271348251Y-138109467D01*
X271348251Y-137956824D01*
X271317723Y-137895767D01*
X271287194Y-137865238D01*
X271226137Y-137834709D01*
X271104022Y-137834709D01*
X271042965Y-137865238D01*
X271012436Y-137895767D01*
X270981908Y-137956824D01*
%TO.C,SW16*%
X258317723Y-137580480D02*
X258012436Y-137580480D01*
X257981908Y-137885767D01*
X258012436Y-137855238D01*
X258073494Y-137824709D01*
X258226137Y-137824709D01*
X258287194Y-137855238D01*
X258317723Y-137885767D01*
X258348251Y-137946824D01*
X258348251Y-138099467D01*
X258317723Y-138160524D01*
X258287194Y-138191053D01*
X258226137Y-138221581D01*
X258073494Y-138221581D01*
X258012436Y-138191053D01*
X257981908Y-138160524D01*
%TO.C,SW15*%
X245257194Y-137804181D02*
X245257194Y-138231581D01*
X245104551Y-137559952D02*
X244951908Y-138017881D01*
X245348780Y-138017881D01*
%TO.C,SW14*%
X303962812Y-132570480D02*
X304329155Y-132570480D01*
X304145984Y-133211581D02*
X304145984Y-132570480D01*
X304512327Y-133028410D02*
X304817613Y-133028410D01*
X304451270Y-133211581D02*
X304664970Y-132570480D01*
X304878670Y-133211581D01*
X305306071Y-132875767D02*
X305397657Y-132906295D01*
X305428186Y-132936824D01*
X305458714Y-132997881D01*
X305458714Y-133089467D01*
X305428186Y-133150524D01*
X305397657Y-133181053D01*
X305336600Y-133211581D01*
X305092371Y-133211581D01*
X305092371Y-132570480D01*
X305306071Y-132570480D01*
X305367128Y-132601009D01*
X305397657Y-132631538D01*
X305428186Y-132692595D01*
X305428186Y-132753652D01*
X305397657Y-132814709D01*
X305367128Y-132845238D01*
X305306071Y-132875767D01*
X305092371Y-132875767D01*
X306099815Y-133211581D02*
X305886115Y-132906295D01*
X305733472Y-133211581D02*
X305733472Y-132570480D01*
X305977701Y-132570480D01*
X306038758Y-132601009D01*
X306069287Y-132631538D01*
X306099815Y-132692595D01*
X306099815Y-132784181D01*
X306069287Y-132845238D01*
X306038758Y-132875767D01*
X305977701Y-132906295D01*
X305733472Y-132906295D01*
X306374573Y-133211581D02*
X306374573Y-132570480D01*
X307015674Y-132601009D02*
X306954617Y-132570480D01*
X306863031Y-132570480D01*
X306771445Y-132601009D01*
X306710388Y-132662066D01*
X306679859Y-132723123D01*
X306649330Y-132845238D01*
X306649330Y-132936824D01*
X306679859Y-133058938D01*
X306710388Y-133119996D01*
X306771445Y-133181053D01*
X306863031Y-133211581D01*
X306924088Y-133211581D01*
X307015674Y-133181053D01*
X307046202Y-133150524D01*
X307046202Y-132936824D01*
X306924088Y-132936824D01*
X307320960Y-133211581D02*
X307320960Y-132570480D01*
X307320960Y-132875767D02*
X307687303Y-132875767D01*
X307687303Y-133211581D02*
X307687303Y-132570480D01*
X307901004Y-132570480D02*
X308267347Y-132570480D01*
X308084175Y-133211581D02*
X308084175Y-132570480D01*
%TO.C,SW13*%
X305111842Y-119201581D02*
X305111842Y-118560480D01*
X305111842Y-118865767D02*
X305478186Y-118865767D01*
X305478186Y-119201581D02*
X305478186Y-118560480D01*
X305783472Y-118865767D02*
X305997172Y-118865767D01*
X306088758Y-119201581D02*
X305783472Y-119201581D01*
X305783472Y-118560480D01*
X306088758Y-118560480D01*
X306668802Y-119201581D02*
X306363516Y-119201581D01*
X306363516Y-118560480D01*
X306882502Y-119201581D02*
X306882502Y-118560480D01*
X307126731Y-118560480D01*
X307187788Y-118591009D01*
X307218317Y-118621538D01*
X307248845Y-118682595D01*
X307248845Y-118774181D01*
X307218317Y-118835238D01*
X307187788Y-118865767D01*
X307126731Y-118896295D01*
X306882502Y-118896295D01*
%TO.C,SW12*%
X284577591Y-121191053D02*
X284669177Y-121221581D01*
X284821820Y-121221581D01*
X284882878Y-121191053D01*
X284913406Y-121160524D01*
X284943935Y-121099467D01*
X284943935Y-121038410D01*
X284913406Y-120977352D01*
X284882878Y-120946824D01*
X284821820Y-120916295D01*
X284699706Y-120885767D01*
X284638649Y-120855238D01*
X284608120Y-120824709D01*
X284577591Y-120763652D01*
X284577591Y-120702595D01*
X284608120Y-120641538D01*
X284638649Y-120611009D01*
X284699706Y-120580480D01*
X284852349Y-120580480D01*
X284943935Y-120611009D01*
X285218692Y-120885767D02*
X285432393Y-120885767D01*
X285523979Y-121221581D02*
X285218692Y-121221581D01*
X285218692Y-120580480D01*
X285523979Y-120580480D01*
X286104022Y-121221581D02*
X285798736Y-121221581D01*
X285798736Y-120580480D01*
X286317723Y-120885767D02*
X286531423Y-120885767D01*
X286623009Y-121221581D02*
X286317723Y-121221581D01*
X286317723Y-120580480D01*
X286623009Y-120580480D01*
X287264110Y-121160524D02*
X287233581Y-121191053D01*
X287141995Y-121221581D01*
X287080938Y-121221581D01*
X286989352Y-121191053D01*
X286928295Y-121129996D01*
X286897766Y-121068938D01*
X286867238Y-120946824D01*
X286867238Y-120855238D01*
X286897766Y-120733123D01*
X286928295Y-120672066D01*
X286989352Y-120611009D01*
X287080938Y-120580480D01*
X287141995Y-120580480D01*
X287233581Y-120611009D01*
X287264110Y-120641538D01*
X287447282Y-120580480D02*
X287813625Y-120580480D01*
X287630453Y-121221581D02*
X287630453Y-120580480D01*
%TO.C,SW11*%
X271022965Y-121201581D02*
X271145080Y-121201581D01*
X271206137Y-121171053D01*
X271236665Y-121140524D01*
X271297723Y-121048938D01*
X271328251Y-120926824D01*
X271328251Y-120682595D01*
X271297723Y-120621538D01*
X271267194Y-120591009D01*
X271206137Y-120560480D01*
X271084022Y-120560480D01*
X271022965Y-120591009D01*
X270992436Y-120621538D01*
X270961908Y-120682595D01*
X270961908Y-120835238D01*
X270992436Y-120896295D01*
X271022965Y-120926824D01*
X271084022Y-120957352D01*
X271206137Y-120957352D01*
X271267194Y-120926824D01*
X271297723Y-120896295D01*
X271328251Y-120835238D01*
%TO.C,SW10*%
X258084022Y-120845238D02*
X258022965Y-120814709D01*
X257992436Y-120784181D01*
X257961908Y-120723123D01*
X257961908Y-120692595D01*
X257992436Y-120631538D01*
X258022965Y-120601009D01*
X258084022Y-120570480D01*
X258206137Y-120570480D01*
X258267194Y-120601009D01*
X258297723Y-120631538D01*
X258328251Y-120692595D01*
X258328251Y-120723123D01*
X258297723Y-120784181D01*
X258267194Y-120814709D01*
X258206137Y-120845238D01*
X258084022Y-120845238D01*
X258022965Y-120875767D01*
X257992436Y-120906295D01*
X257961908Y-120967352D01*
X257961908Y-121089467D01*
X257992436Y-121150524D01*
X258022965Y-121181053D01*
X258084022Y-121211581D01*
X258206137Y-121211581D01*
X258267194Y-121181053D01*
X258297723Y-121150524D01*
X258328251Y-121089467D01*
X258328251Y-120967352D01*
X258297723Y-120906295D01*
X258267194Y-120875767D01*
X258206137Y-120845238D01*
%TO.C,SW9*%
X244921379Y-120580480D02*
X245348780Y-120580480D01*
X245074022Y-121221581D01*
%TO.C,SW8*%
X348152899Y-93221581D02*
X347847613Y-93221581D01*
X347847613Y-92580480D01*
X348488714Y-92580480D02*
X348610829Y-92580480D01*
X348671886Y-92611009D01*
X348732943Y-92672066D01*
X348763472Y-92794181D01*
X348763472Y-93007881D01*
X348732943Y-93129996D01*
X348671886Y-93191053D01*
X348610829Y-93221581D01*
X348488714Y-93221581D01*
X348427657Y-93191053D01*
X348366600Y-93129996D01*
X348336071Y-93007881D01*
X348336071Y-92794181D01*
X348366600Y-92672066D01*
X348427657Y-92611009D01*
X348488714Y-92580480D01*
X349404573Y-93160524D02*
X349374044Y-93191053D01*
X349282458Y-93221581D01*
X349221401Y-93221581D01*
X349129815Y-93191053D01*
X349068758Y-93129996D01*
X349038229Y-93068938D01*
X349007701Y-92946824D01*
X349007701Y-92855238D01*
X349038229Y-92733123D01*
X349068758Y-92672066D01*
X349129815Y-92611009D01*
X349221401Y-92580480D01*
X349282458Y-92580480D01*
X349374044Y-92611009D01*
X349404573Y-92641538D01*
X349648802Y-93038410D02*
X349954088Y-93038410D01*
X349587744Y-93221581D02*
X349801445Y-92580480D01*
X350015145Y-93221581D01*
X350534132Y-93221581D02*
X350228845Y-93221581D01*
X350228845Y-92580480D01*
%TO.C,SW7*%
X334633384Y-92570480D02*
X334755499Y-92570480D01*
X334816556Y-92601009D01*
X334877613Y-92662066D01*
X334908142Y-92784181D01*
X334908142Y-92997881D01*
X334877613Y-93119996D01*
X334816556Y-93181053D01*
X334755499Y-93211581D01*
X334633384Y-93211581D01*
X334572327Y-93181053D01*
X334511270Y-93119996D01*
X334480741Y-92997881D01*
X334480741Y-92784181D01*
X334511270Y-92662066D01*
X334572327Y-92601009D01*
X334633384Y-92570480D01*
X335182899Y-92570480D02*
X335182899Y-93089467D01*
X335213428Y-93150524D01*
X335243957Y-93181053D01*
X335305014Y-93211581D01*
X335427128Y-93211581D01*
X335488186Y-93181053D01*
X335518714Y-93150524D01*
X335549243Y-93089467D01*
X335549243Y-92570480D01*
X335762943Y-92570480D02*
X336129287Y-92570480D01*
X335946115Y-93211581D02*
X335946115Y-92570480D01*
X336342987Y-93211581D02*
X336342987Y-92570480D01*
X336587216Y-92570480D01*
X336648273Y-92601009D01*
X336678802Y-92631538D01*
X336709330Y-92692595D01*
X336709330Y-92784181D01*
X336678802Y-92845238D01*
X336648273Y-92875767D01*
X336587216Y-92906295D01*
X336342987Y-92906295D01*
X336984088Y-92570480D02*
X336984088Y-93089467D01*
X337014617Y-93150524D01*
X337045145Y-93181053D01*
X337106202Y-93211581D01*
X337228317Y-93211581D01*
X337289374Y-93181053D01*
X337319903Y-93150524D01*
X337350431Y-93089467D01*
X337350431Y-92570480D01*
X337564132Y-92570480D02*
X337930475Y-92570480D01*
X337747303Y-93211581D02*
X337747303Y-92570480D01*
%TO.C,SW6*%
X321292834Y-93160524D02*
X321262305Y-93191053D01*
X321170719Y-93221581D01*
X321109662Y-93221581D01*
X321018076Y-93191053D01*
X320957019Y-93129996D01*
X320926490Y-93068938D01*
X320895962Y-92946824D01*
X320895962Y-92855238D01*
X320926490Y-92733123D01*
X320957019Y-92672066D01*
X321018076Y-92611009D01*
X321109662Y-92580480D01*
X321170719Y-92580480D01*
X321262305Y-92611009D01*
X321292834Y-92641538D01*
X321689706Y-92580480D02*
X321811820Y-92580480D01*
X321872878Y-92611009D01*
X321933935Y-92672066D01*
X321964463Y-92794181D01*
X321964463Y-93007881D01*
X321933935Y-93129996D01*
X321872878Y-93191053D01*
X321811820Y-93221581D01*
X321689706Y-93221581D01*
X321628649Y-93191053D01*
X321567591Y-93129996D01*
X321537063Y-93007881D01*
X321537063Y-92794181D01*
X321567591Y-92672066D01*
X321628649Y-92611009D01*
X321689706Y-92580480D01*
X322239221Y-93221581D02*
X322239221Y-92580480D01*
X322605564Y-93221581D01*
X322605564Y-92580480D01*
X322819265Y-92580480D02*
X323185608Y-92580480D01*
X323002436Y-93221581D02*
X323002436Y-92580480D01*
X323765652Y-93221581D02*
X323551952Y-92916295D01*
X323399308Y-93221581D02*
X323399308Y-92580480D01*
X323643537Y-92580480D01*
X323704595Y-92611009D01*
X323735123Y-92641538D01*
X323765652Y-92702595D01*
X323765652Y-92794181D01*
X323735123Y-92855238D01*
X323704595Y-92885767D01*
X323643537Y-92916295D01*
X323399308Y-92916295D01*
X324009881Y-93038410D02*
X324315167Y-93038410D01*
X323948824Y-93221581D02*
X324162524Y-92580480D01*
X324376224Y-93221581D01*
X324559396Y-93191053D02*
X324650982Y-93221581D01*
X324803625Y-93221581D01*
X324864682Y-93191053D01*
X324895211Y-93160524D01*
X324925739Y-93099467D01*
X324925739Y-93038410D01*
X324895211Y-92977352D01*
X324864682Y-92946824D01*
X324803625Y-92916295D01*
X324681510Y-92885767D01*
X324620453Y-92855238D01*
X324589925Y-92824709D01*
X324559396Y-92763652D01*
X324559396Y-92702595D01*
X324589925Y-92641538D01*
X324620453Y-92611009D01*
X324681510Y-92580480D01*
X324834154Y-92580480D01*
X324925739Y-92611009D01*
X325108911Y-92580480D02*
X325475255Y-92580480D01*
X325292083Y-93221581D02*
X325292083Y-92580480D01*
%TO.C,SW5*%
X308481270Y-93211053D02*
X308572856Y-93241581D01*
X308725499Y-93241581D01*
X308786556Y-93211053D01*
X308817085Y-93180524D01*
X308847613Y-93119467D01*
X308847613Y-93058410D01*
X308817085Y-92997352D01*
X308786556Y-92966824D01*
X308725499Y-92936295D01*
X308603384Y-92905767D01*
X308542327Y-92875238D01*
X308511798Y-92844709D01*
X308481270Y-92783652D01*
X308481270Y-92722595D01*
X308511798Y-92661538D01*
X308542327Y-92631009D01*
X308603384Y-92600480D01*
X308756027Y-92600480D01*
X308847613Y-92631009D01*
X309244485Y-92936295D02*
X309244485Y-93241581D01*
X309030785Y-92600480D02*
X309244485Y-92936295D01*
X309458186Y-92600480D01*
X309641357Y-93211053D02*
X309732943Y-93241581D01*
X309885586Y-93241581D01*
X309946643Y-93211053D01*
X309977172Y-93180524D01*
X310007701Y-93119467D01*
X310007701Y-93058410D01*
X309977172Y-92997352D01*
X309946643Y-92966824D01*
X309885586Y-92936295D01*
X309763472Y-92905767D01*
X309702415Y-92875238D01*
X309671886Y-92844709D01*
X309641357Y-92783652D01*
X309641357Y-92722595D01*
X309671886Y-92661538D01*
X309702415Y-92631009D01*
X309763472Y-92600480D01*
X309916115Y-92600480D01*
X310007701Y-92631009D01*
X310190872Y-92600480D02*
X310557216Y-92600480D01*
X310374044Y-93241581D02*
X310374044Y-92600480D01*
X310770916Y-92905767D02*
X310984617Y-92905767D01*
X311076202Y-93241581D02*
X310770916Y-93241581D01*
X310770916Y-92600480D01*
X311076202Y-92600480D01*
X311350960Y-93241581D02*
X311350960Y-92600480D01*
X311564660Y-93058410D01*
X311778361Y-92600480D01*
X311778361Y-93241581D01*
%TO.C,SW4*%
X295720234Y-93231581D02*
X295720234Y-92590480D01*
X295720234Y-92895767D02*
X296086578Y-92895767D01*
X296086578Y-93231581D02*
X296086578Y-92590480D01*
X296758207Y-93170524D02*
X296727679Y-93201053D01*
X296636093Y-93231581D01*
X296575036Y-93231581D01*
X296483450Y-93201053D01*
X296422393Y-93139996D01*
X296391864Y-93078938D01*
X296361335Y-92956824D01*
X296361335Y-92865238D01*
X296391864Y-92743123D01*
X296422393Y-92682066D01*
X296483450Y-92621009D01*
X296575036Y-92590480D01*
X296636093Y-92590480D01*
X296727679Y-92621009D01*
X296758207Y-92651538D01*
X297155080Y-92590480D02*
X297277194Y-92590480D01*
X297338251Y-92621009D01*
X297399308Y-92682066D01*
X297429837Y-92804181D01*
X297429837Y-93017881D01*
X297399308Y-93139996D01*
X297338251Y-93201053D01*
X297277194Y-93231581D01*
X297155080Y-93231581D01*
X297094022Y-93201053D01*
X297032965Y-93139996D01*
X297002436Y-93017881D01*
X297002436Y-92804181D01*
X297032965Y-92682066D01*
X297094022Y-92621009D01*
X297155080Y-92590480D01*
X297704595Y-93231581D02*
X297704595Y-92590480D01*
X297948824Y-92590480D01*
X298009881Y-92621009D01*
X298040409Y-92651538D01*
X298070938Y-92712595D01*
X298070938Y-92804181D01*
X298040409Y-92865238D01*
X298009881Y-92895767D01*
X297948824Y-92926295D01*
X297704595Y-92926295D01*
X298467810Y-92926295D02*
X298467810Y-93231581D01*
X298254110Y-92590480D02*
X298467810Y-92926295D01*
X298681510Y-92590480D01*
%TO.C,SW3*%
X270071314Y-93211053D02*
X270162899Y-93241581D01*
X270315542Y-93241581D01*
X270376600Y-93211053D01*
X270407128Y-93180524D01*
X270437657Y-93119467D01*
X270437657Y-93058410D01*
X270407128Y-92997352D01*
X270376600Y-92966824D01*
X270315542Y-92936295D01*
X270193428Y-92905767D01*
X270132371Y-92875238D01*
X270101842Y-92844709D01*
X270071314Y-92783652D01*
X270071314Y-92722595D01*
X270101842Y-92661538D01*
X270132371Y-92631009D01*
X270193428Y-92600480D01*
X270346071Y-92600480D01*
X270437657Y-92631009D01*
X270620829Y-92600480D02*
X270987172Y-92600480D01*
X270804000Y-93241581D02*
X270804000Y-92600480D01*
X271322987Y-92600480D02*
X271445101Y-92600480D01*
X271506159Y-92631009D01*
X271567216Y-92692066D01*
X271597744Y-92814181D01*
X271597744Y-93027881D01*
X271567216Y-93149996D01*
X271506159Y-93211053D01*
X271445101Y-93241581D01*
X271322987Y-93241581D01*
X271261930Y-93211053D01*
X271200872Y-93149996D01*
X271170344Y-93027881D01*
X271170344Y-92814181D01*
X271200872Y-92692066D01*
X271261930Y-92631009D01*
X271322987Y-92600480D01*
X271872502Y-93241581D02*
X271872502Y-92600480D01*
X272116731Y-92600480D01*
X272177788Y-92631009D01*
X272208317Y-92661538D01*
X272238845Y-92722595D01*
X272238845Y-92814181D01*
X272208317Y-92875238D01*
X272177788Y-92905767D01*
X272116731Y-92936295D01*
X271872502Y-92936295D01*
%TO.C,SW2*%
X256603384Y-93181053D02*
X256694970Y-93211581D01*
X256847613Y-93211581D01*
X256908670Y-93181053D01*
X256939199Y-93150524D01*
X256969728Y-93089467D01*
X256969728Y-93028410D01*
X256939199Y-92967352D01*
X256908670Y-92936824D01*
X256847613Y-92906295D01*
X256725499Y-92875767D01*
X256664441Y-92845238D01*
X256633913Y-92814709D01*
X256603384Y-92753652D01*
X256603384Y-92692595D01*
X256633913Y-92631538D01*
X256664441Y-92601009D01*
X256725499Y-92570480D01*
X256878142Y-92570480D01*
X256969728Y-92601009D01*
X257244485Y-93211581D02*
X257244485Y-92570480D01*
X257549771Y-93211581D02*
X257549771Y-92570480D01*
X257916115Y-93211581D01*
X257916115Y-92570480D01*
X258557216Y-92601009D02*
X258496159Y-92570480D01*
X258404573Y-92570480D01*
X258312987Y-92601009D01*
X258251930Y-92662066D01*
X258221401Y-92723123D01*
X258190872Y-92845238D01*
X258190872Y-92936824D01*
X258221401Y-93058938D01*
X258251930Y-93119996D01*
X258312987Y-93181053D01*
X258404573Y-93211581D01*
X258465630Y-93211581D01*
X258557216Y-93181053D01*
X258587744Y-93150524D01*
X258587744Y-92936824D01*
X258465630Y-92936824D01*
X259167788Y-93211581D02*
X258862502Y-93211581D01*
X258862502Y-92570480D01*
X259381489Y-92875767D02*
X259595189Y-92875767D01*
X259686775Y-93211581D02*
X259381489Y-93211581D01*
X259381489Y-92570480D01*
X259686775Y-92570480D01*
%TO.C,SW1*%
X243888142Y-93201053D02*
X243979728Y-93231581D01*
X244132371Y-93231581D01*
X244193428Y-93201053D01*
X244223957Y-93170524D01*
X244254485Y-93109467D01*
X244254485Y-93048410D01*
X244223957Y-92987352D01*
X244193428Y-92956824D01*
X244132371Y-92926295D01*
X244010256Y-92895767D01*
X243949199Y-92865238D01*
X243918670Y-92834709D01*
X243888142Y-92773652D01*
X243888142Y-92712595D01*
X243918670Y-92651538D01*
X243949199Y-92621009D01*
X244010256Y-92590480D01*
X244162899Y-92590480D01*
X244254485Y-92621009D01*
X244437657Y-92590480D02*
X244804000Y-92590480D01*
X244620829Y-93231581D02*
X244620829Y-92590480D01*
X244987172Y-93048410D02*
X245292458Y-93048410D01*
X244926115Y-93231581D02*
X245139815Y-92590480D01*
X245353516Y-93231581D01*
X245933559Y-93231581D02*
X245719859Y-92926295D01*
X245567216Y-93231581D02*
X245567216Y-92590480D01*
X245811445Y-92590480D01*
X245872502Y-92621009D01*
X245903031Y-92651538D01*
X245933559Y-92712595D01*
X245933559Y-92804181D01*
X245903031Y-92865238D01*
X245872502Y-92895767D01*
X245811445Y-92926295D01*
X245567216Y-92926295D01*
X246116731Y-92590480D02*
X246483074Y-92590480D01*
X246299903Y-93231581D02*
X246299903Y-92590480D01*
%TO.C,LED_START1*%
D13*
X241543333Y-78982380D02*
X241067142Y-78982380D01*
X241067142Y-77982380D01*
X241876666Y-78458571D02*
X242210000Y-78458571D01*
X242352857Y-78982380D02*
X241876666Y-78982380D01*
X241876666Y-77982380D01*
X242352857Y-77982380D01*
X242781428Y-78982380D02*
X242781428Y-77982380D01*
X243019523Y-77982380D01*
X243162380Y-78030000D01*
X243257619Y-78125238D01*
X243305238Y-78220476D01*
X243352857Y-78410952D01*
X243352857Y-78553809D01*
X243305238Y-78744285D01*
X243257619Y-78839523D01*
X243162380Y-78934761D01*
X243019523Y-78982380D01*
X242781428Y-78982380D01*
X243543333Y-79077619D02*
X244305238Y-79077619D01*
X244495714Y-78934761D02*
X244638571Y-78982380D01*
X244876666Y-78982380D01*
X244971904Y-78934761D01*
X245019523Y-78887142D01*
X245067142Y-78791904D01*
X245067142Y-78696666D01*
X245019523Y-78601428D01*
X244971904Y-78553809D01*
X244876666Y-78506190D01*
X244686190Y-78458571D01*
X244590952Y-78410952D01*
X244543333Y-78363333D01*
X244495714Y-78268095D01*
X244495714Y-78172857D01*
X244543333Y-78077619D01*
X244590952Y-78030000D01*
X244686190Y-77982380D01*
X244924285Y-77982380D01*
X245067142Y-78030000D01*
X245352857Y-77982380D02*
X245924285Y-77982380D01*
X245638571Y-78982380D02*
X245638571Y-77982380D01*
X246210000Y-78696666D02*
X246686190Y-78696666D01*
X246114761Y-78982380D02*
X246448095Y-77982380D01*
X246781428Y-78982380D01*
X247686190Y-78982380D02*
X247352857Y-78506190D01*
X247114761Y-78982380D02*
X247114761Y-77982380D01*
X247495714Y-77982380D01*
X247590952Y-78030000D01*
X247638571Y-78077619D01*
X247686190Y-78172857D01*
X247686190Y-78315714D01*
X247638571Y-78410952D01*
X247590952Y-78458571D01*
X247495714Y-78506190D01*
X247114761Y-78506190D01*
X247971904Y-77982380D02*
X248543333Y-77982380D01*
X248257619Y-78982380D02*
X248257619Y-77982380D01*
X249400476Y-78982380D02*
X248829047Y-78982380D01*
X249114761Y-78982380D02*
X249114761Y-77982380D01*
X249019523Y-78125238D01*
X248924285Y-78220476D01*
X248829047Y-78268095D01*
%TO.C,LED_SINGLE1*%
X254104761Y-78972380D02*
X253628571Y-78972380D01*
X253628571Y-77972380D01*
X254438095Y-78448571D02*
X254771428Y-78448571D01*
X254914285Y-78972380D02*
X254438095Y-78972380D01*
X254438095Y-77972380D01*
X254914285Y-77972380D01*
X255342857Y-78972380D02*
X255342857Y-77972380D01*
X255580952Y-77972380D01*
X255723809Y-78020000D01*
X255819047Y-78115238D01*
X255866666Y-78210476D01*
X255914285Y-78400952D01*
X255914285Y-78543809D01*
X255866666Y-78734285D01*
X255819047Y-78829523D01*
X255723809Y-78924761D01*
X255580952Y-78972380D01*
X255342857Y-78972380D01*
X256104761Y-79067619D02*
X256866666Y-79067619D01*
X257057142Y-78924761D02*
X257200000Y-78972380D01*
X257438095Y-78972380D01*
X257533333Y-78924761D01*
X257580952Y-78877142D01*
X257628571Y-78781904D01*
X257628571Y-78686666D01*
X257580952Y-78591428D01*
X257533333Y-78543809D01*
X257438095Y-78496190D01*
X257247619Y-78448571D01*
X257152380Y-78400952D01*
X257104761Y-78353333D01*
X257057142Y-78258095D01*
X257057142Y-78162857D01*
X257104761Y-78067619D01*
X257152380Y-78020000D01*
X257247619Y-77972380D01*
X257485714Y-77972380D01*
X257628571Y-78020000D01*
X258057142Y-78972380D02*
X258057142Y-77972380D01*
X258533333Y-78972380D02*
X258533333Y-77972380D01*
X259104761Y-78972380D01*
X259104761Y-77972380D01*
X260104761Y-78020000D02*
X260009523Y-77972380D01*
X259866666Y-77972380D01*
X259723809Y-78020000D01*
X259628571Y-78115238D01*
X259580952Y-78210476D01*
X259533333Y-78400952D01*
X259533333Y-78543809D01*
X259580952Y-78734285D01*
X259628571Y-78829523D01*
X259723809Y-78924761D01*
X259866666Y-78972380D01*
X259961904Y-78972380D01*
X260104761Y-78924761D01*
X260152380Y-78877142D01*
X260152380Y-78543809D01*
X259961904Y-78543809D01*
X261057142Y-78972380D02*
X260580952Y-78972380D01*
X260580952Y-77972380D01*
X261390476Y-78448571D02*
X261723809Y-78448571D01*
X261866666Y-78972380D02*
X261390476Y-78972380D01*
X261390476Y-77972380D01*
X261866666Y-77972380D01*
X262819047Y-78972380D02*
X262247619Y-78972380D01*
X262533333Y-78972380D02*
X262533333Y-77972380D01*
X262438095Y-78115238D01*
X262342857Y-78210476D01*
X262247619Y-78258095D01*
%TO.C,LED_REMOTE1*%
X341719047Y-78982380D02*
X341242857Y-78982380D01*
X341242857Y-77982380D01*
X342052380Y-78458571D02*
X342385714Y-78458571D01*
X342528571Y-78982380D02*
X342052380Y-78982380D01*
X342052380Y-77982380D01*
X342528571Y-77982380D01*
X342957142Y-78982380D02*
X342957142Y-77982380D01*
X343195238Y-77982380D01*
X343338095Y-78030000D01*
X343433333Y-78125238D01*
X343480952Y-78220476D01*
X343528571Y-78410952D01*
X343528571Y-78553809D01*
X343480952Y-78744285D01*
X343433333Y-78839523D01*
X343338095Y-78934761D01*
X343195238Y-78982380D01*
X342957142Y-78982380D01*
X343719047Y-79077619D02*
X344480952Y-79077619D01*
X345290476Y-78982380D02*
X344957142Y-78506190D01*
X344719047Y-78982380D02*
X344719047Y-77982380D01*
X345100000Y-77982380D01*
X345195238Y-78030000D01*
X345242857Y-78077619D01*
X345290476Y-78172857D01*
X345290476Y-78315714D01*
X345242857Y-78410952D01*
X345195238Y-78458571D01*
X345100000Y-78506190D01*
X344719047Y-78506190D01*
X345719047Y-78458571D02*
X346052380Y-78458571D01*
X346195238Y-78982380D02*
X345719047Y-78982380D01*
X345719047Y-77982380D01*
X346195238Y-77982380D01*
X346623809Y-78982380D02*
X346623809Y-77982380D01*
X346957142Y-78696666D01*
X347290476Y-77982380D01*
X347290476Y-78982380D01*
X347957142Y-77982380D02*
X348147619Y-77982380D01*
X348242857Y-78030000D01*
X348338095Y-78125238D01*
X348385714Y-78315714D01*
X348385714Y-78649047D01*
X348338095Y-78839523D01*
X348242857Y-78934761D01*
X348147619Y-78982380D01*
X347957142Y-78982380D01*
X347861904Y-78934761D01*
X347766666Y-78839523D01*
X347719047Y-78649047D01*
X347719047Y-78315714D01*
X347766666Y-78125238D01*
X347861904Y-78030000D01*
X347957142Y-77982380D01*
X348671428Y-77982380D02*
X349242857Y-77982380D01*
X348957142Y-78982380D02*
X348957142Y-77982380D01*
X349576190Y-78458571D02*
X349909523Y-78458571D01*
X350052380Y-78982380D02*
X349576190Y-78982380D01*
X349576190Y-77982380D01*
X350052380Y-77982380D01*
X351004761Y-78982380D02*
X350433333Y-78982380D01*
X350719047Y-78982380D02*
X350719047Y-77982380D01*
X350623809Y-78125238D01*
X350528571Y-78220476D01*
X350433333Y-78268095D01*
%TO.C,LED_OUTPUT1*%
X328816666Y-78972380D02*
X328340476Y-78972380D01*
X328340476Y-77972380D01*
X329150000Y-78448571D02*
X329483333Y-78448571D01*
X329626190Y-78972380D02*
X329150000Y-78972380D01*
X329150000Y-77972380D01*
X329626190Y-77972380D01*
X330054761Y-78972380D02*
X330054761Y-77972380D01*
X330292857Y-77972380D01*
X330435714Y-78020000D01*
X330530952Y-78115238D01*
X330578571Y-78210476D01*
X330626190Y-78400952D01*
X330626190Y-78543809D01*
X330578571Y-78734285D01*
X330530952Y-78829523D01*
X330435714Y-78924761D01*
X330292857Y-78972380D01*
X330054761Y-78972380D01*
X330816666Y-79067619D02*
X331578571Y-79067619D01*
X332007142Y-77972380D02*
X332197619Y-77972380D01*
X332292857Y-78020000D01*
X332388095Y-78115238D01*
X332435714Y-78305714D01*
X332435714Y-78639047D01*
X332388095Y-78829523D01*
X332292857Y-78924761D01*
X332197619Y-78972380D01*
X332007142Y-78972380D01*
X331911904Y-78924761D01*
X331816666Y-78829523D01*
X331769047Y-78639047D01*
X331769047Y-78305714D01*
X331816666Y-78115238D01*
X331911904Y-78020000D01*
X332007142Y-77972380D01*
X332864285Y-77972380D02*
X332864285Y-78781904D01*
X332911904Y-78877142D01*
X332959523Y-78924761D01*
X333054761Y-78972380D01*
X333245238Y-78972380D01*
X333340476Y-78924761D01*
X333388095Y-78877142D01*
X333435714Y-78781904D01*
X333435714Y-77972380D01*
X333769047Y-77972380D02*
X334340476Y-77972380D01*
X334054761Y-78972380D02*
X334054761Y-77972380D01*
X334673809Y-78972380D02*
X334673809Y-77972380D01*
X335054761Y-77972380D01*
X335150000Y-78020000D01*
X335197619Y-78067619D01*
X335245238Y-78162857D01*
X335245238Y-78305714D01*
X335197619Y-78400952D01*
X335150000Y-78448571D01*
X335054761Y-78496190D01*
X334673809Y-78496190D01*
X335673809Y-77972380D02*
X335673809Y-78781904D01*
X335721428Y-78877142D01*
X335769047Y-78924761D01*
X335864285Y-78972380D01*
X336054761Y-78972380D01*
X336150000Y-78924761D01*
X336197619Y-78877142D01*
X336245238Y-78781904D01*
X336245238Y-77972380D01*
X336578571Y-77972380D02*
X337150000Y-77972380D01*
X336864285Y-78972380D02*
X336864285Y-77972380D01*
X338007142Y-78972380D02*
X337435714Y-78972380D01*
X337721428Y-78972380D02*
X337721428Y-77972380D01*
X337626190Y-78115238D01*
X337530952Y-78210476D01*
X337435714Y-78258095D01*
%TO.C,LED_GEN_OVRLD1*%
X242405714Y-208982380D02*
X241929523Y-208982380D01*
X241929523Y-207982380D01*
X242739047Y-208458571D02*
X243072380Y-208458571D01*
X243215238Y-208982380D02*
X242739047Y-208982380D01*
X242739047Y-207982380D01*
X243215238Y-207982380D01*
X243643809Y-208982380D02*
X243643809Y-207982380D01*
X243881904Y-207982380D01*
X244024761Y-208030000D01*
X244120000Y-208125238D01*
X244167619Y-208220476D01*
X244215238Y-208410952D01*
X244215238Y-208553809D01*
X244167619Y-208744285D01*
X244120000Y-208839523D01*
X244024761Y-208934761D01*
X243881904Y-208982380D01*
X243643809Y-208982380D01*
X244405714Y-209077619D02*
X245167619Y-209077619D01*
X245929523Y-208030000D02*
X245834285Y-207982380D01*
X245691428Y-207982380D01*
X245548571Y-208030000D01*
X245453333Y-208125238D01*
X245405714Y-208220476D01*
X245358095Y-208410952D01*
X245358095Y-208553809D01*
X245405714Y-208744285D01*
X245453333Y-208839523D01*
X245548571Y-208934761D01*
X245691428Y-208982380D01*
X245786666Y-208982380D01*
X245929523Y-208934761D01*
X245977142Y-208887142D01*
X245977142Y-208553809D01*
X245786666Y-208553809D01*
X246405714Y-208458571D02*
X246739047Y-208458571D01*
X246881904Y-208982380D02*
X246405714Y-208982380D01*
X246405714Y-207982380D01*
X246881904Y-207982380D01*
X247310476Y-208982380D02*
X247310476Y-207982380D01*
X247881904Y-208982380D01*
X247881904Y-207982380D01*
X248120000Y-209077619D02*
X248881904Y-209077619D01*
X249310476Y-207982380D02*
X249500952Y-207982380D01*
X249596190Y-208030000D01*
X249691428Y-208125238D01*
X249739047Y-208315714D01*
X249739047Y-208649047D01*
X249691428Y-208839523D01*
X249596190Y-208934761D01*
X249500952Y-208982380D01*
X249310476Y-208982380D01*
X249215238Y-208934761D01*
X249120000Y-208839523D01*
X249072380Y-208649047D01*
X249072380Y-208315714D01*
X249120000Y-208125238D01*
X249215238Y-208030000D01*
X249310476Y-207982380D01*
X250024761Y-207982380D02*
X250358095Y-208982380D01*
X250691428Y-207982380D01*
X251596190Y-208982380D02*
X251262857Y-208506190D01*
X251024761Y-208982380D02*
X251024761Y-207982380D01*
X251405714Y-207982380D01*
X251500952Y-208030000D01*
X251548571Y-208077619D01*
X251596190Y-208172857D01*
X251596190Y-208315714D01*
X251548571Y-208410952D01*
X251500952Y-208458571D01*
X251405714Y-208506190D01*
X251024761Y-208506190D01*
X252500952Y-208982380D02*
X252024761Y-208982380D01*
X252024761Y-207982380D01*
X252834285Y-208982380D02*
X252834285Y-207982380D01*
X253072380Y-207982380D01*
X253215238Y-208030000D01*
X253310476Y-208125238D01*
X253358095Y-208220476D01*
X253405714Y-208410952D01*
X253405714Y-208553809D01*
X253358095Y-208744285D01*
X253310476Y-208839523D01*
X253215238Y-208934761D01*
X253072380Y-208982380D01*
X252834285Y-208982380D01*
X254358095Y-208982380D02*
X253786666Y-208982380D01*
X254072380Y-208982380D02*
X254072380Y-207982380D01*
X253977142Y-208125238D01*
X253881904Y-208220476D01*
X253786666Y-208268095D01*
%TO.C,LED_DATA1*%
X241951904Y-100982380D02*
X241475714Y-100982380D01*
X241475714Y-99982380D01*
X242285238Y-100458571D02*
X242618571Y-100458571D01*
X242761428Y-100982380D02*
X242285238Y-100982380D01*
X242285238Y-99982380D01*
X242761428Y-99982380D01*
X243190000Y-100982380D02*
X243190000Y-99982380D01*
X243428095Y-99982380D01*
X243570952Y-100030000D01*
X243666190Y-100125238D01*
X243713809Y-100220476D01*
X243761428Y-100410952D01*
X243761428Y-100553809D01*
X243713809Y-100744285D01*
X243666190Y-100839523D01*
X243570952Y-100934761D01*
X243428095Y-100982380D01*
X243190000Y-100982380D01*
X243951904Y-101077619D02*
X244713809Y-101077619D01*
X244951904Y-100982380D02*
X244951904Y-99982380D01*
X245190000Y-99982380D01*
X245332857Y-100030000D01*
X245428095Y-100125238D01*
X245475714Y-100220476D01*
X245523333Y-100410952D01*
X245523333Y-100553809D01*
X245475714Y-100744285D01*
X245428095Y-100839523D01*
X245332857Y-100934761D01*
X245190000Y-100982380D01*
X244951904Y-100982380D01*
X245904285Y-100696666D02*
X246380476Y-100696666D01*
X245809047Y-100982380D02*
X246142380Y-99982380D01*
X246475714Y-100982380D01*
X246666190Y-99982380D02*
X247237619Y-99982380D01*
X246951904Y-100982380D02*
X246951904Y-99982380D01*
X247523333Y-100696666D02*
X247999523Y-100696666D01*
X247428095Y-100982380D02*
X247761428Y-99982380D01*
X248094761Y-100982380D01*
X248951904Y-100982380D02*
X248380476Y-100982380D01*
X248666190Y-100982380D02*
X248666190Y-99982380D01*
X248570952Y-100125238D01*
X248475714Y-100220476D01*
X248380476Y-100268095D01*
%TD*%
M02*
