%TF.GenerationSoftware,KiCad,Pcbnew,(5.1.8)-1*%
%TF.CreationDate,2021-02-13T16:04:11+01:00*%
%TF.ProjectId,UPL_Keyboard,55504c5f-4b65-4796-926f-6172642e6b69,2*%
%TF.SameCoordinates,Original*%
%TF.FileFunction,Copper,L1,Top*%
%TF.FilePolarity,Positive*%
%FSLAX46Y46*%
G04 Gerber Fmt 4.6, Leading zero omitted, Abs format (unit mm)*
G04 Created by KiCad (PCBNEW (5.1.8)-1) date 2021-02-13 16:04:11*
%MOMM*%
%LPD*%
G01*
G04 APERTURE LIST*
%TA.AperFunction,ComponentPad*%
%ADD10O,1.700000X1.700000*%
%TD*%
%TA.AperFunction,ComponentPad*%
%ADD11R,1.700000X1.700000*%
%TD*%
%TA.AperFunction,SMDPad,CuDef*%
%ADD12R,1.800000X1.100000*%
%TD*%
%TA.AperFunction,ViaPad*%
%ADD13C,0.800000*%
%TD*%
%TA.AperFunction,Conductor*%
%ADD14C,0.250000*%
%TD*%
G04 APERTURE END LIST*
D10*
%TO.P,J1,26*%
%TO.N,NOT_USED_2*%
X284960000Y-97150000D03*
%TO.P,J1,25*%
%TO.N,KEY_DET*%
X284960000Y-99690000D03*
%TO.P,J1,24*%
%TO.N,LED_SINGLE*%
X287500000Y-97150000D03*
%TO.P,J1,23*%
%TO.N,LED_START*%
X287500000Y-99690000D03*
%TO.P,J1,22*%
%TO.N,LED_GEN_OVRLD*%
X290040000Y-97150000D03*
%TO.P,J1,21*%
%TO.N,LED_OUTPUT*%
X290040000Y-99690000D03*
%TO.P,J1,20*%
%TO.N,LED_REMOTE*%
X292580000Y-97150000D03*
%TO.P,J1,19*%
%TO.N,LED_DATA*%
X292580000Y-99690000D03*
%TO.P,J1,18*%
%TO.N,BTN_COL_8*%
X295120000Y-97150000D03*
%TO.P,J1,17*%
%TO.N,BTN_COL_7*%
X295120000Y-99690000D03*
%TO.P,J1,16*%
%TO.N,BTN_COL_6*%
X297660000Y-97150000D03*
%TO.P,J1,15*%
%TO.N,BTN_COL_5*%
X297660000Y-99690000D03*
%TO.P,J1,14*%
%TO.N,BTN_COL_4*%
X300200000Y-97150000D03*
%TO.P,J1,13*%
%TO.N,BTN_COL_3*%
X300200000Y-99690000D03*
%TO.P,J1,12*%
%TO.N,BTN_COL_2*%
X302740000Y-97150000D03*
%TO.P,J1,11*%
%TO.N,BTN_COL_1*%
X302740000Y-99690000D03*
%TO.P,J1,10*%
%TO.N,NOT_USED_1*%
X305280000Y-97150000D03*
%TO.P,J1,9*%
%TO.N,BTN_ROW_7*%
X305280000Y-99690000D03*
%TO.P,J1,8*%
%TO.N,BTN_ROW_6*%
X307820000Y-97150000D03*
%TO.P,J1,7*%
%TO.N,BTN_ROW_5*%
X307820000Y-99690000D03*
%TO.P,J1,6*%
%TO.N,BTN_ROW_4*%
X310360000Y-97150000D03*
%TO.P,J1,5*%
%TO.N,BTN_ROW_3*%
X310360000Y-99690000D03*
%TO.P,J1,4*%
%TO.N,BTN_ROW_2*%
X312900000Y-97150000D03*
%TO.P,J1,3*%
%TO.N,BTN_ROW_1*%
X312900000Y-99690000D03*
%TO.P,J1,2*%
%TO.N,KEY_DET*%
X315440000Y-97150000D03*
D11*
%TO.P,J1,1*%
%TO.N,LED_A*%
X315440000Y-99690000D03*
%TD*%
D12*
%TO.P,SW40,1*%
%TO.N,BTN_ROW_5*%
X179060000Y-214950000D03*
X185260000Y-214950000D03*
%TO.P,SW40,2*%
%TO.N,BTN_COL_2*%
X179060000Y-218650000D03*
X185260000Y-218650000D03*
%TD*%
%TO.P,SW41,1*%
%TO.N,BTN_ROW_5*%
X199060000Y-214970000D03*
X205260000Y-214970000D03*
%TO.P,SW41,2*%
%TO.N,BTN_COL_1*%
X199060000Y-218670000D03*
X205260000Y-218670000D03*
%TD*%
%TO.P,SW39,1*%
%TO.N,BTN_ROW_5*%
X159080000Y-215010000D03*
X165280000Y-215010000D03*
%TO.P,SW39,2*%
%TO.N,BTN_COL_3*%
X159080000Y-218710000D03*
X165280000Y-218710000D03*
%TD*%
%TO.P,SW38,1*%
%TO.N,BTN_ROW_5*%
X139000000Y-214990000D03*
X145200000Y-214990000D03*
%TO.P,SW38,2*%
%TO.N,BTN_COL_4*%
X139000000Y-218690000D03*
X145200000Y-218690000D03*
%TD*%
%TO.P,SW37,1*%
%TO.N,BTN_ROW_7*%
X119010000Y-214990000D03*
X125210000Y-214990000D03*
%TO.P,SW37,2*%
%TO.N,BTN_COL_4*%
X119010000Y-218690000D03*
X125210000Y-218690000D03*
%TD*%
%TO.P,SW36,1*%
%TO.N,BTN_ROW_7*%
X99050000Y-215000000D03*
X105250000Y-215000000D03*
%TO.P,SW36,2*%
%TO.N,BTN_COL_3*%
X99050000Y-218700000D03*
X105250000Y-218700000D03*
%TD*%
%TO.P,SW35,1*%
%TO.N,BTN_ROW_7*%
X79100000Y-215000000D03*
X85300000Y-215000000D03*
%TO.P,SW35,2*%
%TO.N,BTN_COL_2*%
X79100000Y-218700000D03*
X85300000Y-218700000D03*
%TD*%
%TO.P,SW34,1*%
%TO.N,BTN_ROW_7*%
X59030000Y-214980000D03*
X65230000Y-214980000D03*
%TO.P,SW34,2*%
%TO.N,BTN_COL_1*%
X59030000Y-218680000D03*
X65230000Y-218680000D03*
%TD*%
%TO.P,SW33,1*%
%TO.N,BTN_ROW_6*%
X332040000Y-166490000D03*
X338240000Y-166490000D03*
%TO.P,SW33,2*%
%TO.N,BTN_COL_4*%
X332040000Y-170190000D03*
X338240000Y-170190000D03*
%TD*%
%TO.P,SW32,1*%
%TO.N,BTN_ROW_6*%
X332060000Y-154510000D03*
X338260000Y-154510000D03*
%TO.P,SW32,2*%
%TO.N,BTN_COL_1*%
X332060000Y-158210000D03*
X338260000Y-158210000D03*
%TD*%
%TO.P,SW31,1*%
%TO.N,BTN_ROW_6*%
X344090000Y-160500000D03*
X350290000Y-160500000D03*
%TO.P,SW31,2*%
%TO.N,BTN_COL_5*%
X344090000Y-164200000D03*
X350290000Y-164200000D03*
%TD*%
%TO.P,SW30,1*%
%TO.N,BTN_ROW_6*%
X320050000Y-160470000D03*
X326250000Y-160470000D03*
%TO.P,SW30,2*%
%TO.N,BTN_COL_3*%
X320050000Y-164170000D03*
X326250000Y-164170000D03*
%TD*%
%TO.P,SW29,1*%
%TO.N,BTN_ROW_7*%
X283070000Y-166480000D03*
X289270000Y-166480000D03*
%TO.P,SW29,2*%
%TO.N,BTN_COL_8*%
X283070000Y-170180000D03*
X289270000Y-170180000D03*
%TD*%
%TO.P,SW28,1*%
%TO.N,BTN_ROW_7*%
X268080000Y-166490000D03*
X274280000Y-166490000D03*
%TO.P,SW28,2*%
%TO.N,BTN_COL_7*%
X268080000Y-170190000D03*
X274280000Y-170190000D03*
%TD*%
%TO.P,SW27,1*%
%TO.N,BTN_ROW_7*%
X255050000Y-166500000D03*
X261250000Y-166500000D03*
%TO.P,SW27,2*%
%TO.N,BTN_COL_6*%
X255050000Y-170200000D03*
X261250000Y-170200000D03*
%TD*%
%TO.P,SW26,1*%
%TO.N,BTN_ROW_7*%
X242090000Y-166490000D03*
X248290000Y-166490000D03*
%TO.P,SW26,2*%
%TO.N,BTN_COL_5*%
X242090000Y-170190000D03*
X248290000Y-170190000D03*
%TD*%
%TO.P,SW25,1*%
%TO.N,BTN_ROW_6*%
X303080000Y-167500000D03*
X309280000Y-167500000D03*
%TO.P,SW25,2*%
%TO.N,BTN_COL_2*%
X303080000Y-171200000D03*
X309280000Y-171200000D03*
%TD*%
%TO.P,SW24,1*%
%TO.N,BTN_ROW_4*%
X283050000Y-149500000D03*
X289250000Y-149500000D03*
%TO.P,SW24,2*%
%TO.N,BTN_COL_4*%
X283050000Y-153200000D03*
X289250000Y-153200000D03*
%TD*%
%TO.P,SW23,1*%
%TO.N,BTN_ROW_4*%
X268040000Y-149490000D03*
X274240000Y-149490000D03*
%TO.P,SW23,2*%
%TO.N,BTN_COL_3*%
X268040000Y-153190000D03*
X274240000Y-153190000D03*
%TD*%
%TO.P,SW22,1*%
%TO.N,BTN_ROW_4*%
X255050000Y-149490000D03*
X261250000Y-149490000D03*
%TO.P,SW22,2*%
%TO.N,BTN_COL_2*%
X255050000Y-153190000D03*
X261250000Y-153190000D03*
%TD*%
%TO.P,SW21,1*%
%TO.N,BTN_ROW_4*%
X242050000Y-149480000D03*
X248250000Y-149480000D03*
%TO.P,SW21,2*%
%TO.N,BTN_COL_1*%
X242050000Y-153180000D03*
X248250000Y-153180000D03*
%TD*%
%TO.P,SW20,1*%
%TO.N,BTN_ROW_5*%
X303040000Y-154500000D03*
X309240000Y-154500000D03*
%TO.P,SW20,2*%
%TO.N,BTN_COL_5*%
X303040000Y-158200000D03*
X309240000Y-158200000D03*
%TD*%
%TO.P,SW19,1*%
%TO.N,BTN_ROW_4*%
X303080000Y-140520000D03*
X309280000Y-140520000D03*
%TO.P,SW19,2*%
%TO.N,BTN_COL_5*%
X303080000Y-144220000D03*
X309280000Y-144220000D03*
%TD*%
%TO.P,SW18,1*%
%TO.N,BTN_ROW_3*%
X283060000Y-132490000D03*
X289260000Y-132490000D03*
%TO.P,SW18,2*%
%TO.N,BTN_COL_4*%
X283060000Y-136190000D03*
X289260000Y-136190000D03*
%TD*%
%TO.P,SW17,1*%
%TO.N,BTN_ROW_3*%
X268060000Y-132500000D03*
X274260000Y-132500000D03*
%TO.P,SW17,2*%
%TO.N,BTN_COL_3*%
X268060000Y-136200000D03*
X274260000Y-136200000D03*
%TD*%
%TO.P,SW16,1*%
%TO.N,BTN_ROW_3*%
X255060000Y-132490000D03*
X261260000Y-132490000D03*
%TO.P,SW16,2*%
%TO.N,BTN_COL_2*%
X255060000Y-136190000D03*
X261260000Y-136190000D03*
%TD*%
%TO.P,SW15,1*%
%TO.N,BTN_ROW_3*%
X242030000Y-132500000D03*
X248230000Y-132500000D03*
%TO.P,SW15,2*%
%TO.N,BTN_COL_1*%
X242030000Y-136200000D03*
X248230000Y-136200000D03*
%TD*%
%TO.P,SW14,1*%
%TO.N,BTN_ROW_3*%
X303010000Y-127480000D03*
X309210000Y-127480000D03*
%TO.P,SW14,2*%
%TO.N,BTN_COL_5*%
X303010000Y-131180000D03*
X309210000Y-131180000D03*
%TD*%
%TO.P,SW13,1*%
%TO.N,BTN_ROW_2*%
X303060000Y-113470000D03*
X309260000Y-113470000D03*
%TO.P,SW13,2*%
%TO.N,BTN_COL_5*%
X303060000Y-117170000D03*
X309260000Y-117170000D03*
%TD*%
%TO.P,SW12,1*%
%TO.N,BTN_ROW_2*%
X283060000Y-115490000D03*
X289260000Y-115490000D03*
%TO.P,SW12,2*%
%TO.N,BTN_COL_4*%
X283060000Y-119190000D03*
X289260000Y-119190000D03*
%TD*%
%TO.P,SW11,1*%
%TO.N,BTN_ROW_2*%
X268040000Y-115470000D03*
X274240000Y-115470000D03*
%TO.P,SW11,2*%
%TO.N,BTN_COL_3*%
X268040000Y-119170000D03*
X274240000Y-119170000D03*
%TD*%
%TO.P,SW10,1*%
%TO.N,BTN_ROW_2*%
X255040000Y-115480000D03*
X261240000Y-115480000D03*
%TO.P,SW10,2*%
%TO.N,BTN_COL_2*%
X255040000Y-119180000D03*
X261240000Y-119180000D03*
%TD*%
%TO.P,SW9,1*%
%TO.N,BTN_ROW_2*%
X242030000Y-115490000D03*
X248230000Y-115490000D03*
%TO.P,SW9,2*%
%TO.N,BTN_COL_1*%
X242030000Y-119190000D03*
X248230000Y-119190000D03*
%TD*%
%TO.P,SW8,1*%
%TO.N,BTN_ROW_4*%
X346040000Y-87490000D03*
X352240000Y-87490000D03*
%TO.P,SW8,2*%
%TO.N,BTN_COL_6*%
X346040000Y-91190000D03*
X352240000Y-91190000D03*
%TD*%
%TO.P,SW7,1*%
%TO.N,BTN_ROW_3*%
X333070000Y-87480000D03*
X339270000Y-87480000D03*
%TO.P,SW7,2*%
%TO.N,BTN_COL_6*%
X333070000Y-91180000D03*
X339270000Y-91180000D03*
%TD*%
%TO.P,SW6,1*%
%TO.N,BTN_ROW_2*%
X320050000Y-87490000D03*
X326250000Y-87490000D03*
%TO.P,SW6,2*%
%TO.N,BTN_COL_6*%
X320050000Y-91190000D03*
X326250000Y-91190000D03*
%TD*%
%TO.P,SW5,1*%
%TO.N,BTN_ROW_1*%
X307040000Y-87510000D03*
X313240000Y-87510000D03*
%TO.P,SW5,2*%
%TO.N,BTN_COL_6*%
X307040000Y-91210000D03*
X313240000Y-91210000D03*
%TD*%
%TO.P,SW4,1*%
%TO.N,BTN_ROW_1*%
X294050000Y-87500000D03*
X300250000Y-87500000D03*
%TO.P,SW4,2*%
%TO.N,BTN_COL_5*%
X294050000Y-91200000D03*
X300250000Y-91200000D03*
%TD*%
%TO.P,SW3,1*%
%TO.N,BTN_ROW_1*%
X268050000Y-87510000D03*
X274250000Y-87510000D03*
%TO.P,SW3,2*%
%TO.N,BTN_COL_3*%
X268050000Y-91210000D03*
X274250000Y-91210000D03*
%TD*%
%TO.P,SW2,1*%
%TO.N,BTN_ROW_1*%
X255040000Y-87480000D03*
X261240000Y-87480000D03*
%TO.P,SW2,2*%
%TO.N,BTN_COL_2*%
X255040000Y-91180000D03*
X261240000Y-91180000D03*
%TD*%
%TO.P,SW1,1*%
%TO.N,BTN_ROW_1*%
X242050000Y-87500000D03*
X248250000Y-87500000D03*
%TO.P,SW1,2*%
%TO.N,BTN_COL_1*%
X242050000Y-91200000D03*
X248250000Y-91200000D03*
%TD*%
%TO.P,LED_START1,2*%
%TO.N,LED_A*%
%TA.AperFunction,SMDPad,CuDef*%
G36*
G01*
X245985000Y-80975000D02*
X245985000Y-79725000D01*
G75*
G02*
X246235000Y-79475000I250000J0D01*
G01*
X246985000Y-79475000D01*
G75*
G02*
X247235000Y-79725000I0J-250000D01*
G01*
X247235000Y-80975000D01*
G75*
G02*
X246985000Y-81225000I-250000J0D01*
G01*
X246235000Y-81225000D01*
G75*
G02*
X245985000Y-80975000I0J250000D01*
G01*
G37*
%TD.AperFunction*%
%TO.P,LED_START1,1*%
%TO.N,LED_START*%
%TA.AperFunction,SMDPad,CuDef*%
G36*
G01*
X243185000Y-80975000D02*
X243185000Y-79725000D01*
G75*
G02*
X243435000Y-79475000I250000J0D01*
G01*
X244185000Y-79475000D01*
G75*
G02*
X244435000Y-79725000I0J-250000D01*
G01*
X244435000Y-80975000D01*
G75*
G02*
X244185000Y-81225000I-250000J0D01*
G01*
X243435000Y-81225000D01*
G75*
G02*
X243185000Y-80975000I0J250000D01*
G01*
G37*
%TD.AperFunction*%
%TD*%
%TO.P,LED_SINGLE1,2*%
%TO.N,LED_A*%
%TA.AperFunction,SMDPad,CuDef*%
G36*
G01*
X258975000Y-80965000D02*
X258975000Y-79715000D01*
G75*
G02*
X259225000Y-79465000I250000J0D01*
G01*
X259975000Y-79465000D01*
G75*
G02*
X260225000Y-79715000I0J-250000D01*
G01*
X260225000Y-80965000D01*
G75*
G02*
X259975000Y-81215000I-250000J0D01*
G01*
X259225000Y-81215000D01*
G75*
G02*
X258975000Y-80965000I0J250000D01*
G01*
G37*
%TD.AperFunction*%
%TO.P,LED_SINGLE1,1*%
%TO.N,LED_SINGLE*%
%TA.AperFunction,SMDPad,CuDef*%
G36*
G01*
X256175000Y-80965000D02*
X256175000Y-79715000D01*
G75*
G02*
X256425000Y-79465000I250000J0D01*
G01*
X257175000Y-79465000D01*
G75*
G02*
X257425000Y-79715000I0J-250000D01*
G01*
X257425000Y-80965000D01*
G75*
G02*
X257175000Y-81215000I-250000J0D01*
G01*
X256425000Y-81215000D01*
G75*
G02*
X256175000Y-80965000I0J250000D01*
G01*
G37*
%TD.AperFunction*%
%TD*%
%TO.P,LED_REMOTE1,2*%
%TO.N,LED_A*%
%TA.AperFunction,SMDPad,CuDef*%
G36*
G01*
X346875000Y-80975000D02*
X346875000Y-79725000D01*
G75*
G02*
X347125000Y-79475000I250000J0D01*
G01*
X347875000Y-79475000D01*
G75*
G02*
X348125000Y-79725000I0J-250000D01*
G01*
X348125000Y-80975000D01*
G75*
G02*
X347875000Y-81225000I-250000J0D01*
G01*
X347125000Y-81225000D01*
G75*
G02*
X346875000Y-80975000I0J250000D01*
G01*
G37*
%TD.AperFunction*%
%TO.P,LED_REMOTE1,1*%
%TO.N,LED_REMOTE*%
%TA.AperFunction,SMDPad,CuDef*%
G36*
G01*
X344075000Y-80975000D02*
X344075000Y-79725000D01*
G75*
G02*
X344325000Y-79475000I250000J0D01*
G01*
X345075000Y-79475000D01*
G75*
G02*
X345325000Y-79725000I0J-250000D01*
G01*
X345325000Y-80975000D01*
G75*
G02*
X345075000Y-81225000I-250000J0D01*
G01*
X344325000Y-81225000D01*
G75*
G02*
X344075000Y-80975000I0J250000D01*
G01*
G37*
%TD.AperFunction*%
%TD*%
%TO.P,LED_OUTPUT1,2*%
%TO.N,LED_A*%
%TA.AperFunction,SMDPad,CuDef*%
G36*
G01*
X333925000Y-80965000D02*
X333925000Y-79715000D01*
G75*
G02*
X334175000Y-79465000I250000J0D01*
G01*
X334925000Y-79465000D01*
G75*
G02*
X335175000Y-79715000I0J-250000D01*
G01*
X335175000Y-80965000D01*
G75*
G02*
X334925000Y-81215000I-250000J0D01*
G01*
X334175000Y-81215000D01*
G75*
G02*
X333925000Y-80965000I0J250000D01*
G01*
G37*
%TD.AperFunction*%
%TO.P,LED_OUTPUT1,1*%
%TO.N,LED_OUTPUT*%
%TA.AperFunction,SMDPad,CuDef*%
G36*
G01*
X331125000Y-80965000D02*
X331125000Y-79715000D01*
G75*
G02*
X331375000Y-79465000I250000J0D01*
G01*
X332125000Y-79465000D01*
G75*
G02*
X332375000Y-79715000I0J-250000D01*
G01*
X332375000Y-80965000D01*
G75*
G02*
X332125000Y-81215000I-250000J0D01*
G01*
X331375000Y-81215000D01*
G75*
G02*
X331125000Y-80965000I0J250000D01*
G01*
G37*
%TD.AperFunction*%
%TD*%
%TO.P,LED_GEN_OVRLD1,2*%
%TO.N,LED_A*%
%TA.AperFunction,SMDPad,CuDef*%
G36*
G01*
X248895000Y-210975000D02*
X248895000Y-209725000D01*
G75*
G02*
X249145000Y-209475000I250000J0D01*
G01*
X249895000Y-209475000D01*
G75*
G02*
X250145000Y-209725000I0J-250000D01*
G01*
X250145000Y-210975000D01*
G75*
G02*
X249895000Y-211225000I-250000J0D01*
G01*
X249145000Y-211225000D01*
G75*
G02*
X248895000Y-210975000I0J250000D01*
G01*
G37*
%TD.AperFunction*%
%TO.P,LED_GEN_OVRLD1,1*%
%TO.N,LED_GEN_OVRLD*%
%TA.AperFunction,SMDPad,CuDef*%
G36*
G01*
X246095000Y-210975000D02*
X246095000Y-209725000D01*
G75*
G02*
X246345000Y-209475000I250000J0D01*
G01*
X247095000Y-209475000D01*
G75*
G02*
X247345000Y-209725000I0J-250000D01*
G01*
X247345000Y-210975000D01*
G75*
G02*
X247095000Y-211225000I-250000J0D01*
G01*
X246345000Y-211225000D01*
G75*
G02*
X246095000Y-210975000I0J250000D01*
G01*
G37*
%TD.AperFunction*%
%TD*%
%TO.P,LED_DATA1,2*%
%TO.N,LED_A*%
%TA.AperFunction,SMDPad,CuDef*%
G36*
G01*
X245965000Y-102975000D02*
X245965000Y-101725000D01*
G75*
G02*
X246215000Y-101475000I250000J0D01*
G01*
X246965000Y-101475000D01*
G75*
G02*
X247215000Y-101725000I0J-250000D01*
G01*
X247215000Y-102975000D01*
G75*
G02*
X246965000Y-103225000I-250000J0D01*
G01*
X246215000Y-103225000D01*
G75*
G02*
X245965000Y-102975000I0J250000D01*
G01*
G37*
%TD.AperFunction*%
%TO.P,LED_DATA1,1*%
%TO.N,LED_DATA*%
%TA.AperFunction,SMDPad,CuDef*%
G36*
G01*
X243165000Y-102975000D02*
X243165000Y-101725000D01*
G75*
G02*
X243415000Y-101475000I250000J0D01*
G01*
X244165000Y-101475000D01*
G75*
G02*
X244415000Y-101725000I0J-250000D01*
G01*
X244415000Y-102975000D01*
G75*
G02*
X244165000Y-103225000I-250000J0D01*
G01*
X243415000Y-103225000D01*
G75*
G02*
X243165000Y-102975000I0J250000D01*
G01*
G37*
%TD.AperFunction*%
%TD*%
D13*
%TO.N,LED_SINGLE*%
X284460000Y-84690000D03*
%TO.N,LED_START*%
X251900000Y-89540000D03*
X243780000Y-83970000D03*
%TO.N,LED_GEN_OVRLD*%
X236120000Y-196060000D03*
X236160000Y-190960000D03*
X236110000Y-177580000D03*
X253610000Y-95070000D03*
X249820000Y-95050000D03*
X239280000Y-95040000D03*
%TO.N,LED_OUTPUT*%
X280410000Y-83240000D03*
X290060000Y-103100000D03*
%TO.N,LED_REMOTE*%
X303200000Y-93130000D03*
X303190000Y-84420000D03*
%TO.N,BTN_COL_8*%
X286300000Y-170070000D03*
X282830000Y-160030000D03*
X282850000Y-156870000D03*
X288550000Y-92810000D03*
X282850000Y-92770000D03*
X282860000Y-109040000D03*
X277460000Y-109020000D03*
X278990000Y-88480000D03*
X282830000Y-88420000D03*
%TO.N,BTN_COL_7*%
X271320000Y-170210000D03*
X268000000Y-160000000D03*
X268020000Y-156970000D03*
X268020000Y-106310000D03*
%TO.N,BTN_COL_6*%
X258140000Y-170200000D03*
X302180000Y-91240000D03*
X255110000Y-160040000D03*
X255110000Y-157080000D03*
X255110000Y-93770000D03*
%TO.N,BTN_COL_5*%
X306150000Y-158200000D03*
X306140000Y-144220000D03*
X306150000Y-131180000D03*
X306160000Y-117170000D03*
X245140000Y-170190000D03*
X323080000Y-158180000D03*
X347210000Y-164200000D03*
X297650000Y-106260000D03*
X279030000Y-91240000D03*
%TO.N,BTN_COL_4*%
X286200000Y-153200000D03*
X286200000Y-136190000D03*
X286200000Y-119190000D03*
X313980000Y-166310000D03*
X314000000Y-168850000D03*
X229110000Y-202930000D03*
X281610000Y-98330000D03*
X274410000Y-98350000D03*
X274460000Y-123420000D03*
X286200000Y-123360000D03*
%TO.N,BTN_COL_3*%
X271210000Y-153190000D03*
X271210000Y-136200000D03*
X271220000Y-119170000D03*
X271220000Y-91210000D03*
X312320000Y-161270000D03*
X315460000Y-161270000D03*
X102160000Y-218700000D03*
X180450000Y-212250000D03*
X183800000Y-212230000D03*
X200470000Y-212290000D03*
X203630000Y-212240000D03*
X162220000Y-218710000D03*
X231640000Y-202920000D03*
X231630000Y-209950000D03*
X271220000Y-107670000D03*
%TO.N,BTN_COL_2*%
X258160000Y-153190000D03*
X258190000Y-136190000D03*
X258190000Y-119180000D03*
X258190000Y-91180000D03*
X82190000Y-218700000D03*
X200470000Y-210880000D03*
X203640000Y-210880000D03*
X182230000Y-218650000D03*
X233970000Y-202970000D03*
%TO.N,BTN_COL_1*%
X245140000Y-153180000D03*
X245140000Y-136200000D03*
X245140000Y-119190000D03*
X245140000Y-91200000D03*
X62130000Y-218680000D03*
X202180000Y-218670000D03*
X223030000Y-202970000D03*
X300070000Y-172870000D03*
X295760000Y-172870000D03*
X227100000Y-172880000D03*
X223010000Y-172920000D03*
X299430000Y-110470000D03*
X245140000Y-110450000D03*
X302740000Y-110450000D03*
%TO.N,BTN_ROW_7*%
X225060000Y-154920000D03*
X234240000Y-112420000D03*
X300750000Y-109200000D03*
X305280000Y-109200000D03*
%TO.N,BTN_ROW_6*%
X326280000Y-154510000D03*
X307830000Y-94080000D03*
%TO.N,BTN_ROW_5*%
X312080000Y-154530000D03*
X227060000Y-202940000D03*
X312900000Y-129130000D03*
X307820000Y-109280000D03*
%TO.N,BTN_ROW_4*%
X315400000Y-93000000D03*
X315380000Y-89870000D03*
X349100000Y-87490000D03*
X335670000Y-104640000D03*
X316250000Y-104610000D03*
X311650000Y-104630000D03*
X299430000Y-120900000D03*
X299440000Y-140520000D03*
%TO.N,BTN_ROW_3*%
X336380000Y-96470000D03*
X336340000Y-87480000D03*
%TO.N,BTN_ROW_2*%
X317860000Y-93000000D03*
X317880000Y-89820000D03*
X309290000Y-106030000D03*
X332830000Y-106030000D03*
X337760000Y-96490000D03*
X337750000Y-93000000D03*
%TO.N,BTN_ROW_1*%
X335120000Y-96460000D03*
X310280000Y-87510000D03*
%TO.N,LED_A*%
X237740000Y-196080000D03*
X237720000Y-190990000D03*
X237720000Y-177590000D03*
X237710000Y-97190000D03*
%TD*%
D14*
%TO.N,LED_SINGLE*%
X256800000Y-84690000D02*
X256800000Y-80340000D01*
X284460000Y-84690000D02*
X256800000Y-84690000D01*
%TO.N,LED_START*%
X251890000Y-89550000D02*
X251900000Y-89540000D01*
X251890000Y-103170000D02*
X251890000Y-89550000D01*
X243780000Y-80380000D02*
X243810000Y-80350000D01*
X243780000Y-83970000D02*
X243780000Y-80380000D01*
X287500000Y-103160000D02*
X287510000Y-103170000D01*
X287500000Y-99690000D02*
X287500000Y-103160000D01*
X287510000Y-103170000D02*
X251890000Y-103170000D01*
%TO.N,LED_GEN_OVRLD*%
X246720000Y-210350000D02*
X236060000Y-210350000D01*
X236120000Y-210290000D02*
X236120000Y-196060000D01*
X236060000Y-210350000D02*
X236120000Y-210290000D01*
X236160000Y-190960000D02*
X236160000Y-177700000D01*
X236110000Y-177650000D02*
X236110000Y-177580000D01*
X236160000Y-177700000D02*
X236110000Y-177650000D01*
X253620000Y-95080000D02*
X253610000Y-95070000D01*
X239290000Y-95050000D02*
X239280000Y-95040000D01*
X249820000Y-95050000D02*
X239290000Y-95050000D01*
X289940000Y-95070000D02*
X253610000Y-95070000D01*
X290040000Y-95170000D02*
X289940000Y-95070000D01*
X290040000Y-97150000D02*
X290040000Y-95170000D01*
%TO.N,LED_OUTPUT*%
X331420000Y-80670000D02*
X331750000Y-80340000D01*
X280410000Y-80670000D02*
X331420000Y-80670000D01*
X280410000Y-82870000D02*
X280410000Y-80670000D01*
X290040000Y-103080000D02*
X290060000Y-103100000D01*
X290040000Y-99690000D02*
X290040000Y-103080000D01*
%TO.N,LED_REMOTE*%
X344700000Y-83050000D02*
X344660000Y-83090000D01*
X344700000Y-80350000D02*
X344700000Y-83050000D01*
X303390000Y-93350000D02*
X303380000Y-93340000D01*
X303190000Y-83130000D02*
X303230000Y-83090000D01*
X303190000Y-84420000D02*
X303190000Y-83130000D01*
X344660000Y-83090000D02*
X303230000Y-83090000D01*
X303200000Y-94290000D02*
X303200000Y-93130000D01*
X303170000Y-94320000D02*
X303200000Y-94290000D01*
X292670000Y-94320000D02*
X303170000Y-94320000D01*
X292580000Y-94410000D02*
X292670000Y-94320000D01*
X292580000Y-97150000D02*
X292580000Y-94410000D01*
%TO.N,LED_DATA*%
X243790000Y-104240000D02*
X243790000Y-102350000D01*
X292520000Y-104240000D02*
X243790000Y-104240000D01*
X292580000Y-104180000D02*
X292520000Y-104240000D01*
X292580000Y-99690000D02*
X292580000Y-104180000D01*
%TO.N,BTN_COL_8*%
X286190000Y-170180000D02*
X286300000Y-170070000D01*
X283070000Y-170180000D02*
X286190000Y-170180000D01*
X286190000Y-170180000D02*
X289270000Y-170180000D01*
X282830000Y-156890000D02*
X282850000Y-156870000D01*
X282830000Y-160030000D02*
X282830000Y-156890000D01*
X282890000Y-92810000D02*
X282850000Y-92770000D01*
X288550000Y-92810000D02*
X282890000Y-92810000D01*
X277480000Y-109040000D02*
X277460000Y-109020000D01*
X282860000Y-109040000D02*
X277480000Y-109040000D01*
X282760000Y-88490000D02*
X282830000Y-88420000D01*
X279360000Y-88490000D02*
X282760000Y-88490000D01*
%TO.N,BTN_COL_7*%
X271340000Y-170190000D02*
X271320000Y-170210000D01*
X271490000Y-170190000D02*
X271340000Y-170190000D01*
X268080000Y-170190000D02*
X271490000Y-170190000D01*
X271490000Y-170190000D02*
X274280000Y-170190000D01*
X268000000Y-156990000D02*
X268020000Y-156970000D01*
X268000000Y-160000000D02*
X268000000Y-156990000D01*
X295120000Y-99690000D02*
X295120000Y-106290000D01*
X295140000Y-106310000D02*
X268020000Y-106310000D01*
X295120000Y-106290000D02*
X295140000Y-106310000D01*
%TO.N,BTN_COL_6*%
X255050000Y-170200000D02*
X258140000Y-170200000D01*
X307040000Y-91210000D02*
X313240000Y-91210000D01*
X320050000Y-91190000D02*
X326250000Y-91190000D01*
X320030000Y-91210000D02*
X320050000Y-91190000D01*
X313240000Y-91210000D02*
X320030000Y-91210000D01*
X333060000Y-91190000D02*
X333070000Y-91180000D01*
X326250000Y-91190000D02*
X333060000Y-91190000D01*
X333070000Y-91180000D02*
X339270000Y-91180000D01*
X346030000Y-91180000D02*
X346040000Y-91190000D01*
X339270000Y-91180000D02*
X346030000Y-91180000D01*
X346040000Y-91190000D02*
X352240000Y-91190000D01*
X258140000Y-170200000D02*
X261250000Y-170200000D01*
X307030000Y-91220000D02*
X307040000Y-91210000D01*
X255110000Y-160040000D02*
X255110000Y-157080000D01*
X302180000Y-91240000D02*
X302180000Y-89540000D01*
X303290000Y-91240000D02*
X303310000Y-91220000D01*
X302180000Y-91240000D02*
X303290000Y-91240000D01*
X303310000Y-91220000D02*
X307030000Y-91220000D01*
X302680000Y-91220000D02*
X303310000Y-91220000D01*
X277930000Y-93780000D02*
X277920000Y-93770000D01*
X277920000Y-93770000D02*
X255110000Y-93770000D01*
X277930000Y-89470000D02*
X277930000Y-93780000D01*
X302110000Y-89470000D02*
X277930000Y-89470000D01*
X302180000Y-89540000D02*
X302110000Y-89470000D01*
%TO.N,BTN_COL_5*%
X242090000Y-170190000D02*
X245140000Y-170190000D01*
X303040000Y-158200000D02*
X306150000Y-158200000D01*
X294050000Y-91200000D02*
X300250000Y-91200000D01*
X306150000Y-158200000D02*
X309240000Y-158200000D01*
X306140000Y-144220000D02*
X309280000Y-144220000D01*
X303080000Y-144220000D02*
X306140000Y-144220000D01*
X306150000Y-131180000D02*
X309210000Y-131180000D01*
X303010000Y-131180000D02*
X306150000Y-131180000D01*
X306160000Y-117170000D02*
X309260000Y-117170000D01*
X303060000Y-117170000D02*
X306160000Y-117170000D01*
X245140000Y-170190000D02*
X248290000Y-170190000D01*
X323060000Y-158200000D02*
X323080000Y-158180000D01*
X309240000Y-158200000D02*
X323060000Y-158200000D01*
X347210000Y-164200000D02*
X344090000Y-164200000D01*
X350290000Y-164200000D02*
X347210000Y-164200000D01*
X297620000Y-99730000D02*
X297660000Y-99690000D01*
X291460000Y-91200000D02*
X291450000Y-91210000D01*
X297660000Y-106250000D02*
X297650000Y-106260000D01*
X297660000Y-99690000D02*
X297660000Y-106250000D01*
X279050000Y-91220000D02*
X279030000Y-91240000D01*
X291440000Y-91220000D02*
X279050000Y-91220000D01*
X291460000Y-91200000D02*
X291440000Y-91220000D01*
X291480000Y-91220000D02*
X291460000Y-91200000D01*
X294030000Y-91220000D02*
X291480000Y-91220000D01*
X294050000Y-91200000D02*
X294030000Y-91220000D01*
%TO.N,BTN_COL_4*%
X125210000Y-218690000D02*
X139000000Y-218690000D01*
X139000000Y-218690000D02*
X145200000Y-218690000D01*
X119010000Y-218690000D02*
X125210000Y-218690000D01*
X332040000Y-170190000D02*
X338240000Y-170190000D01*
X283050000Y-153200000D02*
X286200000Y-153200000D01*
X286200000Y-153200000D02*
X289250000Y-153200000D01*
X286200000Y-136190000D02*
X289260000Y-136190000D01*
X283060000Y-136190000D02*
X286200000Y-136190000D01*
X286200000Y-119190000D02*
X289260000Y-119190000D01*
X283060000Y-119190000D02*
X286200000Y-119190000D01*
X289250000Y-153200000D02*
X289250000Y-159900000D01*
X289250000Y-159900000D02*
X313970000Y-159900000D01*
X313980000Y-159910000D02*
X313980000Y-166310000D01*
X313970000Y-159900000D02*
X313980000Y-159910000D01*
X314000000Y-170190000D02*
X332040000Y-170190000D01*
X314000000Y-168850000D02*
X314000000Y-170190000D01*
X145200000Y-218690000D02*
X145200000Y-216920000D01*
X145340000Y-216780000D02*
X210060000Y-216780000D01*
X145200000Y-216920000D02*
X145340000Y-216780000D01*
X210060000Y-216780000D02*
X210050000Y-216770000D01*
X210050000Y-216770000D02*
X210050000Y-213940000D01*
X210050000Y-213940000D02*
X210070000Y-213920000D01*
X229110000Y-210776410D02*
X229120000Y-210786410D01*
X229110000Y-202930000D02*
X229110000Y-210776410D01*
X220830000Y-213920000D02*
X220990000Y-213920000D01*
X210070000Y-213920000D02*
X220830000Y-213920000D01*
X229110000Y-213910000D02*
X229110000Y-210776410D01*
X229120000Y-213920000D02*
X229110000Y-213910000D01*
X220830000Y-213920000D02*
X229120000Y-213920000D01*
X274430000Y-98330000D02*
X274410000Y-98350000D01*
X281610000Y-98330000D02*
X274430000Y-98330000D01*
X286140000Y-123420000D02*
X286200000Y-123360000D01*
X274460000Y-123420000D02*
X286140000Y-123420000D01*
%TO.N,BTN_COL_3*%
X99050000Y-218700000D02*
X102160000Y-218700000D01*
X165280000Y-218710000D02*
X162220000Y-218710000D01*
X326250000Y-164170000D02*
X320050000Y-164170000D01*
X268040000Y-153190000D02*
X271210000Y-153190000D01*
X271210000Y-153190000D02*
X274240000Y-153190000D01*
X271210000Y-136200000D02*
X274260000Y-136200000D01*
X268060000Y-136200000D02*
X271210000Y-136200000D01*
X271220000Y-119170000D02*
X274240000Y-119170000D01*
X268040000Y-119170000D02*
X271220000Y-119170000D01*
X271220000Y-91210000D02*
X274250000Y-91210000D01*
X268050000Y-91210000D02*
X271220000Y-91210000D01*
X274240000Y-153190000D02*
X274240000Y-161050000D01*
X274460000Y-161270000D02*
X312320000Y-161270000D01*
X274240000Y-161050000D02*
X274460000Y-161270000D01*
X315460000Y-161270000D02*
X315460000Y-164120000D01*
X315510000Y-164170000D02*
X320050000Y-164170000D01*
X315460000Y-164120000D02*
X315510000Y-164170000D01*
X102160000Y-218700000D02*
X105250000Y-218700000D01*
X183780000Y-212250000D02*
X183800000Y-212230000D01*
X180450000Y-212250000D02*
X183780000Y-212250000D01*
X203580000Y-212290000D02*
X203630000Y-212240000D01*
X200470000Y-212290000D02*
X203580000Y-212290000D01*
X162220000Y-218710000D02*
X159080000Y-218710000D01*
X231640000Y-209940000D02*
X231630000Y-209950000D01*
X231640000Y-202920000D02*
X231640000Y-209940000D01*
X271270000Y-107720000D02*
X271220000Y-107670000D01*
X300200000Y-99690000D02*
X300200000Y-107720000D01*
X300200000Y-107720000D02*
X271270000Y-107720000D01*
%TO.N,BTN_COL_2*%
X79100000Y-218700000D02*
X82190000Y-218700000D01*
X185260000Y-218650000D02*
X182230000Y-218650000D01*
X255050000Y-153190000D02*
X258160000Y-153190000D01*
X303080000Y-171200000D02*
X309280000Y-171200000D01*
X258160000Y-153190000D02*
X261250000Y-153190000D01*
X258190000Y-136190000D02*
X261260000Y-136190000D01*
X255060000Y-136190000D02*
X258190000Y-136190000D01*
X258190000Y-119180000D02*
X261240000Y-119180000D01*
X255040000Y-119180000D02*
X258190000Y-119180000D01*
X258190000Y-91180000D02*
X261240000Y-91180000D01*
X255040000Y-91180000D02*
X258190000Y-91180000D01*
X298090000Y-171200000D02*
X303080000Y-171200000D01*
X298090000Y-163250000D02*
X298090000Y-171200000D01*
X297880000Y-163040000D02*
X298090000Y-163250000D01*
X261330000Y-163040000D02*
X297880000Y-163040000D01*
X261250000Y-162960000D02*
X261330000Y-163040000D01*
X261250000Y-153190000D02*
X261250000Y-162960000D01*
X82190000Y-218700000D02*
X85300000Y-218700000D01*
X200470000Y-210880000D02*
X203640000Y-210880000D01*
X182230000Y-218650000D02*
X179060000Y-218650000D01*
X298090000Y-184920000D02*
X298090000Y-171200000D01*
X298070000Y-184940000D02*
X298090000Y-184920000D01*
X240920000Y-184940000D02*
X298070000Y-184940000D01*
X240920000Y-192920000D02*
X240920000Y-184940000D01*
X233980000Y-192920000D02*
X240920000Y-192920000D01*
X233970000Y-192930000D02*
X233980000Y-192920000D01*
X233970000Y-202970000D02*
X233970000Y-192930000D01*
%TO.N,BTN_COL_1*%
X59030000Y-218680000D02*
X62130000Y-218680000D01*
X205260000Y-218670000D02*
X202180000Y-218670000D01*
X242050000Y-153180000D02*
X245140000Y-153180000D01*
X245140000Y-153180000D02*
X248250000Y-153180000D01*
X245140000Y-136200000D02*
X248230000Y-136200000D01*
X242030000Y-136200000D02*
X245140000Y-136200000D01*
X245140000Y-119190000D02*
X248230000Y-119190000D01*
X242030000Y-119190000D02*
X245140000Y-119190000D01*
X245140000Y-91200000D02*
X248250000Y-91200000D01*
X242050000Y-91200000D02*
X245140000Y-91200000D01*
X62130000Y-218680000D02*
X65230000Y-218680000D01*
X202180000Y-218670000D02*
X199060000Y-218670000D01*
X242050000Y-153180000D02*
X222920000Y-153180000D01*
X222920000Y-153180000D02*
X223010000Y-153270000D01*
X223020000Y-202960000D02*
X223030000Y-202970000D01*
X223010000Y-202960000D02*
X223020000Y-202960000D01*
X335140000Y-158210000D02*
X335140000Y-164680000D01*
X332060000Y-158210000D02*
X335140000Y-158210000D01*
X335140000Y-158210000D02*
X338260000Y-158210000D01*
X335140000Y-164680000D02*
X335160000Y-164700000D01*
X335160000Y-164700000D02*
X340980000Y-164700000D01*
X340980000Y-164700000D02*
X341000000Y-164720000D01*
X341000000Y-164720000D02*
X341000000Y-172920000D01*
X300120000Y-172920000D02*
X300070000Y-172870000D01*
X341000000Y-172920000D02*
X300120000Y-172920000D01*
X227110000Y-172870000D02*
X227100000Y-172880000D01*
X295760000Y-172870000D02*
X227110000Y-172870000D01*
X223010000Y-172920000D02*
X223010000Y-202960000D01*
X223010000Y-153270000D02*
X223010000Y-172920000D01*
X245160000Y-110470000D02*
X245140000Y-110450000D01*
X299430000Y-110470000D02*
X245160000Y-110470000D01*
X302740000Y-99690000D02*
X302740000Y-110450000D01*
%TO.N,BTN_ROW_7*%
X59030000Y-214980000D02*
X65230000Y-214980000D01*
X79080000Y-214980000D02*
X79100000Y-215000000D01*
X65230000Y-214980000D02*
X79080000Y-214980000D01*
X79100000Y-215000000D02*
X85300000Y-215000000D01*
X85300000Y-215000000D02*
X99050000Y-215000000D01*
X99050000Y-215000000D02*
X105250000Y-215000000D01*
X119000000Y-215000000D02*
X119010000Y-214990000D01*
X105250000Y-215000000D02*
X119000000Y-215000000D01*
X119010000Y-214990000D02*
X125210000Y-214990000D01*
X242090000Y-166490000D02*
X248290000Y-166490000D01*
X255040000Y-166490000D02*
X255050000Y-166500000D01*
X248290000Y-166490000D02*
X255040000Y-166490000D01*
X255050000Y-166500000D02*
X261250000Y-166500000D01*
X268070000Y-166500000D02*
X268080000Y-166490000D01*
X261250000Y-166500000D02*
X268070000Y-166500000D01*
X268080000Y-166490000D02*
X274280000Y-166490000D01*
X283060000Y-166490000D02*
X283070000Y-166480000D01*
X274280000Y-166490000D02*
X283060000Y-166490000D01*
X283070000Y-166480000D02*
X289270000Y-166480000D01*
X131820000Y-214980000D02*
X131810000Y-214990000D01*
X131820000Y-209790000D02*
X131820000Y-214980000D01*
X131810000Y-214990000D02*
X125210000Y-214990000D01*
X225080000Y-209790000D02*
X131820000Y-209790000D01*
X225090000Y-209780000D02*
X225080000Y-209790000D01*
X225090000Y-166490000D02*
X225090000Y-209780000D01*
X242090000Y-166490000D02*
X225090000Y-166490000D01*
X225090000Y-154950000D02*
X225060000Y-154920000D01*
X225090000Y-166490000D02*
X225090000Y-154950000D01*
X234240000Y-112420000D02*
X300710000Y-112420000D01*
X300710000Y-112420000D02*
X300750000Y-112380000D01*
X300750000Y-112380000D02*
X300750000Y-109200000D01*
X305280000Y-99690000D02*
X305280000Y-109200000D01*
%TO.N,BTN_ROW_6*%
X320050000Y-160470000D02*
X326250000Y-160470000D01*
X326250000Y-160470000D02*
X326250000Y-154540000D01*
X326280000Y-154510000D02*
X332060000Y-154510000D01*
X326250000Y-154540000D02*
X326280000Y-154510000D01*
X332060000Y-154510000D02*
X338260000Y-154510000D01*
X344090000Y-160500000D02*
X350290000Y-160500000D01*
X344090000Y-160500000D02*
X344090000Y-154610000D01*
X343990000Y-154510000D02*
X338260000Y-154510000D01*
X344090000Y-154610000D02*
X343990000Y-154510000D01*
X332040000Y-166490000D02*
X338240000Y-166490000D01*
X332040000Y-166490000D02*
X332040000Y-160490000D01*
X332020000Y-160470000D02*
X326250000Y-160470000D01*
X332040000Y-160490000D02*
X332020000Y-160470000D01*
X303080000Y-167500000D02*
X309280000Y-167500000D01*
X332040000Y-167500000D02*
X332040000Y-166490000D01*
X309280000Y-167500000D02*
X332040000Y-167500000D01*
X307820000Y-94090000D02*
X307830000Y-94080000D01*
X307820000Y-97150000D02*
X307820000Y-94090000D01*
%TO.N,BTN_ROW_5*%
X139000000Y-214990000D02*
X145200000Y-214990000D01*
X159060000Y-214990000D02*
X159080000Y-215010000D01*
X145200000Y-214990000D02*
X159060000Y-214990000D01*
X159080000Y-215010000D02*
X165280000Y-215010000D01*
X179000000Y-215010000D02*
X179060000Y-214950000D01*
X165280000Y-215010000D02*
X179000000Y-215010000D01*
X179060000Y-214950000D02*
X185260000Y-214950000D01*
X199040000Y-214950000D02*
X199060000Y-214970000D01*
X185260000Y-214950000D02*
X199040000Y-214950000D01*
X199060000Y-214970000D02*
X205260000Y-214970000D01*
X303040000Y-154500000D02*
X309240000Y-154500000D01*
X205260000Y-214970000D02*
X207990000Y-214970000D01*
X207990000Y-214970000D02*
X208020000Y-214940000D01*
X208020000Y-214940000D02*
X208020000Y-212300000D01*
X208020000Y-212300000D02*
X208090000Y-212230000D01*
X312050000Y-154500000D02*
X312080000Y-154530000D01*
X309240000Y-154500000D02*
X312050000Y-154500000D01*
X227060000Y-202940000D02*
X227060000Y-212190000D01*
X227020000Y-212230000D02*
X220540000Y-212230000D01*
X227060000Y-212190000D02*
X227020000Y-212230000D01*
X220540000Y-212230000D02*
X220980000Y-212230000D01*
X208090000Y-212230000D02*
X220540000Y-212230000D01*
X312900000Y-129130000D02*
X312900000Y-154520000D01*
X312890000Y-154530000D02*
X312080000Y-154530000D01*
X312900000Y-154520000D02*
X312890000Y-154530000D01*
X307820000Y-99690000D02*
X307820000Y-109280000D01*
%TO.N,BTN_ROW_4*%
X242050000Y-149480000D02*
X248250000Y-149480000D01*
X255040000Y-149480000D02*
X255050000Y-149490000D01*
X248250000Y-149480000D02*
X255040000Y-149480000D01*
X255050000Y-149490000D02*
X261250000Y-149490000D01*
X261250000Y-149490000D02*
X268040000Y-149490000D01*
X268040000Y-149490000D02*
X274240000Y-149490000D01*
X283040000Y-149490000D02*
X283050000Y-149500000D01*
X274240000Y-149490000D02*
X283040000Y-149490000D01*
X283050000Y-149500000D02*
X289250000Y-149500000D01*
X303080000Y-140520000D02*
X309280000Y-140520000D01*
X289250000Y-149500000D02*
X289250000Y-140520000D01*
X352240000Y-87490000D02*
X349100000Y-87490000D01*
X315360000Y-93040000D02*
X315400000Y-93000000D01*
X315430000Y-86070000D02*
X346040000Y-86070000D01*
X346040000Y-86070000D02*
X346040000Y-87490000D01*
X315380000Y-86120000D02*
X315430000Y-86070000D01*
X315380000Y-89870000D02*
X315380000Y-86120000D01*
X349100000Y-87490000D02*
X345230000Y-87490000D01*
X316280000Y-104640000D02*
X316250000Y-104610000D01*
X335670000Y-104640000D02*
X316280000Y-104640000D01*
X311650000Y-105130000D02*
X311650000Y-120990000D01*
X311650000Y-120990000D02*
X311560000Y-120900000D01*
X311560000Y-120900000D02*
X299430000Y-120900000D01*
X299440000Y-140520000D02*
X303080000Y-140520000D01*
X289250000Y-140520000D02*
X299440000Y-140520000D01*
X311650000Y-105130000D02*
X311650000Y-104630000D01*
X310360000Y-97150000D02*
X310360000Y-93040000D01*
X310400000Y-93000000D02*
X315400000Y-93000000D01*
X310360000Y-93040000D02*
X310400000Y-93000000D01*
%TO.N,BTN_ROW_3*%
X242030000Y-132500000D02*
X248230000Y-132500000D01*
X255050000Y-132500000D02*
X255060000Y-132490000D01*
X248230000Y-132500000D02*
X255050000Y-132500000D01*
X255060000Y-132490000D02*
X261260000Y-132490000D01*
X268050000Y-132490000D02*
X268060000Y-132500000D01*
X261260000Y-132490000D02*
X268050000Y-132490000D01*
X268060000Y-132500000D02*
X274260000Y-132500000D01*
X283050000Y-132500000D02*
X283060000Y-132490000D01*
X274260000Y-132500000D02*
X283050000Y-132500000D01*
X283060000Y-132490000D02*
X289260000Y-132490000D01*
X303010000Y-127480000D02*
X309210000Y-127480000D01*
X289260000Y-132490000D02*
X289260000Y-127520000D01*
X289300000Y-127480000D02*
X303010000Y-127480000D01*
X289260000Y-127520000D02*
X289300000Y-127480000D01*
X336340000Y-87480000D02*
X333070000Y-87480000D01*
X339270000Y-87480000D02*
X336340000Y-87480000D01*
X336350000Y-96500000D02*
X336380000Y-96470000D01*
X336350000Y-103320000D02*
X336350000Y-96500000D01*
X315360000Y-103320000D02*
X336350000Y-103320000D01*
X309220000Y-127490000D02*
X309210000Y-127480000D01*
X314670000Y-127490000D02*
X309220000Y-127490000D01*
X314670000Y-103320000D02*
X314670000Y-127490000D01*
X315360000Y-103320000D02*
X314670000Y-103320000D01*
X310360000Y-99690000D02*
X310360000Y-103300000D01*
X310380000Y-103320000D02*
X314670000Y-103320000D01*
X310360000Y-103300000D02*
X310380000Y-103320000D01*
%TO.N,BTN_ROW_2*%
X242030000Y-115490000D02*
X248230000Y-115490000D01*
X255030000Y-115490000D02*
X255040000Y-115480000D01*
X248230000Y-115490000D02*
X255030000Y-115490000D01*
X255040000Y-115480000D02*
X261240000Y-115480000D01*
X268030000Y-115480000D02*
X268040000Y-115470000D01*
X261240000Y-115480000D02*
X268030000Y-115480000D01*
X268040000Y-115470000D02*
X274240000Y-115470000D01*
X283040000Y-115470000D02*
X283060000Y-115490000D01*
X274240000Y-115470000D02*
X283040000Y-115470000D01*
X283060000Y-115490000D02*
X289260000Y-115490000D01*
X289260000Y-115490000D02*
X289260000Y-113480000D01*
X303050000Y-113480000D02*
X303060000Y-113470000D01*
X289260000Y-113480000D02*
X303050000Y-113480000D01*
X303060000Y-113470000D02*
X309260000Y-113470000D01*
X326250000Y-87490000D02*
X320050000Y-87490000D01*
X317900000Y-93040000D02*
X317860000Y-93000000D01*
X317880000Y-89820000D02*
X317880000Y-87470000D01*
X320030000Y-87470000D02*
X320050000Y-87490000D01*
X317880000Y-87470000D02*
X320030000Y-87470000D01*
X337750000Y-93000000D02*
X317860000Y-93000000D01*
X309260000Y-106060000D02*
X309290000Y-106030000D01*
X309260000Y-106430000D02*
X309260000Y-106060000D01*
X309260000Y-113470000D02*
X309260000Y-106430000D01*
X309260000Y-106430000D02*
X309260000Y-106230000D01*
X337630000Y-106030000D02*
X337760000Y-105900000D01*
X332830000Y-106030000D02*
X337630000Y-106030000D01*
X337760000Y-105900000D02*
X337760000Y-96490000D01*
X312900000Y-97150000D02*
X312900000Y-94070000D01*
X312900000Y-94070000D02*
X317910000Y-94070000D01*
X317910000Y-93050000D02*
X317860000Y-93000000D01*
X317910000Y-94070000D02*
X317910000Y-93050000D01*
%TO.N,BTN_ROW_1*%
X242050000Y-87500000D02*
X248250000Y-87500000D01*
X255020000Y-87500000D02*
X255040000Y-87480000D01*
X248250000Y-87500000D02*
X255020000Y-87500000D01*
X255040000Y-87480000D02*
X261240000Y-87480000D01*
X268020000Y-87480000D02*
X268050000Y-87510000D01*
X261240000Y-87480000D02*
X268020000Y-87480000D01*
X268050000Y-87510000D02*
X274250000Y-87510000D01*
X294040000Y-87510000D02*
X294050000Y-87500000D01*
X274250000Y-87510000D02*
X294040000Y-87510000D01*
X294050000Y-87500000D02*
X300250000Y-87500000D01*
X307030000Y-87500000D02*
X307040000Y-87510000D01*
X300250000Y-87500000D02*
X307030000Y-87500000D01*
X310280000Y-87510000D02*
X313240000Y-87510000D01*
X307040000Y-87510000D02*
X310280000Y-87510000D01*
X335120000Y-102050000D02*
X335120000Y-96460000D01*
X335100000Y-102030000D02*
X335120000Y-102050000D01*
X312900000Y-99690000D02*
X312900000Y-101990000D01*
X312940000Y-102030000D02*
X335100000Y-102030000D01*
X312900000Y-101990000D02*
X312940000Y-102030000D01*
%TO.N,LED_A*%
X246610000Y-80350000D02*
X246610000Y-78510000D01*
X246610000Y-78510000D02*
X259610000Y-78510000D01*
X259610000Y-80330000D02*
X259600000Y-80340000D01*
X259610000Y-78510000D02*
X259610000Y-80330000D01*
X325070000Y-99590000D02*
X325070000Y-95050000D01*
X325070000Y-95050000D02*
X354980000Y-95050000D01*
X354980000Y-95050000D02*
X354980000Y-80380000D01*
X354950000Y-80350000D02*
X347500000Y-80350000D01*
X354980000Y-80380000D02*
X354950000Y-80350000D01*
X334550000Y-78500000D02*
X334570000Y-78480000D01*
X334550000Y-80340000D02*
X334550000Y-78500000D01*
X347500000Y-78480000D02*
X347500000Y-80350000D01*
X334570000Y-78480000D02*
X347500000Y-78480000D01*
X249520000Y-210350000D02*
X249520000Y-207060000D01*
X249520000Y-207060000D02*
X249470000Y-207010000D01*
X249470000Y-207010000D02*
X237740000Y-207010000D01*
X237740000Y-207010000D02*
X237740000Y-196080000D01*
X237720000Y-190990000D02*
X237720000Y-177590000D01*
X237750000Y-97150000D02*
X237710000Y-97190000D01*
X246570000Y-97150000D02*
X237750000Y-97150000D01*
X238430000Y-78510000D02*
X246610000Y-78510000D01*
X238310000Y-78510000D02*
X238430000Y-78510000D01*
X286640000Y-78480000D02*
X334570000Y-78480000D01*
X286640000Y-79540000D02*
X286640000Y-78480000D01*
X281370000Y-79540000D02*
X286640000Y-79540000D01*
X281370000Y-78530000D02*
X281370000Y-79540000D01*
X259630000Y-78530000D02*
X281370000Y-78530000D01*
X259610000Y-78510000D02*
X259630000Y-78530000D01*
X237790000Y-78510000D02*
X238430000Y-78510000D01*
X237710000Y-78590000D02*
X237790000Y-78510000D01*
X237710000Y-97190000D02*
X237710000Y-78590000D01*
X246590000Y-97170000D02*
X246570000Y-97150000D01*
X246590000Y-102350000D02*
X246590000Y-97170000D01*
X324970000Y-99690000D02*
X325070000Y-99590000D01*
X315440000Y-99690000D02*
X324970000Y-99690000D01*
%TD*%
M02*
