%TF.GenerationSoftware,KiCad,Pcbnew,(5.1.8)-1*%
%TF.CreationDate,2021-02-13T15:24:23+01:00*%
%TF.ProjectId,UPL_Keyboard,55504c5f-4b65-4796-926f-6172642e6b69,2*%
%TF.SameCoordinates,Original*%
%TF.FileFunction,Paste,Top*%
%TF.FilePolarity,Positive*%
%FSLAX46Y46*%
G04 Gerber Fmt 4.6, Leading zero omitted, Abs format (unit mm)*
G04 Created by KiCad (PCBNEW (5.1.8)-1) date 2021-02-13 15:24:23*
%MOMM*%
%LPD*%
G01*
G04 APERTURE LIST*
%ADD10R,1.800000X1.100000*%
G04 APERTURE END LIST*
D10*
%TO.C,SW40*%
X179060000Y-214950000D03*
X185260000Y-214950000D03*
X179060000Y-218650000D03*
X185260000Y-218650000D03*
%TD*%
%TO.C,SW41*%
X199060000Y-214970000D03*
X205260000Y-214970000D03*
X199060000Y-218670000D03*
X205260000Y-218670000D03*
%TD*%
%TO.C,SW39*%
X159080000Y-215010000D03*
X165280000Y-215010000D03*
X159080000Y-218710000D03*
X165280000Y-218710000D03*
%TD*%
%TO.C,SW38*%
X139000000Y-214990000D03*
X145200000Y-214990000D03*
X139000000Y-218690000D03*
X145200000Y-218690000D03*
%TD*%
%TO.C,SW37*%
X119010000Y-214990000D03*
X125210000Y-214990000D03*
X119010000Y-218690000D03*
X125210000Y-218690000D03*
%TD*%
%TO.C,SW36*%
X99050000Y-215000000D03*
X105250000Y-215000000D03*
X99050000Y-218700000D03*
X105250000Y-218700000D03*
%TD*%
%TO.C,SW35*%
X79100000Y-215000000D03*
X85300000Y-215000000D03*
X79100000Y-218700000D03*
X85300000Y-218700000D03*
%TD*%
%TO.C,SW34*%
X59030000Y-214980000D03*
X65230000Y-214980000D03*
X59030000Y-218680000D03*
X65230000Y-218680000D03*
%TD*%
%TO.C,SW33*%
X332040000Y-166490000D03*
X338240000Y-166490000D03*
X332040000Y-170190000D03*
X338240000Y-170190000D03*
%TD*%
%TO.C,SW32*%
X332060000Y-154510000D03*
X338260000Y-154510000D03*
X332060000Y-158210000D03*
X338260000Y-158210000D03*
%TD*%
%TO.C,SW31*%
X344090000Y-160500000D03*
X350290000Y-160500000D03*
X344090000Y-164200000D03*
X350290000Y-164200000D03*
%TD*%
%TO.C,SW30*%
X320050000Y-160470000D03*
X326250000Y-160470000D03*
X320050000Y-164170000D03*
X326250000Y-164170000D03*
%TD*%
%TO.C,SW29*%
X283070000Y-166480000D03*
X289270000Y-166480000D03*
X283070000Y-170180000D03*
X289270000Y-170180000D03*
%TD*%
%TO.C,SW28*%
X268080000Y-166490000D03*
X274280000Y-166490000D03*
X268080000Y-170190000D03*
X274280000Y-170190000D03*
%TD*%
%TO.C,SW27*%
X255050000Y-166500000D03*
X261250000Y-166500000D03*
X255050000Y-170200000D03*
X261250000Y-170200000D03*
%TD*%
%TO.C,SW26*%
X242090000Y-166490000D03*
X248290000Y-166490000D03*
X242090000Y-170190000D03*
X248290000Y-170190000D03*
%TD*%
%TO.C,SW25*%
X303080000Y-167500000D03*
X309280000Y-167500000D03*
X303080000Y-171200000D03*
X309280000Y-171200000D03*
%TD*%
%TO.C,SW24*%
X283050000Y-149500000D03*
X289250000Y-149500000D03*
X283050000Y-153200000D03*
X289250000Y-153200000D03*
%TD*%
%TO.C,SW23*%
X268040000Y-149490000D03*
X274240000Y-149490000D03*
X268040000Y-153190000D03*
X274240000Y-153190000D03*
%TD*%
%TO.C,SW22*%
X255050000Y-149490000D03*
X261250000Y-149490000D03*
X255050000Y-153190000D03*
X261250000Y-153190000D03*
%TD*%
%TO.C,SW21*%
X242050000Y-149480000D03*
X248250000Y-149480000D03*
X242050000Y-153180000D03*
X248250000Y-153180000D03*
%TD*%
%TO.C,SW20*%
X303040000Y-154500000D03*
X309240000Y-154500000D03*
X303040000Y-158200000D03*
X309240000Y-158200000D03*
%TD*%
%TO.C,SW19*%
X303080000Y-140520000D03*
X309280000Y-140520000D03*
X303080000Y-144220000D03*
X309280000Y-144220000D03*
%TD*%
%TO.C,SW18*%
X283060000Y-132490000D03*
X289260000Y-132490000D03*
X283060000Y-136190000D03*
X289260000Y-136190000D03*
%TD*%
%TO.C,SW17*%
X268060000Y-132500000D03*
X274260000Y-132500000D03*
X268060000Y-136200000D03*
X274260000Y-136200000D03*
%TD*%
%TO.C,SW16*%
X255060000Y-132490000D03*
X261260000Y-132490000D03*
X255060000Y-136190000D03*
X261260000Y-136190000D03*
%TD*%
%TO.C,SW15*%
X242030000Y-132500000D03*
X248230000Y-132500000D03*
X242030000Y-136200000D03*
X248230000Y-136200000D03*
%TD*%
%TO.C,SW14*%
X303010000Y-127480000D03*
X309210000Y-127480000D03*
X303010000Y-131180000D03*
X309210000Y-131180000D03*
%TD*%
%TO.C,SW13*%
X303060000Y-113470000D03*
X309260000Y-113470000D03*
X303060000Y-117170000D03*
X309260000Y-117170000D03*
%TD*%
%TO.C,SW12*%
X283060000Y-115490000D03*
X289260000Y-115490000D03*
X283060000Y-119190000D03*
X289260000Y-119190000D03*
%TD*%
%TO.C,SW11*%
X268040000Y-115470000D03*
X274240000Y-115470000D03*
X268040000Y-119170000D03*
X274240000Y-119170000D03*
%TD*%
%TO.C,SW10*%
X255040000Y-115480000D03*
X261240000Y-115480000D03*
X255040000Y-119180000D03*
X261240000Y-119180000D03*
%TD*%
%TO.C,SW9*%
X242030000Y-115490000D03*
X248230000Y-115490000D03*
X242030000Y-119190000D03*
X248230000Y-119190000D03*
%TD*%
%TO.C,SW8*%
X346040000Y-87490000D03*
X352240000Y-87490000D03*
X346040000Y-91190000D03*
X352240000Y-91190000D03*
%TD*%
%TO.C,SW7*%
X333070000Y-87480000D03*
X339270000Y-87480000D03*
X333070000Y-91180000D03*
X339270000Y-91180000D03*
%TD*%
%TO.C,SW6*%
X320050000Y-87490000D03*
X326250000Y-87490000D03*
X320050000Y-91190000D03*
X326250000Y-91190000D03*
%TD*%
%TO.C,SW5*%
X307040000Y-87510000D03*
X313240000Y-87510000D03*
X307040000Y-91210000D03*
X313240000Y-91210000D03*
%TD*%
%TO.C,SW4*%
X294050000Y-87500000D03*
X300250000Y-87500000D03*
X294050000Y-91200000D03*
X300250000Y-91200000D03*
%TD*%
%TO.C,SW3*%
X268050000Y-87510000D03*
X274250000Y-87510000D03*
X268050000Y-91210000D03*
X274250000Y-91210000D03*
%TD*%
%TO.C,SW2*%
X255040000Y-87480000D03*
X261240000Y-87480000D03*
X255040000Y-91180000D03*
X261240000Y-91180000D03*
%TD*%
%TO.C,SW1*%
X242050000Y-87500000D03*
X248250000Y-87500000D03*
X242050000Y-91200000D03*
X248250000Y-91200000D03*
%TD*%
%TO.C,LED_START1*%
G36*
G01*
X245985000Y-80975000D02*
X245985000Y-79725000D01*
G75*
G02*
X246235000Y-79475000I250000J0D01*
G01*
X246985000Y-79475000D01*
G75*
G02*
X247235000Y-79725000I0J-250000D01*
G01*
X247235000Y-80975000D01*
G75*
G02*
X246985000Y-81225000I-250000J0D01*
G01*
X246235000Y-81225000D01*
G75*
G02*
X245985000Y-80975000I0J250000D01*
G01*
G37*
G36*
G01*
X243185000Y-80975000D02*
X243185000Y-79725000D01*
G75*
G02*
X243435000Y-79475000I250000J0D01*
G01*
X244185000Y-79475000D01*
G75*
G02*
X244435000Y-79725000I0J-250000D01*
G01*
X244435000Y-80975000D01*
G75*
G02*
X244185000Y-81225000I-250000J0D01*
G01*
X243435000Y-81225000D01*
G75*
G02*
X243185000Y-80975000I0J250000D01*
G01*
G37*
%TD*%
%TO.C,LED_SINGLE1*%
G36*
G01*
X258975000Y-80965000D02*
X258975000Y-79715000D01*
G75*
G02*
X259225000Y-79465000I250000J0D01*
G01*
X259975000Y-79465000D01*
G75*
G02*
X260225000Y-79715000I0J-250000D01*
G01*
X260225000Y-80965000D01*
G75*
G02*
X259975000Y-81215000I-250000J0D01*
G01*
X259225000Y-81215000D01*
G75*
G02*
X258975000Y-80965000I0J250000D01*
G01*
G37*
G36*
G01*
X256175000Y-80965000D02*
X256175000Y-79715000D01*
G75*
G02*
X256425000Y-79465000I250000J0D01*
G01*
X257175000Y-79465000D01*
G75*
G02*
X257425000Y-79715000I0J-250000D01*
G01*
X257425000Y-80965000D01*
G75*
G02*
X257175000Y-81215000I-250000J0D01*
G01*
X256425000Y-81215000D01*
G75*
G02*
X256175000Y-80965000I0J250000D01*
G01*
G37*
%TD*%
%TO.C,LED_REMOTE1*%
G36*
G01*
X346875000Y-80975000D02*
X346875000Y-79725000D01*
G75*
G02*
X347125000Y-79475000I250000J0D01*
G01*
X347875000Y-79475000D01*
G75*
G02*
X348125000Y-79725000I0J-250000D01*
G01*
X348125000Y-80975000D01*
G75*
G02*
X347875000Y-81225000I-250000J0D01*
G01*
X347125000Y-81225000D01*
G75*
G02*
X346875000Y-80975000I0J250000D01*
G01*
G37*
G36*
G01*
X344075000Y-80975000D02*
X344075000Y-79725000D01*
G75*
G02*
X344325000Y-79475000I250000J0D01*
G01*
X345075000Y-79475000D01*
G75*
G02*
X345325000Y-79725000I0J-250000D01*
G01*
X345325000Y-80975000D01*
G75*
G02*
X345075000Y-81225000I-250000J0D01*
G01*
X344325000Y-81225000D01*
G75*
G02*
X344075000Y-80975000I0J250000D01*
G01*
G37*
%TD*%
%TO.C,LED_OUTPUT1*%
G36*
G01*
X333925000Y-80965000D02*
X333925000Y-79715000D01*
G75*
G02*
X334175000Y-79465000I250000J0D01*
G01*
X334925000Y-79465000D01*
G75*
G02*
X335175000Y-79715000I0J-250000D01*
G01*
X335175000Y-80965000D01*
G75*
G02*
X334925000Y-81215000I-250000J0D01*
G01*
X334175000Y-81215000D01*
G75*
G02*
X333925000Y-80965000I0J250000D01*
G01*
G37*
G36*
G01*
X331125000Y-80965000D02*
X331125000Y-79715000D01*
G75*
G02*
X331375000Y-79465000I250000J0D01*
G01*
X332125000Y-79465000D01*
G75*
G02*
X332375000Y-79715000I0J-250000D01*
G01*
X332375000Y-80965000D01*
G75*
G02*
X332125000Y-81215000I-250000J0D01*
G01*
X331375000Y-81215000D01*
G75*
G02*
X331125000Y-80965000I0J250000D01*
G01*
G37*
%TD*%
%TO.C,LED_GEN_OVRLD1*%
G36*
G01*
X248895000Y-210975000D02*
X248895000Y-209725000D01*
G75*
G02*
X249145000Y-209475000I250000J0D01*
G01*
X249895000Y-209475000D01*
G75*
G02*
X250145000Y-209725000I0J-250000D01*
G01*
X250145000Y-210975000D01*
G75*
G02*
X249895000Y-211225000I-250000J0D01*
G01*
X249145000Y-211225000D01*
G75*
G02*
X248895000Y-210975000I0J250000D01*
G01*
G37*
G36*
G01*
X246095000Y-210975000D02*
X246095000Y-209725000D01*
G75*
G02*
X246345000Y-209475000I250000J0D01*
G01*
X247095000Y-209475000D01*
G75*
G02*
X247345000Y-209725000I0J-250000D01*
G01*
X247345000Y-210975000D01*
G75*
G02*
X247095000Y-211225000I-250000J0D01*
G01*
X246345000Y-211225000D01*
G75*
G02*
X246095000Y-210975000I0J250000D01*
G01*
G37*
%TD*%
%TO.C,LED_DATA1*%
G36*
G01*
X245965000Y-102975000D02*
X245965000Y-101725000D01*
G75*
G02*
X246215000Y-101475000I250000J0D01*
G01*
X246965000Y-101475000D01*
G75*
G02*
X247215000Y-101725000I0J-250000D01*
G01*
X247215000Y-102975000D01*
G75*
G02*
X246965000Y-103225000I-250000J0D01*
G01*
X246215000Y-103225000D01*
G75*
G02*
X245965000Y-102975000I0J250000D01*
G01*
G37*
G36*
G01*
X243165000Y-102975000D02*
X243165000Y-101725000D01*
G75*
G02*
X243415000Y-101475000I250000J0D01*
G01*
X244165000Y-101475000D01*
G75*
G02*
X244415000Y-101725000I0J-250000D01*
G01*
X244415000Y-102975000D01*
G75*
G02*
X244165000Y-103225000I-250000J0D01*
G01*
X243415000Y-103225000D01*
G75*
G02*
X243165000Y-102975000I0J250000D01*
G01*
G37*
%TD*%
M02*
