%TF.GenerationSoftware,KiCad,Pcbnew,(5.1.8)-1*%
%TF.CreationDate,2021-02-13T15:24:23+01:00*%
%TF.ProjectId,UPL_Keyboard,55504c5f-4b65-4796-926f-6172642e6b69,2*%
%TF.SameCoordinates,Original*%
%TF.FileFunction,Copper,L2,Bot*%
%TF.FilePolarity,Positive*%
%FSLAX46Y46*%
G04 Gerber Fmt 4.6, Leading zero omitted, Abs format (unit mm)*
G04 Created by KiCad (PCBNEW (5.1.8)-1) date 2021-02-13 15:24:23*
%MOMM*%
%LPD*%
G01*
G04 APERTURE LIST*
%TA.AperFunction,ComponentPad*%
%ADD10O,1.700000X1.700000*%
%TD*%
%TA.AperFunction,ComponentPad*%
%ADD11R,1.700000X1.700000*%
%TD*%
%TA.AperFunction,ViaPad*%
%ADD12C,0.800000*%
%TD*%
%TA.AperFunction,Conductor*%
%ADD13C,0.250000*%
%TD*%
G04 APERTURE END LIST*
D10*
%TO.P,J1,26*%
%TO.N,NOT_USED_2*%
X289960000Y-97150000D03*
%TO.P,J1,25*%
%TO.N,KEY_DET*%
X289960000Y-99690000D03*
%TO.P,J1,24*%
%TO.N,LED_SINGLE*%
X292500000Y-97150000D03*
%TO.P,J1,23*%
%TO.N,LED_START*%
X292500000Y-99690000D03*
%TO.P,J1,22*%
%TO.N,LED_GEN_OVRLD*%
X295040000Y-97150000D03*
%TO.P,J1,21*%
%TO.N,LED_OUTPUT*%
X295040000Y-99690000D03*
%TO.P,J1,20*%
%TO.N,LED_REMOTE*%
X297580000Y-97150000D03*
%TO.P,J1,19*%
%TO.N,LED_DATA*%
X297580000Y-99690000D03*
%TO.P,J1,18*%
%TO.N,BTN_COL_8*%
X300120000Y-97150000D03*
%TO.P,J1,17*%
%TO.N,BTN_COL_7*%
X300120000Y-99690000D03*
%TO.P,J1,16*%
%TO.N,BTN_COL_6*%
X302660000Y-97150000D03*
%TO.P,J1,15*%
%TO.N,BTN_COL_5*%
X302660000Y-99690000D03*
%TO.P,J1,14*%
%TO.N,BTN_COL_4*%
X305200000Y-97150000D03*
%TO.P,J1,13*%
%TO.N,BTN_COL_3*%
X305200000Y-99690000D03*
%TO.P,J1,12*%
%TO.N,BTN_COL_2*%
X307740000Y-97150000D03*
%TO.P,J1,11*%
%TO.N,BTN_COL_1*%
X307740000Y-99690000D03*
%TO.P,J1,10*%
%TO.N,NOT_USED_1*%
X310280000Y-97150000D03*
%TO.P,J1,9*%
%TO.N,BTN_ROW_7*%
X310280000Y-99690000D03*
%TO.P,J1,8*%
%TO.N,BTN_ROW_6*%
X312820000Y-97150000D03*
%TO.P,J1,7*%
%TO.N,BTN_ROW_5*%
X312820000Y-99690000D03*
%TO.P,J1,6*%
%TO.N,BTN_ROW_4*%
X315360000Y-97150000D03*
%TO.P,J1,5*%
%TO.N,BTN_ROW_3*%
X315360000Y-99690000D03*
%TO.P,J1,4*%
%TO.N,BTN_ROW_2*%
X317900000Y-97150000D03*
%TO.P,J1,3*%
%TO.N,BTN_ROW_1*%
X317900000Y-99690000D03*
%TO.P,J1,2*%
%TO.N,KEY_DET*%
X320440000Y-97150000D03*
D11*
%TO.P,J1,1*%
%TO.N,LED_A*%
X320440000Y-99690000D03*
%TD*%
D12*
%TO.N,LED_SINGLE*%
X284480000Y-93980000D03*
X284460000Y-84690000D03*
%TO.N,LED_START*%
X251900000Y-89540000D03*
X243780000Y-83970000D03*
%TO.N,LED_GEN_OVRLD*%
X236120000Y-196060000D03*
X236160000Y-190960000D03*
X236110000Y-177580000D03*
X288610000Y-95100000D03*
X253610000Y-95070000D03*
X249820000Y-95050000D03*
X239280000Y-95040000D03*
%TO.N,LED_OUTPUT*%
X295040000Y-103130000D03*
X295060000Y-105300000D03*
X280430000Y-105300000D03*
X280410000Y-83240000D03*
%TO.N,LED_REMOTE*%
X297590000Y-85140000D03*
%TO.N,BTN_COL_8*%
X286300000Y-170070000D03*
X282830000Y-160030000D03*
X282850000Y-156870000D03*
X295070000Y-92790000D03*
X288550000Y-92810000D03*
X282850000Y-92770000D03*
%TO.N,BTN_COL_7*%
X271320000Y-170210000D03*
X268000000Y-160000000D03*
X268020000Y-156970000D03*
X268020000Y-106310000D03*
%TO.N,BTN_COL_6*%
X258140000Y-170200000D03*
X302680000Y-91220000D03*
X255110000Y-160040000D03*
X255110000Y-157080000D03*
X255110000Y-93770000D03*
%TO.N,BTN_COL_5*%
X306150000Y-158200000D03*
X306140000Y-144220000D03*
X306150000Y-131180000D03*
X306160000Y-117170000D03*
X245140000Y-170190000D03*
X323080000Y-158180000D03*
X347210000Y-164200000D03*
X302620000Y-111690000D03*
X287370000Y-91210000D03*
%TO.N,BTN_COL_4*%
X286200000Y-153200000D03*
X286200000Y-136190000D03*
X286200000Y-119190000D03*
X313980000Y-166310000D03*
X314000000Y-168850000D03*
X229110000Y-202930000D03*
%TO.N,BTN_COL_3*%
X271210000Y-153190000D03*
X271210000Y-136200000D03*
X271220000Y-119170000D03*
X271220000Y-91210000D03*
X312320000Y-161270000D03*
X315460000Y-161270000D03*
X102160000Y-218700000D03*
X180450000Y-212250000D03*
X183800000Y-212230000D03*
X200470000Y-212290000D03*
X203630000Y-212240000D03*
X162220000Y-218710000D03*
X231640000Y-202920000D03*
X231630000Y-209950000D03*
X305220000Y-107750000D03*
X300760000Y-107720000D03*
X271220000Y-107670000D03*
%TO.N,BTN_COL_2*%
X258160000Y-153190000D03*
X258190000Y-136190000D03*
X258190000Y-119180000D03*
X258190000Y-91180000D03*
X82190000Y-218700000D03*
X200470000Y-210880000D03*
X203640000Y-210880000D03*
X182230000Y-218650000D03*
X233970000Y-202970000D03*
%TO.N,BTN_COL_1*%
X245140000Y-153180000D03*
X245140000Y-136200000D03*
X245140000Y-119190000D03*
X245140000Y-91200000D03*
X62130000Y-218680000D03*
X202180000Y-218670000D03*
X223030000Y-202970000D03*
X300070000Y-172870000D03*
X295760000Y-172870000D03*
X227100000Y-172880000D03*
X223010000Y-172920000D03*
X307740000Y-110450000D03*
X299430000Y-110470000D03*
X245140000Y-110450000D03*
%TO.N,BTN_ROW_7*%
X225060000Y-154920000D03*
X310360000Y-109200000D03*
X234240000Y-112420000D03*
X300750000Y-109200000D03*
%TO.N,BTN_ROW_6*%
X326280000Y-154510000D03*
%TO.N,BTN_ROW_5*%
X312080000Y-154530000D03*
X227060000Y-202940000D03*
X312870000Y-125720000D03*
X312900000Y-129130000D03*
%TO.N,BTN_ROW_4*%
X315400000Y-93000000D03*
X315380000Y-89870000D03*
X349100000Y-87490000D03*
X335670000Y-104640000D03*
X316250000Y-104610000D03*
X311650000Y-104630000D03*
X299430000Y-120900000D03*
X299440000Y-140520000D03*
%TO.N,BTN_ROW_3*%
X336380000Y-96470000D03*
X336340000Y-87480000D03*
%TO.N,BTN_ROW_2*%
X317860000Y-93000000D03*
X317880000Y-89820000D03*
X309290000Y-106030000D03*
X332830000Y-106030000D03*
X337760000Y-96490000D03*
X337750000Y-93000000D03*
%TO.N,BTN_ROW_1*%
X335120000Y-96460000D03*
X310280000Y-87510000D03*
%TO.N,LED_A*%
X237740000Y-196080000D03*
X237720000Y-190990000D03*
X237720000Y-177590000D03*
X237710000Y-97190000D03*
%TD*%
D13*
%TO.N,KEY_DET*%
X320440000Y-97150000D02*
X322830000Y-97150000D01*
X322830000Y-97150000D02*
X322850000Y-97170000D01*
X322850000Y-97170000D02*
X322850000Y-99565002D01*
X289960000Y-102020000D02*
X289960000Y-99690000D01*
X322850000Y-102020000D02*
X289960000Y-102020000D01*
X322850000Y-99565002D02*
X322850000Y-102020000D01*
%TO.N,LED_SINGLE*%
X284480000Y-84710000D02*
X284460000Y-84690000D01*
X284480000Y-93980000D02*
X284480000Y-84710000D01*
%TO.N,LED_START*%
X251900000Y-89540000D02*
X251900000Y-84030000D01*
X251840000Y-83970000D02*
X243780000Y-83970000D01*
X251900000Y-84030000D02*
X251840000Y-83970000D01*
%TO.N,LED_GEN_OVRLD*%
X236120000Y-191000000D02*
X236160000Y-190960000D01*
X236120000Y-196060000D02*
X236120000Y-191000000D01*
X295040000Y-95100000D02*
X288610000Y-95100000D01*
X295050000Y-95090000D02*
X295040000Y-95100000D01*
X249840000Y-95070000D02*
X249820000Y-95050000D01*
X253610000Y-95070000D02*
X249840000Y-95070000D01*
X239280000Y-95040000D02*
X236150000Y-95040000D01*
X236150000Y-95040000D02*
X236120000Y-95070000D01*
X295040000Y-95100000D02*
X295040000Y-97150000D01*
X236110000Y-95080000D02*
X236150000Y-95040000D01*
X236110000Y-177580000D02*
X236110000Y-95080000D01*
%TO.N,LED_OUTPUT*%
X295040000Y-105280000D02*
X295060000Y-105300000D01*
X295040000Y-103130000D02*
X295040000Y-105280000D01*
X280430000Y-82890000D02*
X280410000Y-82870000D01*
X280430000Y-105300000D02*
X280430000Y-82890000D01*
%TO.N,LED_REMOTE*%
X297580000Y-85150000D02*
X297590000Y-85140000D01*
X297580000Y-97150000D02*
X297580000Y-85150000D01*
%TO.N,BTN_COL_8*%
X286300000Y-170070000D02*
X283160000Y-170070000D01*
X282830000Y-169740000D02*
X282830000Y-160030000D01*
X283160000Y-170070000D02*
X282830000Y-169740000D01*
X288570000Y-92790000D02*
X288550000Y-92810000D01*
X295070000Y-92790000D02*
X288570000Y-92790000D01*
X282850000Y-93310000D02*
X282850000Y-92770000D01*
X282850000Y-156870000D02*
X282850000Y-93310000D01*
X282850000Y-93310000D02*
X282850000Y-93140000D01*
%TO.N,BTN_COL_7*%
X271320000Y-170210000D02*
X267960000Y-170210000D01*
X267960000Y-160040000D02*
X268000000Y-160000000D01*
X267960000Y-170210000D02*
X267960000Y-160040000D01*
X268020000Y-156970000D02*
X268020000Y-106310000D01*
%TO.N,BTN_COL_6*%
X302660000Y-91240000D02*
X302680000Y-91220000D01*
X302660000Y-97150000D02*
X302660000Y-91240000D01*
X258140000Y-170200000D02*
X255100000Y-170200000D01*
X255100000Y-160050000D02*
X255110000Y-160040000D01*
X255100000Y-170200000D02*
X255100000Y-160050000D01*
X255110000Y-157080000D02*
X255110000Y-93770000D01*
%TO.N,BTN_COL_5*%
X306150000Y-144230000D02*
X306140000Y-144220000D01*
X306150000Y-158200000D02*
X306150000Y-144230000D01*
X306140000Y-131190000D02*
X306150000Y-131180000D01*
X306140000Y-144220000D02*
X306140000Y-131190000D01*
X306150000Y-117180000D02*
X306160000Y-117170000D01*
X306150000Y-131180000D02*
X306150000Y-117180000D01*
X245140000Y-170190000D02*
X245140000Y-158420000D01*
X245360000Y-158200000D02*
X306150000Y-158200000D01*
X245140000Y-158420000D02*
X245360000Y-158200000D01*
X323080000Y-158180000D02*
X323080000Y-162380000D01*
X323080000Y-162380000D02*
X323110000Y-162410000D01*
X323110000Y-162410000D02*
X347200000Y-162410000D01*
X347210000Y-162420000D02*
X347210000Y-164200000D01*
X347200000Y-162410000D02*
X347210000Y-162420000D01*
X306160000Y-117170000D02*
X306160000Y-111720000D01*
X302650000Y-111720000D02*
X302620000Y-111690000D01*
X306160000Y-111720000D02*
X302650000Y-111720000D01*
X287370000Y-91210000D02*
X287370000Y-91210000D01*
X287380000Y-111690000D02*
X302620000Y-111690000D01*
X287370000Y-111700000D02*
X287380000Y-111690000D01*
X287370000Y-91210000D02*
X287370000Y-111700000D01*
%TO.N,BTN_COL_4*%
X286200000Y-153200000D02*
X286200000Y-136190000D01*
X286200000Y-136190000D02*
X286200000Y-119190000D01*
X313980000Y-168830000D02*
X314000000Y-168850000D01*
X313980000Y-166310000D02*
X313980000Y-168830000D01*
X286200000Y-119190000D02*
X286200000Y-90070000D01*
X272050000Y-181340000D02*
X244000000Y-181340000D01*
X314000000Y-181340000D02*
X272050000Y-181340000D01*
X314000000Y-168850000D02*
X314000000Y-181340000D01*
X244000000Y-181340000D02*
X229110000Y-181340000D01*
X229110000Y-181340000D02*
X229110000Y-202930000D01*
X286200000Y-84110000D02*
X286200000Y-90070000D01*
X305180000Y-84110000D02*
X286200000Y-84110000D01*
X305200000Y-84130000D02*
X305180000Y-84110000D01*
X305200000Y-97150000D02*
X305200000Y-84130000D01*
%TO.N,BTN_COL_3*%
X271210000Y-153190000D02*
X271210000Y-136200000D01*
X271210000Y-119180000D02*
X271220000Y-119170000D01*
X271210000Y-136200000D02*
X271210000Y-119180000D01*
X312320000Y-161270000D02*
X315460000Y-161270000D01*
X200410000Y-212230000D02*
X200470000Y-212290000D01*
X183800000Y-212230000D02*
X200410000Y-212230000D01*
X102160000Y-218700000D02*
X102160000Y-212260000D01*
X102350000Y-212260000D02*
X102360000Y-212250000D01*
X102160000Y-212260000D02*
X102350000Y-212260000D01*
X162220000Y-212290000D02*
X162180000Y-212250000D01*
X162220000Y-218710000D02*
X162220000Y-212290000D01*
X162180000Y-212250000D02*
X180450000Y-212250000D01*
X102360000Y-212250000D02*
X162180000Y-212250000D01*
X315450000Y-183030000D02*
X315460000Y-183040000D01*
X231650000Y-183030000D02*
X315450000Y-183030000D01*
X315460000Y-183040000D02*
X315460000Y-161270000D01*
X203630000Y-212240000D02*
X228070000Y-212240000D01*
X231650000Y-202930000D02*
X231640000Y-202920000D01*
X231650000Y-202960000D02*
X231650000Y-202930000D01*
X231650000Y-202960000D02*
X231650000Y-183030000D01*
X231630000Y-209950000D02*
X228100000Y-209950000D01*
X228070000Y-209980000D02*
X228070000Y-212240000D01*
X228100000Y-209950000D02*
X228070000Y-209980000D01*
X300790000Y-107750000D02*
X300760000Y-107720000D01*
X305220000Y-107750000D02*
X300790000Y-107750000D01*
X271220000Y-107670000D02*
X271220000Y-91210000D01*
X271220000Y-119170000D02*
X271220000Y-107670000D01*
%TO.N,BTN_COL_2*%
X258160000Y-136220000D02*
X258190000Y-136190000D01*
X258160000Y-153190000D02*
X258160000Y-136220000D01*
X258190000Y-136190000D02*
X258190000Y-119180000D01*
X258190000Y-119180000D02*
X258190000Y-91180000D01*
X82190000Y-218700000D02*
X82190000Y-210890000D01*
X200460000Y-210890000D02*
X200470000Y-210880000D01*
X203640000Y-210880000D02*
X221330000Y-210880000D01*
X182230000Y-211000000D02*
X182120000Y-210890000D01*
X182230000Y-218650000D02*
X182230000Y-211000000D01*
X182120000Y-210890000D02*
X200460000Y-210890000D01*
X82190000Y-210890000D02*
X182120000Y-210890000D01*
X258190000Y-81810000D02*
X258190000Y-91180000D01*
X307620000Y-81810000D02*
X258190000Y-81810000D01*
X307740000Y-81930000D02*
X307620000Y-81810000D01*
X307740000Y-97150000D02*
X307740000Y-81930000D01*
X225060000Y-210880000D02*
X225060000Y-205750000D01*
X221330000Y-210880000D02*
X225060000Y-210880000D01*
X225060000Y-205750000D02*
X225090000Y-205720000D01*
X225090000Y-205720000D02*
X233940000Y-205720000D01*
X233970000Y-205690000D02*
X233970000Y-202970000D01*
X233940000Y-205720000D02*
X233970000Y-205690000D01*
%TO.N,BTN_COL_1*%
X245140000Y-153180000D02*
X245140000Y-136200000D01*
X245140000Y-136200000D02*
X245140000Y-119190000D01*
X62130000Y-218680000D02*
X62130000Y-209850000D01*
X62130000Y-209850000D02*
X62180000Y-209800000D01*
X202180000Y-218670000D02*
X202180000Y-209870000D01*
X202110000Y-209800000D02*
X221490000Y-209800000D01*
X202180000Y-209870000D02*
X202110000Y-209800000D01*
X62180000Y-209800000D02*
X202110000Y-209800000D01*
X223030000Y-202970000D02*
X223030000Y-209800000D01*
X223030000Y-209800000D02*
X221490000Y-209800000D01*
X300070000Y-172870000D02*
X295760000Y-172870000D01*
X223050000Y-172880000D02*
X223010000Y-172920000D01*
X227100000Y-172880000D02*
X223050000Y-172880000D01*
X299450000Y-110450000D02*
X299430000Y-110470000D01*
X307740000Y-110450000D02*
X299450000Y-110450000D01*
X245140000Y-110450000D02*
X245140000Y-91200000D01*
X245140000Y-119190000D02*
X245140000Y-110450000D01*
%TO.N,BTN_ROW_7*%
X234200000Y-112460000D02*
X234240000Y-112420000D01*
X225060000Y-112460000D02*
X234200000Y-112460000D01*
X225060000Y-154920000D02*
X225060000Y-112460000D01*
X310360000Y-109200000D02*
X300750000Y-109200000D01*
%TO.N,BTN_ROW_6*%
X312820000Y-94080000D02*
X312820000Y-97150000D01*
X333930000Y-94080000D02*
X312820000Y-94080000D01*
X333920000Y-94090000D02*
X333930000Y-94080000D01*
X314690000Y-107310000D02*
X333920000Y-107310000D01*
X333920000Y-107310000D02*
X333920000Y-94090000D01*
X314690000Y-148790000D02*
X314690000Y-107310000D01*
X314720000Y-148820000D02*
X314690000Y-148790000D01*
X326280000Y-148820000D02*
X314720000Y-148820000D01*
X326280000Y-154510000D02*
X326280000Y-148820000D01*
%TO.N,BTN_ROW_5*%
X272660000Y-179980000D02*
X243450000Y-179980000D01*
X309180000Y-179980000D02*
X272660000Y-179980000D01*
X309180000Y-154540000D02*
X309180000Y-179980000D01*
X309190000Y-154530000D02*
X309180000Y-154540000D01*
X312080000Y-154530000D02*
X309190000Y-154530000D01*
X243450000Y-179980000D02*
X227150000Y-179980000D01*
X227150000Y-179980000D02*
X227060000Y-180070000D01*
X227060000Y-180070000D02*
X227060000Y-202940000D01*
X312870000Y-129100000D02*
X312900000Y-129130000D01*
X312870000Y-125720000D02*
X312870000Y-129100000D01*
%TO.N,BTN_ROW_4*%
X315400000Y-89890000D02*
X315380000Y-89870000D01*
X315400000Y-93000000D02*
X315400000Y-89890000D01*
X311670000Y-104610000D02*
X311650000Y-104630000D01*
X316250000Y-104610000D02*
X311670000Y-104610000D01*
X299430000Y-140510000D02*
X299440000Y-140520000D01*
X299430000Y-120900000D02*
X299430000Y-140510000D01*
X349000000Y-104640000D02*
X349100000Y-104540000D01*
X335670000Y-104640000D02*
X349000000Y-104640000D01*
X349100000Y-87490000D02*
X349100000Y-104540000D01*
%TO.N,BTN_ROW_3*%
X336380000Y-87520000D02*
X336340000Y-87480000D01*
X336380000Y-96470000D02*
X336380000Y-87520000D01*
%TO.N,BTN_ROW_2*%
X317860000Y-89840000D02*
X317880000Y-89820000D01*
X317860000Y-93000000D02*
X317860000Y-89840000D01*
X309290000Y-106030000D02*
X332830000Y-106030000D01*
X337760000Y-93010000D02*
X337750000Y-93000000D01*
X337760000Y-96490000D02*
X337760000Y-93010000D01*
%TO.N,BTN_ROW_1*%
X335120000Y-87580000D02*
X335050000Y-87510000D01*
X335120000Y-96460000D02*
X335120000Y-87580000D01*
X335050000Y-87510000D02*
X310280000Y-87510000D01*
%TO.N,LED_A*%
X237740000Y-191010000D02*
X237720000Y-190990000D01*
X237740000Y-196080000D02*
X237740000Y-191010000D01*
X237700000Y-97200000D02*
X237710000Y-97190000D01*
X237720000Y-97200000D02*
X237710000Y-97190000D01*
X237720000Y-177590000D02*
X237720000Y-97200000D01*
%TD*%
M02*
